<svg width="198" height="219" viewBox="0 0 198 219" fill="none" xmlns="http://www.w3.org/2000/svg">
<path opacity="0.5" d="M207.684 120.967C210.59 94.1942 190.769 61.9727 190.769 61.9727C190.769 61.9727 168.48 116.795 187.956 165.618C181.421 159.241 174.719 152.75 168.091 146.406C168.179 136.413 167.956 112.061 164.3 91.56C159.577 65.0493 131.507 39.6869 131.507 39.6869C131.507 39.6869 126.358 90.2144 151.359 130.565C151.353 130.558 151.346 130.551 151.338 130.545C140.529 120.445 129.474 111.323 119.083 103.364C118.144 94.4482 115.063 68.885 108.733 47.9844C100.929 22.214 70.0739 0.322701 70.0739 0.322701C70.0739 0.322701 70.939 54.53 103.483 91.8874C94.0355 85.214 85.7487 79.8366 79.516 75.9517C74.1748 68.645 62.1208 52.819 49.6962 41.0633C33.023 25.2825 0.926242 22.1206 0.926242 22.1206C0.926242 22.1206 25.5981 63.7221 67.1732 76.6807L67.173 76.7029C67.173 76.7029 74.1268 81.6806 85.8181 90.6995C48.2762 75.0235 8.58486 80.0224 8.58486 80.0224C8.58486 80.0224 34.6055 107.482 61.2197 111.58C81.1615 114.648 104.653 114.411 115.178 114.099C124.483 121.747 134.751 130.407 145.64 139.935C100.437 118.812 47.652 133.467 47.652 133.467C47.652 133.467 77.3819 156.862 104.309 157.052C124.969 157.197 148.79 153.377 158.769 151.586C165.754 157.873 172.919 164.467 180.181 171.336C129.496 157.981 77.9143 186.471 77.9143 186.471C77.9143 186.471 112.257 202.336 138.495 196.281C157.385 191.922 178.185 183.513 188.357 179.145C195.988 186.509 203.691 194.154 211.375 202.041C158.435 188.484 105.423 221.7 105.423 221.7C105.423 221.7 140.584 235.656 166.45 228.171C186.042 222.502 207.491 212.244 216.751 207.598C223.008 214.127 229.236 220.809 235.383 227.624C235.383 227.624 242.428 225.669 243.422 220.765C243.422 220.765 236.465 213.704 225.681 202.917C230.786 192.536 239.653 173.36 244.786 155.694C252.298 129.836 238.378 94.6605 238.378 94.6605C238.378 94.6605 207.601 143.652 217.248 194.504C210.9 188.184 203.751 181.106 196.217 173.707C199.237 163.596 205.51 140.997 207.684 120.967Z" fill="#4BA481"/>
</svg>
