<svg width="220" height="206" viewBox="0 0 220 206" fill="none" xmlns="http://www.w3.org/2000/svg">
<path opacity="0.5" d="M136.526 12.3261C110.307 6.17856 75.9105 21.9252 75.9105 21.9252C75.9105 21.9252 127.607 50.7295 178.44 37.3483C171.315 43.0581 164.055 48.9194 156.95 54.7239C147.043 53.419 122.845 50.6731 102.051 51.8032C75.1628 53.2602 46.5686 78.0299 46.5686 78.0299C46.5686 78.0299 96.092 89.2978 139.189 69.4008C139.181 69.4066 139.173 69.4124 139.167 69.4192C127.824 78.9172 117.423 88.7775 108.257 98.1219C99.2931 97.9673 73.545 97.9096 52.0287 101.646C25.4993 106.251 0.0109766 134.208 0.0109766 134.208C0.0109766 134.208 53.9196 139.955 94.9647 112.206C87.1897 120.77 80.8424 128.34 76.2269 134.053C68.3237 138.464 51.1468 148.499 37.9644 159.398C20.2694 174.024 13.2194 205.496 13.2194 205.496C13.2194 205.496 57.5175 186.078 75.4464 146.392L75.4683 146.395C75.4683 146.395 81.2564 140.1 91.6329 129.595C71.4985 164.947 71.623 204.951 71.623 204.951C71.623 204.951 102.049 182.471 109.36 156.555C114.836 137.136 117.462 113.791 118.436 103.305C127.161 95.0024 137.008 85.8657 147.792 76.2193C121.318 118.511 129.431 172.689 129.431 172.689C129.431 172.689 156.274 146.032 159.744 119.328C162.406 98.8404 161.517 74.7306 160.956 64.6077C168.048 58.4413 175.465 52.1334 183.168 45.7622C163.735 94.4423 185.727 149.111 185.727 149.111C185.727 149.111 205.659 116.958 202.847 90.178C200.823 70.8979 195.012 49.2278 191.915 38.5992C200.154 31.9225 208.681 25.2085 217.446 18.5432C197.538 69.4362 224.046 126.102 224.046 126.102C224.046 126.102 242.184 92.9028 237.906 66.3175C234.667 46.1809 227.1 23.6421 223.617 13.8845C230.86 8.47011 238.25 3.10267 245.764 -2.16846C245.764 -2.16846 244.682 -9.39918 239.936 -10.9827C239.936 -10.9827 232.08 -4.93837 220.059 4.45071C210.377 -1.88138 192.425 -13.0199 175.516 -20.2671C150.767 -30.8743 114.157 -21.3447 114.157 -21.3447C114.157 -21.3447 159.033 15.1731 210.681 11.7952C203.634 17.326 195.738 23.5588 187.476 30.1347C177.809 25.9053 156.142 16.9246 136.526 12.3261Z" fill="#4BA481"/>
</svg>
