<svg width="263" height="182" viewBox="0 0 263 182" fill="none" xmlns="http://www.w3.org/2000/svg">
<path opacity="0.5" d="M98.9558 173.156C123.119 185.043 160.177 177.438 160.177 177.438C160.177 177.438 116.285 137.743 63.7446 139.346C71.972 135.386 80.3636 131.307 88.5923 127.25C97.9524 130.75 120.912 138.869 141.427 142.445C167.954 147.074 201.388 129.372 201.388 129.372C201.388 129.372 155.668 107.252 109.2 116.945C109.209 116.941 109.218 116.937 109.226 116.932C122.415 110.229 134.767 102.961 145.8 95.9178C154.499 98.0849 179.575 103.933 201.38 105.133C228.265 106.614 259.389 85.107 259.389 85.107C259.389 85.107 208.155 67.3799 161.92 85.1846C171.422 78.5889 179.31 72.6411 185.092 68.113C193.785 65.593 212.779 59.6787 228.075 52.0241C248.607 41.7538 262.556 12.6741 262.556 12.6741C262.556 12.6741 215.025 21.6295 188.628 56.2652L188.608 56.2575C188.608 56.2575 181.552 61.0894 169.078 68.991C196.649 39.0747 205.527 0.0672754 205.527 0.0672754C205.527 0.0672754 170.824 15.127 157.87 38.7346C148.166 56.4243 140.355 78.5799 137.048 88.5774C126.679 94.705 115.029 101.392 102.351 108.366C137.661 73.1131 141.943 18.4991 141.943 18.4991C141.943 18.4991 109.791 38.4347 100.403 63.6729C93.2006 83.0369 88.6428 106.729 86.9127 116.718C78.6155 121.131 69.9691 125.609 61.0306 130.084C90.9158 87.0232 81.786 28.8082 81.786 28.8082C81.786 28.8082 55.1319 55.6536 51.8477 82.3801C49.4828 101.621 50.2703 124.043 50.8961 135.096C41.3666 139.748 31.5475 144.372 21.5086 148.895C52.3546 103.784 39.2732 42.6085 39.2732 42.6085C39.2732 42.6085 14.132 70.8762 12.3192 97.7423C10.946 118.092 13.2489 141.755 14.4475 152.046C6.17225 155.692 -2.23615 159.26 -10.7428 162.705C-10.7428 162.705 -11.3156 169.994 -7.04741 172.605C-7.04741 172.605 1.96741 168.483 15.7922 162.038C23.8011 170.386 38.7883 185.277 53.6333 196.143C75.3623 212.045 113.178 210.995 113.178 210.995C113.178 210.995 77.6664 165.319 26.5824 156.992C34.6921 153.188 43.7884 148.891 53.3178 144.342C61.7857 150.638 80.877 164.262 98.9558 173.156Z" fill="#4BA481"/>
</svg>
