<svg width="64" height="61" viewBox="0 0 64 61" fill="none" xmlns="http://www.w3.org/2000/svg">
<path d="M22.8569 0.976559C27.8319 1.43279 31.5291 5.84574 34.37 9.2876C35.4962 10.7 36.5259 12.1814 37.5248 13.6805C37.6307 13.838 37.7366 13.9955 37.8456 14.1577C38.1861 14.7759 38.43 15.4247 38.6739 16.0854C38.8907 16.0215 39.1076 15.9575 39.331 15.8916C43.8155 14.6337 48.7002 13.9345 53.3156 14.1336C53.4713 14.14 53.6271 14.1465 53.7875 14.1532C56.8798 14.3037 60.2152 14.821 62.3696 17.0469C63.2147 18.096 63.5217 19.2807 63.491 20.6234C62.7946 25.1557 58.4476 28.9226 54.8723 31.6607C53.5835 32.6159 52.2423 33.5031 50.9031 34.3899C50.5157 34.6466 50.1299 34.9053 49.7447 35.1652C48.781 35.8056 47.8905 36.3378 46.7861 36.7021C46.8522 36.9077 46.8522 36.9077 46.9195 37.1176C48.6883 42.7729 49.38 50.2633 47.085 56.0123C47.0319 56.1565 46.9789 56.3006 46.9242 56.4491C46.3256 57.91 45.1918 59.1879 43.7769 60.0044C42.1779 60.71 40.4851 60.5049 38.9169 59.9882C38.7679 59.9417 38.619 59.8953 38.4655 59.8474C32.2441 57.6571 27.9474 50.7579 24.904 45.5028C24.7039 45.5487 24.7039 45.5487 24.4998 45.5955C18.27 47.0099 10.8588 48.4958 4.76953 46.3779C4.60064 46.3233 4.43175 46.2687 4.25774 46.2125C2.87928 45.7249 1.46709 44.864 0.786695 43.5747C0.00188741 41.7068 0.282881 39.9195 1.07613 38.022C4.00465 32.2225 11.0416 27.3856 16.9024 24.6521C16.8603 24.5604 16.8182 24.4688 16.7748 24.3744C16.254 23.1604 16.031 21.9479 15.8434 20.6404C15.8111 20.4196 15.7788 20.1989 15.7454 19.9715C14.9959 14.6061 14.4608 7.80307 17.9627 2.99087C19.2423 1.46477 20.8773 0.862411 22.8569 0.976559Z" fill="#FEAA37"/>
</svg>
