<svg width="81" height="81" viewBox="0 0 81 81" fill="none" xmlns="http://www.w3.org/2000/svg">
<path d="M47.1927 1.64644C49.8955 3.30954 51.8444 5.5694 52.7713 8.64444C53.0061 9.78567 52.9314 10.9624 52.9284 12.123C52.9279 12.414 52.9275 12.705 52.927 13.0048C52.9058 16.3216 52.7047 19.6243 52.4912 22.9333C52.4528 23.551 52.4147 24.1687 52.3767 24.7864C52.285 26.2725 52.191 27.7583 52.0952 29.2441C52.2915 29.2047 52.4878 29.1653 52.6901 29.1247C54.0667 28.9239 55.4431 28.8573 56.8316 28.7817C57.1376 28.7645 57.4436 28.7474 57.759 28.7296C58.4062 28.6936 59.0535 28.6579 59.7007 28.6227C60.6816 28.5691 61.6623 28.5136 62.643 28.4578C63.2743 28.4229 63.9056 28.388 64.5369 28.3533C64.826 28.3368 65.1151 28.3204 65.413 28.3034C70.1492 28.05 73.6813 28.1772 77.4704 31.2853C79.318 32.9664 80.7431 35.3466 80.9213 37.8762C80.9445 38.7777 80.9587 39.6789 80.9694 40.5806C80.9792 40.8888 80.9891 41.1971 80.9993 41.5147C81.0323 44.8156 79.9327 47.386 77.7025 49.808C76.4642 51.0171 75.0549 51.7604 73.4786 52.4444C73.2557 52.5426 73.0328 52.6408 72.8031 52.742C71.4398 53.0866 70.1112 53.0487 68.7102 53.0376C68.3934 53.0363 68.0767 53.0351 67.7503 53.0339C64.1189 52.9993 60.4943 52.7989 56.8697 52.5855C56.6931 52.5753 56.5165 52.5651 56.3346 52.5546C54.9175 52.4677 53.5071 52.3289 52.0952 52.1807C52.1311 52.6717 52.1311 52.6717 52.1679 53.1727C52.9631 64.1312 52.9631 64.1312 53.0026 68.7076C53.0084 69.0005 53.0142 69.2933 53.0202 69.595C53.0119 72.9337 51.7417 75.5815 49.4965 78.0184C46.9314 80.4488 44.102 80.9676 40.7105 80.9833C40.2786 80.9915 40.2786 80.9915 39.8381 80.9998C36.2788 81.0168 33.8049 79.9722 31.1902 77.589C28.6982 75.0009 27.9767 71.7752 28.0297 68.3022C28.0942 65.886 28.2444 63.4735 28.3957 61.0614C28.4518 60.1639 28.5056 59.2662 28.5591 58.3685C28.5942 57.7934 28.6294 57.2182 28.6648 56.643C28.6807 56.3769 28.6967 56.1108 28.7131 55.8366C28.7915 54.6021 28.8897 53.3973 29.1278 52.1807C28.9277 52.1953 28.7276 52.2099 28.5214 52.2249C24.1508 52.5412 19.7813 52.8496 15.4002 52.9716C15.0005 52.983 15.0005 52.983 14.5928 52.9946C13.7785 53.0146 12.9643 53.0274 12.1498 53.0376C11.7836 53.046 11.7836 53.046 11.41 53.0547C8.07435 53.071 5.6388 51.8598 3.207 49.6432C0.414116 46.7427 -0.0679348 43.1599 0.00711801 39.3293C0.154171 35.9175 1.5188 33.2021 3.99898 30.8754C9.00203 26.7778 15.9157 28.241 21.8845 28.585C22.5635 28.6232 23.2426 28.6613 23.9217 28.6993C25.5691 28.7917 27.2165 28.8855 28.8638 28.9805C28.7944 27.4469 28.724 25.9134 28.6527 24.38C28.6286 23.8592 28.6048 23.3383 28.5813 22.8175C28.5473 22.0654 28.5123 21.3135 28.4771 20.5615C28.4669 20.3316 28.4567 20.1016 28.4462 19.8647C28.3854 18.5873 28.2803 17.3252 28.1303 16.0553C27.6758 12.0118 27.7996 8.1123 30.2828 4.72566C31.8561 2.90104 33.5044 1.71817 35.7276 0.771073C35.9553 0.673877 36.1829 0.57668 36.4175 0.476539C39.8854 -0.426221 44.0634 -0.0517958 47.1927 1.64644Z" fill="#FEAA37"/>
</svg>
