<svg width="452" height="330" viewBox="0 0 452 330" fill="none" xmlns="http://www.w3.org/2000/svg">
<path d="M249.327 29.7571C255.389 34.6361 261.058 39.7858 266.625 45.2137C268.601 47.1132 268.601 47.1132 270.618 49.051C282.95 61.698 301.22 85.056 301.22 103.605C303.795 103.672 303.795 103.672 306.422 103.739C322.87 104.348 337.442 106.852 353.112 112.192C354.597 112.666 356.082 113.14 357.612 113.628C391.354 125.522 420.464 152.947 436.383 184.491C454.378 222.592 456.923 263.896 443.491 303.789C433.234 329.96 416.595 353.843 394.092 371.157C390.545 374.879 390.545 374.879 391.626 380.368C392.188 382.513 392.75 384.658 393.329 386.868C398.894 411.142 398.827 437.024 391.166 460.824C390.685 462.396 390.203 463.967 389.707 465.587C382.99 485.652 372.451 503.472 358.301 519.215C357.064 520.625 355.826 522.036 354.551 523.489C337.142 542.106 315.041 554.413 290.841 562.15C289.655 562.549 288.469 562.947 287.246 563.358C250.001 575.018 207.136 567.322 173.218 550.128C170.485 548.423 167.774 546.68 165.11 544.869C163.219 543.771 161.328 542.673 159.38 541.541C152.302 543.585 145.9 547.399 139.38 550.772C102.452 569.397 62.2662 572.896 22.7304 560.433C5.32272 554.457 -9.74168 546.388 -23.9728 534.672C-25.4444 533.49 -26.916 532.307 -28.4323 531.089C-55.5611 508.203 -74.7639 473.707 -79.3247 438.498C-80.6619 415.264 -79.8754 392.051 -72.4057 369.802C-73.418 369.335 -74.4303 368.868 -75.4733 368.386C-103.78 353.545 -119.473 318.861 -128.608 290.253C-139.303 254.594 -133.555 212.869 -116.082 180.418C-94.3356 143.766 -64.274 120.432 -23.9728 107.04C-22.8155 106.637 -21.6583 106.234 -20.466 105.819C-14.7769 104.113 -9.05544 103.429 -3.14149 103.028C-1.87791 102.942 -0.614349 102.857 0.687515 102.768C6.30363 102.426 11.9204 102.145 17.5412 101.888C17.8054 100.118 17.8054 100.118 18.0749 98.3121C22.2771 80.7043 33.4619 65.4737 45.2171 52.0833C46.0064 51.0539 46.7958 50.0244 47.609 48.9638C94.9177 -11.6484 190.727 -13.5182 249.327 29.7571Z" fill="#C6A969"/>
</svg>
