<svg width="452" height="238" viewBox="0 0 452 238" fill="none" xmlns="http://www.w3.org/2000/svg">
<path d="M249.327 -301.243C255.389 -296.364 261.058 -291.214 266.625 -285.786C268.601 -283.887 268.601 -283.887 270.618 -281.949C282.95 -269.302 301.22 -245.944 301.22 -227.395C303.795 -227.328 303.795 -227.328 306.422 -227.261C322.87 -226.652 337.442 -224.148 353.112 -218.808C354.597 -218.334 356.082 -217.86 357.612 -217.372C391.354 -205.478 420.464 -178.053 436.383 -146.509C454.378 -108.408 456.923 -67.1039 443.491 -27.2107C433.234 -1.04016 416.595 22.8427 394.092 40.1569C390.545 43.8792 390.545 43.8792 391.626 49.3678C392.188 51.513 392.75 53.6582 393.329 55.8684C398.894 80.1421 398.827 106.024 391.166 129.824C390.685 131.396 390.203 132.967 389.707 134.587C382.99 154.652 372.451 172.472 358.301 188.215C357.064 189.625 355.826 191.036 354.551 192.489C337.142 211.106 315.041 223.413 290.841 231.15C289.655 231.549 288.469 231.947 287.246 232.358C250.001 244.018 207.136 236.322 173.218 219.128C170.485 217.423 167.774 215.68 165.11 213.869C163.219 212.771 161.328 211.673 159.38 210.541C152.302 212.585 145.9 216.399 139.38 219.772C102.452 238.397 62.2662 241.896 22.7304 229.433C5.32272 223.457 -9.74168 215.388 -23.9728 203.672C-25.4444 202.49 -26.916 201.307 -28.4323 200.089C-55.5611 177.203 -74.7639 142.707 -79.3247 107.498C-80.6619 84.2642 -79.8754 61.0509 -72.4057 38.8018C-73.418 38.3347 -74.4303 37.8675 -75.4733 37.3863C-103.78 22.5452 -119.473 -12.1394 -128.608 -40.7473C-139.303 -76.4065 -133.555 -118.131 -116.082 -150.582C-94.3356 -187.234 -64.274 -210.568 -23.9728 -223.96C-22.8155 -224.363 -21.6583 -224.766 -20.466 -225.181C-14.7769 -226.887 -9.05544 -227.571 -3.14149 -227.972C-1.87791 -228.058 -0.614349 -228.143 0.687515 -228.232C6.30363 -228.574 11.9204 -228.855 17.5412 -229.112C17.8054 -230.882 17.8054 -230.882 18.0749 -232.688C22.2771 -250.296 33.4619 -265.526 45.2171 -278.917C46.0064 -279.946 46.7958 -280.976 47.609 -282.036C94.9177 -342.648 190.727 -344.518 249.327 -301.243Z" fill="#C6A969"/>
</svg>
