<svg width="442" height="330" viewBox="0 0 442 330" fill="none" xmlns="http://www.w3.org/2000/svg">
<path d="M383.327 29.7571C389.389 34.6361 395.058 39.7858 400.625 45.2137C402.601 47.1132 402.601 47.1132 404.618 49.051C416.95 61.698 435.22 85.056 435.22 103.605C437.795 103.672 437.795 103.672 440.422 103.739C456.87 104.348 471.442 106.852 487.112 112.192C488.597 112.666 490.082 113.14 491.612 113.628C525.354 125.522 554.464 152.947 570.383 184.491C588.378 222.592 590.923 263.896 577.491 303.789C567.234 329.96 550.595 353.843 528.092 371.157C524.545 374.879 524.545 374.879 525.626 380.368C526.188 382.513 526.75 384.658 527.329 386.868C532.894 411.142 532.827 437.024 525.166 460.824C524.685 462.396 524.203 463.967 523.707 465.587C516.99 485.652 506.451 503.472 492.301 519.215C491.064 520.625 489.826 522.036 488.551 523.489C471.142 542.106 449.041 554.413 424.841 562.15C423.655 562.549 422.469 562.947 421.246 563.358C384.001 575.018 341.136 567.322 307.218 550.128C304.485 548.423 301.774 546.68 299.11 544.869C297.219 543.771 295.328 542.673 293.38 541.541C286.302 543.585 279.9 547.399 273.38 550.772C236.452 569.397 196.266 572.896 156.73 560.433C139.323 554.457 124.258 546.388 110.027 534.672C108.556 533.49 107.084 532.307 105.568 531.089C78.4389 508.203 59.2361 473.707 54.6753 438.498C53.3381 415.264 54.1246 392.051 61.5943 369.802C60.582 369.335 59.5697 368.868 58.5267 368.386C30.2202 353.545 14.5266 318.861 5.39234 290.253C-5.30304 254.594 0.444974 212.869 17.9182 180.418C39.6644 143.766 69.726 120.432 110.027 107.04C111.184 106.637 112.342 106.234 113.534 105.819C119.223 104.113 124.945 103.429 130.859 103.028C132.122 102.942 133.386 102.857 134.688 102.768C140.304 102.426 145.92 102.145 151.541 101.888C151.805 100.118 151.805 100.118 152.075 98.3121C156.277 80.7043 167.462 65.4737 179.217 52.0833C180.006 51.0539 180.796 50.0244 181.609 48.9638C228.918 -11.6484 324.727 -13.5182 383.327 29.7571Z" fill="#C6A969"/>
</svg>
