<svg width="442" height="238" viewBox="0 0 442 238" fill="none" xmlns="http://www.w3.org/2000/svg">
<path d="M383.327 -301.243C389.389 -296.364 395.058 -291.214 400.625 -285.786C402.601 -283.887 402.601 -283.887 404.618 -281.949C416.95 -269.302 435.22 -245.944 435.22 -227.395C437.795 -227.328 437.795 -227.328 440.422 -227.261C456.87 -226.652 471.442 -224.148 487.112 -218.808C488.597 -218.334 490.082 -217.86 491.612 -217.372C525.354 -205.478 554.464 -178.053 570.383 -146.509C588.378 -108.408 590.923 -67.1039 577.491 -27.2107C567.234 -1.04015 550.595 22.8427 528.092 40.1569C524.545 43.8792 524.545 43.8792 525.626 49.3678C526.188 51.513 526.75 53.6582 527.329 55.8684C532.894 80.1421 532.827 106.024 525.166 129.824C524.685 131.396 524.203 132.967 523.707 134.587C516.99 154.652 506.451 172.472 492.301 188.215C491.064 189.626 489.826 191.036 488.551 192.489C471.142 211.106 449.041 223.413 424.841 231.15C423.655 231.549 422.469 231.947 421.246 232.358C384.001 244.018 341.136 236.322 307.218 219.128C304.485 217.423 301.774 215.68 299.11 213.869C297.219 212.771 295.328 211.673 293.38 210.541C286.302 212.585 279.9 216.399 273.38 219.772C236.452 238.397 196.266 241.896 156.73 229.433C139.323 223.457 124.258 215.388 110.027 203.672C108.556 202.49 107.084 201.307 105.568 200.089C78.4389 177.203 59.2361 142.707 54.6753 107.498C53.3381 84.2642 54.1246 61.0509 61.5943 38.8018C60.582 38.3347 59.5697 37.8675 58.5267 37.3863C30.2202 22.5452 14.5266 -12.1394 5.39234 -40.7473C-5.30304 -76.4065 0.444974 -118.131 17.9182 -150.582C39.6644 -187.234 69.726 -210.568 110.027 -223.96C111.184 -224.363 112.342 -224.766 113.534 -225.181C119.223 -226.887 124.945 -227.571 130.859 -227.972C132.122 -228.058 133.386 -228.143 134.688 -228.232C140.304 -228.574 145.92 -228.855 151.541 -229.112C151.805 -230.882 151.805 -230.882 152.075 -232.688C156.277 -250.296 167.462 -265.526 179.217 -278.917C180.006 -279.946 180.796 -280.976 181.609 -282.036C228.918 -342.648 324.727 -344.518 383.327 -301.243Z" fill="#C6A969"/>
</svg>
