<svg width="110" height="128" viewBox="0 0 110 128" fill="none" xmlns="http://www.w3.org/2000/svg">
<g opacity="0.3">
<path d="M109.288 45.5253C109.044 45.1484 108.941 44.5624 108.794 44.1387C108.598 43.5739 108.228 43.0216 107.922 42.5116C107.232 41.3609 106.332 40.3228 105.396 39.3686C103.395 37.3251 100.886 36.1102 98.2638 35.0639C92.5374 32.7816 86.9162 34.1266 81.284 36.0269C78.0307 37.1242 74.922 38.6636 72.0004 40.4988C72.9691 39.5827 74.008 38.7308 75.0323 37.9337C77.65 35.8954 80.1122 33.7555 82.9374 31.9801C85.718 30.234 88.563 28.7187 91.5526 27.3737C93.1292 26.6643 94.7131 26.006 96.3219 25.3755C97.5668 24.8882 99.02 24.4616 100.137 23.7288C100.429 23.5374 100.295 23.1421 99.9697 23.1085C97.7736 22.8827 95.348 23.3021 93.1847 23.6893C90.6291 24.1459 88.129 24.8897 85.6895 25.7686C83.4356 26.5803 81.1774 27.5008 79.0141 28.5295C78.0285 28.9978 77.1087 29.6415 76.2531 30.3151C75.8805 30.6088 75.4356 30.8762 75.0009 31.1567C76.8808 29.0424 78.9067 27.1436 81.314 25.5282C84.3452 23.4942 88.346 21.61 92.0245 21.32C92.3452 21.2944 92.5652 20.8086 92.2072 20.6464C86.7913 18.1879 80.3715 19.636 75.3896 22.4027C72.7361 23.8756 70.4807 25.6984 68.3357 27.7916C70.6597 24.7253 73.2621 21.8723 76.0676 19.2363C78.0475 17.3762 80.1428 15.6177 82.2864 13.9505C84.2853 12.395 86.7284 10.8944 88.4146 9.00654C88.5856 8.81585 88.5454 8.43375 88.2502 8.38187C87.3136 8.21749 86.2784 8.45858 85.3505 8.61274C83.7841 8.87283 82.2375 9.15118 80.6988 9.54278C77.7735 10.2858 74.9856 11.4511 72.3511 12.9138C71.2281 13.537 70.1527 14.2456 69.116 15.0084C69.5616 12.9824 69.9985 10.9543 70.3755 8.91521C70.7868 6.69274 71.272 4.452 71.3238 2.18715C71.3304 1.89345 71.0221 1.77654 70.7883 1.88029C66.442 3.80468 63.1463 8.433 60.5921 12.2591C60.2495 12.7713 59.9229 13.2959 59.6014 13.8241C59.9587 12.1678 60.1377 10.448 60.3802 8.82606C60.8069 5.98551 61.0093 3.15373 61.1495 0.300019C61.1642 0.00266706 60.8106 -0.0791611 60.617 0.0793782C60.2655 0.367233 60.1779 0.734721 59.974 1.13728C59.5437 1.98915 59.1002 2.84175 58.629 3.67171C57.7852 5.15701 57.1568 6.75775 56.66 8.38771C55.7841 11.2604 55.2237 14.3881 54.8328 17.4383C54.6706 16.1583 54.5019 14.8805 54.2527 13.6071C53.8093 11.3276 53.4966 9.04306 52.7908 6.8257C52.107 4.67118 51.0608 2.49986 50.5632 0.302231C50.4975 0.0151072 50.0204 -0.0806322 49.8955 0.215259C49.2518 1.72613 48.3291 3.12961 47.6343 4.6266C46.9263 6.15209 46.3112 7.71849 45.7669 9.309C44.5994 12.7231 44.0945 16.2833 43.9287 19.8661C43.9155 20.1437 43.9112 20.4221 43.906 20.7004C43.0323 18.2478 41.6317 15.8924 40.3605 13.6706C39.212 11.6615 37.9466 9.58005 36.5131 7.7616C35.7526 6.79721 34.9467 5.87228 34.157 4.93347C33.5162 4.17146 32.896 3.17201 32.0039 2.69639C31.7219 2.54589 31.3683 2.85564 31.5517 3.14788C32.0572 3.95811 32.3458 4.87064 32.7287 5.73712C33.3818 7.21731 34.0518 8.68433 34.6713 10.1806C35.746 12.7764 36.79 15.3656 37.7172 18.0184C38.2001 19.4 38.7342 20.7706 39.2828 22.1375C38.2176 20.2321 36.9902 18.4013 35.7657 16.6003C34.3623 14.5371 33.1378 12.3797 31.8052 10.2748C30.5968 8.36726 29.3928 6.40927 28.3239 4.41766C28.1478 4.0889 27.7248 4.33583 27.7694 4.65145C28.1632 7.42917 29.2635 10.2171 30.6034 12.6727C31.1645 13.7006 31.7431 14.7132 32.3539 15.7083C31.209 14.5335 30.043 13.3821 28.9427 12.1649C28.1822 11.3225 27.5203 10.3961 26.7151 9.59319C26.2169 9.09492 25.7588 8.44763 25.0742 8.21603C24.8185 8.12909 24.5986 8.39575 24.6563 8.63393C25.1246 10.5744 25.8253 12.4842 26.3476 14.4173C26.5953 15.3349 26.87 16.2409 27.1652 17.1395C25.1568 16.7625 23.0906 16.5718 21.178 16.4067C21.0625 16.2065 20.9442 16.0086 20.8309 15.8076C19.8519 14.0615 18.8488 12.1422 17.6514 10.5444C17.3759 10.1777 16.7929 10.4889 17.0216 10.9126C17.9429 12.6149 18.6625 14.4794 19.3208 16.3644C18.1416 16.4002 16.9705 16.5412 15.7905 16.6997C14.0532 16.9342 12.0389 17.2462 10.3922 17.846C10.1262 17.9424 10.032 18.3194 10.3096 18.4743C10.7684 18.73 11.3164 18.8097 11.8125 19.0011C13.24 19.5505 14.6603 20.116 16.0601 20.7421C17.9765 21.5991 19.8979 22.448 21.8121 23.3123C22.9095 25.8723 24.2428 28.3198 25.5732 30.7724C26.26 32.0407 26.9686 33.2966 27.6985 34.5394C24.2581 31.5681 20.3195 29.2806 16.2662 27.248C12.0492 25.133 7.75617 24.0721 3.03434 24.0692C2.74356 24.0692 2.51269 24.4871 2.77497 24.6931C6.56749 27.6521 10.6216 30.3348 14.2694 33.4793C14.5434 33.7153 14.8064 33.9629 15.0731 34.2077C14.4148 34.2552 13.7624 34.3165 13.1261 34.3976C10.8707 34.6855 8.58322 35.3489 6.40897 36.0049C4.20842 36.6691 2.35051 37.8124 0.252972 38.6731C-0.17808 38.8513 -0.0231942 39.5345 0.453154 39.3949C1.39562 39.1195 2.49005 39.137 3.46174 39.0304C4.92585 38.8696 6.40604 38.7673 7.87672 38.6841C10.8634 38.5138 13.8289 38.7111 16.7798 39.1874C18.4477 39.4563 20.066 39.8216 21.6499 40.2687C22.8605 41.2996 24.0835 42.3122 25.3402 43.2861C26.984 44.5602 28.5781 45.8936 30.1942 47.1999C28.5862 47.5564 27.3449 48.6866 26.0364 49.7219C24.2282 51.1538 22.6581 52.9555 21.3993 54.8821C20.1398 56.8101 19.4939 58.9113 19.1944 61.1776C18.9643 62.9208 19.0285 65.4428 19.9111 67.0224C20.0967 67.3548 20.5372 67.1722 20.5708 66.8434C21.0486 62.1237 24.5102 58.001 28.4072 55.4848C30.4455 54.1705 32.5723 53.8344 34.9161 53.6065C35.89 53.5122 36.9522 53.6722 37.9042 53.8651C38.4149 53.9681 39.605 54.1727 40.6264 54.4539C41.555 54.9537 42.4916 55.433 43.3932 55.9261C44.3897 56.4719 45.3541 57.0578 46.3828 57.54C46.5267 57.8045 46.8058 58.0667 46.9314 58.2421C47.0732 58.4408 47.1996 58.7447 47.3654 58.988C47.0491 59.3124 46.8657 59.9173 46.9899 60.3725C46.6458 60.4609 46.3272 60.7415 46.1665 61.0308C45.8918 61.5261 45.9364 62.066 46.1767 62.5343C45.7902 62.5468 45.3614 62.8251 45.2007 63.1298C45.0582 63.3986 45.0297 63.6346 45.0202 63.9363C45.0151 64.0781 45.0502 64.222 45.0933 64.3535C45.1261 64.4514 45.1999 64.5559 45.2474 64.656C45.2357 64.6677 45.2226 64.6801 45.2102 64.6925C44.2005 65.0944 43.9849 67.0414 44.1369 67.9057C44.3904 69.3588 45.4819 70.6374 46.9 71.0136C46.8014 71.1013 46.7254 71.2218 46.6947 71.3329C46.5756 71.7661 46.7349 72.0934 47.0023 72.3557C46.6195 72.5968 46.7356 73.1272 47.0608 73.5196C46.8021 73.6898 46.6414 73.9667 46.6414 74.34C46.6414 74.6118 46.797 74.7974 47.0089 74.934C46.6392 75.4323 46.6896 76.0957 47.1828 76.4544C46.5464 76.8767 46.8313 77.3267 47.3113 77.6811C47.3077 77.6847 47.3026 77.6825 47.2989 77.6869C46.7488 78.1735 46.702 78.6973 46.9519 79.1167C46.2936 79.5864 46.5764 80.2242 47.0856 80.6619C46.7809 81.1199 46.8635 81.5196 47.1331 81.8425C46.6407 82.2049 46.6589 82.6725 46.7926 83.2737C46.8233 83.4067 46.8876 83.517 46.9665 83.6164C46.854 83.9108 46.9526 84.2155 47.1557 84.4851C46.8211 84.979 46.7846 85.5342 47.0534 85.9813C46.8803 86.4562 46.946 86.9465 47.2171 87.3271C47.2142 87.3293 47.212 87.3286 47.2098 87.3307C46.6122 87.9525 46.732 88.5837 47.1937 89.0162C47.144 89.0389 47.1009 89.0739 47.0841 89.136C46.9373 89.6497 46.9504 90.034 47.1426 90.3182C46.6282 90.7456 46.7627 91.284 47.1484 91.6829C46.7407 92.1045 46.8883 92.5465 47.2186 92.9103C47.2171 92.911 47.2127 92.9103 47.212 92.911C47.1375 92.9359 47.0717 92.9636 47.003 93.0009C46.8584 93.0769 46.7232 93.2332 46.6801 93.391C46.6407 93.5357 46.6838 93.6964 46.7678 93.8382C46.8233 94.0274 46.927 94.1589 47.071 94.259C46.8986 94.3934 46.7926 94.606 46.8445 94.8559C46.9015 95.1313 47.0038 95.3132 47.1375 95.4469C46.7313 96.301 46.8869 96.7627 47.3501 97.0857C46.9132 97.8776 46.9687 98.2437 47.3398 98.5008C46.6078 99.0415 46.5486 99.7319 47.1974 100.091C46.8803 100.605 47.0176 101.047 47.3515 101.357C47.2368 101.469 47.0206 101.783 46.9424 101.921C46.6896 102.358 47.0059 102.696 47.3238 102.938C46.8101 103.581 46.843 104.034 47.1718 104.371C47.1119 104.627 46.7897 104.812 46.9008 105.139C46.9541 105.298 47.0366 105.433 47.1331 105.557C47.125 105.562 47.1163 105.565 47.1097 105.571C46.6304 105.969 46.748 106.346 47.0688 106.648C46.523 106.835 46.5705 107.828 46.9161 108.255C47.0052 108.365 47.1199 108.457 47.2493 108.539C47.1251 108.781 46.9563 108.894 47.0235 109.29C47.0447 109.413 47.1324 109.523 47.2456 109.618C46.9387 110.034 46.8153 110.483 46.9811 110.801C46.3477 111.072 46.4434 111.728 46.8533 112.161C46.3871 112.528 46.5201 113.03 46.8993 113.384C46.8876 113.404 46.8715 113.419 46.8642 113.442C46.6867 114.022 46.7349 114.374 46.9285 114.608C46.3638 114.93 46.3287 115.565 46.6261 116.072C46.4712 116.171 46.382 116.354 46.3331 116.568C46.2717 116.834 46.3835 117.053 46.5683 117.232C45.9524 117.581 46.0299 118.517 46.4931 119.139C46.0555 119.674 46.1636 120.129 46.5033 120.499C46.4931 120.519 46.4821 120.538 46.4777 120.562C46.4281 120.803 46.1066 121.004 46.2403 121.488C46.2841 121.648 46.3718 121.783 46.4843 121.9C46.4346 121.935 46.3908 121.979 46.3689 122.044C46.2023 122.536 46.2301 122.921 46.3879 123.226C46.0766 123.751 46.187 124.199 46.4843 124.545C45.2964 126.86 48.9618 127.331 50.4062 127.255C51.1952 127.215 51.9806 127.094 52.7696 127.049C53.593 127.003 54.3901 127.254 55.1945 127.253C55.6672 127.252 56.1574 127.164 56.2633 126.788C56.2926 126.766 56.3196 126.741 56.3386 126.706C56.7441 125.979 56.5154 125.509 56.05 125.181C56.0821 125.17 56.1143 125.165 56.145 125.138C56.2246 125.073 56.3021 125.006 56.381 124.94C56.5139 124.827 56.4971 124.644 56.4365 124.503C56.3715 124.349 56.2852 124.223 56.1888 124.11C57.2336 123.513 56.7499 122.796 55.9988 122.323C56.0251 122.327 56.0515 122.331 56.0785 122.336C56.2677 122.368 56.4073 122.312 56.5198 122.156C56.7945 121.775 56.7521 121.455 56.5373 121.189C57.0093 120.634 56.6118 120.125 56.0164 119.724C56.1077 119.678 56.1808 119.597 56.2261 119.486C56.3963 119.065 56.2918 118.705 56.0478 118.4C56.5132 118.144 56.4898 117.699 56.2633 117.263C56.2779 117.253 56.2926 117.246 56.3057 117.235C56.8822 116.736 56.7236 116.262 56.3028 115.858C56.4102 115.717 56.4716 115.531 56.4716 115.348C56.4716 115.051 56.2524 114.761 55.9704 114.505C56.2589 114.221 56.0785 113.73 55.7651 113.281C55.863 113.277 55.9368 113.264 56.0602 113.222C56.2195 113.168 56.2889 113.054 56.3094 112.894C56.3605 112.506 56.2421 112.183 56.0186 111.913C56.2589 111.592 56.0821 111.21 55.7578 110.86C55.7702 110.854 55.7826 110.853 55.795 110.845C56.3992 110.437 56.1822 109.988 55.7424 109.61C56.1187 109.534 56.3802 109.329 56.3758 108.859C56.3737 108.591 56.1852 108.349 55.9207 108.135C56.0705 108.057 56.1801 107.928 56.1801 107.713C56.1801 107.37 55.9886 107.106 55.7336 106.886C56.0544 106.63 56.0697 106.241 55.8703 105.752C55.8162 105.619 55.7351 105.503 55.6416 105.395C56.2158 104.899 56.1282 104.43 55.7855 104.02C56.0449 103.653 56.0135 103.299 55.8213 102.974C56.2918 102.718 56.0851 102.222 55.6694 101.734C56.1866 101.292 56.1618 100.835 55.8878 100.419C55.8893 100.416 55.8929 100.415 55.8951 100.411C56.2465 99.8093 56.1048 99.2592 55.7592 98.7777C56.1413 98.4511 56.004 97.9945 55.6935 97.5605C55.7249 97.5299 55.7512 97.4919 55.7673 97.4407C55.8973 97.0111 55.8067 96.613 55.5941 96.2586C55.6927 96.2111 55.7585 96.0994 55.7658 95.9934C55.7972 95.5565 55.6964 95.1766 55.5115 94.8427C55.8038 94.6404 55.9711 94.305 55.9762 93.9076C55.9835 93.3501 55.8162 92.9227 55.5327 92.5618C55.5473 92.5465 55.5634 92.5355 55.5751 92.5143C55.8308 92.0964 55.8345 91.6844 55.692 91.3074C56.2589 90.6652 56.1092 90.1421 55.6876 89.7242C55.993 89.2982 55.985 88.9227 55.7899 88.6122C55.879 88.5552 55.9426 88.4588 55.9433 88.3463C55.947 87.981 55.8579 87.6719 55.7022 87.4045C55.7249 87.3877 55.7475 87.3695 55.7665 87.3454C56.0799 86.9362 56.0412 86.5943 55.8286 86.3094C55.8579 86.267 55.879 86.2195 55.8864 86.1611C55.9463 85.6606 55.8622 85.2507 55.6774 84.9088C56.2582 84.2842 56.1691 83.7516 55.7833 83.3095C56.0704 82.8631 56.0295 82.4285 55.8169 82.0456C55.8462 82.0215 55.8725 81.9901 55.8944 81.9485C56.1435 81.4597 56.0829 81.0491 55.8622 80.6977C56.3671 80.0723 56.332 79.4929 56.0208 78.999C56.0259 78.9961 56.0303 78.9954 56.0361 78.9917C56.5008 78.6374 56.4248 78.2692 56.1464 77.9397C56.8083 77.3362 56.4942 76.7305 55.9207 76.2469C55.9258 76.2418 55.9309 76.2389 55.9353 76.2337C56.0332 76.1205 56.1136 75.9963 56.1779 75.8619C56.2385 75.7515 56.2436 75.6142 56.1779 75.5039C56.0946 75.3665 55.9894 75.2423 55.8732 75.1247C56.2188 74.6761 56.2056 74.2575 55.9404 73.8703C56.2166 73.6891 56.2831 73.3245 56.2202 72.9687C56.199 72.8474 56.1494 72.7364 56.088 72.6319C56.0924 72.6268 56.0982 72.6239 56.1026 72.6188C56.3444 72.29 56.37 72.0138 56.2699 71.7793C57.4374 71.593 58.6955 69.9068 59.0484 69.1207C59.7198 67.6273 59.2332 65.9616 58.1432 64.8584C58.1461 64.8153 58.1388 64.7714 58.1198 64.7342C58.0474 64.5924 57.9496 64.4938 57.8407 64.4142C57.8772 64.3104 57.9013 64.1986 57.913 64.0971C57.9364 63.8991 58.0116 63.7354 57.9832 63.5272C57.9561 63.3212 57.8597 63.1634 57.7567 62.9873C57.5952 62.7119 57.322 62.4715 57.0224 62.3364C57.0582 62.2553 57.0896 62.1712 57.113 62.0879C57.2409 61.6262 57.1335 61.3603 56.9238 60.9409C56.7828 60.6596 56.4146 60.3864 56.0449 60.2929C56.1874 59.9758 56.1713 59.6273 56.0288 59.2854C58.3587 58.3736 60.6133 57.1754 62.8358 55.9319C63.8959 55.3635 65.3578 55.5148 66.5121 55.5572C67.9331 55.609 69.3527 55.8355 70.7598 56.0277C73.2599 56.3696 75.6862 56.8963 78.1096 57.6036C80.6192 58.3356 83.0192 59.3394 85.417 60.3718C86.5056 60.8408 87.5496 61.407 88.541 62.0573C89.68 62.8039 91.2559 63.5922 92.0472 64.7203C92.129 64.8372 92.2612 64.908 92.4074 64.8664C92.46 64.8511 92.5148 64.8357 92.5688 64.8204C92.6682 64.7919 92.7712 64.7049 92.7909 64.5983C93.0875 63.0187 91.2179 61.0257 90.2265 59.9758C88.3715 58.009 85.6676 56.2914 83.2442 55.1436C82.0921 54.5986 81.0334 53.9564 79.8338 53.5122C78.2652 52.9299 76.6557 52.4645 75.0301 52.0686C73.4623 51.6865 72.0354 51.6178 70.5362 51.628C73.8911 49.7219 77.219 47.7478 80.663 46.0324C84.929 43.9056 90.2192 42.3326 95.0156 42.2537C99.7622 42.1756 104.99 43.0808 108.844 45.9688C109.108 46.1668 109.457 45.7862 109.288 45.5253Z" fill="#A25B1D"/>
<path d="M47.6006 114.717C47.6044 114.717 47.6044 114.711 47.6006 114.711" stroke="#E5067E" stroke-linecap="round" stroke-linejoin="round"/>
<path d="M109.288 45.5254C109.044 45.1484 108.941 44.5624 108.794 44.1387C108.598 43.5739 108.228 43.0216 107.922 42.5117C107.232 41.361 106.332 40.3228 105.396 39.3686C103.395 37.3252 100.886 36.1102 98.2638 35.064C92.5374 32.7816 86.9162 34.1266 81.284 36.0269C78.0307 37.1242 74.922 38.6636 72.0004 40.4989C72.9691 39.5827 74.008 38.7308 75.0323 37.9338C77.65 35.8954 80.1122 33.7555 82.9374 31.9801C85.718 30.234 88.563 28.7188 91.5526 27.3737C93.1292 26.6643 94.7131 26.006 96.3219 25.3755C97.5668 24.8882 99.02 24.4616 100.137 23.7288C100.429 23.5374 100.295 23.1421 99.9697 23.1085C97.7736 22.8827 95.348 23.3021 93.1847 23.6893C90.6291 24.146 88.129 24.8897 85.6895 25.7686C83.4356 26.5803 81.1774 27.5009 79.0141 28.5295C78.0285 28.9978 77.1087 29.6415 76.2531 30.3151C75.8805 30.6088 75.4356 30.8762 75.0009 31.1568C76.8808 29.0424 78.9067 27.1436 81.314 25.5282C84.3452 23.4943 88.346 21.61 92.0245 21.32C92.3452 21.2944 92.5652 20.8086 92.2072 20.6464C86.7913 18.1879 80.3715 19.636 75.3896 22.4028C72.7361 23.8756 70.4807 25.6985 68.3357 27.7916C70.6597 24.7253 73.2621 21.8723 76.0676 19.2363C78.0475 17.3762 80.1428 15.6177 82.2864 13.9505C84.2853 12.3951 86.7284 10.8944 88.4146 9.00656C88.5856 8.81588 88.5454 8.43377 88.2502 8.3819C87.3136 8.21752 86.2784 8.45861 85.3505 8.61276C83.7841 8.87285 82.2375 9.15121 80.6988 9.54281C77.7735 10.2858 74.9856 11.4511 72.3511 12.9138C71.2281 13.537 70.1527 14.2457 69.116 15.0084C69.5616 12.9825 69.9985 10.9543 70.3755 8.91524C70.7868 6.69277 71.272 4.45202 71.3238 2.18718C71.3304 1.89348 71.0221 1.77657 70.7883 1.88031C66.442 3.8047 63.1463 8.43303 60.5921 12.2592C60.2495 12.7713 59.9229 13.2959 59.6014 13.8241C59.9587 12.1678 60.1377 10.448 60.3802 8.82609C60.8069 5.98553 61.0093 3.15375 61.1495 0.300045C61.1642 0.00269228 60.8106 -0.0791358 60.617 0.0794034C60.2655 0.367258 60.1779 0.734746 59.974 1.1373C59.5437 1.98918 59.1002 2.84178 58.629 3.67174C57.7852 5.15704 57.1568 6.75777 56.66 8.38773C55.7841 11.2604 55.2237 14.3881 54.8328 17.4384C54.6706 16.1584 54.5019 14.8805 54.2527 13.6071C53.8093 11.3277 53.4966 9.04309 52.7908 6.82573C52.107 4.6712 51.0608 2.49989 50.5632 0.302256C50.4975 0.0151324 50.0204 -0.080607 49.8955 0.215284C49.2518 1.72616 48.3291 3.12964 47.6343 4.62663C46.9263 6.15211 46.3112 7.71851 45.7669 9.30902C44.5994 12.7231 44.0945 16.2833 43.9287 19.8661C43.9155 20.1438 43.9112 20.4221 43.906 20.7005C43.0323 18.2479 41.6317 15.8924 40.3605 13.6707C39.212 11.6615 37.9466 9.58008 36.5131 7.76163C35.7526 6.79724 34.9467 5.87231 34.157 4.93349C33.5162 4.17148 32.896 3.17204 32.0039 2.69642C31.7219 2.54592 31.3683 2.85567 31.5517 3.1479C32.0572 3.95813 32.3458 4.87066 32.7287 5.73715C33.3818 7.21733 34.0518 8.68436 34.6713 10.1806C35.746 12.7764 36.79 15.3657 37.7172 18.0184C38.2001 19.4 38.7342 20.7706 39.2828 22.1376C38.2176 20.2322 36.9902 18.4013 35.7657 16.6004C34.3623 14.5372 33.1378 12.3797 31.8052 10.2749C30.5968 8.36728 29.3928 6.40929 28.3239 4.41769C28.1478 4.08892 27.7248 4.33586 27.7694 4.65148C28.1632 7.4292 29.2635 10.2172 30.6034 12.6727C31.1645 13.7006 31.7431 14.7132 32.3539 15.7083C31.209 14.5335 30.043 13.3821 28.9427 12.1649C28.1822 11.3225 27.5203 10.3961 26.7151 9.59322C26.2169 9.09495 25.7588 8.44765 25.0742 8.21605C24.8185 8.12911 24.5986 8.39578 24.6563 8.63395C25.1246 10.5744 25.8253 12.4842 26.3476 14.4173C26.5953 15.335 26.87 16.2409 27.1652 17.1395C25.1568 16.7626 23.0906 16.5719 21.178 16.4067C21.0625 16.2066 20.9442 16.0086 20.8309 15.8077C19.8519 14.0615 18.8488 12.1423 17.6514 10.5445C17.3759 10.1777 16.7929 10.4889 17.0216 10.9127C17.9429 12.615 18.6625 14.4795 19.3208 16.3644C18.1416 16.4002 16.9705 16.5412 15.7905 16.6997C14.0532 16.9342 12.0389 17.2462 10.3922 17.846C10.1262 17.9425 10.032 18.3195 10.3096 18.4743C10.7684 18.73 11.3164 18.8097 11.8125 19.0011C13.24 19.5505 14.6603 20.116 16.0601 20.7421C17.9765 21.5991 19.8979 22.448 21.8121 23.3123C22.9095 25.8723 24.2428 28.3198 25.5732 30.7725C26.26 32.0408 26.9686 33.2967 27.6985 34.5394C24.2581 31.5681 20.3195 29.2806 16.2662 27.2481C12.0492 25.133 7.75617 24.0722 3.03434 24.0692C2.74356 24.0692 2.51269 24.4871 2.77497 24.6932C6.56749 27.6521 10.6216 30.3348 14.2694 33.4793C14.5434 33.7153 14.8064 33.963 15.0731 34.2077C14.4148 34.2552 13.7624 34.3166 13.1261 34.3977C10.8707 34.6855 8.58322 35.3489 6.40897 36.005C4.20842 36.6691 2.35051 37.8125 0.252972 38.6731C-0.17808 38.8514 -0.0231942 39.5345 0.453154 39.3949C1.39562 39.1195 2.49005 39.137 3.46174 39.0304C4.92585 38.8696 6.40604 38.7674 7.87672 38.6841C10.8634 38.5138 13.8289 38.7111 16.7798 39.1874C18.4477 39.4563 20.066 39.8216 21.6499 40.2687C22.8605 41.2996 24.0835 42.3122 25.3402 43.2861C26.984 44.5603 28.5781 45.8936 30.1942 47.1999C28.5862 47.5564 27.3449 48.6866 26.0364 49.7219C24.2282 51.1539 22.6581 52.9555 21.3993 54.8821C20.1398 56.8101 19.4939 58.9113 19.1944 61.1776C18.9643 62.9208 19.0285 65.4429 19.9111 67.0224C20.0967 67.3548 20.5372 67.1722 20.5708 66.8434C21.0486 62.1238 24.5102 58.001 28.4072 55.4848C30.4455 54.1705 32.5723 53.8344 34.9161 53.6065C35.89 53.5122 36.9522 53.6722 37.9042 53.8651C38.4149 53.9681 39.605 54.1727 40.6264 54.454C41.555 54.9537 42.4916 55.433 43.3932 55.9261C44.3897 56.4719 45.3541 57.0578 46.3828 57.54C46.5267 57.8045 46.8058 58.0668 46.9314 58.2421C47.0403 58.3955 47.1411 58.6096 47.2565 58.8112C47.2872 58.8112 47.3179 58.8112 47.3523 58.8222C47.448 58.8551 47.5459 58.8799 47.646 58.896C48.9318 59.1035 50.1417 57.7628 51.3713 58.6286C51.4421 58.6783 51.4823 58.7448 51.4991 58.8142C51.6029 58.8441 51.7044 58.8675 51.8111 58.9099C51.9214 58.953 52.5643 59.2993 52.6009 59.5433C52.9391 59.1839 53.2723 58.9698 53.631 58.9099C53.6675 58.8938 53.707 58.8843 53.753 58.8858C53.7764 58.8865 53.7954 58.8894 53.818 58.8901C53.8297 58.8901 53.8429 58.8894 53.8553 58.8894L54.5859 58.6754C54.6882 58.5709 54.8226 58.576 54.9468 58.6286C55.2566 58.7608 55.5298 58.9303 55.7958 59.1144C55.8345 59.1181 55.8747 59.1276 55.9156 59.1502C55.9791 59.1853 56.0361 59.2211 56.096 59.2569C58.4018 58.3488 60.6345 57.1637 62.8358 55.932C63.8959 55.3636 65.3578 55.5148 66.5121 55.5572C67.9331 55.609 69.3527 55.8355 70.7598 56.0277C73.2599 56.3696 75.6862 56.8964 78.1096 57.6036C80.6192 58.3356 83.0192 59.3395 85.417 60.3718C86.5056 60.8408 87.5496 61.407 88.541 62.0573C89.68 62.8039 91.2559 63.5923 92.0472 64.7203C92.129 64.8372 92.2612 64.9081 92.4074 64.8664C92.46 64.8511 92.5148 64.8357 92.5688 64.8204C92.6682 64.7919 92.7712 64.705 92.7909 64.5983C93.0875 63.0187 91.2179 61.0257 90.2265 59.9758C88.3715 58.0091 85.6676 56.2914 83.2442 55.1437C82.0921 54.5986 81.0334 53.9564 79.8338 53.5122C78.2652 52.93 76.6557 52.4646 75.0301 52.0686C73.4623 51.6865 72.0354 51.6178 70.5362 51.628C73.8911 49.7219 77.219 47.7478 80.663 46.0324C84.929 43.9056 90.2192 42.3327 95.0156 42.2538C99.7622 42.1756 104.99 43.0808 108.844 45.9688C109.108 46.1668 109.457 45.7862 109.288 45.5254Z" fill="#5D892D"/>
<path d="M47.6006 114.717C47.6044 114.717 47.6044 114.711 47.6006 114.711Z" fill="#5D892D"/>
<path d="M108.837 44.9548C108.695 44.7246 108.551 44.5004 108.407 44.2761C108.437 44.2242 108.449 44.1621 108.431 44.0949C107.81 41.9009 105.383 39.4512 103.609 38.1456C101.709 36.7487 99.5853 35.6923 97.2854 35.1926C94.7532 33.9856 91.6927 33.8191 88.9208 34.2596C85.5031 34.8032 82.0868 35.6521 78.957 37.1542C75.8461 38.6468 72.7016 40.3952 69.8559 42.34C68.5722 43.2174 67.1885 44.1044 66.021 45.1279C65.4796 45.6014 64.8857 46.009 64.3436 46.4817C63.9483 46.828 63.583 47.3307 63.1564 47.6909C63.2009 47.6017 63.2491 47.5148 63.2937 47.4257C63.3485 47.4206 63.4004 47.3964 63.4325 47.3424C64.2763 45.9375 64.9733 44.4346 65.7427 42.9771C66.07 42.492 66.4009 42.0098 66.7173 41.5203C67.2835 40.6472 67.9242 39.826 68.5065 38.9639C68.7892 38.5453 69.0932 38.1369 69.3963 37.7329C69.6623 37.3778 69.8238 36.9709 70.0276 36.5851C70.0502 36.5734 70.0729 36.5595 70.0933 36.5391C71.3091 35.3219 72.2464 33.7409 73.2079 32.2439C73.4614 31.9743 73.7149 31.712 73.9633 31.4665C74.7772 30.6636 75.4713 29.7686 76.3327 29.0008C77.327 28.1138 78.4579 27.3949 79.5071 26.5759C80.47 25.8234 81.3233 24.862 82.3944 24.2687C83.2799 23.7785 84.2106 23.4329 85.1239 23.0143C86.2753 22.4875 87.4845 22.1346 88.6571 21.6612C89.4425 21.3441 90.3447 21.3434 91.1038 20.9511C91.2813 20.859 91.255 20.6106 91.1038 20.5127C90.3082 19.9969 88.9529 19.853 88.0339 19.7339C86.6165 19.5491 85.1458 19.5476 83.7329 19.788C80.416 20.352 77.3036 21.9089 74.4506 23.6375C71.6108 25.3588 69.1319 27.3401 67.0336 29.9228C66.1576 31.0019 65.446 32.1781 64.6029 33.2667C64.1441 33.8622 63.7459 34.5087 63.2871 35.1042C64.1324 32.7049 64.8338 30.2808 65.5067 27.8311C66.0495 25.849 66.9248 23.693 67.1169 21.6006C67.1564 21.4552 67.2046 21.3142 67.2418 21.1673C67.9074 18.5043 68.7323 15.8837 69.3255 13.2024C69.5783 12.0641 69.8011 10.9083 69.9085 9.74594C69.9114 9.72256 69.9151 9.69845 69.9165 9.67507C69.9465 9.54868 69.9692 9.42083 70.0013 9.29443C70.0137 9.24621 69.9998 9.20968 69.9757 9.18119C70.0415 8.70776 70.1262 8.22191 70.1986 7.73753C70.3264 7.19543 70.4462 6.65187 70.5405 6.10247C70.7231 5.03287 71.2243 3.55049 70.9335 2.47944C70.8868 2.30409 70.7019 2.25586 70.5514 2.32308C68.8974 3.06244 67.4727 4.72748 66.2409 6.01114C66.1152 6.14119 65.994 6.27342 65.869 6.40346C65.8143 6.38812 65.7514 6.39543 65.6857 6.44438C65.6689 6.4568 65.6543 6.47434 65.6375 6.48676C65.636 6.48603 65.636 6.48456 65.6345 6.4831C65.6287 6.49114 65.6221 6.49843 65.6163 6.50574C64.8827 7.07706 64.2975 7.96255 63.754 8.69826C63.7218 8.74282 63.6904 8.78739 63.659 8.83123C63.3127 9.24109 62.9715 9.65607 62.6464 10.0857C61.6433 11.3182 60.6877 12.5836 59.9125 13.9344C59.0657 15.4095 58.3505 16.9145 57.5936 18.4349C57.1304 19.3628 56.4217 20.6435 56.3019 21.743C55.9461 22.4568 55.6677 23.2101 55.4142 23.9714C55.3222 23.259 55.2126 22.5467 55.0212 21.8629C55.0146 21.67 55.0095 21.4786 55 21.2879C54.9028 19.2086 54.4345 17.1695 54.1876 15.1034C53.9077 12.7691 53.1925 10.4678 52.692 8.17516C52.4268 6.96821 52.0323 5.83507 51.564 4.69388C51.1505 3.69004 50.3315 2.4115 50.3066 1.30392C50.3059 1.25716 50.2855 1.2199 50.2584 1.18994C50.2723 1.13588 50.2935 1.08474 50.3044 1.02995C50.36 0.785197 50.0261 0.704074 49.937 0.929097C49.3605 2.37714 48.4297 3.66372 47.8073 5.10007C47.168 6.57514 46.7311 8.12767 46.1393 9.62393C45.5337 11.1553 45.2736 13.0964 45.0624 14.7249C44.844 16.4068 44.3954 18.1639 44.3947 19.8676C44.3925 23.4475 44.4706 26.9427 45.1757 30.47C45.5169 32.1854 45.6937 33.9257 46.0597 35.6353C46.2796 36.6633 46.3819 37.7168 46.5068 38.7623C46.1225 37.8205 45.6557 36.8985 45.3167 35.967C44.635 34.0959 43.7583 32.2402 42.8465 30.4686C41.1793 27.2254 39.1767 24.2994 36.844 21.5078C36.795 21.4493 36.7293 21.4391 36.6672 21.4545C35.2206 19.5008 33.5782 17.6634 31.9628 15.8785C29.8485 13.5443 27.767 11.164 25.5964 8.88602C25.5884 8.84949 25.5672 8.8188 25.5438 8.78958C25.5373 8.76693 25.5322 8.74282 25.5248 8.71945C25.4525 8.47543 25.1018 8.57845 25.1479 8.82393C25.1479 8.82539 25.1486 8.82611 25.1486 8.82757C25.1106 8.9094 25.115 9.01534 25.1793 9.09206C25.1902 9.10594 25.2019 9.11982 25.2129 9.13371C26.3745 15.1202 28.7241 21.1162 31.5449 26.5248C32.9652 29.2455 34.4176 31.9736 36.0951 34.5423C37.0324 35.9772 38.0516 37.3719 38.9473 38.8346C39.1504 39.1655 39.3557 39.4987 39.5662 39.8289C38.338 38.8434 37.1537 37.83 36.0841 36.607C34.6383 34.9537 33.0354 33.4567 31.599 31.7858C29.7185 29.6013 28.0023 27.3869 26.3161 25.0519C25.4766 23.8895 24.689 22.6899 23.8576 21.5209C23.4105 20.8919 23.0043 20.1723 22.4242 19.6514C21.4788 18.025 20.5656 16.3871 19.6501 14.7739C19.6501 14.6906 19.6092 14.6358 19.5544 14.6044C19.4982 14.5043 19.4404 14.4035 19.3842 14.3041C19.2629 14.0915 18.9495 14.2785 19.0591 14.4948C19.1131 14.6015 19.1709 14.7096 19.2249 14.817C19.2257 14.8221 19.2257 14.8272 19.2257 14.8323C19.2257 14.8345 19.2271 14.836 19.2271 14.8389C19.2337 15.5096 19.5851 16.2322 19.7977 16.8539C20.1535 17.8972 20.5524 18.9302 20.8673 19.9881C21.47 22.0185 22.5667 23.8837 23.4141 25.8154C24.2317 27.6806 25.2633 29.6021 26.3051 31.3489C27.2359 32.9102 28.228 34.5467 29.3532 36.0116C29.3466 36.0218 29.34 36.0328 29.3342 36.043C29.2589 35.9436 29.1376 35.8684 28.9616 35.8216C28.6861 35.6601 28.418 35.4863 28.1601 35.2992C27.5902 34.9098 27.168 34.4057 26.6215 34.0032C25.557 33.2207 24.4428 32.5069 23.3572 31.7537C21.2195 30.2684 18.7902 29.1513 16.5363 27.8494C14.5111 26.6789 12.1367 25.9995 9.93248 25.247C8.90673 24.8963 7.75018 24.7684 6.68424 24.5851C6.16698 24.4952 5.57155 24.5178 5.04332 24.4704C4.69118 24.4375 3.97885 24.783 3.69757 24.5916C3.56095 24.4988 3.33812 24.6201 3.35273 24.7889L3.35785 24.843C3.36954 24.9621 3.44405 25.0293 3.52953 25.0497C3.53099 25.0512 3.531 25.0534 3.53319 25.0556C4.15712 25.7204 5.32899 26.0842 6.10634 26.5694C7.32133 27.3292 8.47494 28.1679 9.60225 29.049C11.7794 30.7476 14.2342 32.3469 16.1038 34.394C16.955 35.3263 18.0034 36.0269 18.8713 36.9387C19.7225 37.8322 20.7299 38.6782 21.6724 39.4761C23.9015 41.3639 26.0647 43.3336 28.2726 45.2499C30.2328 46.9522 32.4356 48.4456 34.5346 49.9711C36.6241 51.49 38.8465 52.8898 41.0726 54.2034C42.1444 54.8361 43.1643 55.4987 44.2778 56.0628C45.3824 56.6217 46.5324 57.3756 47.7013 57.7811C48.2902 57.985 49.381 58.4978 50.0414 58.3167C50.6544 58.1479 51.7233 58.6038 52.524 58.8427C52.5744 58.8938 52.6445 58.9252 52.7169 58.9296C52.7702 58.9333 52.8119 58.9303 52.8557 58.9289C52.8849 58.9362 52.9193 58.9464 52.9477 58.9515C53.1465 58.9888 53.2875 58.8719 53.351 58.7258C53.747 58.7156 54.1598 58.5833 54.5792 58.5234C54.6047 58.5687 54.6478 58.6045 54.7121 58.6155C55.0993 58.6849 55.7956 59.2489 56.1828 58.9384C56.307 58.839 56.4422 58.7404 56.5781 58.6418C56.6183 58.6622 56.6672 58.6688 56.7235 58.6513C57.4687 58.4219 58.1204 58.0091 58.8349 57.7073C59.4084 57.4655 60.3107 57.0542 60.8214 56.5734C61.5651 56.225 62.3008 55.8575 62.9985 55.4177C63.3039 55.2255 63.6071 55.037 63.9125 54.8478C63.9578 54.9223 64.0375 54.9691 64.1397 54.926C64.9354 54.5928 65.6484 53.9784 66.3841 53.5261C66.7859 53.2799 67.1885 53.0425 67.5867 52.8021C67.8943 52.656 68.1938 52.5121 68.4685 52.3652C70.135 51.4776 71.7576 50.508 73.3869 49.5561C76.5372 47.7142 79.8665 46.0945 83.1703 44.5449C84.6198 43.8633 86.1394 43.2488 87.6971 42.858C89.4958 42.4072 91.3683 42.4605 93.1941 42.2289C93.9042 42.1384 94.6925 42.2012 95.4129 42.1756C96.6417 42.1325 97.7749 41.944 99.014 42.123C100.496 42.3363 101.884 42.7878 103.343 43.0552C104.087 43.5162 105.02 43.6704 105.819 44.0094C106.727 44.3944 107.591 44.8934 108.49 45.3011C108.707 45.399 108.981 45.1893 108.837 44.9548Z" fill="#7FB029"/>
<path d="M109.288 45.5253C109.044 45.1483 108.941 44.5624 108.794 44.1387C108.598 43.5739 108.228 43.0216 107.922 42.5116C107.232 41.3609 106.333 40.3228 105.396 39.3686C103.395 37.3251 100.886 36.1102 98.2639 35.0639C92.5375 32.7816 86.9163 34.1266 81.2841 36.0269C75.5446 37.9629 70.2309 41.2426 65.6603 45.1768C63.2735 47.232 61.2088 49.6174 59.104 51.9495C57.379 53.8614 55.7023 55.9846 54.887 58.4481C54.8044 58.6973 55.1726 58.7813 55.2683 58.5533C56.2356 56.2454 57.821 54.188 59.4824 52.3272C61.3286 50.2581 63.1683 48.1796 65.211 46.2968C69.6457 42.2136 74.8549 39.1282 80.4491 36.9218C85.751 34.8309 91.6279 33.4574 97.1775 35.289C100.042 36.2344 102.787 37.7029 104.946 39.8179C105.985 40.8357 106.866 42.0009 107.611 43.2466C107.891 43.7164 108.054 44.2497 108.235 44.7663C104.908 42.641 100.943 41.9271 97.0168 41.7036C92.2569 41.4325 87.3123 42.6008 82.8965 44.341C78.052 46.2501 73.7239 49.3186 69.1277 51.731C66.83 52.9372 64.5579 54.1939 62.2689 55.4154C60.0735 56.5866 57.9175 57.9082 55.5905 58.7959C55.2749 58.9164 55.3019 59.4088 55.6738 59.4088H55.7732C55.882 59.4088 55.9595 59.3614 56.0084 59.2941C59.9821 57.7416 63.7418 55.3562 67.489 53.3259C71.8945 50.9376 76.1802 48.2658 80.6631 46.0324C84.9291 43.9056 90.2193 42.3326 95.0157 42.2537C99.7623 42.1756 104.99 43.0808 108.844 45.9688C109.108 46.1668 109.457 45.7862 109.288 45.5253Z" fill="#4F3220"/>
<path d="M90.2268 59.9758C88.3718 58.009 85.6679 56.2914 83.2445 55.1436C82.0924 54.5986 81.0337 53.9564 79.8341 53.5122C78.2655 52.9299 76.656 52.4645 75.0304 52.0686C73.1689 51.6149 71.5031 51.6024 69.6818 51.6397C69.4428 51.8085 69.1981 51.9641 68.9504 52.1182C68.9964 52.1869 69.0709 52.2388 69.1805 52.2417C71.1247 52.2863 72.8898 52.2556 74.8551 52.7064C77.9046 53.4077 80.5764 54.6118 83.3819 55.9407C85.6299 57.0059 87.9839 58.7148 89.7593 60.4434C90.6776 61.3383 91.5638 62.5811 92.0628 63.78C91.7479 63.4797 91.4038 63.2357 91.0414 62.9946C88.8518 61.5356 86.7448 60.2914 84.3346 59.2247C81.8747 58.1354 79.2927 57.2645 76.6889 56.588C74.0492 55.902 71.3972 55.498 68.6918 55.1875C66.8887 54.9814 64.1701 54.4883 62.6205 55.7142C62.4825 55.8224 62.6578 56.0269 62.801 55.948C63.864 55.3577 65.3456 55.5148 66.5124 55.5572C67.9334 55.609 69.353 55.8355 70.7601 56.0277C73.2602 56.3696 75.6865 56.8963 78.1099 57.6036C80.6195 58.3356 83.0195 59.3394 85.4173 60.3718C86.5059 60.8408 87.5499 61.407 88.5413 62.0573C89.6803 62.8039 91.2562 63.5922 92.0475 64.7203C92.1293 64.8372 92.2615 64.908 92.4077 64.8664C92.4603 64.8511 92.5151 64.8357 92.5691 64.8204C92.6685 64.7919 92.7715 64.7049 92.7912 64.5983C93.0878 63.0187 91.2182 61.0257 90.2268 59.9758Z" fill="#4F3220"/>
<path d="M70.7883 1.8803C66.442 3.80469 63.1462 8.43302 60.5921 12.2591C57.4746 16.932 55.2047 22.2829 53.7522 27.6915C52.3553 32.8912 51.7694 38.0945 51.4289 43.4505C51.0965 48.6845 51.2996 53.8994 52.131 59.0706C52.1807 59.3745 52.709 59.3044 52.6702 58.9975C52.378 56.6721 52.0295 54.3568 51.9163 52.0123C51.7935 49.4969 51.9886 46.9383 52.0236 44.4207C52.0952 39.2137 52.8777 33.998 54.1336 28.954C55.4501 23.6689 57.5586 18.6475 60.351 13.9687C61.7398 11.6411 63.41 9.52308 65.1532 7.45476C66.6326 5.70061 68.4869 3.84854 70.5793 2.77457C70.4449 4.94955 69.9685 7.12454 69.574 9.26299C69.105 11.8091 68.5285 14.337 67.9725 16.8648C66.8555 21.9454 65.1787 26.9565 63.8067 31.9779C62.4427 36.965 60.565 41.7248 58.7649 46.5635C57.9188 48.8371 56.7477 50.9697 55.9331 53.247C55.4969 54.4678 54.8591 55.6697 54.2432 56.8079C53.8728 57.4925 53.0954 57.99 53.0538 58.7988C53.0311 59.2313 53.7011 59.2291 53.7237 58.7988C53.7398 58.4956 54.1679 58.1121 54.344 57.879C54.7254 57.3749 55.0037 56.8153 55.2916 56.2534C55.7621 55.3343 56.1975 54.3846 56.5804 53.4253C57.5418 51.0136 58.6845 48.6954 59.5919 46.2574C61.4001 41.3968 63.2434 36.6296 64.6235 31.6214C66.0036 26.608 67.6642 21.6115 68.7842 16.5353C69.3424 14.0023 69.9035 11.4665 70.3755 8.91522C70.7868 6.69275 71.2719 4.45201 71.3238 2.18716C71.3304 1.89347 71.0221 1.77656 70.7883 1.8803Z" fill="#4F3220"/>
<path d="M51.6408 58.7309C51.5144 56.7934 50.8941 54.9194 50.7203 52.9892C50.4945 50.4927 49.6609 47.9802 49.083 45.5459C48.4569 42.9062 47.3851 40.3857 46.3849 37.8724C45.422 35.4505 44.5402 33.0724 43.3164 30.763C40.8587 26.1295 37.9071 21.9798 34.4908 18.009C32.7337 15.967 30.7458 14.1588 28.9427 12.165C28.1821 11.3226 27.5202 10.3962 26.7151 9.59325C26.2168 9.09498 25.7587 8.44768 25.0742 8.21608C24.8185 8.12914 24.5985 8.39581 24.6563 8.63398C25.1246 10.5744 25.8252 12.4842 26.3476 14.4174C26.9781 16.7538 27.7379 19.0362 28.7403 21.2397C30.805 25.7781 32.7805 30.3948 35.6247 34.5139C38.3425 38.4496 41.0435 42.3999 43.6174 46.4321C44.8945 48.4332 46.1745 50.4759 47.2529 52.5895C47.8205 53.7008 48.329 54.842 48.8353 55.9817C49.1773 56.7503 49.4417 57.7599 50.024 58.389C50.2578 58.6403 50.6143 58.2721 50.3966 58.0171C49.9115 57.4494 49.6339 56.3638 49.3424 55.6858C48.847 54.5388 48.3341 53.4012 47.7877 52.2776C46.7561 50.1486 45.4329 48.1088 44.1646 46.1121C41.6952 42.2224 38.9686 38.5095 36.4905 34.6293C31.5027 26.8214 27.7861 18.2771 25.5213 9.28347C25.8954 9.62685 26.2395 10.0842 26.5288 10.375C27.3412 11.1881 28.009 12.1584 28.7783 13.0124C30.4667 14.8886 32.3348 16.5931 33.9991 18.4999C37.4095 22.4079 40.2516 26.5577 42.7137 31.1151C44.0112 33.5188 44.9128 36.0503 45.9181 38.5803C46.8518 40.9278 47.7964 43.2774 48.4072 45.7322C49.0333 48.2447 49.826 50.8536 50.0584 53.4356C50.2235 55.2715 50.8591 57.0535 50.9519 58.8982C50.9731 59.3483 51.654 59.3541 51.654 58.8982V58.7988C51.654 58.7733 51.6452 58.7543 51.6408 58.7309Z" fill="#4F3220"/>
<path d="M55.1776 20.048C54.8642 17.8899 54.6699 15.7456 54.2527 13.6071C53.8092 11.3277 53.4965 9.04308 52.7908 6.82572C52.1069 4.6712 51.0607 2.49988 50.5632 0.302253C50.4974 0.0151287 50.0204 -0.0806107 49.8954 0.21528C49.2518 1.72615 48.329 3.12963 47.6342 4.62662C46.9263 6.15211 46.3111 7.71851 45.7668 9.30902C44.5994 12.7231 44.0945 16.2833 43.9287 19.8661C43.7708 23.2393 44.1815 26.687 44.7265 30.0104C45.0246 31.8282 45.3972 33.6393 45.7376 35.449C45.978 36.7253 46.1124 38.5116 46.7641 39.6295C46.873 39.8158 47.2098 39.6879 47.1221 39.479C46.9146 38.9895 46.9241 38.3385 46.8379 37.8096C46.7013 36.9643 46.4755 36.1321 46.3214 35.2883C46.0255 33.6627 45.7727 32.0291 45.4636 30.405C44.8404 27.1275 44.5519 23.7003 44.6074 20.3622C44.6666 16.8086 45.3665 13.4493 46.2848 10.0294C47.1111 6.95797 48.7725 4.30591 50.111 1.48216C50.5559 3.0091 51.2405 4.53531 51.73 6.02499C52.4591 8.246 52.8821 10.4429 53.2985 12.7384C53.9707 16.4557 54.8883 20.3425 55.0111 24.1364C55.022 24.4791 55.5298 24.4791 55.5415 24.1364C55.5853 22.7797 55.3734 21.3887 55.1776 20.048Z" fill="#4F3220"/>
<path d="M44.467 22.5876C43.7664 19.4497 41.9545 16.4571 40.3603 13.6706C39.2118 11.6615 37.9464 9.58005 36.513 7.7616C35.7524 6.79721 34.9466 5.87228 34.1568 4.93346C33.5161 4.17145 32.8958 3.17201 32.0038 2.69639C31.7217 2.54589 31.3681 2.85564 31.5515 3.14788C32.0571 3.95811 32.3457 4.87063 32.7285 5.73712C33.3817 7.21731 34.0516 8.68433 34.6712 10.1806C35.7459 12.7764 36.7899 15.3656 37.717 18.0184C38.6434 20.6705 39.7612 23.2875 40.803 25.8986C41.6768 28.0853 42.433 30.3699 43.4873 32.4784C43.6005 32.707 43.9242 32.5069 43.8241 32.2811C42.8122 29.9987 42.0458 27.5841 41.1435 25.2542C40.1258 22.6256 39.0628 19.991 38.1444 17.328C37.2246 14.6657 36.1638 12.0706 35.0869 9.46899C34.4374 7.9004 33.8456 6.21564 33.1033 4.64486C33.3086 4.90861 33.5037 5.1709 33.6885 5.40031C34.3468 6.2193 35.0547 6.99885 35.7196 7.81273C37.2589 9.69767 38.5755 11.8975 39.7948 14.0009C41.37 16.7172 43.1271 19.7207 44.0359 22.7059C44.1192 22.9828 44.5298 22.8681 44.467 22.5876Z" fill="#4F3220"/>
<path d="M34.8445 18.44C34.8562 18.4575 34.8693 18.4736 34.8803 18.4918C34.691 18.1726 34.7407 18.2573 34.8445 18.44Z" fill="#4F3220"/>
<path d="M42.0649 28.9489C41.3665 26.7731 40.6585 24.6668 39.5743 22.6489C38.4492 20.5572 37.0998 18.5634 35.7657 16.6003C34.3623 14.5371 33.1378 12.3797 31.8052 10.2748C30.5968 8.36725 29.3928 6.40926 28.3239 4.41766C28.1478 4.08889 27.7248 4.33583 27.7694 4.65145C28.1632 7.42917 29.2635 10.2171 30.6034 12.6727C31.4494 14.223 32.3276 15.7433 33.3124 17.2089C33.7106 17.8014 34.2235 18.7936 34.7933 19.2539C34.8189 19.324 34.8803 19.3781 34.9782 19.3744C34.9898 19.3751 35.0023 19.3759 35.014 19.3759C35.03 19.3766 35.0373 19.3671 35.0498 19.3656C35.0717 19.3612 35.0921 19.3561 35.1082 19.3474C35.1652 19.3181 35.1988 19.2699 35.2047 19.2071C35.2171 19.134 35.1922 19.0573 35.1309 19.0106C35.1257 19.0055 35.1243 18.9982 35.1184 18.9938C35.1813 19.042 34.9723 18.665 34.8445 18.44C34.5259 17.9234 34.0722 17.4741 33.7405 16.9591C32.8733 15.6126 32.1157 14.2252 31.3288 12.8334C30.192 10.8221 29.2415 8.55063 28.6958 6.25291C29.4439 7.45474 30.2417 8.6288 30.8759 9.88689C31.9389 11.9983 33.3182 14.0644 34.6304 16.0334C35.974 18.0469 37.3117 20.0473 38.5807 22.1098C39.9309 24.3045 40.7696 26.6584 41.6712 29.0577C41.7617 29.301 42.1475 29.2038 42.0649 28.9489Z" fill="#4F3220"/>
<path d="M60.6169 0.0793507C60.2655 0.367205 60.1778 0.734693 59.974 1.13725C59.5436 1.98913 59.1002 2.84173 58.6289 3.67168C57.7851 5.15698 57.1568 6.75772 56.66 8.38768C55.5495 12.0297 54.9424 16.0823 54.5515 19.8661C54.5252 20.124 54.9423 20.1744 55.0001 19.9267C55.7928 16.4849 56.1617 12.9612 56.9829 9.5201C57.4052 7.74768 58.0868 6.05124 58.9153 4.43298C59.2872 3.70969 59.6773 2.99004 60.0814 2.28355C60.1983 2.07679 60.3181 1.77873 60.4525 1.47918C60.302 3.86969 60.0952 6.26823 59.7504 8.6529C59.3624 11.3327 59.1221 14.2836 58.1168 16.821C58.0145 17.081 58.4477 17.2615 58.5683 17.0109C59.7577 14.5166 59.9747 11.5322 60.3802 8.82604C60.8068 5.98548 61.0092 3.1537 61.1495 0.299992C61.1641 0.0026396 60.8105 -0.0791885 60.6169 0.0793507Z" fill="#4F3220"/>
<path d="M48.6979 57.6788C47.6275 57.4019 46.5243 56.8386 45.5526 56.3184C43.2973 55.1107 41.0303 53.8556 38.848 52.5208C34.3804 49.7869 30.4154 46.3246 26.2934 43.1085C22.3672 40.0459 18.8618 36.6281 15.1738 33.3047C11.737 30.2091 7.82615 27.6265 4.14468 24.8276C5.9646 24.8889 7.73703 25.0942 9.54599 25.469C12.1308 26.0038 14.4066 27.0983 16.738 28.2906C21.2362 30.5927 25.5818 33.2491 29.1764 36.8488C30.9868 38.6621 32.6562 40.6223 34.4534 42.4532C36.2872 44.3213 38.1349 46.1843 39.8825 48.1321C41.5702 50.0119 43.4325 51.7237 45.2173 53.5078C46.0107 54.302 46.8144 55.0932 47.5903 55.9049C48.2456 56.5887 48.7549 57.3332 49.4226 57.9791C49.2188 57.8315 48.9674 57.7489 48.6979 57.6788ZM50.1766 58.0382C49.4577 57.3844 48.9411 56.5785 48.3318 55.8304C47.5296 54.8434 46.5375 53.9864 45.6571 53.0687C43.7802 51.1129 41.7806 49.2901 39.9738 47.2642C38.1079 45.1717 36.109 43.1845 34.1488 41.1805C32.2456 39.2371 30.5272 37.0994 28.5239 35.2597C24.898 31.9268 20.6445 29.4435 16.266 27.248C12.049 25.133 7.75602 24.0721 3.03418 24.0692C2.74341 24.0692 2.51253 24.4871 2.77482 24.6931C6.56734 27.6521 10.6214 30.3348 14.2693 33.4793C16.0103 34.9792 17.5562 36.6705 19.2666 38.2004C21.2348 39.9626 23.252 41.6678 25.34 43.2861C27.3659 44.8554 29.313 46.5182 31.3221 48.1058C33.1968 49.5874 35.2096 50.8784 37.1238 52.3031C39.0343 53.7255 41.3079 54.7856 43.393 55.9261C44.4451 56.5018 45.4577 57.1257 46.5514 57.6218C46.875 57.7687 48.9105 58.3005 49.1048 58.6834C49.3159 59.0976 49.9377 58.7323 49.728 58.3188C49.69 58.245 49.6403 58.1895 49.5914 58.1332C49.6776 58.2107 49.7536 58.294 49.8471 58.3677C50.0765 58.5497 50.4038 58.2443 50.1766 58.0382Z" fill="#4F3220"/>
<path d="M41.168 54.3342C40.574 53.6299 39.3729 53.4633 38.5225 53.2806C37.5026 53.0615 36.4557 52.8942 35.4124 52.8934C32.9422 52.892 30.6109 53.4509 28.4447 54.6512C24.4702 56.8555 21.0489 61.0228 20.083 65.513C19.7637 64.2673 19.7601 62.7674 19.8536 61.681C20.0414 59.5126 20.6777 57.5575 21.7524 55.6712C22.7146 53.982 24.0509 52.5142 25.4441 51.1729C26.9279 49.7446 28.9239 47.8728 31.0427 47.6704C31.4123 47.6353 31.4262 47.0699 31.0427 47.0845C29.0007 47.1619 27.5665 48.5113 26.0366 49.7219C24.2284 51.1539 22.6584 52.9555 21.3995 54.8821C20.14 56.8101 19.4942 58.9113 19.1946 61.1776C18.9645 62.9208 19.0287 65.4429 19.9113 67.0224C20.0969 67.3548 20.5374 67.1722 20.571 66.8434C21.0488 62.1238 24.5104 58.001 28.4074 55.4848C30.4458 54.1705 32.5725 53.8344 34.9163 53.6065C35.8902 53.5122 36.9524 53.6722 37.9044 53.8651C38.7621 54.039 41.5384 54.4949 42.2105 55.1276C42.4714 55.3738 41.3945 54.6023 41.168 54.3342Z" fill="#4F3220"/>
<path d="M64.0601 34.685C64.0556 34.6903 64.0541 34.6956 64.0503 34.7009C64.0692 34.6737 64.0684 34.6745 64.0601 34.685Z" fill="#4F3220"/>
<path d="M92.207 20.6464C86.7911 18.1879 80.3713 19.6359 75.3894 22.4027C72.4831 24.0173 70.0509 26.0462 67.7225 28.3965C66.5543 29.575 65.7294 30.7702 64.8513 32.1715C64.3932 32.9006 64.0272 33.6897 63.5852 34.4298C63.4339 34.6826 63.2659 34.7856 63.2798 35.0617C63.2951 35.3708 63.7444 35.3708 63.7591 35.0617C63.7576 35.0968 64.0228 34.733 64.0593 34.6855C64.4524 34.1244 64.7841 33.5253 65.1275 32.9328C65.9019 31.6009 66.7128 30.3428 67.8131 29.2535C69.9976 27.0887 72.1792 25.1505 74.8217 23.5461C79.3602 20.7874 85.3664 19.0566 90.5967 20.791C87.6722 21.3302 84.885 22.7307 82.3082 24.1233C79.0139 25.9037 76.1777 28.5244 73.8062 31.3941C71.2447 34.4963 68.9857 37.7401 66.7932 41.1111C65.2582 43.4709 63.9717 46.0104 62.3483 48.2658C62.208 48.4587 62.5148 48.6873 62.6726 48.5171C63.0219 48.1379 63.4347 47.8903 63.7539 47.4095C64.7388 45.9271 65.4555 44.2855 66.4513 42.8053C68.6679 39.5096 70.8422 36.2051 73.3401 33.1169C75.6963 30.2033 78.1832 27.6287 81.3138 25.5282C84.345 23.4942 88.3458 21.61 92.0243 21.32C92.3451 21.2944 92.565 20.8085 92.207 20.6464Z" fill="#4F3220"/>
<path d="M99.9698 23.1085C97.7737 22.8827 95.3481 23.3021 93.1848 23.6893C90.6292 24.1459 88.1291 24.8897 85.6896 25.7686C83.4357 26.5803 81.1774 27.5008 79.0142 28.5295C78.0286 28.9978 77.1088 29.6414 76.2532 30.3151C75.4598 30.9404 74.3361 31.4424 73.6947 32.2256C73.5186 32.4396 73.8021 32.7406 74.0045 32.5353C74.6832 31.8391 75.8244 31.3781 76.6083 30.7753C77.4609 30.12 78.3691 29.5479 79.3298 29.0679C81.5735 27.9465 84.0231 27.0464 86.3851 26.204C88.4827 25.4559 90.6372 24.878 92.8173 24.4301C94.6657 24.0502 96.772 23.6944 98.7424 23.7134C97.7328 24.1693 96.585 24.528 95.6447 24.8962C94.304 25.423 92.9853 25.9607 91.6746 26.5605C88.5258 28.0027 85.5472 29.5691 82.5919 31.389C79.85 33.0782 77.4463 35.0888 75.0127 37.1695C73.192 38.7257 71.2998 40.2519 69.8086 42.1456C69.7495 42.2216 69.7465 42.307 69.7721 42.3808C69.8919 42.2464 70.0344 42.1712 70.1856 42.1105C70.212 42.0952 70.2383 42.0806 70.2646 42.0645C70.3135 42.0345 70.3647 42.0265 70.4136 42.028C70.4596 42.0126 70.5049 41.998 70.5517 41.9805C70.5575 41.9783 70.5626 41.9805 70.5685 41.9783C71.885 40.4784 73.4777 39.1443 75.0324 37.9337C77.6501 35.8953 80.1123 33.7554 82.9375 31.9801C85.7181 30.234 88.563 28.7187 91.5526 27.3737C93.1293 26.6643 94.7132 26.006 96.322 25.3755C97.5669 24.8882 99.0201 24.4615 100.137 23.7287C100.429 23.5373 100.295 23.1421 99.9698 23.1085Z" fill="#4F3220"/>
<path d="M22.1087 40.1431C21.9619 39.9853 21.8121 39.8289 21.6674 39.6689C21.6324 39.6295 21.6134 39.5849 21.5893 39.5411C20.0645 39.1297 18.5127 38.7988 16.9602 38.5292C13.9494 38.0061 10.9306 37.8227 7.87672 37.9462C6.40019 38.0054 4.93608 38.2209 3.46174 38.2859C3.2338 38.2954 2.99416 38.3071 2.7516 38.3203C3.67946 37.8622 4.60805 37.4077 5.60239 37.0592C7.77226 36.298 10.0203 35.8538 12.2493 35.3073C13.4665 35.0092 14.7874 34.8835 16.1047 34.8645C15.9126 34.6344 15.7401 34.4138 15.556 34.1712C14.7312 34.2194 13.9173 34.2969 13.1261 34.3977C10.8707 34.6855 8.58322 35.3489 6.40897 36.005C4.20842 36.6691 2.35051 37.8125 0.252972 38.6731C-0.17808 38.8514 -0.0231942 39.5345 0.453154 39.395C1.39562 39.1195 2.49005 39.1371 3.46174 39.0304C4.92585 38.8697 6.40604 38.7674 7.87672 38.6841C10.8634 38.5139 13.8289 38.7111 16.7798 39.1875C18.7253 39.5009 20.6059 39.9371 22.4375 40.4938C22.3294 40.3754 22.2161 40.2636 22.1087 40.1431Z" fill="#4F3220"/>
<path d="M23.4731 21.5421C25.8724 25.1717 28.42 28.5711 31.2613 31.869C34.1968 35.278 37.3267 38.4758 40.5209 41.64C40.8423 41.9586 41.1565 42.2851 41.4699 42.6117C41.3384 42.3772 41.2062 42.142 41.0827 41.9009C40.7532 41.4238 40.4471 40.9343 40.2067 40.4104C37.6014 37.7153 35.0019 35.0143 32.5216 32.1949C29.5751 28.8473 26.8346 25.3828 24.4105 21.6371C23.1692 19.72 21.9499 17.8 20.8306 15.8076C19.8516 14.0615 18.8485 12.1422 17.651 10.5444C17.3756 10.1777 16.7926 10.4889 17.0213 10.9126C18.725 14.0586 19.7427 17.7539 20.9438 21.1176C22.15 24.4944 23.8684 27.6287 25.5729 30.7724C26.492 32.4696 27.4447 34.1463 28.4485 35.7909C28.4492 35.7923 28.4514 35.7931 28.4529 35.7938C29.5766 36.6793 30.4971 37.7124 31.281 38.9025C31.2986 38.9171 31.3161 38.9317 31.3329 38.9463C29.3778 36.0648 27.5798 33.0745 25.906 29.9498C24.1416 26.6555 22.4956 23.3759 21.2543 19.842C20.7444 18.3917 20.2578 16.8809 19.7245 15.3875C19.7851 15.4891 19.8428 15.5958 19.9042 15.6973C21.0885 17.6531 22.2107 19.633 23.4731 21.5421Z" fill="#4F3220"/>
<path d="M21.3797 17.168C23.6379 17.3339 25.8312 17.743 28.0127 18.2464C27.9842 18.1945 27.9565 18.1433 27.928 18.0915C27.8242 17.9395 27.8147 17.7678 27.8659 17.6137C27.8315 17.4982 27.7979 17.3835 27.7629 17.2688C27.7585 17.2608 27.7556 17.2535 27.7526 17.2454C25.5492 16.7852 23.2456 16.5857 21.1349 16.4023C21.0889 16.3987 21.0429 16.398 20.9961 16.3936C21.1444 16.6427 21.2679 16.9021 21.3797 17.168Z" fill="#4F3220"/>
<path d="M27.02 25.781C29.0474 26.8184 31.0193 27.9297 32.9064 29.1775C32.6353 28.7567 32.3723 28.3308 32.1356 27.8873C30.1155 26.6058 27.9873 25.4858 25.832 24.4462C26.2594 24.8597 26.6357 25.3207 27.02 25.781Z" fill="#4F3220"/>
<path d="M21.7703 22.8586C21.695 22.7461 21.6724 22.6307 21.6797 22.5211C20.2813 21.892 18.8801 21.2703 17.4817 20.642C16.2601 20.0926 15.0364 19.56 13.801 19.0405C13.2055 18.7899 12.6174 18.5152 11.9942 18.3399C12.0673 18.3603 11.8744 18.2873 11.6128 18.1916C12.6956 17.9118 13.8631 17.7371 14.9071 17.5501C16.5297 17.2608 18.1845 17.0869 19.8335 17.0993C19.7188 16.867 19.6019 16.6347 19.4865 16.4023C19.4784 16.3877 19.477 16.3724 19.4704 16.357C18.2408 16.3848 17.0214 16.5346 15.7904 16.6997C14.053 16.9342 12.0388 17.2462 10.392 17.846C10.1261 17.9424 10.0318 18.3194 10.3095 18.4743C10.7683 18.73 11.3162 18.8096 11.8123 19.0011C13.2399 19.5505 14.6601 20.116 16.06 20.7421C18.0998 21.6546 20.1469 22.5561 22.1838 23.4781C22.045 23.2714 21.9076 23.0646 21.7703 22.8586Z" fill="#4F3220"/>
<path d="M88.2503 8.38191C87.3137 8.21752 86.2784 8.45861 85.3506 8.61277C83.7842 8.87286 82.2375 9.15121 80.6989 9.54281C77.7736 10.2858 74.9857 11.4511 72.3511 12.9138C71.0054 13.6605 69.7246 14.5248 68.5023 15.4658C68.5045 15.4753 68.5067 15.4855 68.5053 15.4964C68.498 15.5534 68.487 15.6038 68.479 15.6586L68.4841 15.6594C68.4578 15.8698 68.4322 16.0802 68.4066 16.2906C68.4008 16.3447 68.3789 16.3878 68.3621 16.4345C69.4755 15.5637 70.6386 14.7563 71.847 14.0177C74.3442 12.493 77.0686 11.3664 79.8689 10.5328C81.2293 10.1273 82.6218 9.82922 84.0173 9.57205C85.0218 9.38721 86.2397 9.05039 87.3327 9.05039C85.8043 10.5459 83.8178 11.7945 82.1703 13.0847C79.8879 14.874 77.6589 16.7275 75.5285 18.6964C71.4963 22.4203 66.4669 29.0052 63.7184 33.7708C63.5175 34.1186 65.3615 32.0773 65.5749 31.742C68.5111 27.1356 72.091 22.9726 76.0676 19.2364C78.0475 17.3763 80.1429 15.6177 82.2865 13.9505C84.2854 12.3951 86.7285 10.8944 88.4147 9.00657C88.5857 8.81588 88.5455 8.43378 88.2503 8.38191Z" fill="#4F3220"/>
<path d="M47.9622 58.7214C47.7657 58.4781 47.5969 58.2136 47.407 57.9644C47.258 57.7686 47.0892 57.5882 46.916 57.4143C46.7845 57.2806 46.6589 57.0833 46.4726 57.0278C46.4002 57.0066 46.3367 57.0534 46.3126 57.1191C46.1745 57.4954 46.7378 57.9718 46.9314 58.2421C47.1681 58.5745 47.3595 59.2028 47.7701 59.346C47.9067 59.3942 48.0243 59.2919 48.0718 59.1751C48.1442 58.9946 48.0791 58.8667 47.9622 58.7214Z" fill="#4F3220"/>
<path d="M47.7365 70.5789C46.6617 70.1333 45.8267 69.8038 45.1801 68.7795C44.4232 67.5769 44.7644 65.8783 45.7098 64.881C45.8033 64.7831 45.7383 64.6151 45.5995 64.6151C44.253 64.6151 43.9659 66.9391 44.1368 67.9057C44.4349 69.6102 45.88 71.0874 47.6612 71.132C48.0046 71.14 48.0104 70.6922 47.7365 70.5789Z" fill="#4F3220"/>
<path d="M57.4529 64.2863C57.3485 64.2177 57.225 64.3105 57.2184 64.4215C57.2075 64.6071 57.3185 64.721 57.4332 64.8693C58.1441 65.7826 58.5839 66.3919 58.6241 67.6149C58.6613 68.7386 58.0272 69.6292 57.2725 70.381C56.7399 70.9114 56.0334 70.8434 55.4811 71.2533C55.3503 71.3505 55.3269 71.5426 55.4811 71.6354C56.8012 72.431 58.6139 70.0902 59.0486 69.1207C59.8493 67.3402 59.0062 65.3106 57.4529 64.2863Z" fill="#4F3220"/>
<path d="M46.5733 62.6432C46.1495 62.3363 45.4219 62.7111 45.2005 63.1297C45.058 63.3986 45.0295 63.6346 45.02 63.9363C45.0149 64.078 45.05 64.222 45.0931 64.3535C45.1384 64.4886 45.2626 64.6362 45.2889 64.767C45.3093 64.8656 45.4262 64.9635 45.53 64.9511C45.5314 64.9511 45.5329 64.9504 45.5344 64.9504C45.6973 64.9307 45.7762 64.8116 45.774 64.6947L45.7806 64.7005C45.7857 64.55 45.7053 64.4514 45.6513 64.3147C45.5643 64.0948 45.5965 63.9159 45.6023 63.6879C45.6082 63.422 45.8324 63.2115 46.0699 63.129C46.2547 63.064 46.4067 63.1078 46.5733 62.9851C46.6989 62.8923 46.7011 62.7352 46.5733 62.6432Z" fill="#4F3220"/>
<path d="M47.556 60.4346C47.0402 60.1468 46.4148 60.5837 46.1664 61.0308C45.8194 61.6547 45.9743 62.3539 46.4009 62.8865C46.4426 62.9377 46.5361 62.9588 46.5967 62.9376C46.5631 62.9311 46.5302 62.9245 46.4966 62.9179C46.5799 62.9603 46.6654 62.9355 46.7165 62.8602C46.916 62.5738 46.5251 62.0427 46.5697 61.7249C46.6048 61.467 46.7092 61.1835 46.9386 61.0403C47.1542 60.9059 47.4018 60.9424 47.5976 60.759C47.6948 60.6691 47.6707 60.4975 47.556 60.4346Z" fill="#4F3220"/>
<path d="M49.611 58.9405C49.5211 58.6198 49.1763 58.4298 48.8475 58.435C48.3266 58.443 47.9832 58.5782 47.5398 58.8426C46.9641 59.1853 46.6426 60.4784 47.3476 60.8496C47.569 60.9672 47.9022 60.71 47.7239 60.4741C47.4485 60.1095 47.569 59.5469 47.9599 59.3153C48.2265 59.1568 48.4304 59.0808 48.7401 59.0596C48.9659 59.0435 49.0996 59.1984 49.3071 59.2437C49.4875 59.2825 49.6636 59.129 49.611 58.9405Z" fill="#4F3220"/>
<path d="M55.7512 58.8178C55.3369 58.2895 54.2601 58.0769 53.9152 58.7988C53.8451 58.9449 53.9612 59.159 54.1439 59.0961C54.6078 58.9354 54.9804 58.8119 55.3333 59.2744C55.4765 59.4614 55.5832 59.7266 55.5284 59.9612C55.4794 60.1708 55.3428 60.3783 55.2785 60.5902C55.2113 60.8167 55.4831 60.9255 55.6409 60.8006C56.3269 60.257 56.2714 59.479 55.7512 58.8178Z" fill="#4F3220"/>
<path d="M56.9238 60.9409C56.6674 60.4281 55.6555 59.9218 55.2558 60.5325C55.1441 60.7028 55.3267 60.9212 55.513 60.8679C55.9024 60.7554 56.2685 61.0045 56.4365 61.3457C56.5512 61.5817 56.6082 61.7797 56.4708 62.0273C56.4 62.1545 56.3335 62.2925 56.2933 62.4328C56.2392 62.6206 56.4189 62.7879 56.6023 62.7419C56.9011 62.6659 57.0356 62.3663 57.113 62.088C57.2409 61.6262 57.1335 61.3603 56.9238 60.9409Z" fill="#4F3220"/>
<path d="M57.9832 63.5272C57.9562 63.3212 57.8597 63.1634 57.7567 62.9873C57.5587 62.6497 57.1971 62.3553 56.8179 62.2567C56.6951 62.2238 56.5139 62.2194 56.4007 62.2874C56.3481 62.3188 56.2992 62.3502 56.2663 62.405C56.2458 62.4408 56.1545 62.6176 56.256 62.4561C56.2144 62.5219 56.2144 62.6161 56.256 62.6826C56.2568 62.6848 56.259 62.6877 56.2597 62.6899C56.3108 62.7718 56.4058 62.8178 56.4979 62.8068C56.7894 62.8865 57.0166 63.0618 57.1832 63.3226C57.3147 63.5257 57.3205 63.6777 57.2577 63.9122C57.2424 63.9699 57.2445 64.0371 57.2409 64.0971C57.2321 64.2161 57.1488 64.2322 57.2818 64.1446C56.975 64.3469 57.17 64.8079 57.5302 64.7312C57.8152 64.6699 57.8838 64.3455 57.9131 64.0971C57.9364 63.8991 58.0117 63.7354 57.9832 63.5272Z" fill="#4F3220"/>
<path d="M50.2038 57.8753C49.6646 57.9258 49.14 58.6081 49.2701 59.1422C49.3336 59.4023 49.6748 59.3614 49.7552 59.1422C49.8479 58.8923 49.9276 58.5869 50.2067 58.4788C50.4639 58.3802 50.8796 58.8331 50.8942 59.0757C50.9183 59.4607 51.5188 59.4622 51.4954 59.0757C51.4575 58.4803 50.8211 57.8169 50.2038 57.8753Z" fill="#4F3220"/>
<path d="M52.7596 58.8945C52.4856 58.565 52.1086 58.3948 51.6827 58.4781C51.3948 58.5343 51.02 58.9405 51.0573 59.2503C51.0741 59.3862 51.2224 59.5243 51.3626 59.4257C51.5088 59.3219 51.6176 59.1941 51.7579 59.0859C51.9413 58.9449 52.2138 59.2131 52.319 59.3351C52.5849 59.6397 53.0131 59.1992 52.7596 58.8945Z" fill="#4F3220"/>
<path d="M54.6361 59.1291C54.376 58.6257 53.9121 58.5293 53.3912 58.5446C52.9718 58.5563 52.5123 58.9289 52.4962 59.3556C52.4925 59.4571 52.5883 59.5572 52.692 59.5506C53.0032 59.5316 53.1581 59.181 53.4957 59.1905C53.6966 59.1963 53.8851 59.2102 54.0136 59.3826C54.1137 59.5156 54.1941 59.5908 54.3695 59.5952C54.6149 59.6003 54.7399 59.3307 54.6361 59.1291Z" fill="#4F3220"/>
<path d="M54.4567 96.3755C53.4521 95.6478 52.1239 95.2314 50.9798 94.766C50.2777 94.4803 49.5062 94.3569 48.7704 94.1903C48.5367 94.1187 48.3007 94.0698 48.0588 94.0427C47.8704 94.015 46.9725 93.4867 47.3158 93.4444C47.562 93.4144 47.562 93.0922 47.3158 93.0623C47.0557 93.0301 46.7014 93.3019 46.7226 93.5949C46.7657 94.1655 47.0981 94.3408 47.6285 94.5008C48.8238 94.8617 50.0585 94.9742 51.2289 95.452C52.0874 95.802 52.9421 96.1819 53.7765 96.5867C54.0147 96.7014 55.9398 98.0763 55.3181 98.4248C55.077 98.5593 55.1865 98.9362 55.4561 98.9362H55.5131C55.6315 98.9362 55.7067 98.8727 55.7454 98.7916C56.6105 98.0858 54.982 96.7561 54.4567 96.3755Z" fill="#4F3220"/>
<path d="M54.2635 97.4853C53.3656 96.8906 52.2887 96.4288 51.2601 96.1198C50.8305 95.9912 50.4535 95.7961 49.9983 95.7516C49.9136 95.7435 46.6442 95.078 47.5128 94.4204C47.6633 94.3072 47.5757 94.0851 47.385 94.1187C47.0496 94.1771 46.7654 94.4759 46.8443 94.8559C47.0109 95.6602 47.5362 95.7004 48.2507 95.9116C49.484 96.2761 50.7136 96.4405 51.9096 96.9359C52.6862 97.2581 56.2215 98.7485 55.3602 100.099C55.1446 100.435 55.6933 100.756 55.895 100.411C56.6285 99.1547 55.225 98.1202 54.2635 97.4853Z" fill="#4F3220"/>
<path d="M54.2346 99.1204C53.2249 98.5768 52.0852 98.0011 50.9754 97.7074C50.3135 97.5313 49.7239 97.3027 49.0386 97.204C48.0611 97.063 47.2012 96.6013 47.5898 95.5339C47.6775 95.2921 47.2925 95.1328 47.1778 95.3593C46.3617 96.9724 47.47 97.2318 48.8939 97.7286C49.5975 97.9734 56.6814 100.049 55.2618 101.37C55.0375 101.58 55.3451 101.994 55.595 101.802C56.959 100.755 55.1289 99.6019 54.2346 99.1204Z" fill="#4F3220"/>
<path d="M54.1673 100.477C53.0145 99.8838 51.7695 99.5185 50.537 99.132C49.7428 98.8829 48.9706 98.5578 48.1874 98.2772C47.4466 98.0113 47.6475 97.7702 47.7322 97.1243C47.7571 96.9315 47.467 96.8774 47.3808 97.0294C46.5845 98.4321 47.2683 98.5395 48.5198 98.9925C49.7282 99.4294 51.0046 99.7801 52.1808 100.288C52.7427 100.53 53.3271 100.695 53.8758 100.977C53.9007 100.989 55.8923 102.413 55.3224 102.537C54.9549 102.616 55.1113 103.171 55.4766 103.098C57.2599 102.736 54.6861 100.744 54.1673 100.477Z" fill="#4F3220"/>
<path d="M53.6403 101.424C52.4918 100.901 51.3053 100.514 50.0677 100.281C49.4087 100.157 48.7782 99.9927 48.1287 99.8174C47.7583 99.718 46.9751 99.1584 47.6421 98.8304C47.7444 98.7799 47.7539 98.6543 47.7123 98.5629C47.7064 98.5476 47.6984 98.533 47.6925 98.5177C47.6597 98.4475 47.5735 98.4263 47.4989 98.4439C47.4558 98.4395 47.4113 98.4439 47.3747 98.4709C46.4856 99.0999 46.5273 99.9518 47.5552 100.236C48.8367 100.59 50.162 100.803 51.4259 101.202C51.9373 101.364 56.1536 102.829 55.1863 103.799C54.9101 104.075 55.3382 104.503 55.6137 104.227C56.8498 102.988 54.6076 101.865 53.6403 101.424Z" fill="#4F3220"/>
<path d="M54.2046 102.881C53.2943 102.338 52.0866 102.105 51.0799 101.811C50.4538 101.629 49.7977 101.516 49.1606 101.382C49.0043 101.329 48.845 101.292 48.6813 101.273C48.5045 101.245 48.3277 101.216 48.1502 101.187C48.0706 100.555 47.9098 100.283 47.6724 100.369C47.714 100.323 47.7308 100.262 47.7243 100.199C47.7345 100.109 47.6965 100.025 47.6008 99.9847C47.554 99.9503 47.4978 99.9386 47.4371 99.9562C47.3451 99.9562 47.2625 99.9861 47.2092 100.07C46.6094 101.007 47.5292 101.707 48.3876 101.818C49.5734 101.971 50.7811 102.326 51.9201 102.675C52.2488 102.776 56.1889 104.145 55.1866 104.994C54.887 105.247 55.3166 105.669 55.614 105.422C56.9195 104.336 55.0383 103.38 54.2046 102.881Z" fill="#4F3220"/>
<path d="M55.8703 105.752C55.4831 104.804 53.9663 104.568 53.1554 104.218C51.5576 103.527 49.9101 103.186 48.245 102.737C47.0133 102.404 47.9331 101.886 47.7892 101.398C47.7344 101.212 47.467 101.212 47.4114 101.398C47.505 101.084 47.0615 101.712 46.9424 101.921C46.664 102.403 47.0754 102.764 47.4209 103.009C47.6883 103.201 48.1245 103.29 48.4372 103.375C49.2774 103.604 50.1475 103.814 50.9965 104.032C51.7745 104.232 52.5037 104.563 53.2394 104.883C53.5375 105.013 56.0821 105.748 55.1521 106.612C54.96 106.789 55.1579 107.157 55.4144 107.063C56.0398 106.834 56.1231 106.372 55.8703 105.752Z" fill="#4F3220"/>
<path d="M54.765 106.248C53.7502 105.596 52.4249 105.284 51.2691 105.021C50.8286 104.921 50.3807 104.794 49.93 104.739C49.7714 104.718 46.4494 104.084 47.6242 103.184C47.7272 103.105 47.7272 102.984 47.6242 102.906C47.6118 102.896 47.5979 102.886 47.5855 102.876C47.5219 102.827 47.3992 102.845 47.348 102.906C46.3698 104.099 47.2545 104.644 48.433 105.013C49.4733 105.338 50.5773 105.5 51.6403 105.748C52.4892 105.945 53.3075 106.266 54.0994 106.623C54.2762 106.702 55.6249 107.595 55.3188 107.645C54.9733 107.7 55.0587 108.26 55.3999 108.248C55.725 108.237 56.1802 108.153 56.1802 107.713C56.1802 106.968 55.2998 106.591 54.765 106.248Z" fill="#4F3220"/>
<path d="M54.2807 107.267C52.8239 106.594 51.4569 106.132 49.9088 105.715C49.2308 105.533 48.4301 105.599 47.7923 105.336C47.5183 105.074 47.4467 104.807 47.5753 104.536C47.6534 104.436 47.6235 104.251 47.481 104.226C47.4628 104.221 47.4445 104.218 47.427 104.215C47.3247 104.197 47.199 104.241 47.1771 104.357C47.1267 104.62 46.7877 104.806 46.9009 105.139C47.0514 105.584 47.3685 105.913 47.8631 106.005C49.1219 106.241 50.372 106.447 51.6089 106.795C52.4264 107.025 53.1928 107.454 53.9556 107.822C54.0805 107.882 55.8792 108.904 55.3999 108.965C54.9762 109.018 54.9477 109.664 55.3999 109.649C55.9545 109.63 56.3819 109.461 56.376 108.859C56.3694 108.077 54.7987 107.507 54.2807 107.267Z" fill="#4F3220"/>
<path d="M54.3623 108.807C53.3066 108.354 52.275 107.92 51.1856 107.539C50.6209 107.342 47.1111 106.728 47.4633 105.777C47.5444 105.558 47.255 105.449 47.1096 105.571C46.1226 106.393 47.6627 107.122 48.3151 107.297C49.5484 107.626 50.7655 108.023 51.9659 108.453C52.1091 108.504 55.7234 110.051 55.3939 110.326C55.1046 110.567 55.4845 111.053 55.795 110.845C56.9961 110.035 54.9548 109.061 54.3623 108.807Z" fill="#4F3220"/>
<path d="M54.3486 109.886C53.0182 109.356 51.6008 108.858 50.2105 108.512C49.4711 108.328 46.4786 108.215 47.5467 106.919C47.6212 106.828 47.6037 106.675 47.4737 106.643C46.5137 106.406 46.5005 107.742 46.9162 108.255C47.5993 109.097 49.6158 109.01 50.5802 109.258C51.3013 109.443 52.0172 109.759 52.7179 110.01C53.0773 110.14 56.0611 111.133 55.2881 111.638C54.9272 111.875 55.2399 112.399 55.6249 112.213C57.0642 111.516 55.0543 110.167 54.3486 109.886Z" fill="#4F3220"/>
<path d="M52.9954 110.557C51.7936 110.222 50.5654 109.979 49.3461 109.719C48.2195 109.478 48.0463 109.444 47.7592 108.337C47.7037 108.123 47.3837 108.123 47.3282 108.337C47.2215 108.746 46.9402 108.799 47.0235 109.289C47.0827 109.632 47.6438 109.875 47.909 109.972C48.9873 110.366 50.1556 110.523 51.2697 110.786C51.7884 110.909 52.3064 111.046 52.8237 111.177C53.178 111.272 53.528 111.377 53.875 111.494C54.5603 111.684 55.1441 112.059 55.627 112.62C55.2098 112.66 55.1945 113.272 55.627 113.281C55.814 113.285 55.8863 113.281 56.0602 113.222C56.2195 113.167 56.2889 113.054 56.3094 112.894C56.5132 111.347 54.0175 110.841 52.9954 110.557Z" fill="#4F3220"/>
<path d="M55.0016 112.468C53.9138 111.638 52.4511 111.297 51.1244 111.071C50.3273 110.936 49.5222 110.845 48.7251 110.703C48.5242 110.648 48.3189 110.608 48.1129 110.583C47.7242 110.597 47.4115 109.905 47.7249 109.834C47.9645 109.78 47.9645 109.403 47.7249 109.349C47.7066 109.345 47.6884 109.341 47.6716 109.337C47.581 109.317 47.4787 109.334 47.4137 109.405C46.7145 110.165 46.6246 111.153 47.8403 111.226C49.1839 111.306 50.6378 111.619 51.9485 111.928C52.7814 112.125 53.6311 112.419 54.3711 112.85C54.6948 113.039 55.7907 113.921 55.1894 114.024C54.7839 114.092 54.8804 114.761 55.2866 114.737C56.9582 114.637 55.714 113.013 55.0016 112.468Z" fill="#4F3220"/>
<path d="M54.9016 113.772C53.645 113.08 52.2525 112.651 50.8563 112.358C50.2616 112.233 49.653 112.176 49.0561 112.059C48.7872 112.006 46.6181 111.739 47.3772 111.161C47.5832 111.004 47.4714 110.667 47.1967 110.731C45.9956 111.014 46.5918 112.348 47.5138 112.545C48.6893 112.796 49.9138 112.853 51.0952 113.113C51.9514 113.301 52.7573 113.574 53.5522 113.943C53.878 114.101 54.2046 114.255 54.5319 114.406C54.4647 114.375 55.8032 115.375 55.7053 115.403C55.302 115.519 55.424 116.045 55.798 116.089C56.205 116.137 56.4716 115.732 56.4716 115.348C56.4716 114.683 55.3977 114.045 54.9016 113.772Z" fill="#4F3220"/>
<path d="M54.4038 114.765C53.2203 114.239 52.0484 113.875 50.7655 113.684C50.0948 113.585 49.446 113.495 48.7994 113.293C48.2478 113.122 46.8283 113.352 47.3565 112.244C47.4354 112.078 47.2776 111.919 47.111 111.999C45.9296 112.563 46.8414 113.71 47.8073 113.802C49.2071 113.936 50.775 114.298 52.1441 114.642C52.505 114.732 56.4225 116.268 55.77 116.75C55.61 116.867 55.5655 117.127 55.77 117.236C55.8036 117.254 55.8387 117.272 55.8723 117.29C56.0235 117.371 56.1799 117.344 56.3056 117.235C57.6031 116.111 55.1826 115.112 54.4038 114.765Z" fill="#4F3220"/>
<path d="M55.1828 116.112C54.0452 115.451 52.4715 115.086 51.1871 114.863C50.5362 114.749 49.8801 114.678 49.2299 114.553C49.0114 114.51 48.7908 114.474 48.5687 114.445C48.3787 114.421 48.1895 114.398 47.9988 114.374C47.8147 114.086 47.5743 113.89 47.2763 113.787C47.3742 113.762 47.4333 113.687 47.4596 113.599C47.4633 113.591 47.4706 113.588 47.4743 113.579C47.4808 113.562 47.4874 113.545 47.494 113.528C47.5451 113.393 47.4377 113.273 47.323 113.227C47.3069 113.221 47.2894 113.214 47.2726 113.207C47.1988 113.176 47.1126 113.203 47.0454 113.253C46.9621 113.285 46.8927 113.349 46.8642 113.442C46.439 114.83 47.2507 114.955 48.4766 115.121C49.6259 115.276 50.8007 115.497 51.9367 115.736C52.424 115.838 52.9011 116.032 53.3687 116.2C53.6587 116.305 56.4087 117.422 55.513 117.894C55.1696 118.076 55.4078 118.624 55.7738 118.515C57.2211 118.089 55.8966 116.527 55.1828 116.112Z" fill="#4F3220"/>
<path d="M53.9033 117.208C52.8892 116.875 51.7436 116.544 50.674 116.471C50.0581 116.429 49.443 116.403 48.83 116.32C48.6349 116.294 46.0472 116.004 47.4419 114.932C47.6742 114.754 47.5069 114.399 47.2483 114.479C47.2483 114.477 47.249 114.475 47.249 114.473C45.9851 114.821 46.3475 116.283 47.3403 116.7C48.4881 117.183 49.8923 117.037 51.0978 117.252C51.805 117.379 52.5005 117.556 53.1924 117.751C53.4971 117.845 53.7988 117.943 54.0991 118.049C54.4446 118.166 55.553 119.055 55.6457 119.036C55.2994 119.109 55.2994 119.657 55.6457 119.732C55.6815 119.739 55.7166 119.747 55.7517 119.755C55.9767 119.801 56.1433 119.689 56.2258 119.486C56.7365 118.221 54.8004 117.501 53.9033 117.208Z" fill="#4F3220"/>
<path d="M54.4113 118.941C53.0963 118.43 51.8484 118.01 50.4705 117.696C49.8583 117.556 49.2446 117.502 48.6272 117.394C48.2122 117.309 47.8111 117.174 47.4261 116.991C47.2537 116.915 46.8219 116.535 46.987 116.504C47.2888 116.448 47.1982 116.006 46.9169 115.992C46.5582 115.974 46.4069 116.246 46.3332 116.568C46.1761 117.244 47.1324 117.626 47.5861 117.785C48.9107 118.244 50.3544 118.381 51.7213 118.694C52.2371 118.813 56.2707 120.365 55.8879 120.84C55.6022 121.194 56.0406 121.651 56.392 121.344C57.6793 120.212 55.1638 119.234 54.4113 118.941Z" fill="#4F3220"/>
<path d="M53.564 120.007C52.6486 119.785 51.6951 119.664 50.7687 119.496C50.2193 119.397 49.6443 119.375 49.0891 119.326C48.6252 119.294 48.1663 119.233 47.7097 119.146C46.7753 118.4 46.6116 117.821 47.218 117.407C47.3386 117.301 47.2443 117.087 47.0887 117.093C45.5757 117.154 46.0286 119.258 47.1647 119.663C48.4915 120.135 49.9527 120.01 51.3174 120.343C51.9669 120.5 56.227 121.108 55.7477 121.93C55.6718 122.062 55.7353 122.278 55.9012 122.307C55.9603 122.316 56.0195 122.326 56.0787 122.336C56.2679 122.368 56.4075 122.312 56.52 122.156C57.5487 120.729 54.2179 120.164 53.564 120.007Z" fill="#4F3220"/>
<path d="M54.8708 121.848C53.7048 121.601 52.5161 121.417 51.3391 121.216C50.5822 121.087 46.2973 120.95 46.9249 119.464C47.0344 119.206 46.713 118.873 46.4967 119.134C45.4666 120.381 47.41 121.2 48.3444 121.509C49.498 121.891 50.8613 121.869 52.0587 122.067C52.6191 122.16 53.1839 122.375 53.7494 122.423C54.0394 122.448 56.7192 122.721 55.6737 123.642C55.372 123.907 55.7556 124.338 56.0821 124.172C57.837 123.28 55.9382 122.076 54.8708 121.848Z" fill="#4F3220"/>
<path d="M56.4365 124.503C56.2137 123.974 55.7841 123.716 55.2675 123.513C54.1709 123.082 53.0911 122.71 51.9207 122.503C50.9592 122.333 49.9985 122.152 49.0239 122.068C48.7243 122.042 46.4376 121.795 46.9979 120.84C47.0513 120.749 47.0366 120.659 47.0162 120.562C46.9614 120.294 46.5325 120.294 46.4777 120.562C46.4281 120.803 46.1066 121.004 46.2403 121.488C46.4281 122.171 47.3625 122.418 47.9316 122.588C49.1444 122.949 50.4924 122.915 51.7344 123.18C52.2363 123.286 55.8717 123.992 55.7293 124.896C55.6898 125.145 55.9463 125.306 56.145 125.138C56.2246 125.073 56.3021 125.006 56.381 124.94C56.5139 124.827 56.4971 124.644 56.4365 124.503Z" fill="#4F3220"/>
<path d="M54.3009 124.498C53.243 124.194 52.1705 123.939 51.0732 123.809C50.5026 123.741 49.9393 123.674 49.3651 123.645C49.3534 123.643 45.7282 123.392 46.9124 122.225C46.9709 122.166 46.9709 122.066 46.9124 122.007C46.884 121.979 46.854 121.951 46.8255 121.923C46.6728 121.772 46.4346 121.851 46.3689 122.043C45.905 123.412 46.9292 123.959 48.1355 124.208C49.4454 124.478 55.9872 124.479 55.787 126.556C55.7585 126.857 56.202 126.95 56.3386 126.706C57.1569 125.238 55.3917 124.811 54.3009 124.498Z" fill="#4F3220"/>
<path d="M55.7704 126.425C54.608 125.744 53.2199 125.534 51.9128 125.276C51.0076 125.1 50.0812 125.065 49.1731 124.894C48.9159 124.834 48.6566 124.784 48.395 124.743C48.3095 124.728 45.6231 123.751 46.6957 123.607C47.0368 123.562 47.0368 123.123 46.6957 123.077C46.6752 123.074 46.6555 123.072 46.6357 123.069C46.5422 123.057 46.4443 123.13 46.399 123.205C45.7181 124.319 46.9331 125.094 47.8281 125.283C50.296 125.808 53.2323 125.664 55.4555 126.963C55.804 127.166 56.1167 126.628 55.7704 126.425Z" fill="#4F3220"/>
<path d="M47.0902 124.457C47.0405 124.313 46.9631 124.196 46.8871 124.065C46.8075 123.927 46.8762 123.769 46.9565 123.647C47.0077 123.602 47.0471 123.544 47.0676 123.471C47.1399 123.193 46.722 122.997 46.5905 123.27C46.5869 123.275 46.5847 123.282 46.5817 123.286C46.3706 123.47 46.2069 123.827 46.307 124.153C46.372 124.362 46.6921 124.923 46.9755 124.74C47.0661 124.682 47.1275 124.566 47.0902 124.457Z" fill="#4F3220"/>
<path d="M56.2377 126.338C56.1756 126.133 55.8877 126.133 55.8256 126.338C55.7284 126.656 51.7737 126.483 51.3631 126.523C50.5514 126.598 49.7741 126.647 48.958 126.594C47.5458 126.502 47.0351 125.851 46.9693 124.479C46.9591 124.27 46.6822 124.183 46.5704 124.37C45.0939 126.842 48.9244 127.333 50.4061 127.255C51.1951 127.215 51.9805 127.094 52.7695 127.049C53.5929 127.003 54.39 127.254 55.1944 127.253C55.8176 127.252 56.4714 127.104 56.2377 126.338Z" fill="#4F3220"/>
<path d="M53.8773 94.8844C53.1102 94.5352 52.3146 94.2458 51.5219 93.958C51.0046 93.7695 46.8307 92.9395 47.5533 91.916C47.7082 91.6946 47.3743 91.4645 47.1902 91.6369C46.3602 92.4142 47.4927 93.2734 48.1728 93.592C49.409 94.1713 55.9186 94.9947 55.2194 97.2902C55.112 97.6416 55.6607 97.79 55.7674 97.4407C56.1268 96.2572 54.8183 95.3125 53.8773 94.8844Z" fill="#4F3220"/>
<path d="M47.3549 92.8891C47.3301 92.9169 47.2417 92.9008 47.2117 92.9111C47.1372 92.9359 47.0714 92.9637 47.0027 93.0009C46.8581 93.0769 46.7229 93.2332 46.6798 93.3911C46.6009 93.6782 46.8522 94.0296 47.089 94.1684C47.2409 94.2583 47.387 94.1114 47.3622 93.958C47.3461 93.8696 47.3089 93.7929 47.2672 93.7125C47.1876 93.5525 47.1649 93.5123 47.341 93.421C47.3037 93.4407 47.4762 93.3947 47.5025 93.3867C47.6121 93.3516 47.6764 93.2771 47.7421 93.1887C47.9109 92.9615 47.5419 92.686 47.3549 92.8891Z" fill="#4F3220"/>
<path d="M53.2884 93.1463C52.4665 92.7802 51.5532 92.572 50.6867 92.3375C49.7676 92.0883 47.0243 91.7976 47.5291 90.3736C47.5744 90.2458 47.413 90.1311 47.3034 90.1998C46.2097 90.8894 47.1214 91.978 48.0493 92.1994C49.3293 92.5033 50.5706 92.8964 51.8294 93.2756C52.5074 93.4794 53.1416 93.7154 53.7874 94.0127C54.2513 94.2261 55.2588 95.7253 55.4254 95.7077C55.3311 95.7172 55.2588 95.7574 55.2106 95.8151C55.1017 95.867 55.0535 95.9992 55.0762 96.1125C55.0791 96.1278 55.0827 96.1439 55.0856 96.1592C55.1171 96.3119 55.2822 96.3565 55.4108 96.3127C55.4721 96.3134 55.5313 96.2988 55.5839 96.2674C55.6891 96.2243 55.7578 96.1044 55.7658 95.9934C55.8725 94.5139 54.4931 93.6825 53.2884 93.1463Z" fill="#4F3220"/>
<path d="M54.5359 91.718C53.3706 90.9823 51.9189 90.8939 50.5958 90.69C49.8382 90.5731 49.0543 90.4409 48.3032 90.2977C47.6398 90.1706 47.6515 89.7439 47.4776 89.1361C47.4228 88.9403 47.1387 88.9403 47.0839 89.1361C46.8026 90.1202 47.0904 90.6367 48.1469 90.8647C49.0784 91.0663 50.042 91.2175 50.9867 91.341C51.6501 91.4279 52.2777 91.5332 52.9264 91.688C53.3867 91.8174 53.8243 91.9956 54.24 92.225C55.1226 92.6152 55.3915 93.345 55.0473 94.4132C54.6886 94.5425 54.8318 95.1065 55.2073 94.9925C55.6903 94.8449 55.9686 94.4278 55.9759 93.9076C55.9891 92.8548 55.3929 92.2586 54.5359 91.718Z" fill="#4F3220"/>
<path d="M54.0029 89.7856C52.9793 89.3801 51.8542 89.196 50.7569 89.1404C49.6917 89.0864 47.0374 89.1426 47.497 87.4981C47.543 87.3337 47.3296 87.2051 47.2098 87.3308C46.2827 88.2951 47.0783 89.2844 48.2034 89.516C49.4075 89.7636 56.2612 89.6694 55.0776 92.2228C54.922 92.556 55.3779 92.8373 55.5751 92.5143C56.297 91.3344 55.0404 90.1976 54.0029 89.7856Z" fill="#4F3220"/>
<path d="M53.8436 88.7014C52.6929 88.2455 51.4779 87.9846 50.26 87.7866C48.9347 87.5718 47.4472 87.5097 47.5203 85.8133C47.5276 85.6248 47.2587 85.5591 47.1681 85.7183C46.6859 86.5695 47.0344 87.5609 47.9813 87.894C48.6958 88.1446 56.3364 89.25 55.2303 90.9837C55.0571 91.2555 55.4597 91.5682 55.6766 91.3278C56.9216 89.9477 54.8759 89.1105 53.8436 88.7014Z" fill="#4F3220"/>
<path d="M54.7658 87.8904C53.6743 87.4886 52.5667 87.1569 51.4452 86.8501C50.5101 86.5936 46.9141 86.4409 47.5577 84.5216C47.6155 84.3529 47.3678 84.2002 47.2501 84.3434C46.5619 85.1806 46.8176 86.2641 47.9428 86.663C48.8085 86.9699 55.8624 88.2068 55.1698 89.4385C54.9799 89.7783 55.4606 90.0391 55.6812 89.7366C56.3103 88.8738 55.6469 88.2155 54.7658 87.8904Z" fill="#4F3220"/>
<path d="M47.494 83.3804C47.5101 83.2277 47.3107 83.1795 47.2164 83.2657C46.3682 84.0292 47.5079 85.0155 48.2392 85.2741C49.5901 85.7497 55.0652 86.3663 55.2851 88.2316C55.2223 88.4179 55.3187 88.6641 55.5744 88.6655C55.5912 88.6655 55.608 88.6655 55.6241 88.6655C55.8002 88.6663 55.9419 88.5201 55.9434 88.3463C55.977 84.6977 47.1682 86.4482 47.494 83.3804Z" fill="#4F3220"/>
<path d="M54.0593 85.2968C53.0094 84.8957 51.9654 84.5603 50.8914 84.2308C49.789 83.8918 46.7197 83.913 47.4459 81.9857C47.4978 81.8454 47.3152 81.7154 47.1961 81.7936C46.6328 82.1618 46.6533 82.6454 46.7928 83.2737C46.955 83.9992 47.9654 84.1928 48.5404 84.3244C49.553 84.5574 55.652 85.7139 55.256 87.1298C55.164 87.4586 55.5848 87.5814 55.7667 87.3454C56.6259 86.2268 54.8564 85.6014 54.0593 85.2968Z" fill="#4F3220"/>
<path d="M53.3276 83.3607C52.1316 82.9516 50.8867 82.6264 49.6637 82.3086C48.6912 82.0558 47.4558 81.8542 47.4368 80.6487C47.4332 80.4814 47.2359 80.4536 47.146 80.5705C46.4045 81.5371 47.4032 82.2553 48.2945 82.5753C50.1364 83.2372 55.366 83.6084 55.2622 86.1611C55.2454 86.5717 55.8394 86.549 55.8862 86.1611C56.0834 84.5106 54.7245 83.84 53.3276 83.3607Z" fill="#4F3220"/>
<path d="M53.8194 82.1297C52.7659 81.703 51.5991 81.3969 50.493 81.1419C49.6674 80.9527 46.7852 80.6801 47.3397 79.2029C47.3923 79.0619 47.2155 78.9545 47.0994 79.018C45.8245 79.7289 47.1059 80.9446 47.9761 81.1331C49.0953 81.3757 56.348 82.9903 55.1549 84.5625C54.9343 84.8511 55.4055 85.1945 55.6481 84.9432C56.9741 83.5704 55.0599 82.633 53.8194 82.1297Z" fill="#4F3220"/>
<path d="M54.2754 80.8438C53.1693 80.4391 52.0982 80.0592 50.9432 79.7874C50.1395 79.5981 46.8504 79.4856 47.5905 77.9127C47.6811 77.7213 47.4612 77.5422 47.299 77.6869C46.2885 78.5812 46.9673 79.6018 48.0902 79.8655C49.1254 80.1096 56.0142 81.0192 55.1558 83.094C55.0046 83.4601 55.562 83.6376 55.7607 83.3483C56.5169 82.2444 55.2478 81.1996 54.2754 80.8438Z" fill="#4F3220"/>
<path d="M53.9544 79.3183C52.9367 78.7806 51.6823 78.5819 50.5944 78.2195C50.0757 78.0456 47.0488 77.6409 47.5975 76.6253C47.6903 76.4522 47.5047 76.2681 47.3323 76.3601C45.9508 77.101 47.6633 77.958 48.3405 78.2436C49.652 78.7952 55.8386 79.6464 55.3228 81.7081C55.2403 82.0427 55.729 82.2721 55.8942 81.9485C56.5795 80.6078 54.948 79.8422 53.9544 79.3183Z" fill="#4F3220"/>
<path d="M54.5641 77.8286C53.6837 77.4005 52.7289 77.117 51.7878 76.8569C51.2165 76.6984 46.8461 76.287 47.4846 74.9281C47.5701 74.7455 47.3619 74.5782 47.2063 74.7133C46.4925 75.3358 46.6196 76.4719 47.6951 76.6801C48.8172 76.8971 49.9402 77.09 51.0551 77.3464C51.9508 77.5524 56.4812 78.6337 55.3546 80.3426C55.1625 80.6363 55.6191 80.9942 55.8448 80.7203C56.8786 79.4731 55.7513 78.405 54.5641 77.8286Z" fill="#4F3220"/>
<path d="M54.8009 76.9819C53.6604 76.3199 52.4542 75.9013 51.1976 75.5163C50.4904 75.2993 49.7854 75.094 49.0679 74.9172C48.6405 74.8127 46.7483 74.4321 47.6951 73.6131C47.8317 73.4947 47.6805 73.3186 47.5366 73.3413C47.0098 73.4217 46.6416 73.7709 46.6416 74.34C46.6416 74.9939 47.5264 75.17 47.991 75.2788C49.5026 75.6324 51.0084 76.119 52.4769 76.6239C52.5857 76.6611 55.9209 78.1603 55.644 78.4832C55.4204 78.7441 55.7258 79.2277 56.0363 78.9917C57.0884 78.1888 55.3678 77.3114 54.8009 76.9819Z" fill="#4F3220"/>
<path d="M54.7971 75.547C53.6428 74.9976 52.4658 74.5958 51.2435 74.2231C50.5261 74.0047 49.8386 73.749 49.1065 73.578C48.7179 73.4874 46.9864 73.3406 47.5818 72.4931C47.6556 72.3879 47.5577 72.222 47.4313 72.2308C46.2097 72.3156 46.8695 73.7344 47.698 73.9572C48.6251 74.2078 56.7289 76.1855 55.6074 77.6029C55.4109 77.8506 55.6739 78.3043 55.9771 78.0814C57.3447 77.0791 55.8331 76.0394 54.7971 75.547Z" fill="#4F3220"/>
<path d="M56.1781 75.5039C55.609 74.557 54.1814 74.1399 53.2119 73.7556C52.3958 73.4326 51.5783 73.1492 50.7242 72.9453C50.2004 72.8197 49.689 72.6787 49.1578 72.58C48.9978 72.5384 48.8363 72.4967 48.6763 72.4551C47.9618 72.401 47.4986 72.0233 47.2882 71.3212C47.4928 71.2489 47.4928 70.98 47.2882 70.9077C47.0252 70.8149 46.76 71.0969 46.695 71.3329C46.5101 72.005 46.9938 72.4244 47.5132 72.7393C48.6588 73.4356 50.299 73.4903 51.5695 73.8849C52.2183 74.0865 55.6331 75.1276 55.3825 76C55.2809 76.3543 55.7405 76.4916 55.9355 76.2337C56.0334 76.1205 56.1138 75.9963 56.1781 75.8619C56.2387 75.7515 56.2439 75.6142 56.1781 75.5039Z" fill="#4F3220"/>
<path d="M47.5488 70.5658C47.3107 70.4598 47.0834 70.725 47.2661 70.9311C47.9404 71.6931 56.2181 73.3895 55.3509 74.7784C55.1638 75.0787 55.619 75.444 55.8484 75.162C57.859 72.6816 48.8142 71.1283 47.5488 70.5658Z" fill="#4F3220"/>
<path d="M56.2203 72.9687C56.0697 72.1125 54.8051 71.707 54.1351 71.4506C52.8018 70.9413 51.2749 70.861 49.8641 70.728C49.1218 70.6586 47.9112 70.2458 47.1777 70.4204C46.9811 70.4664 46.9811 70.7689 47.1777 70.8157C48.0405 71.0195 48.9552 71.1861 49.8641 71.3023C50.6268 71.4002 51.3866 71.5163 52.1486 71.6193C52.7908 71.7055 53.3614 71.8458 53.9722 72.0438C53.8005 71.9883 56.4234 72.949 55.4816 73.4517C55.1835 73.6102 55.3976 74.031 55.7001 73.9704C56.1823 73.874 56.2992 73.4122 56.2203 72.9687Z" fill="#4F3220"/>
<path d="M54.5151 70.7426C53.7392 70.511 52.7493 70.6278 51.95 70.6381C51.0601 70.649 50.087 70.5438 49.2548 70.9069C49.1716 70.942 49.1716 71.0881 49.2548 71.1232C49.8992 71.4052 56.0172 70.668 55.5109 72.3689C55.3991 72.7451 55.896 72.8978 56.1027 72.6187C56.9319 71.4929 55.256 70.9639 54.5151 70.7426Z" fill="#4F3220"/>
<path d="M57.9958 67.8691C57.3332 66.4562 55.5607 65.6415 54.0718 65.6328C51.6272 65.6174 47.8303 68.5106 50.1719 71.056C50.2354 71.1254 50.3421 71.1488 50.4312 71.1239C50.4619 71.1166 50.4933 71.1079 50.5247 71.0998C50.7556 71.0377 50.7556 70.6944 50.5247 70.633C49.5457 70.3714 50.5291 68.0233 50.8506 67.6178C51.3357 67.0056 52.482 66.5153 53.2294 66.3926C54.4378 66.1939 55.411 66.549 56.4338 67.1225C57.1038 67.4987 58.2157 69.3552 57.6291 70.1347C57.4566 70.3619 57.7788 70.6206 57.9951 70.5015C58.8491 70.0302 58.2968 68.5099 57.9958 67.8691Z" fill="#4F3220"/>
<path d="M48.3 64.9402C46.6532 64.9059 44.2824 65.8725 44.5082 67.8867C44.5257 68.0416 44.7354 68.0854 44.7858 67.9247C45.238 66.5095 46.4888 65.467 48.0267 65.5751C49.0532 65.6467 50.3529 66.1362 50.7811 67.1671C50.8943 67.4367 51.2172 67.4367 51.3297 67.1671C51.8075 66.02 49.0685 64.9556 48.3 64.9402Z" fill="#4F3220"/>
<path d="M54.2375 65.6818C53.9562 64.5662 52.7836 63.9656 51.714 63.8823C50.6685 63.8019 49.539 64.6268 49.5953 65.7015C49.6084 65.9375 49.9737 66.012 50.0256 65.7599C50.2294 64.759 51.2406 64.3923 52.1633 64.5647C53.0422 64.7283 53.2446 65.5386 53.8547 65.9762C54.0505 66.1172 54.2879 65.8863 54.2375 65.6818Z" fill="#4F3220"/>
<path d="M58.1199 64.7342C57.7458 64.005 56.8165 64.1818 56.1714 64.3806C55.5321 64.5771 54.6583 65.2047 54.6934 65.9499C54.7022 66.1252 54.9513 66.2173 55.0404 66.0441C55.302 65.5407 55.8141 65.1681 56.3299 64.9526C56.5827 64.8467 56.8669 64.8781 57.1314 64.8248C57.4054 64.7707 57.6085 64.9964 57.8437 65.0929C58.0592 65.182 58.2068 64.9029 58.1199 64.7342Z" fill="#4F3220"/>
<path d="M48.9852 65.1396C48.2313 64.3513 46.8015 63.8253 45.7407 64.3148C45.4966 64.4273 45.0356 64.7341 45.0356 65.0563C45.0356 65.1988 45.1679 65.3756 45.3242 65.2901C45.4134 65.2412 45.5427 65.1674 45.3542 65.2382C45.5821 65.152 45.699 64.9058 45.9467 64.8035C46.404 64.615 47.158 64.7443 47.6029 64.8839C48.034 65.0191 48.3416 65.3646 48.7595 65.5283C48.9882 65.6189 49.135 65.2952 48.9852 65.1396Z" fill="#4F3220"/>
<path d="M51.0298 63.9517C50.6586 63.6981 50.3993 63.2978 49.9448 63.1714C49.3867 63.0165 48.7971 63.0267 48.2243 63.091C47.8378 63.1341 47.509 63.2876 47.235 63.5601C47.1108 63.6828 47.0568 63.8582 46.9976 64.016C46.9326 64.1884 46.8376 64.3623 46.9757 64.2044C46.8464 64.3535 46.9684 64.6655 47.1905 64.5741C47.3761 64.4981 47.3907 64.3988 47.4886 64.2234C47.7954 63.6718 48.2754 63.6711 48.8394 63.6711C49.5269 63.6689 49.9273 63.8311 50.4446 64.2636C50.6345 64.4229 50.7258 64.4806 50.9713 64.3981C51.1773 64.3279 51.2073 64.0722 51.0298 63.9517Z" fill="#4F3220"/>
<path d="M54.3601 63.0801C53.7785 63.0319 52.115 63.2905 52.1617 64.1789C52.1413 64.2227 52.1325 64.2717 52.15 64.3163C52.1559 64.3309 52.1617 64.3455 52.1676 64.3608C52.2187 64.4931 52.3575 64.5267 52.4518 64.4602C52.5036 64.4448 52.5511 64.4171 52.5804 64.3667C52.9603 63.6931 53.837 63.6273 54.5047 63.7413C54.927 63.8136 55.2719 64.0321 55.5926 64.3031C55.811 64.4872 55.8746 64.7948 56.0887 64.9884C56.2428 65.1287 56.5402 65.0439 56.5256 64.8072C56.4642 63.8041 55.2631 63.1561 54.3601 63.0801Z" fill="#4F3220"/>
<path d="M53.5987 63.2079C52.8221 62.5913 52.3165 62.0368 51.2543 61.9696C50.3834 61.9148 49.289 62.4372 49.175 63.3672C49.1392 63.6536 49.5658 63.6741 49.6506 63.4322C50.0108 62.3963 51.4369 62.4825 52.2055 62.85C52.6278 63.0523 52.8674 63.5886 53.3109 63.7026C53.5761 63.7705 53.8428 63.4023 53.5987 63.2079Z" fill="#4F3220"/>
<path d="M48.0882 63.145C47.7733 62.8141 47.3444 62.6709 46.8849 62.63C46.5378 62.5993 45.9892 62.6548 45.8496 63.0304C45.8182 63.1151 45.9 63.2247 45.9906 63.2159C46.3062 63.1867 46.5999 63.1801 46.9141 63.2488C47.0982 63.289 47.2998 63.3672 47.4693 63.4461C47.5307 63.4738 47.6155 63.5988 47.6988 63.6499C48.0173 63.8442 48.338 63.4059 48.0882 63.145Z" fill="#4F3220"/>
<path d="M57.004 62.5833C56.6702 62.3239 56.1383 62.3013 55.7606 62.503C55.5202 62.6315 55.2996 62.7521 55.0921 62.9311C54.9913 63.0187 54.908 63.1013 54.8291 63.208C54.794 63.2467 54.7684 63.2913 54.7538 63.3417C54.7472 63.4308 54.7429 63.4425 54.7392 63.3767C54.5434 63.6325 54.9569 63.9269 55.1746 63.7121C55.2835 63.6047 55.2696 63.5535 55.3777 63.4768C55.5823 63.3336 55.7452 63.1897 55.9798 63.0896C56.3378 62.9362 56.687 63.1064 57.004 62.8602C57.0815 62.8003 57.0815 62.6439 57.004 62.5833Z" fill="#4F3220"/>
<path d="M50.6968 62.1859C49.8318 60.6107 47.4062 60.9987 46.916 62.6491C46.8678 62.8156 47.0051 63.0041 47.1819 62.9968C47.1841 62.9968 47.187 62.9968 47.1885 62.9968C47.3354 62.991 47.4179 62.8967 47.442 62.7886C47.4442 62.7908 47.4457 62.793 47.4471 62.7945C47.6919 62.1654 48.1668 61.9221 48.8009 61.8074C49.4965 61.6818 49.8406 62.2129 50.3206 62.5621C50.5573 62.7338 50.8203 62.4102 50.6968 62.1859Z" fill="#4F3220"/>
<path d="M55.9901 62.6651C55.2033 61.1681 52.6199 60.4251 51.7746 62.2151C51.7234 62.3239 51.7249 62.4489 51.8162 62.538C51.8279 62.5497 51.8403 62.5607 51.8513 62.5716C51.9134 62.6337 52.0288 62.6585 52.1055 62.6052C52.183 62.549 52.2297 62.492 52.2867 62.4138C52.6074 61.9645 52.8741 61.7804 53.4345 61.7884C54.2089 61.7994 55.0798 62.2633 55.456 62.9771C55.6416 63.3307 56.1757 63.018 55.9901 62.6651Z" fill="#4F3220"/>
<path d="M48.9251 61.1652C48.5913 60.8817 48.2881 60.5938 47.8512 60.4726C47.6093 60.4053 47.2864 60.2914 47.1279 60.5113C47.0672 60.5485 47.0176 60.615 47.027 60.6859C47.0278 60.6968 47.0292 60.7078 47.0314 60.7188C47.0153 60.7984 47.0402 60.8817 47.1381 60.8948C47.1629 60.8978 47.187 60.8963 47.2097 60.897C47.2075 60.9014 47.2228 60.9043 47.2813 60.9043C47.3434 60.9043 47.3894 60.8788 47.4362 60.8408C47.3763 60.8897 47.5516 60.9241 47.5998 60.9489C47.8073 61.0556 47.9914 61.1367 48.1799 61.2813C48.3151 61.3865 48.4371 61.5166 48.5839 61.6079C48.8528 61.7752 49.1721 61.3748 48.9251 61.1652Z" fill="#4F3220"/>
<path d="M55.7437 60.6158C55.4201 60.3455 55.0709 60.561 54.7297 60.6837C54.5383 60.7532 54.349 60.8174 54.1949 60.9555C54.1335 61.0111 54.0736 61.0629 54.0254 61.1309C54.0013 61.1645 53.9677 61.2587 53.9355 61.2733C53.6119 61.4253 53.853 61.8761 54.1627 61.8154C54.3059 61.7884 54.3885 61.6956 54.463 61.5765C54.55 61.437 54.6201 61.3595 54.7786 61.2872C54.9503 61.2083 55.1176 61.1214 55.2879 61.0432C55.45 60.9694 55.6042 60.9731 55.7437 60.8562C55.811 60.8007 55.811 60.6713 55.7437 60.6158Z" fill="#4F3220"/>
<path d="M53.3995 61.1096C53.0115 60.3177 52.08 59.7156 51.1734 59.8946C50.4238 60.0422 49.4258 60.4937 49.5317 61.4303C49.5602 61.6846 49.905 61.7569 49.9891 61.4925C50.2192 60.7619 50.7671 60.52 51.4868 60.4828C52.3138 60.4397 52.4694 61.1659 53.0678 61.4406C53.2906 61.5436 53.5105 61.3361 53.3995 61.1096Z" fill="#4F3220"/>
<path d="M50.7476 60.3038C50.6307 59.9772 50.4846 59.7215 50.2669 59.4461C50.1427 59.2898 49.9929 59.1582 49.8344 59.037C49.6583 58.904 49.4647 58.8616 49.2733 58.7688C49.068 58.6702 48.8481 58.9208 49.022 59.0947C49.1264 59.1984 49.2601 59.2583 49.3851 59.3351C49.5356 59.4278 49.6642 59.5586 49.7847 59.6872C49.9213 59.8326 50.0265 60.0057 50.1288 60.176C50.1902 60.2783 50.1865 60.4105 50.2611 60.5091C50.4276 60.7305 50.8572 60.6129 50.7476 60.3038Z" fill="#4F3220"/>
<path d="M55.8608 60.4624C55.7001 59.742 55.0301 58.8858 54.2491 58.9157C53.4184 58.9486 52.4321 59.7632 52.4336 60.6363C52.4343 60.9336 52.8625 60.9862 52.945 60.7057C53.0904 60.2177 53.5214 59.7859 53.9934 59.6039C54.5516 59.3892 55.1989 60.1366 55.2537 60.6363C55.2741 60.8248 55.4458 61.0272 55.6599 60.9461C55.6994 60.9307 55.7395 60.9161 55.7753 60.8957C55.9339 60.8087 55.9573 60.5983 55.8608 60.4624Z" fill="#4F3220"/>
<path d="M53.1795 59.8092C52.9019 59.1137 52.3452 58.7046 51.5861 58.706C50.9563 58.7075 50.0102 59.3635 50.1556 60.0832C50.1782 60.192 50.3046 60.2205 50.3916 60.1789C50.5457 60.1051 50.6049 59.9875 50.7057 59.8509C50.9337 59.5411 51.1909 59.3475 51.5861 59.2949C52.2685 59.2043 52.343 59.7391 52.7083 60.0832C52.8975 60.2607 53.2899 60.0876 53.1795 59.8092Z" fill="#4F3220"/>
</g>
</svg>
