<svg width="537" height="859" viewBox="0 0 537 859" fill="none" xmlns="http://www.w3.org/2000/svg">
<g opacity="0.3">
<path d="M526.277 255.003C518.555 249.634 510.331 245.722 501.528 242.527C480.908 235.058 459.98 231.201 438.174 231.207C418.216 231.219 398.406 233.277 378.707 236.379C379.905 235.525 381.121 234.653 382.393 233.793C395.82 224.8 408.112 214.923 422.35 207.054C437.842 198.491 453.923 193.037 470.821 187.963C485.994 183.405 502.044 183.896 517.395 180.53C518.961 180.186 520.054 177.926 519.016 176.556C513.23 168.951 496.368 168.687 487.738 167.987C467.093 166.329 446.921 164.903 426.245 167.293C399.205 170.426 366.059 181.052 342.785 198.688C344.241 196.347 345.758 194.026 347.195 191.661C357.103 175.42 366.815 159.025 375.114 141.893C381.127 129.498 388.855 114.374 389.303 100.412C389.383 98.072 386.907 97.2059 385.083 97.986C374.352 102.624 364.29 113.674 355.678 121.346C351.256 125.296 347.067 129.504 342.988 133.791C349.616 121.715 355.629 109.301 360.967 96.5917C365.365 86.1554 370.212 75.5287 373.867 64.8037C376.594 56.8368 381.336 46.8858 381.471 38.4152C381.49 36.6645 379.278 35.1473 377.73 36.2653C355.679 52.3466 339.124 75.3568 324.241 97.9369C310.199 119.233 302.453 142.716 293.436 166.071C293.509 152.563 293.005 138.988 293.626 125.591C294.67 102.851 292.662 79.7119 289.971 57.1685C288.448 44.4042 286.003 31.7689 284.609 18.9984C283.933 12.7391 283.859 5.64441 279.43 0.810181C277.926 -0.829895 275.634 0.25116 274.934 2.00183C264.252 28.7283 257.366 58.7103 253.576 87.2611C252.993 91.7083 252.495 96.1064 252.065 100.474C248.441 84.7733 241.758 69.6871 235.873 54.8466C231.96 44.9877 228.127 35.3438 223.453 25.8044C219.644 18.0156 216.782 8.8692 210.467 2.75116C208.705 1.04352 206.297 2.42566 206.039 4.59399C202.55 33.6116 208.256 66.4008 215.842 94.4049C219.903 109.399 224.571 124.258 228.705 139.246C229.614 142.532 230.879 148.779 232.796 154.203C226.966 149.553 220.572 145.585 213.508 142.655C210.695 141.5 207.826 140.517 204.921 139.664C189.091 120.099 174.699 99.8104 157.844 81.0263C149.158 71.3579 140.485 61.8676 131.087 52.8809C125.706 47.7334 118.163 37.4938 110.312 36.8058C108.795 36.6768 107.401 38.2063 107.456 39.6621C107.647 45.043 110.392 50.5099 111.731 55.7004C114.293 65.6453 117.432 75.5042 120.429 85.3323C126.08 103.877 135.988 122.348 145.417 139.209C145.927 140.124 146.462 141.015 146.996 141.906C127.241 149.486 110.589 164.172 102.646 185.475C101.793 187.778 104.741 189.799 106.688 188.589C127.217 175.782 152.395 175.819 174.521 184.087C186.333 200.002 199.282 215.002 213.508 229.241C210.289 227.945 207.046 226.686 203.754 225.445C180.897 216.894 158.814 209.64 134.846 204.665C112.339 199.984 89.3663 196.268 66.4728 194.112C48.7944 192.441 27.5225 187.975 10.01 192.373C8.10576 192.852 7.31341 195.524 8.82449 196.894C14.7951 202.281 24.0212 205.076 31.3186 208.129C45.5448 214.075 60.0968 219.192 74.753 223.989C96.4978 231.108 118.937 235.906 141.161 241.36C133.624 241.833 126.031 242.785 118.359 244.358C79.0774 252.442 32.3199 266.858 7.15372 300.716C6.23847 301.951 7.01248 303.646 8.11815 304.396C10.2066 305.815 12.6758 306.3 15.2066 305.925C25.1207 304.439 35.0042 302.75 44.9245 301.257C57.9468 299.291 70.9814 297.412 84.0098 295.52C78.9115 297.479 73.893 299.525 68.985 301.668C51.3374 309.377 34.82 318.997 19.6171 330.846C14.9364 334.494 -2.65606 347.124 0.341529 355.367C0.72237 356.43 1.58845 357.234 2.77397 357.228C6.20768 357.204 8.28389 355.201 11.3859 353.745C18.3762 350.465 25.1331 347.24 32.4489 344.642C48.0265 339.095 64.2491 335.385 80.3673 331.804C94.4768 328.665 108.777 325.956 122.776 322.387C132.063 320.022 141.505 319.144 150.897 317.719C139.232 325.293 127.948 333.438 117.106 342.105C100.036 355.76 84.0283 371.332 70.6865 388.678C58.0267 405.165 43.6222 424.152 38.874 444.791C38.573 446.118 39.2671 447.739 40.7168 448.034C49.083 449.73 59.6606 435.681 64.5194 430.823C79.6793 415.687 96.3749 400.19 113.513 387.327C119.25 383.027 125.098 378.549 131.062 374.028C115.313 394.311 98.4387 413.47 83.8316 434.803C75.1522 447.475 66.8535 460.362 59.2674 473.735C54.1076 482.832 47.7439 493.225 45.4773 503.582C45.1763 504.958 45.6923 506.094 46.8348 506.893C56.319 513.514 75.2382 491.217 80.6129 486.573C100.337 469.533 118.992 451.591 137.346 433.102C170.663 399.526 199.497 361.583 226.629 323.051C228.637 328.192 231.383 332.965 235.081 337.001C236.156 338.18 238.164 337.83 238.938 336.509C242.292 330.79 244.424 324.187 246.248 317.461C246.451 317.32 246.647 317.166 246.819 316.939C247.176 316.46 248.705 316.374 249.319 316.073C251.494 314.979 253.662 314.218 256.033 313.665C256.242 313.616 256.439 313.567 256.641 313.511C255.02 315.913 253.466 318.346 251.862 320.833C250.314 323.247 247.231 328.683 247.993 331.601C248.269 332.664 248.939 333.819 249.768 334.857C245.056 340.189 241.666 347.228 238.496 353.469C236.291 357.799 236.217 360.846 237.845 363.647C237.845 363.653 237.833 363.653 237.833 363.666C236.875 368.248 231.635 373.832 229.233 377.714C227.169 381.068 223.453 385.478 222.605 389.397C222.163 391.442 222.439 393.107 223.152 394.514C221.106 396.842 219.737 399.667 217.894 402.339C214.374 407.425 211.217 412.628 208.029 417.917C205.001 422.954 204.872 426.203 206.745 428.9C201.204 430.982 195.787 438.427 193.164 442.881C190.578 447.272 179.521 458.974 184.202 464.552C176.554 472.052 169.681 482.07 164.65 491.26C162.512 495.154 163.55 498.391 165.909 501.076C161.321 505.787 157.813 510.885 153.802 516.211C150.417 520.72 145.897 528.108 145.983 533.963C145.989 534.498 146.124 535.018 146.333 535.51C138.74 543.189 131.738 555.395 128.765 565.29C127.708 568.803 127.641 571.948 128.458 574.701C121.51 585.536 113.537 595.837 108.666 607.863C106.123 614.143 104.821 617.636 106.731 620.986C106.713 621.015 106.676 621.027 106.658 621.058C99.3111 632.362 90.4535 644.179 85.0357 656.532C83.6045 659.795 84.2063 662.41 85.828 664.56C84.1265 666.04 83.0762 668.474 81.8968 670.254C76.9459 677.754 73.9606 686.35 69.63 694.174C65.7909 701.128 64.5931 705.514 66.5526 709.408C62.9653 713.487 61.405 718.627 58.4996 723.167C54.6543 729.199 51.8103 736.208 49.0216 742.78C46.8778 747.83 46.6198 751.754 48.2292 754.979C40.8519 765.195 34.525 778.414 29.9304 789.826C27.1355 796.763 25.6675 801.394 27.5779 805.017C21.3001 816.608 15.9684 828.776 10.4093 840.797C5.58739 851.223 12.7066 854.697 22.4733 856.653C28.8862 857.936 47.6272 860.965 51.6138 853.106C54.3411 847.727 55.4713 841.62 56.0425 835.663C56.6998 828.961 58.6594 821.443 58.3093 814.569C60.8769 813.904 63.1189 812.604 64.6914 810.301C68.7332 804.426 69.6239 795.311 71.1411 788.525C72.7197 781.399 75.57 774.323 76.1413 767.055C78.8256 766.625 81.0306 765.318 82.1547 762.487C86.9767 750.41 92.4375 735.624 93.1562 722.504C95.2447 721.674 97.1673 720.009 98.8135 717.111C105.761 704.861 105.644 689.334 111.363 676.464C113.777 676.392 115.835 675.538 116.891 673.27C119.704 667.269 121.774 660.697 123.458 654.29C125.337 647.152 128.169 640.167 129.275 632.87C131.627 632.354 133.746 630.728 135.454 627.421C138.12 622.251 140.638 617.072 142.696 611.604C145.436 604.339 149.828 597.243 151.671 589.769C153.648 589.726 155.442 588.84 156.836 586.47C163.354 575.394 167.328 561.635 171.106 549.197C171.487 549.307 171.831 549.448 172.218 549.552C173.071 549.787 174.263 549.59 174.847 548.859C177.777 545.185 178.747 539.609 179.945 535.143C181.99 527.525 184.146 520.013 185.983 512.372C189.957 513.023 192.728 511.082 195.817 505.031C200.977 494.927 203.827 484.122 208.158 473.661C208.576 473.342 208.969 472.949 209.337 472.5C212.654 468.385 214.3 462.439 216.266 457.623C218.588 451.947 221.979 445.755 223.183 439.791C223.281 439.299 223.201 438.876 223.048 438.501C225.529 438.912 227.925 438.335 230.007 435.565C232.98 431.633 234.577 425.472 236.469 421.044C238.674 415.865 240.714 410.368 242.255 404.882C244.86 405.122 246.991 403.998 248.183 399.802C250.781 390.675 254.025 382.229 255.057 372.75C255.775 372.48 256.494 372.136 257.231 371.651C257.366 371.559 257.477 371.436 257.618 371.332C255.714 389.2 254.559 407.174 253.558 425.104C251.998 452.961 250.014 480.786 248.846 508.662C248.232 523.146 248.595 537.636 248.275 552.127C248.085 561.089 247.587 570.814 249.141 579.634C249.473 581.556 251.776 582.036 253.269 581.316C258.103 578.993 259.854 573.196 262.108 568.644C266.377 560.025 269.995 551.296 272.723 542.066C279.584 518.834 285.935 495.265 291.2 471.603C296.046 449.834 298.356 427.53 299.572 405.282C300.303 391.965 301.943 378.23 300.745 364.827C303.995 369.44 307.256 374.096 310.352 378.985C334.523 417.02 354.776 459.324 352.552 505.609C352.405 508.496 356.029 508.858 357.46 506.948C367.829 493.072 369.432 473.065 370.157 456.376C370.353 451.941 370.408 447.567 370.39 443.225C377.939 460.006 385.746 476.689 395.298 492.457C401.171 502.157 408.284 511.137 414.764 520.43C419.07 526.587 422.713 535.64 428.868 540.069C430.802 541.451 433.124 539.546 433.247 537.557C434.261 521.98 428.825 506.057 425.139 491.125C420.575 472.598 414.5 454.484 407.215 436.842C395.532 408.494 377.608 382.966 356.035 361.215C354.309 356.596 352.368 352.044 350.169 347.67C361.041 352.83 372.786 356.737 383.793 361.51C399.924 368.518 416.079 376.381 431.632 384.636C446.399 392.468 460.183 402.026 474.642 410.417C482.701 415.098 490.785 419.662 498.697 424.625C503.715 427.77 507.554 432.02 513.519 433.163C515.724 433.599 517.345 431.891 516.965 429.717C515.368 420.442 508.777 412.395 503.77 404.674C498.033 395.841 491.7 387.726 484.741 379.827C470.164 363.266 453.26 348.346 435.422 335.404C416.73 321.847 395.691 310.514 373.793 303.155C359.149 298.241 341.71 291.423 325.174 289.26C331.956 287.338 338.749 285.427 345.525 283.548C366.674 277.675 389.205 276.932 410.986 275.44C451.957 272.632 493.236 267.872 534.293 267.81C536.013 267.804 537.407 266.09 536.891 264.414C535.343 259.352 530.38 257.841 526.277 255.003Z" fill="#A25B1D"/>
<path d="M536.891 264.414C535.343 259.352 530.38 257.841 526.277 255.003C518.555 249.635 510.331 245.722 501.528 242.528C480.908 235.058 459.98 231.201 438.174 231.207C418.216 231.219 398.406 233.277 378.707 236.379C379.905 235.525 381.121 234.653 382.393 233.793C395.82 224.8 408.112 214.923 422.35 207.054C437.842 198.491 453.923 193.037 470.821 187.963C485.994 183.405 502.044 183.897 517.395 180.53C518.961 180.186 520.054 177.926 519.016 176.556C513.23 168.952 496.368 168.688 487.738 167.987C467.093 166.329 446.921 164.904 426.245 167.293C399.205 170.426 366.059 181.053 342.785 198.688C344.241 196.348 345.758 194.026 347.195 191.661C357.103 175.42 366.815 159.025 375.114 141.893C381.127 129.498 388.855 114.375 389.303 100.413C389.383 98.0722 386.907 97.2061 385.083 97.9862C374.352 102.624 364.29 113.674 355.678 121.347C351.256 125.296 347.067 129.504 342.988 133.791C349.616 121.715 355.629 109.301 360.967 96.5919C365.365 86.1556 370.212 75.5289 373.867 64.804C376.594 56.837 381.336 46.886 381.471 38.4153C381.49 36.6647 379.278 35.1475 377.73 36.2654C355.679 52.3467 339.124 75.3569 324.241 97.9371C310.199 119.233 302.453 142.717 293.436 166.071C293.509 152.563 293.005 138.988 293.626 125.591C294.67 102.851 292.662 79.712 289.971 57.1687C288.448 44.4044 286.003 31.7691 284.609 18.9986C283.933 12.7393 283.859 5.64465 279.43 0.810425C277.926 -0.829651 275.634 0.251404 274.934 2.00201C264.252 28.7285 257.366 58.7105 253.576 87.2613C252.993 91.7085 252.495 96.1066 252.065 100.474C248.441 84.7736 241.758 69.6873 235.873 54.8468C231.96 44.9879 228.127 35.3441 223.453 25.8046C219.644 18.0158 216.782 8.86945 210.467 2.7514C208.705 1.04376 206.297 2.42584 206.039 4.59418C202.55 33.6118 208.256 66.4011 215.842 94.4051C219.903 109.399 224.571 124.258 228.705 139.246C229.614 142.532 230.879 148.779 232.796 154.203C226.966 149.553 220.572 145.585 213.508 142.655C210.695 141.5 207.826 140.518 204.921 139.664C189.091 120.1 174.699 99.8106 157.844 81.0266C149.158 71.3581 140.485 61.8677 131.087 52.8811C125.706 47.7336 118.163 37.494 110.312 36.806C108.795 36.677 107.401 38.2065 107.456 39.6624C107.647 45.0432 110.392 50.5101 111.731 55.7006C114.293 65.6455 117.432 75.5044 120.429 85.3325C126.08 103.877 135.988 122.348 145.417 139.209C145.927 140.124 146.462 141.015 146.996 141.906C127.241 149.486 110.589 164.173 102.646 185.475C101.793 187.779 104.741 189.8 106.688 188.59C127.217 175.782 152.395 175.819 174.521 184.087C186.333 200.003 199.282 215.003 213.508 229.241C210.289 227.945 207.046 226.686 203.754 225.445C180.897 216.895 158.814 209.64 134.846 204.665C112.339 199.984 89.3663 196.268 66.4728 194.112C48.7944 192.441 27.5225 187.975 10.01 192.373C8.10576 192.853 7.31341 195.525 8.82449 196.894C14.7951 202.281 24.0212 205.076 31.3186 208.129C45.5448 214.075 60.0968 219.192 74.753 223.989C96.4978 231.109 118.937 235.906 141.161 241.361C133.624 241.834 126.031 242.786 118.359 244.358C79.0774 252.442 32.3199 266.858 7.15372 300.716C6.23847 301.951 7.01248 303.646 8.11815 304.396C10.2066 305.815 12.6758 306.3 15.2066 305.925C25.1207 304.439 35.0042 302.75 44.9245 301.257C57.9468 299.291 70.9814 297.412 84.0098 295.52C78.9115 297.479 73.893 299.525 68.985 301.669C51.3374 309.378 34.82 318.997 19.6171 330.846C14.9364 334.495 -2.65606 347.124 0.341529 355.367C0.72237 356.43 1.58845 357.234 2.77397 357.228C6.20768 357.204 8.28389 355.201 11.3859 353.745C18.3762 350.465 25.1331 347.241 32.4489 344.642C48.0265 339.095 64.2491 335.385 80.3673 331.804C94.4768 328.665 108.777 325.956 122.776 322.388C132.063 320.023 141.505 319.144 150.897 317.719C139.232 325.293 127.948 333.438 117.106 342.105C100.036 355.76 84.0283 371.332 70.6865 388.678C58.0267 405.165 43.6222 424.152 38.874 444.791C38.573 446.118 39.2671 447.739 40.7168 448.034C49.083 449.73 59.6606 435.682 64.5194 430.823C79.6793 415.687 96.3749 400.19 113.513 387.327C119.25 383.027 125.098 378.549 131.062 374.028C115.313 394.311 98.4387 413.47 83.8316 434.803C75.1522 447.475 66.8535 460.362 59.2674 473.735C54.1076 482.832 47.7439 493.225 45.4773 503.582C45.1763 504.958 45.6923 506.094 46.8348 506.893C56.319 513.514 75.2382 491.217 80.6129 486.573C100.337 469.533 118.992 451.591 137.346 433.102C170.663 399.526 199.497 361.583 226.629 323.051C228.637 328.192 231.383 332.965 235.081 337.001C236.156 338.18 238.164 337.83 238.938 336.509C242.292 330.791 244.424 324.187 246.248 317.461C246.451 317.32 246.647 317.166 246.819 316.939C247.176 316.46 248.705 316.374 249.319 316.073C250.462 315.502 251.611 315.029 252.784 314.617C252.98 314.236 253.244 313.868 253.699 313.604C254.246 313.278 254.799 312.94 255.339 312.615C255.511 312.406 255.726 312.222 255.984 312.074C259.756 309.961 263.005 308.929 267.286 308.002C268.73 307.688 270.634 308.708 270.456 310.416C267.845 336.055 262.391 361.147 256.322 386.111C255.204 399.096 254.289 412.106 253.558 425.104C251.998 452.961 250.014 480.787 248.846 508.662C248.232 523.146 248.595 537.636 248.275 552.127C248.085 561.089 247.587 570.814 249.141 579.634C249.473 581.556 251.776 582.036 253.269 581.316C258.103 578.993 259.854 573.196 262.108 568.644C266.377 560.025 269.995 551.296 272.723 542.066C279.584 518.834 285.935 495.265 291.2 471.603C296.046 449.834 298.356 427.53 299.572 405.282C300.303 391.965 301.943 378.23 300.745 364.827C303.995 369.44 307.256 374.096 310.352 378.985C334.523 417.02 354.776 459.324 352.552 505.609C352.405 508.496 356.029 508.858 357.46 506.948C367.829 493.072 369.432 473.065 370.157 456.376C370.353 451.941 370.408 447.568 370.39 443.225C377.939 460.006 385.746 476.689 395.298 492.458C401.171 502.157 408.284 511.137 414.764 520.43C419.07 526.587 422.713 535.64 428.868 540.069C430.802 541.452 433.124 539.546 433.247 537.557C434.261 521.98 428.825 506.057 425.139 491.125C420.575 472.599 414.5 454.484 407.215 436.843C395.532 408.494 377.608 382.966 356.035 361.215C354.309 356.596 352.368 352.044 350.169 347.67C361.041 352.83 372.786 356.737 383.793 361.51C399.924 368.518 416.079 376.381 431.632 384.637C446.399 392.468 460.183 402.026 474.642 410.417C482.701 415.098 490.785 419.662 498.697 424.625C503.715 427.77 507.554 432.021 513.519 433.163C515.724 433.599 517.345 431.892 516.965 429.717C515.368 420.442 508.777 412.395 503.77 404.674C498.033 395.841 491.7 387.726 484.741 379.827C470.164 363.266 453.26 348.346 435.422 335.404C416.73 321.847 395.691 310.514 373.793 303.155C359.149 298.241 341.71 291.423 325.174 289.261C331.956 287.338 338.749 285.428 345.525 283.548C366.674 277.676 389.205 276.932 410.986 275.44C451.957 272.633 493.236 267.872 534.293 267.811C536.013 267.804 537.407 266.091 536.891 264.414Z" fill="#5D892D"/>
<path d="M227.827 254.082C227.962 254.131 228.11 254.162 228.245 254.217C227.876 254.082 227.79 254.057 227.827 254.082Z" fill="#7FB029"/>
<path d="M363.666 392.216C359.519 378.93 357.541 366.19 351.669 353.377C339.015 325.815 316.736 310.078 290.219 297.356C290.084 297.295 289.948 297.276 289.807 297.24C289.445 296.152 287.823 295.563 287.276 296.853C282.706 307.664 279.236 319.439 282.602 331.012C286.834 345.582 298.695 355.465 307.148 367.548C310.053 371.712 312.916 375.908 315.76 380.134C321.878 391.356 327.774 402.696 334.617 413.568C340.711 423.267 343.106 436.83 346.651 447.727C349.396 456.136 350.865 464.638 352.689 473.133C351.915 482.525 350.662 495.314 354.648 502.04C355.152 502.888 356.215 503.367 357.173 503.072C365.146 500.566 365.699 477.961 366.62 471.057C368.248 458.796 369.219 445.196 368.094 432.039C368.15 431.879 368.285 431.805 368.303 431.603C369.606 418.986 367.456 404.373 363.666 392.216Z" fill="#7FB029"/>
<path d="M529.933 260.765C515.903 249.536 498.667 243.24 481.203 239.819C471.056 237.829 462.155 234.499 451.651 234.192C439.655 233.854 428.039 232.847 416.018 233.609C376.798 236.102 338.204 248.394 300.193 257.878C307.417 245.574 316.226 232.441 324.924 221.68C335.642 208.406 341.828 191.851 352.467 178.258C368.499 157.76 382.215 130.855 386.214 104.848C386.595 102.397 383.77 101.168 382.271 103.189C378.647 108.091 372.952 110.284 368.573 114.289C362.381 119.952 356.478 125.376 349.776 130.536C338.308 139.369 329.659 151.138 321.17 162.711C311.809 175.487 302.951 189.517 295.642 203.559C289.106 216.108 280.66 229.432 276.053 242.902C275.918 242.939 275.826 243.056 275.691 243.117C272.754 223.086 264.818 202.797 255.61 184.959C246.034 166.396 232.379 151.783 213.079 143.712C194.203 135.831 175.204 138.189 155.584 141.807C132.752 146.021 117.875 159.148 107.906 179.806C107.838 179.959 107.819 180.1 107.789 180.26C107.74 180.279 107.684 180.297 107.635 180.328C106.179 181.261 106.628 183.94 108.575 183.792C108.851 183.768 109.134 183.743 109.411 183.725C110.006 183.675 110.596 183.338 110.934 182.846C123.274 176.317 141.057 177.121 154.657 177.299C168.619 177.471 182.894 183.307 194.602 190.414C207.01 197.951 216.752 206.667 225.641 218.092C234.959 230.046 244.253 239.389 249.677 253.922C247.128 255.421 244.904 257.227 242.828 259.174C242.723 258.566 242.514 257.958 242.201 257.411C240.598 254.684 234.805 254.573 229.75 254.886C228.601 254.42 227.889 254.125 227.827 254.082C218.564 250.961 209.019 249.518 199.356 248.259C189.344 246.95 179.178 246.342 169.117 245.537C156.266 244.506 144.368 245.654 131.542 246.078C108.944 246.846 82.9236 254.635 62.524 264.033C52.0755 268.842 41.2952 273.597 31.94 280.329C27.2471 283.701 22.806 287.387 18.4694 291.232C17.8919 291.748 10.9938 298.689 12.9656 298.628C11.1781 298.677 10.7174 300.649 11.5651 301.712C10.8833 302.553 11.2703 304.15 12.548 304.003C28.7583 302.105 44.4955 298.64 60.4908 295.323C80.1041 291.251 100 290.888 119.847 288.738C139.036 286.662 157.9 282.393 177.047 280.028C186.26 278.88 195.081 278.081 204.344 278.683C211.568 279.156 222.723 278.216 229.105 282.369C228.902 283.014 228.718 283.665 228.528 284.322C228.356 284.273 228.196 284.217 227.987 284.217H227.834C227.484 284.217 227.183 284.291 226.925 284.408C207.416 287.16 188.933 298.173 172.243 307.909C150.824 320.385 132.181 334.126 112.973 349.581C94.656 364.305 79.6373 380.103 65.9086 399.268C58.6849 409.348 51.9711 419.797 45.8777 430.583C44.4956 433.04 41.6024 438.741 42.2904 442.266C42.1736 442.457 42.0569 442.647 41.9402 442.844C41.0249 444.33 42.8371 446.124 44.3236 445.221C49.7291 441.953 53.7402 436.241 58.4639 432.021C64.5696 426.566 70.2085 420.694 76.4371 415.337C92.285 401.713 107.42 387.573 124.828 375.773C141.776 364.286 158.072 352.161 175.615 341.405C192.747 330.883 208.503 323.579 228.178 319.832C228.301 319.808 228.386 319.74 228.497 319.703C230.235 325.385 232.938 330.293 236.857 332.941C237.993 333.708 239.953 332.996 240.192 331.589C241.034 326.436 242.262 321.288 243.54 316.147C244.019 315.926 244.425 315.508 244.621 314.844C245.5 311.939 246.298 309.003 247.06 306.048C250.862 293.229 255.604 280.348 258.442 267.485C261.317 261.054 265.002 255.003 269.972 249.567C270.193 249.549 270.42 249.549 270.629 249.42C270.869 249.291 271.108 249.131 271.323 248.959C271.44 248.879 271.557 248.793 271.679 248.713C271.999 248.658 272.324 248.627 272.625 248.455C273.135 248.363 273.522 248.136 273.811 247.798C274.48 247.706 275.125 247.479 275.555 246.999C282.884 250.562 289.315 255.323 294.253 261.889C294.524 262.233 294.886 262.473 295.261 262.651C295.574 266.643 296.354 270.575 296.422 274.629C296.526 280.913 294.598 287.16 294.014 293.413C293.891 294.715 295.414 295.262 296.391 294.807C296.956 295.114 297.638 295.213 298.369 294.832C314.395 286.527 334.254 284.156 351.595 280.053C373.487 274.85 394.875 274.868 417.069 272.405C436.657 270.231 456.406 269.463 475.97 267.147C485.288 266.041 494.054 264.027 503.544 264.014C511.683 264.008 520.209 265.421 528.176 264.985C530.111 264.881 531.751 262.221 529.933 260.765Z" fill="#7FB029"/>
<path d="M244.644 303.456C241.911 312.129 240.289 322.357 236.352 330.815C223.078 313.168 227.359 284.555 238.416 267.51C244.411 258.277 254.638 251.263 265.449 249.733C261.34 254.315 258.508 261.422 256.211 267.596C251.85 279.316 248.404 291.533 244.644 303.456ZM294.246 255.003C284.387 240.746 264.7 242.307 251.352 248.996C222.255 263.566 212.85 312.725 235.08 337.001C236.155 338.18 238.164 337.83 238.938 336.509C245.621 325.103 247.458 310.182 251.721 297.719C254.878 288.487 261.45 251.963 275.37 249.923C277.354 250.323 279.332 250.925 281.26 251.772C298.03 259.131 297.2 280.507 289.497 294.132C288.355 296.134 291.254 298.567 292.784 296.669C301.893 285.329 302.372 266.76 294.246 255.003Z" fill="#4F3220"/>
<path d="M289.669 292.842C287.292 293.861 281.107 289.899 279.374 288.892C276.008 286.933 271.555 287.301 267.82 286.902C260.142 286.079 253.533 290.237 248.833 295.925C247.513 297.522 249.497 299.525 251.106 298.198C259.737 291.079 270.984 289.058 280.683 295.397C284.325 297.768 289.024 299.377 292.09 295.962C293.693 294.187 291.703 291.957 289.669 292.842Z" fill="#4F3220"/>
<path d="M358.026 495.744C357.695 463.895 346.841 432.721 332.264 404.729C323.321 387.567 312.35 371.725 300.55 356.436C295.526 349.925 291.484 342.443 287.817 335.115C284.346 328.192 282.288 322.056 283.83 314.052C284.303 311.613 288.517 299.457 288.799 299.457C289.033 299.451 289.211 299.371 289.408 299.316C294.617 302.547 300.87 304.224 306.214 307.565C315.249 313.229 321.877 320.188 329.334 327.67C344.709 343.094 351.915 363.844 357.603 384.477C363.383 405.466 365.121 425.829 365.121 447.488C365.115 462.396 364.82 481.253 358.026 495.744ZM363.844 387.56C359.194 367.652 352.068 345.938 338.917 329.986C332.246 321.89 324.304 313.966 316.085 307.461C308.284 301.294 298.64 299.341 290.691 294.273C289.457 293.493 288.326 293.929 287.651 294.801C287.018 294.942 286.379 295.274 286.097 295.845C280.728 306.828 274.456 317.811 279.813 330.305C287.645 348.549 299.856 362.468 310.354 378.985C334.525 417.02 354.777 459.324 352.553 505.609C352.406 508.496 356.03 508.858 357.461 506.948C367.83 493.072 369.433 473.065 370.158 456.376C371.196 432.666 369.237 410.626 363.844 387.56Z" fill="#4F3220"/>
<path d="M298.71 354.114C297.009 351.878 295.239 349.716 293.292 347.683C292.733 347.044 292.666 346.35 292.764 345.68C290.061 346.681 290.387 351.344 293.808 351.374C290.817 351.35 291.996 352.67 292.776 355.484C294.036 359.999 294.466 364.556 294.926 369.213C295.811 378.156 294.859 387.327 294.183 396.264C292.543 417.8 291.247 439.201 287.494 460.522C283.814 481.438 277.524 501.782 272.444 522.378C270.264 531.211 267.684 539.904 264.778 548.527C263.12 553.466 258.967 566.912 253.906 573.367C251.449 554.135 253.857 532.66 254.287 513.594C254.84 488.889 256.94 464.257 258.237 439.582C259.502 415.503 260.73 391.43 263.298 367.45C264.717 354.083 266.75 340.766 269.422 327.596C271.333 318.161 274.416 300.692 283.065 295.28C285.559 293.72 283.323 289.85 280.755 291.331C266.031 299.789 263.716 328.886 261.283 343.438C256.775 370.429 255.079 397.819 253.556 425.104C251.996 452.961 250.012 480.787 248.844 508.662C248.23 523.146 248.593 537.636 248.273 552.127C248.083 561.089 247.585 570.814 249.139 579.634C249.471 581.556 251.774 582.036 253.267 581.316C258.101 578.993 259.852 573.196 262.106 568.644C266.376 560.025 269.993 551.296 272.721 542.066C279.582 518.834 285.933 495.265 291.198 471.603C296.044 449.834 298.354 427.53 299.57 405.282C300.479 388.635 302.899 371.344 299.3 354.87C299.097 354.618 298.913 354.36 298.71 354.114Z" fill="#4F3220"/>
<path d="M536.89 264.414C535.342 259.352 530.379 257.841 526.276 255.003C518.555 249.635 510.33 245.722 501.527 242.528C480.907 235.058 459.979 231.201 438.173 231.207C414.923 231.225 391.876 233.916 368.976 237.927C356.691 240.083 344.578 242.976 332.594 246.385C320.499 249.819 308.091 255.415 295.732 257.356C293.269 257.743 293.84 261.92 296.309 261.699C313.294 260.12 330.868 251.858 347.483 247.675C369.671 242.098 392.625 239.045 415.377 236.981C437.067 235.003 458.627 236.256 479.721 241.582C490.274 244.241 500.778 247.405 510.705 251.932C514.108 253.486 524.255 258.173 529.138 262.491C488.229 262.823 447.141 267.491 406.366 270.286C385.445 271.73 364.486 273.241 344.08 278.29C326.291 282.688 306.727 287.197 290.173 295.139C287.888 296.232 289.51 299.992 291.899 299.218C309.571 293.493 327.6 288.523 345.524 283.548C366.673 277.676 389.204 276.932 410.986 275.44C451.957 272.633 493.235 267.872 534.292 267.811C536.012 267.804 537.406 266.091 536.89 264.414Z" fill="#4F3220"/>
<path d="M385.081 97.9859C374.35 102.624 364.288 113.674 355.676 121.346C342.341 133.251 330.805 146.85 319.847 160.935C309.533 174.191 300.233 188.147 291.867 202.705C283.63 217.042 278.501 232.988 270.079 247.153C268.673 249.524 272.143 251.416 273.704 249.272C281.511 238.516 285.835 225.015 291.996 213.258C299.687 198.589 309.005 184.799 318.76 171.439C329.171 157.188 340.578 143.724 353.158 131.352C361.641 123.005 372.274 111.672 383.251 105.246C381.408 118.232 373.84 131.862 368.429 142.999C362.12 155.96 354.602 168.288 347.261 180.678C339.184 194.326 330.688 207.736 322.058 221.034C318.072 227.177 313.962 233.227 309.988 239.37C308.053 242.337 298.563 257.325 297.328 257.356C295.54 257.356 294.656 258.731 294.668 260.114C294.656 261.49 295.54 262.872 297.328 262.872H297.561C297.721 262.872 297.832 262.81 297.973 262.786C304.355 261.913 312.009 246.575 314.877 242.226C325.873 225.512 336.77 208.737 347.194 191.661C357.102 175.419 366.813 159.025 375.112 141.893C381.125 129.497 388.853 114.374 389.301 100.412C389.381 98.0719 386.906 97.2058 385.081 97.9859Z" fill="#4F3220"/>
<path d="M259.564 187.244C249.306 167.999 234.054 151.156 213.507 142.655C172.124 125.536 118.991 141.629 102.645 185.475C101.791 187.778 104.74 189.799 106.687 188.589C131.509 173.092 163.168 176.359 187.978 190.309C200.153 197.158 211.302 207.699 221.689 216.999C233.052 227.183 239.815 240.979 248.704 253.08C250.338 255.304 253.999 253.326 252.494 250.869C235.153 222.595 213.623 197.213 183.426 181.888C161.442 170.727 133.432 169.474 111.048 179.996C130.471 141.678 182.548 131.34 219.176 151.592C236.658 161.261 247.684 176.39 256.873 193.632C265.344 209.511 273.741 227.914 272.377 246.33C272.126 249.757 277.347 249.684 277.66 246.33C279.595 225.42 269.097 205.15 259.564 187.244Z" fill="#4F3220"/>
<path d="M224.219 317.707C187.56 325.035 155.133 350.226 125.526 371.872C110.421 382.916 96.7294 394.95 82.6015 407.155C75.1566 413.593 67.8164 420.214 60.7831 427.094C58.885 428.949 50.5125 438.992 45.1378 442.07C50.2361 424.803 62.0361 408.906 72.4846 394.704C85.2367 377.376 100.882 362.24 117.264 348.401C134.255 334.034 152.842 321.619 172.068 310.483C182.671 304.334 193.684 298.726 205.042 294.082C212.057 291.207 220.785 287.559 228.642 286.852C228.642 286.299 228.636 285.741 228.672 285.163C228.746 284.26 229.188 283.64 229.772 283.24C229.901 282.939 230.061 282.657 230.208 282.368C212.843 282.11 192.695 293.978 177.867 301.779C156.307 313.1 136.097 326.921 117.105 342.105C100.034 355.76 84.0266 371.331 70.6849 388.678C58.025 405.165 43.6206 424.152 38.8724 444.791C38.5714 446.118 39.2655 447.739 40.7151 448.034C49.0814 449.729 59.6589 435.681 64.5177 430.823C79.6776 415.687 96.3732 400.189 113.511 387.327C146.22 362.806 182.628 332.252 223.439 323.278C223.893 323.45 224.391 323.536 224.987 323.388C226.086 323.118 226.633 322.516 227.18 321.558C228.384 319.457 226.424 317.264 224.219 317.707Z" fill="#4F3220"/>
<path d="M269.39 305.661C263.788 305.852 258.591 307.645 253.204 309.021C250.231 309.777 244.537 311.724 243.099 314.771C241.902 317.326 245.145 319.114 246.822 316.939C247.178 316.46 248.708 316.374 249.322 316.073C251.496 314.98 253.665 314.218 256.036 313.665C260.483 312.633 264.789 311.177 269.39 311.018C272.836 310.895 272.848 305.532 269.39 305.661Z" fill="#4F3220"/>
<path d="M221.861 320.066C181.75 376.995 136.799 431.609 83.3518 476.806C77.4795 481.776 71.6195 486.77 65.6919 491.684C62.9768 493.938 52.6449 501.229 52.3808 502.003C58.1855 484.54 68.7262 468.459 78.5052 452.992C97.6824 422.641 121.03 395.712 141.178 366.166C142.407 364.366 139.563 362.8 138.31 364.489C120.619 388.421 100.705 410.159 83.8308 434.803C75.1513 447.476 66.8527 460.363 59.2666 473.735C54.1068 482.832 47.7431 493.226 45.4765 503.582C45.1755 504.958 45.6915 506.094 46.834 506.893C56.3181 513.515 75.2373 491.217 80.6121 486.573C100.336 469.534 118.991 451.591 137.345 433.102C170.7 399.496 199.557 361.498 226.72 322.91C228.827 319.931 223.931 317.117 221.861 320.066Z" fill="#4F3220"/>
<path d="M425.14 491.124C420.576 472.598 414.501 454.484 407.216 436.842C395.312 407.972 376.976 382.007 354.875 360.005C353.124 358.266 349.967 360.563 351.398 362.689C359.304 374.421 369.654 384.034 377.609 395.767C386.294 408.556 393.616 421.166 400.054 435.233C407.799 452.168 413.801 470.283 418.5 488.274C422.001 501.708 427.063 516.365 427.554 530.58C423.709 525.461 420.429 518.421 417.308 513.999C410.742 504.706 403.868 495.707 397.904 485.995C387.252 468.643 379.114 449.834 369.242 432.069C368.112 430.024 365.256 431.818 366.171 433.869C375.078 453.771 383.972 473.759 395.299 492.457C401.172 502.156 408.285 511.137 414.765 520.429C419.071 526.587 422.714 535.64 428.869 540.069C430.804 541.451 433.125 539.546 433.248 537.557C434.262 521.98 428.826 506.057 425.14 491.124Z" fill="#4F3220"/>
<path d="M244.337 254.696C202.291 245.876 161.479 235.488 118.358 244.358C79.0763 252.442 32.3189 266.859 7.15266 300.717C6.23741 301.951 7.01142 303.647 8.11709 304.396C10.2056 305.815 12.6748 306.3 15.2055 305.926C25.1197 304.439 35.0032 302.75 44.9235 301.257C65.9864 298.075 87.0862 295.182 108.143 291.957C130.496 288.536 152.714 284.457 175.251 282.467C184.52 281.65 193.826 281.429 203.095 280.796C208.009 280.452 221.658 279.985 225.522 283.302C228.139 285.538 231.947 281.767 229.318 279.506C221.959 273.198 204.883 275.12 196.013 276.036C176.891 277.989 157.88 278.628 138.819 281.619C116.178 285.182 93.5912 288.966 70.8575 291.865C61.7112 293.038 52.6017 294.703 43.4861 296.067C37.798 296.92 21.9624 301.97 13.9831 300.803C26.0104 286.189 44.4751 275.299 61.2198 267.491C79.8626 258.781 99.6847 253.523 119.796 249.567C162.149 241.226 201.707 251.017 243.071 259.266C246.057 259.862 247.334 255.329 244.337 254.696Z" fill="#4F3220"/>
<path d="M182.961 277.921C144.484 275.292 104.047 286.349 68.985 301.668C51.3374 309.377 34.82 318.997 19.6171 330.846C14.9364 334.494 -2.65606 347.124 0.341529 355.367C0.72237 356.43 1.58845 357.234 2.77397 357.228C6.20768 357.204 8.28389 355.201 11.3859 353.745C18.3762 350.465 25.1331 347.24 32.4489 344.642C48.0265 339.095 64.2491 335.385 80.3673 331.804C94.4768 328.665 108.777 325.956 122.776 322.387C134.6 319.377 146.683 318.806 158.581 316.429C161.8 315.784 160.436 310.882 157.23 311.527C146.554 313.653 135.583 314.205 124.901 316.607C111.062 319.709 97.2409 322.916 83.3771 325.919C68.6902 329.101 54.0893 332.553 39.691 336.89C31.546 339.335 10.3847 344.421 6.18314 351.687C13.4375 339.15 28.358 329.967 40.1579 322.357C54.9247 312.836 70.8708 305.569 87.4005 299.641C101.7 294.512 116.344 290.151 131.13 286.656C148.366 282.583 165.442 282.331 182.961 281.134C185.019 280.986 185.019 278.062 182.961 277.921Z" fill="#4F3220"/>
<path d="M250.725 249.604C236.401 238.541 220.651 231.772 203.753 225.445C180.896 216.894 158.814 209.64 134.845 204.665C112.339 199.984 89.3655 196.268 66.4721 194.112C48.7937 192.441 27.5218 187.975 10.0092 192.373C8.10502 192.852 7.31266 195.524 8.82374 196.894C14.7943 202.281 24.0204 205.076 31.3179 208.129C45.5441 214.075 60.096 219.192 74.7523 223.989C103.45 233.393 133.365 238.731 162.419 246.889C164.797 247.564 165.626 244.125 163.421 243.271C139.532 234.02 114.243 230.322 89.7033 223.209C76.1527 219.29 62.8478 214.493 49.5982 209.671C39.8622 206.12 26.6803 202.644 17.2575 196.532C32.8904 194.443 51.5763 198.055 66.4721 199.609C90.4589 202.109 114.36 206.071 137.972 210.998C175.632 218.86 216.603 231.508 247.961 254.34C250.854 256.447 253.459 251.711 250.725 249.604Z" fill="#4F3220"/>
<path d="M154.11 143.711C154.264 143.681 154.411 143.712 154.552 143.724C145.24 128.06 137.845 111.537 130.314 94.9639C126.315 86.1677 123.956 76.9415 121.204 67.7092C119.14 60.7435 115.228 52.0886 113.759 44.3305C116.407 46.4497 119.202 49.8649 120.872 51.2839C125.105 54.908 129.085 58.8331 133.066 62.7214C141.401 70.848 149.006 79.6688 156.776 88.3237C172.839 106.199 185.652 126.543 201.703 144.295C204.099 146.943 207.717 143.116 205.548 140.45C189.467 120.646 174.934 100.062 157.845 81.0263C149.159 71.3579 140.486 61.8675 131.088 52.8809C125.707 47.7334 118.164 37.4938 110.313 36.8058C108.796 36.6768 107.402 38.2063 107.457 39.6621C107.648 45.043 110.393 50.5099 111.732 55.7004C114.294 65.6453 117.433 75.5042 120.43 85.3323C126.081 103.877 135.989 122.348 145.418 139.209C146.499 141.138 147.636 143.005 148.742 144.909C150.566 144.571 152.28 144.031 154.11 143.711Z" fill="#4F3220"/>
<path d="M223.951 233.523C210.831 219.751 197.016 206.323 185.499 191.127C183.803 188.872 182.188 186.55 180.548 184.253C178.324 183.307 176.162 182.294 174.043 181.145C173.281 180.911 172.532 180.684 171.77 180.463C186.31 200.519 202.563 219.137 220.874 236.594C222.907 238.535 225.88 235.55 223.951 233.523Z" fill="#4F3220"/>
<path d="M289.972 57.1685C288.448 44.4042 286.003 31.7689 284.609 18.9984C283.933 12.7391 283.86 5.64441 279.431 0.810196C277.926 -0.82988 275.635 0.251175 274.934 2.00182C264.252 28.7283 257.367 58.7103 253.577 87.2611C249.019 121.567 249.449 153.251 254.025 187.459C254.387 190.217 258.718 190.34 258.442 187.459C257.016 172.391 254.645 157.477 254.357 142.311C254.037 125.462 256.107 108.57 258.27 91.8925C261.845 64.1833 268.165 35.264 278.049 8.94298C280.776 16.1544 280.266 27.2356 281.298 33.8758C283.245 46.4128 284.849 59.0051 286.12 71.6343C288.368 93.8828 287.938 116.07 287.932 138.38C287.92 157.17 288.387 176.243 287.072 194.978C286.532 202.779 284.922 211.126 285.156 218.78C285.236 221.053 288.608 221.053 288.682 218.78C288.952 210.138 291.176 200.359 292.164 191.532C294.603 169.775 292.625 147.452 293.626 125.591C294.671 102.851 292.662 79.7118 289.972 57.1685Z" fill="#4F3220"/>
<path d="M235.872 54.8466C231.959 44.9878 228.126 35.3439 223.452 25.8044C219.644 18.0156 216.781 8.86928 210.467 2.75125C208.704 1.04361 206.296 2.4257 206.038 4.59404C202.549 33.6117 208.255 66.4009 215.841 94.405C219.902 109.399 224.57 124.258 228.704 139.246C230.295 144.983 232.905 159.848 238.342 163.46C240.473 164.873 242.224 161.593 240.301 160.112C237.138 157.692 233.354 139.412 231.806 133.607C228.194 120.056 224.275 106.623 220.516 93.115C213.501 67.8136 208.624 38.1081 210.663 11.2956C214.035 16.6028 216.191 23.1078 218.839 28.4949C223.999 39.0049 228.145 49.8465 232.476 60.7066C239.46 78.2069 248.25 95.8669 250.516 114.817C250.811 117.274 254.656 117.36 254.429 114.817C252.574 93.8583 243.538 74.159 235.872 54.8466Z" fill="#4F3220"/>
<path d="M290.056 176.501C289.841 176.482 289.632 176.464 289.423 176.446C288.944 176.403 288.944 177.232 289.423 177.195C289.632 177.17 289.841 177.152 290.056 177.134C290.449 177.097 290.449 176.544 290.056 176.501Z" fill="#4F3220"/>
<path d="M377.732 36.2653C355.68 52.3466 339.126 75.3568 324.242 97.937C307.522 123.287 299.751 151.758 288.093 179.412C287.19 181.538 290.802 183.03 291.809 180.979C303.621 157.066 310.083 131.211 323.701 107.98C337.043 85.2464 354.249 60.7435 375.502 44.2015C373.555 51.8736 369.218 61.1612 366.97 67.1257C363.155 77.1811 359.058 87.47 354.685 97.3166C346.546 115.64 338.444 133.988 328.683 151.543C327.62 153.448 330.421 155.069 331.589 153.239C343.02 135.296 352.707 116.242 360.969 96.5917C365.367 86.1554 370.213 75.5287 373.868 64.8038C376.595 56.8368 381.337 46.8858 381.473 38.4152C381.491 36.6646 379.28 35.1473 377.732 36.2653Z" fill="#4F3220"/>
<path d="M503.771 404.674C498.034 395.841 491.701 387.726 484.742 379.827C470.165 363.267 453.261 348.346 435.423 335.404C416.731 321.847 395.692 310.514 373.794 303.155C354.985 296.841 331.545 287.283 311.348 288.646C309.34 288.788 309.426 291.466 311.348 291.699C351.22 296.681 391.73 313.548 425.201 335.127C443.599 346.989 459.993 361.952 475.165 377.659C482.979 385.749 490.055 394.434 496.406 403.703C500.915 410.294 506.941 417.874 509.963 425.737C505.522 423.298 500.927 419.398 497.395 417.174C489.662 412.321 481.615 407.966 473.722 403.384C459.139 394.913 445.226 385.478 430.33 377.567C416.196 370.054 401.344 362.966 386.644 356.614C374.003 351.166 359.979 346.835 347.854 340.33C345.974 339.323 343.579 340.57 343.579 342.787V343.408C343.579 345.392 345.249 346.27 346.779 346.098C358.548 352.118 371.656 356.24 383.794 361.51C399.925 368.519 416.08 376.381 431.633 384.637C446.4 392.469 460.184 402.026 474.643 410.417C482.702 415.098 490.786 419.662 498.698 424.625C503.716 427.77 507.555 432.021 513.52 433.163C515.725 433.599 517.347 431.892 516.966 429.717C515.369 420.442 508.778 412.395 503.771 404.674Z" fill="#4F3220"/>
<path d="M263.17 311.97C264.226 309.832 261.321 307.166 259.662 309.267C256.75 312.959 254.41 316.865 251.861 320.834C250.313 323.248 247.229 328.684 247.991 331.601C248.636 334.046 251.136 337.081 253.649 337.83C257.181 338.893 258.286 341.405 262.064 339.181C263.12 338.555 263.12 336.989 262.064 336.368C260.663 335.539 259.527 334.39 258.188 333.61C255.737 332.173 252.463 332.529 254.232 328.628C256.849 322.836 260.369 317.646 263.17 311.97Z" fill="#4F3220"/>
<path d="M260.277 356.878C258.674 359.132 257.918 361.829 256.806 364.335C253.797 371.061 240.449 365.392 241.573 359.083C242.347 354.808 245.449 350.871 247.377 347.056C249.349 343.168 250.953 339.175 253.115 335.379C253.938 333.936 251.984 332.4 250.811 333.598C245.504 339.028 241.904 346.755 238.495 353.469C234.945 360.459 236.917 364.096 242.611 368.764C247.138 372.48 251.849 375.22 257.23 371.651C261.327 368.936 263.115 362.363 263.711 357.812C263.975 355.803 261.204 355.582 260.277 356.878Z" fill="#4F3220"/>
<path d="M263.594 338.002C263.539 337.953 263.576 337.916 263.428 337.867C263.041 337.658 262.716 337.345 262.372 337.074C261.364 336.282 260.338 336.03 259.165 335.582C257.464 334.924 256.72 337.166 257.587 338.291C258.729 339.753 260.252 341.454 261.966 342.259C264.196 343.309 266.1 341.982 266.327 339.654C266.487 338.051 264.81 337.529 263.594 338.002Z" fill="#4F3220"/>
<path d="M251.046 371.024C249.031 376.964 248.442 383.144 246.249 389.078C245.407 391.338 244.283 401.492 239.412 398.912C236.488 397.37 233.454 396.074 230.591 394.44C227.268 392.536 227.133 391.166 229.062 387.794C230.978 384.465 232.889 381.129 234.817 377.818C237.182 373.746 241.58 368.635 240.819 363.666C240.579 362.142 238.141 362.228 237.833 363.666C236.875 368.248 231.636 373.832 229.234 377.714C227.17 381.068 223.454 385.478 222.606 389.397C220.911 397.253 229.443 399.686 235.401 402.505C240.935 405.128 246.052 407.321 248.184 399.803C250.892 390.294 254.351 381.553 255.235 371.59C255.463 369.077 251.783 368.862 251.046 371.024Z" fill="#4F3220"/>
<path d="M239.443 399.999C235.352 406.369 233.761 414.065 230.776 420.982C229.701 423.476 228.288 425.97 227.367 428.501C226.875 430.03 226.23 431.486 225.444 432.886C224.387 434.901 219.228 431.461 218.085 430.798C216.592 429.913 209.934 427.37 210.468 424.877C211.316 420.927 214.504 417.063 216.427 413.562C220.032 407.002 224.375 401.117 227.342 394.194C227.797 393.113 226.715 391.43 225.493 392.351C221.98 394.937 220.358 398.764 217.895 402.339C214.375 407.425 211.218 412.628 208.03 417.917C202.716 426.75 206.089 430.147 214.215 434.582C219.51 437.469 225.469 441.597 230.008 435.565C232.981 431.633 234.578 425.472 236.47 421.043C239.124 414.827 241.568 408.132 243.165 401.565C243.724 399.299 240.696 398.058 239.443 399.999Z" fill="#4F3220"/>
<path d="M219.351 438.169C215.315 444.435 213.485 451.235 210.468 457.955C209.093 461.008 207.778 464.146 206.248 467.126C203.533 472.402 194.528 465.074 191.819 462.943C189.584 461.192 188.122 461.628 190.014 458.495C192.17 454.92 194.516 451.468 196.617 447.856C199.43 442.985 204.295 434.017 209.375 431.099C210.554 430.43 210.143 428.169 208.638 428.366C202.471 429.189 196.089 437.93 193.165 442.881C190.345 447.666 177.452 461.112 185.788 465.891C191.482 469.153 203.429 479.81 209.338 472.5C212.655 468.385 214.301 462.439 216.267 457.623C218.589 451.947 221.98 445.756 223.184 439.791C223.65 437.463 220.677 436.13 219.351 438.169Z" fill="#4F3220"/>
<path d="M204.473 470.762C197.981 477.329 195.524 511.334 183.312 505.904C180.087 504.473 177.176 502.827 174.227 500.898C166.481 495.793 171.659 488.987 175.437 483.637C179.915 477.273 185.787 471.272 188.816 464.067C189.461 462.543 187.28 461.653 186.26 462.574C177.777 470.234 170.136 481.254 164.651 491.26C159.7 500.296 171.788 505.781 177.913 509.08C186.991 513.988 190.996 514.48 195.818 505.032C201.076 494.725 203.92 483.692 208.398 473.053C209.344 470.781 206.003 469.208 204.473 470.762Z" fill="#4F3220"/>
<path d="M181.082 510.56C178.693 518.189 176.918 525.989 174.694 533.706C173.767 536.955 172.728 540.16 171.721 543.405C172.642 544.067 172.661 544.177 171.776 543.724C169.805 543.385 167.919 542.759 166.144 541.857C162.292 540.259 158.877 538.238 155.185 536.345C147.937 532.636 154.313 525.651 156.77 521.395C160.578 514.787 166.782 508.772 169.454 501.653C170.044 500.111 167.876 499.067 166.807 500.111C161.739 505.087 158.085 510.517 153.803 516.212C150.419 520.72 145.898 528.108 145.984 533.963C146.027 537.838 151.788 540.59 154.583 542.027C160.462 545.07 165.75 547.815 172.219 549.552C173.072 549.787 174.264 549.591 174.848 548.859C177.778 545.185 178.748 539.609 179.946 535.143C182.035 527.379 184.234 519.732 186.095 511.942C186.875 508.668 182.084 507.353 181.082 510.56Z" fill="#4F3220"/>
<path d="M166.868 544.971C164.037 551.303 161.874 557.753 159.718 564.337C158.158 569.109 155.75 573.484 153.858 578.11C152.31 581.911 152.771 584.394 148.588 582.95C145.756 581.966 141.782 579.859 139.208 578.251C130.977 573.073 134.81 564.915 138.127 558.521C142.015 551.039 147.2 544.22 150.965 536.746C152.04 534.601 149.442 532.506 147.642 534.191C139.558 541.715 131.917 554.823 128.766 565.29C126.008 574.484 129.939 581.205 138.975 584.828C144.466 587.021 152.538 593.785 156.837 586.47C163.723 574.756 167.79 560.013 171.764 547.035C172.642 544.177 168.115 542.169 166.868 544.971Z" fill="#4F3220"/>
<path d="M146.553 588.195C142.806 597.49 138.678 606.863 134.728 616.101C133.543 618.865 129.808 628.964 124.906 626.519C119.98 624.069 115.324 621.838 111.061 618.215C107.234 614.959 130.674 581.556 132.105 575.615C132.597 573.59 129.894 572.464 128.782 574.209C121.755 585.222 113.61 595.653 108.665 607.863C104.777 617.49 103.634 620.58 112.811 626.582C120.496 631.599 130.072 637.871 135.453 627.421C138.119 622.251 140.637 617.072 142.695 611.604C145.453 604.296 149.888 597.164 151.718 589.62C152.56 586.182 147.818 585.064 146.553 588.195Z" fill="#4F3220"/>
<path d="M125.227 630.334C121.413 638.706 119.195 647.44 116.849 656.299C116.259 658.511 113.028 670.703 109.527 670.225C105.896 669.733 101.203 667.509 98.0092 665.926C93.2856 663.564 88.9489 660.678 92.4686 654.727C94.5079 651.287 96.6087 647.884 98.6542 644.443C102.886 637.355 107.321 630.322 110.411 622.649C111.32 620.389 107.868 619.203 106.658 621.058C99.3115 632.362 90.4539 644.179 85.0361 656.532C81.2584 665.15 91.6332 669.254 97.5608 672.226C101.916 674.412 113.753 679.998 116.892 673.27C119.705 667.269 121.775 660.697 123.458 654.29C125.454 646.699 128.618 639.289 129.533 631.496C129.797 629.24 126.155 628.295 125.227 630.334Z" fill="#4F3220"/>
<path d="M106.62 673.282C103.506 679.112 102.05 685.456 100.207 691.772C98.4075 697.958 96.405 721.693 83.4196 715.31C79.7954 713.53 74.6725 710.746 71.8838 707.848C69.0704 704.935 76.7671 692.981 78.0325 689.996C80.9994 682.975 84.6604 672.478 89.7895 666.717C91.061 665.28 89.8509 662.858 87.8668 663.41C84.8324 664.253 83.4871 667.847 81.8962 670.253C76.9453 677.754 73.96 686.349 69.6295 694.174C63.2043 705.794 63.9844 710.305 74.9981 717.185C83.266 722.338 92.8546 727.627 98.8129 717.11C105.822 704.757 105.619 689.063 111.485 676.132C112.959 672.89 108.365 670.028 106.62 673.282Z" fill="#4F3220"/>
<path d="M88.887 720.508C85.6867 727.922 84.2186 736.03 82.1055 743.819C81.0429 747.732 80.1521 751.552 78.6287 755.336C76.0181 761.791 71.6386 760.545 66.0058 759.53C60.6372 758.561 51.3496 754.864 53.3889 747.504C54.5621 743.284 56.9269 739.26 58.8066 735.341C62.6334 727.356 66.4604 719.512 70.1275 711.448C71.0366 709.444 68.598 707.129 66.8965 708.952C63.0266 713.106 61.5093 718.469 58.4994 723.167C54.6542 729.199 51.8102 736.208 49.0215 742.78C45.1025 752.02 47.2462 757.553 56.2144 761.798C62.0867 764.581 78.3155 772.111 82.1546 762.487C87.0748 750.163 92.6953 734.998 93.2236 721.674C93.3096 719.488 89.8207 718.332 88.887 720.508Z" fill="#4F3220"/>
<path d="M71.7441 764.893C68.7281 773.536 66.6029 782.289 64.6311 791.208C63.4763 796.386 62.3583 802.745 59.717 807.394C57.6408 811.037 45.0791 807.517 41.4918 806.749C36.8849 805.748 30.085 804.619 32.8799 797.59C35.0482 792.149 37.7203 786.97 40.2818 781.714C44.5631 772.91 48.4821 763.856 53.3348 755.355C54.5264 753.26 51.4491 750.679 49.8889 752.694C41.7991 763.16 34.8701 777.567 29.9314 789.826C25.2262 801.504 24.1821 806.689 36.9648 811.442C44.8826 814.392 59.0167 818.549 64.6924 810.301C68.7343 804.426 69.6249 795.311 71.1422 788.525C72.8314 780.902 76.0869 773.327 76.3142 765.519C76.4002 762.775 72.5795 762.518 71.7441 764.893Z" fill="#4F3220"/>
<path d="M58.1482 812.493C57.9148 810.675 55.685 809.151 54.174 810.847C50.4945 814.982 51.1518 822.83 50.6112 828.145C50.0092 834.107 50.9551 848.317 43.9157 851.247C39.9292 852.905 33.4304 851.504 29.1552 851.432C26.2804 851.388 12.1955 850.928 15.322 843.667C17.3122 839.029 19.333 834.386 21.3601 829.753C24.7815 821.928 29.5667 814.562 31.4402 806.13C31.9193 803.985 28.9155 802.536 27.7975 804.595C21.4215 816.314 16.0346 828.629 10.408 840.797C5.58602 851.223 12.7052 854.697 22.472 856.653C28.8848 857.936 47.6258 860.965 51.6124 853.106C54.3397 847.727 55.4699 841.62 56.0412 835.663C56.7537 828.279 59.1064 819.908 58.1482 812.493Z" fill="#4F3220"/>
<path d="M519.015 176.556C513.229 168.952 496.368 168.688 487.737 167.987C467.092 166.329 446.92 164.904 426.244 167.293C394.511 170.966 354.332 184.929 331.611 208.467C329.952 210.193 332.403 212.509 334.191 211.041C357.711 191.839 388.737 179.529 418.295 173.823C434.026 170.782 450.654 170.665 466.613 171.507C474.647 171.925 483.1 172.57 490.999 174.013C494.832 174.701 503.714 174.695 509.562 176.513C496.196 178.725 482.578 179.161 469.377 182.711C455.261 186.513 440.636 191.016 427.755 198.006C405.089 210.304 385.561 226.778 363.663 239.745C361.574 240.98 362.963 244.272 365.309 243.646C371.999 241.846 376.673 237.626 382.392 233.793C395.819 224.8 408.111 214.923 422.349 207.054C437.841 198.491 453.922 193.037 470.821 187.963C485.993 183.405 502.043 183.897 517.394 180.53C518.96 180.186 520.054 177.926 519.015 176.556Z" fill="#4F3220"/>
</g>
</svg>
