<svg width="358" height="419" viewBox="0 0 358 419" fill="none" xmlns="http://www.w3.org/2000/svg">
<g opacity="0.2">
<path d="M232.952 119.574C228.303 122.432 222.882 122.788 217.883 124.736C213.224 126.55 208.696 128.653 204.004 130.356C202.518 131.379 201.009 132.383 199.371 133.249C195.865 135.099 192.191 136.458 188.465 137.776C187.738 138.035 186.938 137.227 187.189 136.506C190.456 127.083 196.017 118.708 199.454 109.356C199.914 108.112 201.916 108.65 201.454 109.91C201.436 109.956 201.413 110.007 201.395 110.06C203.631 111.793 205.945 113.213 208.417 114.569C208.788 114.77 208.915 115.088 208.91 115.403C211.031 115.987 213.305 116.236 215.51 116.325C217.357 116.866 219.242 117.209 221.249 117.242C223.456 117.28 227.506 117.902 229.254 116.038C231.009 116.289 232.531 116.886 233.323 118.159C233.626 118.644 233.42 119.284 232.952 119.574ZM232.719 123.227C231.131 126.855 228.89 130.076 229.607 134.293C229.703 134.883 229.335 135.688 228.608 135.604C221.752 134.817 214.992 134.146 208.097 134.801C208.064 134.806 208.041 134.789 208.011 134.791C207.744 134.941 207.464 135.076 207.21 135.261C206.265 135.957 205.031 134.357 205.955 133.635C206.024 133.577 206.098 133.539 206.174 133.48C206.171 133.478 206.169 133.475 206.166 133.47C206.197 133.45 206.232 133.437 206.265 133.417C213.775 127.642 222.887 125.206 231.548 121.703C232.503 121.319 233.031 122.513 232.719 123.227ZM181.433 133.114C181.372 133.041 181.306 132.977 181.26 132.881C177.399 124.607 170.458 117.989 167.88 109.102C167.679 108.404 168.403 107.527 169.155 107.83C170.003 108.02 170.849 108.206 171.698 108.396C171.792 108.401 171.866 108.434 171.947 108.457C175.026 108.638 178.293 108.668 180.417 106.084C180.655 105.795 180.94 105.714 181.212 105.759C181.357 105.602 181.473 105.434 181.623 105.282C181.865 105.033 182.294 104.89 182.632 105.012C186.549 106.443 190.708 105.302 194.676 106.173C194.681 106.176 194.686 106.178 194.691 106.178C195.032 106.252 195.369 106.316 195.7 106.42C196.386 106.641 196.602 107.324 196.322 107.941C195.933 108.795 195.474 109.605 194.986 110.403C193.807 113.538 192.509 117.577 190.151 120.313C188.195 124.802 186.059 129.2 183.249 133.282C182.688 134.098 181.71 133.805 181.433 133.114ZM177.36 137.784C177.284 138.536 176.527 139.112 175.798 138.68C172.676 136.811 170.12 134.443 167.544 131.882C167.524 131.854 167.516 131.829 167.493 131.806C167.328 131.717 167.158 131.641 166.996 131.552C166.851 131.544 166.703 131.514 166.551 131.438C162.339 129.461 158.13 127.482 153.879 125.605C146.591 123.867 139.081 122.579 133.16 117.603C132.911 117.392 132.766 116.901 132.893 116.594C133.335 115.654 133.523 114.674 133.457 113.652C133.487 112.517 134.991 112.357 135.413 113.165C139.242 113.995 142.394 116.256 146.497 116.559C151.052 116.896 157.682 117.534 160.751 113.332C160.825 113.225 160.932 113.159 161.031 113.086C161.041 113.045 161.033 113.015 161.046 112.979C161.33 112.133 162.456 111.938 162.941 112.728C164.011 114.475 165.09 116.223 166.071 118.022C167.057 119.147 168.088 120.28 169.135 121.418C169.587 122.473 170.128 123.484 170.717 124.472C171.175 125.526 171.634 126.583 172.14 127.614C173.621 130.622 175.384 133.462 176.84 136.496C176.962 136.755 177.162 136.9 177.378 136.963C177.371 137.24 177.386 137.507 177.36 137.784ZM358.162 134.606C353.239 119.818 340.008 109.428 328.205 100.076C315.181 89.7546 299.321 82.6617 283.359 78.3481C276.991 76.6257 270.192 75.6781 263.562 75.9449C264.573 67.4904 264.083 58.7869 262.853 50.4848C261.84 43.674 259.345 37.4829 256.654 31.2056C253.555 23.973 250.695 16.4508 246.107 10.0033C243.95 6.9649 237.457 8.72794 234.688 8.96674C227.008 9.63232 219.554 11.0981 212.296 13.7631C199.279 18.534 187.484 27.2959 177.993 37.2645C175.188 40.2114 172.409 43.4605 169.887 46.9435C167.56 43.7197 163.472 40.8947 160.672 38.7887C153.907 33.6901 147.427 28.312 140.405 23.5488C126.552 14.1517 111.358 7.15799 95.3532 2.31848C92.2412 1.37854 85.2678 -2.01547 84.1195 2.75034C83.5708 5.02911 84.7089 8.72794 85.029 11.0168C85.6158 15.2924 86.2331 19.5654 86.9419 23.8231C88.4179 32.6511 90.6534 41.3393 92.8763 49.9996C93.9712 54.2751 95.2415 58.3245 96.9207 62.4121C97.5126 63.8525 97.9394 65.5139 98.5034 67.0686C96.2729 66.5428 94.0729 66.0753 91.9516 65.6511C74.4024 62.1453 56.208 62.346 39.3904 68.7834C31.2941 71.8827 23.6703 76.0973 16.5012 80.9368C10.9555 84.6814 3.44597 88.9848 0.153586 95.0641C-0.148724 95.623 -0.00387546 96.3825 0.580421 96.6975C9.19498 101.402 17.68 106.918 25.9871 112.186C30.4176 114.999 34.5966 118.225 39.0678 120.961C41.1585 122.244 43.1019 123.55 45.3883 124.439C46.0158 124.683 49.2421 125.648 50.2456 126.443C45.7084 133.226 42.1035 140.708 39.5504 148.634C37.358 155.424 36.2199 162.466 35.4908 169.549C34.876 175.537 33.7532 184.362 37.6629 189.55C39.3269 191.757 46.4908 188.623 48.5511 188.163C56.6982 186.362 64.7488 184.228 72.8248 182.139C87.1426 178.451 101.572 173.004 114.546 165.881C124.266 160.543 137.483 150.369 138.916 138.419C139.562 133.046 138.243 128.704 134.422 125.747C136.775 125.9 139.112 126.21 141.426 126.662C152.068 132.761 162.161 139.814 171.893 147.534C171.888 147.722 171.866 147.897 171.876 148.098C171.919 149.007 172.262 150.105 172.864 150.902C170.451 152.246 170.301 157.02 171.241 159.804C168.068 161.58 165.334 161.943 163.599 165.952C162.496 168.495 163.378 171.683 165.25 173.614C165.238 173.667 165.21 173.713 165.205 173.766C165.179 173.982 165.098 173.4 164.714 174.002C163.843 175.372 163.304 176.566 162.984 178.159C162.801 179.043 162.791 180.105 162.994 180.981C163.083 181.52 163.223 182.043 163.416 182.554C163.434 182.612 163.444 182.635 163.462 182.678C161.704 183.344 160.406 185.854 159.608 187.261C158.302 189.57 159.301 191.966 160.881 193.769C160.129 194.547 159.603 195.317 159.11 196.376C158.117 198.507 158.274 200.806 159.484 202.768C160.129 203.819 157.693 205.897 157.271 207.264C156.28 210.424 156.506 212.917 158.495 215.655C158.526 215.698 158.577 215.709 158.615 215.744C156.278 217.85 155.632 219.898 155.548 223.154C155.513 224.597 156.824 227.796 158.236 228.454C155.81 227.326 154.233 234.424 154.083 235.585C153.707 238.527 154.659 240.371 156.387 242.469C154.603 244.923 154.004 246.509 153.737 249.75C153.564 251.78 154.835 252.857 156.214 253.84C152.401 259.109 151.7 265.854 157.347 270.31C155.429 272.093 154.598 274.329 154.436 277.009C154.271 279.811 155.937 281.01 157.659 282.438C156.069 284.617 154.735 286.383 154.352 289.462C153.859 293.367 154.817 296.625 157.832 299.047C156.715 299.967 155.922 301.722 155.607 302.847C154.926 305.292 155.076 307.982 156.615 309.933C154.835 311.995 152.563 314.449 152.386 317.092C152.154 320.46 153.788 323.209 156.392 325.114C154.53 327.172 153.468 329.545 153.226 332.395C153.125 333.611 153.709 334.661 154.205 335.707C155.432 338.283 155.815 337.603 153.867 339.952C150.275 344.279 150.31 352.124 155.81 354.506C154.741 355.325 153.938 356.615 153.572 357.809C153.247 358.861 153.237 367.701 154.774 366.688C149.726 370.021 149.286 378.288 154.311 381.674C152.284 383.802 151.69 386.483 151.552 389.506C151.509 390.411 151.684 392.244 152.342 392.902C154.273 394.848 153.745 394.744 152.241 396.629C149.302 400.305 150.173 407.503 154.664 409.387C153.882 410.67 153.696 412.222 153.968 413.752C154.199 415.048 155.16 415.852 156.305 416.343C156.346 416.369 156.366 416.409 156.417 416.427C163.383 419.176 171.838 419.361 179.327 419.223C184.837 419.127 190.726 418.155 196.035 416.735C198.26 416.142 200.887 415.367 202.648 413.802C204.192 413.022 205.529 411.496 205.966 409.957C206.697 407.408 205.9 405.58 204.324 403.925C205.628 401.862 205.912 400.372 205.343 397.551C205.059 396.129 203.913 394.669 202.551 393.754C206.674 391.648 205.564 385.032 202.061 382.156C202.61 381.433 203.334 380.805 203.476 379.86C203.74 378.109 203.758 376.555 203.448 374.802C203.105 372.877 201.449 370.384 199.482 369.144C204.266 365.54 204.972 356.442 199.663 353.34C202.135 349.904 200.775 346.37 197.737 343.426C202.546 340.869 202.701 335.425 198.936 331.678C201.174 328.556 201.139 325.706 198.799 322.287C202.348 319.416 202.117 313.345 198.995 310.088C200.148 308.386 201.451 306.991 201.728 304.694C202.074 301.849 201.22 299.314 199.693 296.974C203.837 293.386 203.527 285.771 199.922 281.853C201.253 279.64 202.617 278.182 202.833 275.195C202.996 273.01 202.419 271.234 201.197 269.654C206.098 266.631 206.103 258.482 201.911 254.709C204.932 250.987 204.929 247.098 201.942 243.12C206.636 240.678 207.454 233.296 202.95 230.524C205.295 226.383 205.526 220.589 201.276 217.642C204.606 214.644 205.651 207.744 201.713 205.191C203.123 202.73 203.593 200.745 202.523 197.562C201.997 195.995 201.157 194.151 199.836 193.378C203.618 190.294 202.752 183.478 198.647 181.024C199.861 177.539 199.665 172.547 196.604 170.306C199.063 168.876 199.355 165.619 199.338 162.72C199.317 159.507 196.858 157.431 194.094 156.832C194.701 155.562 195.072 154.797 193.939 152.975C193.34 152.008 192.197 150.849 190.969 150.26C191.046 150.138 191.122 150.018 191.193 149.904C192.229 148.271 192.783 146.767 192.547 144.821C193.558 144.064 194.518 143.218 195.453 142.331C195.491 142.323 195.529 142.336 195.57 142.318C204.307 137.316 216.13 138.584 225.773 139.382C226.121 139.415 226.462 139.458 226.807 139.491C226.185 139.742 225.562 139.989 225.118 140.337C222.864 142.087 221.198 144.023 219.623 146.378C217.026 150.27 215.916 155.092 217.979 159.476C222.979 170.118 235.043 174.467 245.616 177.351C252.318 179.175 259.223 180.176 266.102 181.037C274.196 182.048 282.021 183.877 290.023 185.378C297.311 186.748 304.524 188.59 311.751 190.256C315.229 191.056 318.674 192.205 322.08 193.277C323.348 193.675 325.378 195.042 326.813 194.646C329.885 193.805 329.161 187.639 328.98 185.683C328.391 179.236 327.235 173.157 325.167 167.004C321.931 157.378 316.268 149.406 308.901 142.872C311.253 142.595 313.606 142.334 315.968 142.118C323.711 141.401 331.462 141.071 339.195 140.184C342.526 139.798 345.828 139.191 349.105 138.495C351.153 138.063 354.702 135.609 356.757 136.01C357.552 136.168 358.457 135.492 358.162 134.606Z" fill="#A25B1D"/>
<path d="M232.952 119.574C228.303 122.432 222.882 122.788 217.883 124.736C213.224 126.55 208.696 128.654 204.004 130.356C202.518 131.379 201.009 132.383 199.371 133.249C195.865 135.099 192.191 136.458 188.465 137.776C187.738 138.035 186.938 137.227 187.189 136.506C190.456 127.084 196.017 118.708 199.454 109.357C199.914 108.112 201.916 108.65 201.454 109.91C201.436 109.956 201.413 110.007 201.395 110.06C203.631 111.793 205.945 113.213 208.417 114.569C208.788 114.77 208.915 115.088 208.91 115.403C211.031 115.987 213.305 116.236 215.51 116.325C217.357 116.866 219.242 117.209 221.249 117.242C223.456 117.28 227.506 117.902 229.254 116.038C231.009 116.289 232.531 116.886 233.323 118.159C233.626 118.644 233.42 119.284 232.952 119.574ZM232.719 123.227C231.131 126.855 228.89 130.076 229.607 134.293C229.703 134.883 229.335 135.688 228.608 135.604C221.752 134.817 214.992 134.146 208.097 134.801C208.064 134.806 208.041 134.789 208.011 134.791C207.744 134.941 207.464 135.076 207.21 135.261C206.265 135.957 205.031 134.357 205.955 133.635C206.024 133.577 206.098 133.539 206.174 133.48C206.171 133.478 206.169 133.475 206.166 133.47C206.197 133.45 206.232 133.437 206.265 133.417C213.775 127.642 222.887 125.206 231.548 121.703C232.503 121.319 233.031 122.513 232.719 123.227ZM183.249 133.282C182.688 134.098 181.71 133.805 181.433 133.114C181.372 133.041 181.306 132.977 181.26 132.881C177.399 124.607 170.458 117.989 167.88 109.102C167.679 108.404 168.403 107.527 169.155 107.83C170.003 108.02 170.849 108.206 171.698 108.396C171.792 108.401 171.866 108.434 171.947 108.457C175.026 108.638 178.293 108.668 180.417 106.084C180.655 105.795 180.94 105.714 181.212 105.759C181.357 105.602 181.473 105.434 181.623 105.282C181.865 105.033 182.294 104.89 182.632 105.012C186.549 106.443 190.708 105.302 194.676 106.173C194.681 106.176 194.686 106.178 194.691 106.178C195.032 106.252 195.369 106.316 195.7 106.42C196.386 106.641 196.602 107.324 196.322 107.941C195.933 108.795 195.474 109.605 194.986 110.403C193.807 113.538 192.509 117.577 190.151 120.313C188.195 124.802 186.059 129.2 183.249 133.282ZM177.36 137.784C177.284 138.536 176.527 139.112 175.798 138.681C172.676 136.811 170.12 134.443 167.544 131.882C167.524 131.854 167.516 131.829 167.493 131.806C167.328 131.717 167.158 131.641 166.996 131.552C166.851 131.545 166.703 131.514 166.551 131.438C162.339 129.461 158.13 127.482 153.879 125.605C146.591 123.867 139.081 122.579 133.16 117.603C132.911 117.392 132.766 116.902 132.893 116.594C133.335 115.654 133.523 114.674 133.457 113.652C133.487 112.517 134.991 112.357 135.413 113.165C139.242 113.995 142.394 116.256 146.497 116.559C151.052 116.896 157.682 117.534 160.751 113.332C160.825 113.226 160.932 113.16 161.031 113.086C161.041 113.045 161.033 113.015 161.046 112.979C161.33 112.133 162.456 111.938 162.941 112.728C164.011 114.475 165.09 116.223 166.071 118.022C167.057 119.147 168.088 120.28 169.135 121.418C169.587 122.473 170.128 123.484 170.717 124.472C171.175 125.526 171.634 126.583 172.14 127.615C173.621 130.622 175.384 133.463 176.84 136.496C176.962 136.755 177.162 136.9 177.378 136.963C177.371 137.24 177.386 137.507 177.36 137.784ZM358.162 134.606C353.239 119.818 340.008 109.428 328.205 100.076C315.181 89.7546 299.321 82.6618 283.359 78.3482C276.991 76.6258 270.192 75.6782 263.562 75.9449C264.573 67.4904 264.083 58.787 262.853 50.4849C261.84 43.674 259.345 37.483 256.654 31.2056C253.555 23.9731 250.695 16.4509 246.107 10.0033C243.95 6.96497 237.457 8.728 234.688 8.9668C227.008 9.63239 219.554 11.0982 212.296 13.7631C199.279 18.534 187.484 27.2959 177.993 37.2645C175.188 40.2114 172.409 43.4606 169.887 46.9435C167.56 43.7197 163.472 40.8948 160.672 38.7888C153.907 33.6902 147.427 28.3121 140.405 23.5488C126.552 14.1518 111.358 7.15805 95.3532 2.31854C92.2412 1.37859 85.2678 -2.01541 84.1195 2.75041C83.5708 5.02916 84.7089 8.728 85.029 11.0169C85.6158 15.2924 86.2331 19.5654 86.9419 23.8232C88.4179 32.6511 90.6534 41.3394 92.8763 49.9996C93.9712 54.2752 95.2415 58.3246 96.9207 62.4121C97.5126 63.8525 97.9394 65.514 98.5034 67.0687C96.2729 66.5428 94.0729 66.0754 91.9516 65.6512C74.4024 62.1454 56.208 62.3461 39.3904 68.7835C31.2941 71.8828 23.6703 76.0974 16.5012 80.9369C10.9555 84.6814 3.44597 88.9849 0.153586 95.0641C-0.148724 95.623 -0.00387546 96.3826 0.580421 96.6976C9.19498 101.402 17.68 106.918 25.9871 112.187C30.4176 114.999 34.5966 118.225 39.0678 120.961C41.1585 122.244 43.1019 123.55 45.3883 124.439C46.0158 124.683 49.2421 125.648 50.2456 126.443C45.7084 133.226 42.1035 140.708 39.5504 148.634C37.358 155.424 36.2199 162.466 35.4908 169.549C34.876 175.537 33.7532 184.362 37.6629 189.55C39.3269 191.758 46.4908 188.623 48.5511 188.163C56.6982 186.362 64.7488 184.228 72.8248 182.14C87.1426 178.451 101.572 173.004 114.546 165.881C124.266 160.543 137.483 150.369 138.916 138.419C139.562 133.046 138.243 128.704 134.422 125.747C136.775 125.9 139.112 126.21 141.426 126.662C152.068 132.761 162.161 139.814 171.893 147.534C171.893 147.557 171.891 147.575 171.891 147.592C173.524 146.957 174.947 145.463 176.255 144.394C176.736 143.327 177.213 142.26 177.698 141.193C177.67 141.107 177.607 141.048 177.599 140.952C177.114 133.374 185.845 135.571 187.111 141.348C187.705 141.3 188.244 141.368 188.759 141.528C189.018 141.419 189.313 141.419 189.59 141.635C189.669 141.693 189.717 141.749 189.791 141.808C189.796 141.803 189.796 141.8 189.801 141.798C190.154 142.059 190.505 142.321 190.853 142.583C191.315 142.877 191.399 143.352 191.272 143.761C191.605 144.691 191.594 145.684 192.166 147.155C192.212 147.275 192.29 147.374 192.344 147.491C192.585 146.665 192.666 145.796 192.547 144.821C193.558 144.064 194.518 143.218 195.453 142.331C195.491 142.324 195.529 142.336 195.57 142.318C204.307 137.316 216.13 138.584 225.773 139.382C226.121 139.415 226.462 139.458 226.807 139.491C226.185 139.742 225.562 139.989 225.118 140.337C222.864 142.087 221.198 144.023 219.623 146.378C217.026 150.27 215.916 155.092 217.979 159.476C222.979 170.118 235.043 174.467 245.616 177.351C252.318 179.175 259.223 180.176 266.102 181.037C274.196 182.048 282.021 183.877 290.023 185.379C297.311 186.748 304.524 188.59 311.751 190.256C315.229 191.056 318.674 192.205 322.08 193.277C323.348 193.676 325.378 195.042 326.813 194.646C329.885 193.805 329.161 187.639 328.98 185.683C328.391 179.236 327.235 173.157 325.167 167.004C321.931 157.378 316.268 149.406 308.901 142.872C311.253 142.595 313.606 142.334 315.968 142.118C323.711 141.401 331.462 141.071 339.195 140.184C342.526 139.798 345.828 139.191 349.105 138.495C351.153 138.063 354.702 135.609 356.757 136.011C357.552 136.168 358.457 135.492 358.162 134.606Z" fill="#5D892D"/>
<path d="M243.807 117.481C234.394 117.994 225.122 122.087 216.218 124.861C211.724 126.263 207.596 128.93 203.683 131.816C203.439 131.699 203.142 131.666 202.807 131.76C200.863 132.309 199.227 133.689 197.5 134.768C196.489 134.941 195.76 135.322 194.957 135.965C194.601 136.125 194.246 136.295 193.895 136.475C193.661 136.371 193.392 136.336 193.12 136.42C191.192 137.027 189.642 137.669 187.874 138.625C187.023 139.084 187.399 140.487 188.37 140.451C188.446 140.449 188.525 140.444 188.601 140.444C188.73 140.439 188.832 140.405 188.931 140.367C188.929 140.599 188.972 140.842 189.071 141.069C190.58 144.567 192.937 143.157 194.987 141.102C195.13 141.119 195.28 141.112 195.447 141.038C204.811 136.818 217.513 138.338 227.5 138.731C227.85 138.848 228.201 138.957 228.574 139.031C229.176 139.148 229.824 138.764 229.806 138.091C229.791 137.471 229.598 136.971 229.4 136.399C229.07 135.426 228.061 135.482 227.579 136.038C220.074 135.246 212.232 133.417 204.712 134.4C208.175 131.976 211.731 129.726 215.636 127.853C224.558 123.583 234.75 122.402 244.066 119.389C245.072 119.063 244.942 117.42 243.807 117.481Z" fill="#355925"/>
<path d="M217.123 66.0272C217.646 64.9552 216.063 64.0127 215.514 65.0873C214.356 67.3559 213.355 69.8023 211.912 71.9286C211.788 71.9972 211.673 72.0937 211.577 72.2411C211.165 72.7924 210.749 73.3436 210.337 73.8949C210.012 74.2785 210.055 74.7231 210.263 75.0559C210.04 75.5868 209.821 76.1152 209.621 76.6538C209.247 76.664 208.869 76.8596 208.691 77.3118C207.451 80.4136 206.272 83.5714 205.129 86.7418C204.459 88.355 203.778 89.9707 203.209 91.6067C202.706 93.0446 202.287 94.8407 201.804 96.652C201.263 97.7444 200.739 98.8443 200.244 99.9621C200.061 100.041 199.911 100.198 199.85 100.458C198.298 104.322 196.187 108.206 195.011 112.237C194.023 113.957 192.986 115.766 192.333 117.577C192.31 117.636 192.31 117.687 192.308 117.745C191.53 119.005 190.733 120.237 190.027 121.429C188.169 124.551 186.612 127.82 184.582 130.841C181.519 135.398 182.339 134.403 185.532 138.381C186.002 138.968 186.854 138.668 187.219 138.167C187.877 137.25 188.164 136.265 188.238 135.124C188.284 134.433 188.416 133.712 188.594 132.98C190.941 125.89 195.112 119.605 197.645 112.641C197.798 112.565 197.93 112.451 198.016 112.26C198.047 112.179 198.077 112.098 198.11 112.019C198.11 112.019 198.113 112.019 198.115 112.022C201.052 104.67 204.138 97.3989 207.121 90.0748C207.23 89.8081 207.205 89.5871 207.116 89.3965C209.301 84.2547 210.429 78.5388 213.015 73.5926C214.709 71.2859 215.857 68.6108 217.123 66.0272Z" fill="#355925"/>
<path d="M137.521 135.957C137.135 133.455 136.688 131.4 135.191 129.334C133.07 126.41 129.732 124.541 129.043 120.834C129.125 120.745 129.209 120.656 129.267 120.524C130.324 118.233 132.13 116.378 133.126 113.995C134.256 111.308 133.042 108.193 131.97 105.739C129.094 99.1644 123.193 96.0626 116.344 94.96C100.987 92.4958 83.6081 96.5275 71.2845 106.161C57.7187 116.764 47.3182 130.63 41.2593 146.82C39.6334 151.167 38.9653 155.971 38.1118 160.518C37.3598 164.534 36.0184 168.68 35.5865 172.725C35.1725 176.622 34.6288 185.036 38.4547 188.059C38.4394 188.707 38.9501 189.377 39.7579 189.151C50.824 186.009 62.3448 184.914 73.4261 181.802C84.2534 178.758 95.1492 173.947 105.382 169.293C115.168 164.844 126.574 157.924 133.095 149.096C135.687 145.58 138.227 140.528 137.521 135.957Z" fill="#7FB029"/>
<path d="M176.852 138.431C173.412 136.414 169.942 134.387 166.35 132.652C160.126 129.639 154.049 125.775 147.541 123.463C147.18 123.334 146.873 123.4 146.629 123.562C144.121 122.574 141.665 122.008 139.216 121.764C139.274 121.21 138.952 120.572 138.39 120.354C136.764 119.719 135.227 118.888 133.724 118.017C133.381 117.818 132.926 117.806 132.585 118.017C132.357 118.159 132.192 118.301 132.052 118.454C131.689 118.532 131.346 118.769 131.196 119.142C130.934 119.686 130.672 120.229 130.411 120.773C130.223 121.121 130.246 121.449 130.37 121.723C128.549 121.82 126.694 121.936 124.779 122.005C118.491 122.229 109.315 124.121 104.648 128.643C104.14 129.133 104.814 130.048 105.413 129.634C110.71 125.994 118.562 125.465 124.779 124.777C127.98 124.429 131.226 124.228 134.45 124.203C136.813 124.185 139.091 124.627 141.36 125.137C142.107 125.369 142.854 125.595 143.603 125.816C143.436 126.276 143.514 126.814 144.063 127.134C145.712 128.1 147.488 129.225 149.299 130.155C157.205 135.119 164.361 141.432 172.269 146.327C172.643 146.558 173.275 146.604 173.644 146.327C174.706 145.514 175.394 144.041 176.753 144.041C177.652 144.038 178.186 143.21 178.016 142.382C177.792 141.251 178.094 139.158 176.852 138.431Z" fill="#355925"/>
<path d="M328.162 186.39C328.345 183.092 327.347 179.861 326.585 176.67C326.198 175.039 325.805 173.106 325.147 171.327C324.588 169.422 323.938 167.535 323.249 165.629C322.233 162.804 321.082 158.978 318.92 156.758C316.911 153.118 314.373 149.612 311.55 146.881C310.9 146.248 306.127 140.995 304.691 142.644C304.684 142.644 304.679 142.641 304.668 142.641C304.32 142.603 304.066 142.722 303.871 142.908C302.692 143.258 300.932 143.025 299.796 143.195C295.835 143.802 291.931 144.59 287.937 145.006C281.373 145.7 274.664 147.163 268.081 147.252C256.073 147.407 239.86 150.227 231.225 139.328C231.111 138.802 230.559 138.381 229.952 138.736C222.588 143.078 214.799 151.558 219.709 160.63C224.91 170.243 237.802 174.912 247.821 177.135C260.536 179.955 273.579 181.398 286.479 183.222C293.468 184.212 300.492 186.344 307.387 187.866C311.086 188.686 314.731 189.336 318.331 190.533C320.869 191.376 323.729 192.896 326.404 193.063C326.773 193.089 327.098 192.847 327.291 192.555C328.366 190.924 328.426 188.64 328.162 186.39Z" fill="#7FB029"/>
<path d="M179.053 104.898C174.277 102.546 170.895 98.5369 167.08 94.9676C162.441 90.6235 161.473 85.5655 160.843 79.4482C160.228 73.501 161.016 67.9375 162.814 62.247C164.217 57.8165 168.042 54.0719 169.219 49.6643C169.788 49.3595 170.126 48.5618 169.526 47.9699C158.117 36.5837 144.678 28.3883 131.697 19.0116C124.629 13.9003 115.875 11.6164 108.066 7.92267C102.395 5.23745 94.9749 1.86891 88.5197 2.26522C88.225 2.04166 87.7957 1.97052 87.4273 2.25759C83.5938 5.25782 86.8736 15.925 87.3969 19.822C88.5731 28.5712 91.4615 37.2137 93.6107 45.7622C95.4627 53.1244 97.3274 60.771 99.7255 67.9629C100.155 69.2484 102.009 69.3068 103.081 69.6472C107.555 71.0445 111.749 73.501 116.195 74.817C124.172 77.177 131.722 84.1581 135.617 91.4262C137.979 95.8339 138.678 101.095 136.376 105.686C135.617 107.202 133.307 108.516 133.307 110.378C133.307 114.226 144.292 117.252 147.084 117.554C152.775 118.162 159.336 116.485 162.547 111.455C162.875 110.942 162.672 110.464 162.301 110.185C163.914 108.668 165.776 108.066 168.617 108.66C170.118 108.97 171.251 109.125 172.818 109.006C175.018 108.841 177.625 108.013 179.253 106.496C179.713 106.069 179.629 105.183 179.053 104.898Z" fill="#7FB029"/>
<path d="M177.706 125.847C177.475 125.3 177.224 124.762 176.919 124.251C176.759 123.962 176.497 123.829 176.218 123.804C175.613 122.912 175.026 122.005 174.455 121.083C173.41 118.898 172.351 116.724 171 114.73C170.855 114.516 170.649 114.389 170.431 114.318C168.434 110.899 166.373 107.528 163.94 104.487C161.077 99.1823 158.115 93.9414 154.728 88.98C148.398 79.7125 142.712 69.9548 135.586 61.2869C135.177 60.794 134.331 61.452 134.697 61.9779C135.805 63.5682 136.869 65.189 137.939 66.8123C142.71 77.7666 149.043 87.8876 155.16 98.1229C158.516 103.732 161.905 109.372 164.923 115.159C165.553 116.366 166.163 117.616 166.785 118.878C169.994 121.817 172.506 125.999 174.211 130.107C174.368 130.142 174.531 130.132 174.683 130.086C174.734 130.16 174.79 130.226 174.841 130.3C175.326 131.324 175.788 132.355 176.289 133.381C177.727 136.333 178.362 135.823 181.138 135.393C181.626 135.317 181.845 134.814 181.898 134.39C182.256 131.662 179.286 128.506 177.706 125.847Z" fill="#355925"/>
<path d="M175.325 150.669C170.597 149.497 170.048 156.27 171.24 159.804C168.067 161.58 165.333 161.943 163.598 165.952C162.392 168.736 163.547 172.31 165.796 174.142C166.662 174.848 167.958 173.977 167.383 172.915C165.702 169.818 164.871 167.374 167.452 164.351C168.959 162.593 171.463 162.54 173.32 161.313C173.844 160.967 174.09 160.276 173.74 159.707C172.213 157.2 172.576 153.283 175.485 151.908C176.026 151.654 175.866 150.798 175.325 150.669Z" fill="#4F3220"/>
<path d="M167.128 174.384C167.146 174.318 167.143 174.295 167.146 174.252C167.423 173.873 167.362 173.324 166.925 173.055C166.765 172.959 166.605 172.895 166.419 172.839C165.759 172.669 165.276 173.157 165.205 173.766C165.179 173.982 165.098 173.401 164.715 174.003C163.843 175.372 163.305 176.566 162.985 178.159C162.802 179.043 162.791 180.105 162.995 180.981C163.084 181.52 163.223 182.043 163.416 182.554C163.434 182.612 163.444 182.635 163.462 182.678C161.704 183.344 160.406 185.854 159.608 187.261C158.196 189.758 159.469 192.36 161.272 194.204C161.971 194.923 163.442 194.196 163.04 193.173C162.187 190.985 161.356 185.394 164.872 184.965C165.494 184.886 165.845 184.614 166.086 184.035C166.3 183.522 166.559 182.991 166.213 182.46C165.266 180.999 165.182 179.416 165.474 177.729C165.708 176.391 166.798 175.59 167.128 174.384Z" fill="#4F3220"/>
<path d="M162.949 194.691C163.244 194.254 163.234 193.871 163.03 193.414C162.807 192.916 162.169 192.984 161.821 193.254C162.377 192.824 161.389 193.261 161.26 193.386C160.282 194.303 159.687 195.141 159.11 196.376C158.117 198.507 158.275 200.806 159.484 202.767C160.129 203.819 157.693 205.897 157.271 207.264C156.28 210.424 156.507 212.916 158.496 215.655C158.976 216.318 160.17 216.16 160.139 215.21C160.053 212.423 158.867 210.094 160.147 207.292C160.767 205.925 162.052 205.338 162.83 204.144C163.091 203.743 163.056 203.197 162.83 202.798C161.074 199.658 160.889 197.727 162.949 194.691Z" fill="#4F3220"/>
<path d="M160.337 226.571C157.159 223.396 158.252 219.971 160.282 216.298C160.734 215.483 159.718 214.792 159.049 215.348C156.336 217.599 155.635 219.697 155.549 223.155C155.513 224.598 156.824 227.796 158.236 228.454C155.81 227.326 154.233 234.424 154.083 235.585C153.679 238.732 154.789 240.623 156.758 242.919C157.505 243.796 158.831 242.856 158.585 241.855C158.049 239.65 156.71 238.036 156.837 235.585C157.101 230.433 159.987 231.665 160.899 228.347C161.059 227.768 160.746 226.978 160.337 226.571Z" fill="#4F3220"/>
<path d="M156.912 265.473C154.667 261.769 156.717 257.44 159.216 254.544C159.862 253.792 159.686 252.903 158.932 252.329C157.306 251.363 156.605 249.765 156.767 247.573C156.968 247.357 158.167 243.237 158.279 243.188C158.805 242.955 158.805 242.04 158.279 241.804L158.007 241.684C157.491 241.453 157.054 241.573 156.719 242.02C154.659 244.746 154.021 246.308 153.737 249.75C153.564 251.78 154.834 252.857 156.214 253.84C152.312 259.231 151.654 266.171 157.728 270.622C158.391 271.115 159.488 270.297 159.166 269.517C158.543 268.011 157.756 266.873 156.912 265.473Z" fill="#4F3220"/>
<path d="M160.627 281.186C159.278 279.929 158.201 280.225 157.34 277.797C156.529 275.51 158.264 272.802 159.372 270.937C159.951 269.962 158.694 269.187 157.909 269.807C155.577 271.664 154.616 274.075 154.436 277.009C154.271 279.811 155.937 281.01 157.66 282.438C156.069 284.617 154.736 286.384 154.352 289.462C153.834 293.583 154.898 296.992 158.323 299.446C159.278 300.13 160.546 298.798 159.918 297.853C156.006 291.942 157.139 288.202 160.858 282.943C161.219 282.428 161.074 281.6 160.627 281.186Z" fill="#4F3220"/>
<path d="M159.875 298.496C157.682 297.886 156.09 301.12 155.607 302.847C154.926 305.292 155.076 307.982 156.616 309.933C154.835 311.995 152.564 314.449 152.386 317.092C152.124 320.889 154.23 323.9 157.426 325.805C158.201 326.267 159.085 325.355 158.645 324.588C157.507 322.609 157.398 322.813 155.803 320.64C153.163 317.048 157.451 313.192 159.339 310.827C159.916 310.103 159.811 309.28 159.07 308.728C157.362 307.456 157.461 301.133 159.875 300.465C160.848 300.19 160.848 298.768 159.875 298.496Z" fill="#4F3220"/>
<path d="M159.135 338.545C159.402 338.101 159.389 337.524 159.135 337.077C157.829 334.801 155.34 333.813 156.486 330.157C156.737 329.339 157.766 326.316 158.665 325.795C159.239 325.467 159.239 324.604 158.665 324.275C158.579 324.223 158.495 324.174 158.409 324.125C157.982 323.887 157.481 323.961 157.131 324.288C154.761 326.524 153.501 329.166 153.226 332.395C153.125 333.611 153.709 334.661 154.204 335.707C155.431 338.283 155.815 337.603 153.866 339.953C150.119 344.465 150.3 352.822 156.536 354.796C157.586 355.129 158.541 353.628 157.647 352.891C155.015 350.726 153.711 348.507 154.784 345.107C155.726 342.122 157.692 340.949 159.135 338.545Z" fill="#4F3220"/>
<path d="M157.266 353.765C155.478 354.211 154.093 356.117 153.572 357.809C153.247 358.861 153.237 367.701 154.774 366.688C149.424 370.224 149.243 379.306 155.274 382.233C156.169 382.67 157.307 381.752 156.712 380.797C154.784 377.685 152.475 375.432 154.197 371.411C154.881 369.805 156.659 369.351 157.421 368.014C157.782 367.389 158.008 366.902 157.678 366.203C156.209 363.111 153.989 358.056 158.038 355.599C159.019 355.004 158.374 353.49 157.266 353.765Z" fill="#4F3220"/>
<path d="M156.824 407.423C150.315 405.051 154.779 399.136 156.984 395.483C157.324 394.925 157.164 394.297 156.768 393.827C153.458 389.875 153.973 386.465 156.694 382.187C157.355 381.143 155.924 380.234 155.078 380.944C152.414 383.175 151.705 386.124 151.552 389.506C151.509 390.41 151.684 392.244 152.342 392.902C154.273 394.848 153.745 394.744 152.241 396.629C148.936 400.76 150.432 409.362 156.496 409.837C157.964 409.957 158.046 407.868 156.824 407.423Z" fill="#4F3220"/>
<path d="M159.597 415.576C159.384 414.933 159.137 414.645 158.568 414.277C158.068 413.955 157.247 414.006 156.808 413.657C155.682 412.761 156.922 410.35 157.466 409.522C158.205 408.397 156.62 407.363 155.698 408.158C154.057 409.588 153.602 411.691 153.968 413.752C154.346 415.873 156.691 416.701 158.568 416.927C159.244 417.011 159.8 416.183 159.597 415.576Z" fill="#4F3220"/>
<path d="M194.094 156.832C194.701 155.562 195.072 154.797 193.939 152.976C193.027 151.507 190.865 149.566 189.051 149.899C188.152 150.062 188.152 151.545 189.051 151.711C192.019 152.254 192.158 155.331 191.29 157.487C191 158.206 191.721 158.951 192.41 158.958C195.966 158.989 196.937 161.776 196.823 164.791C196.726 167.375 195.382 167.857 193.744 169.229C192.847 169.979 193.845 171.119 194.76 170.98C198.977 170.317 199.36 166.237 199.338 162.721C199.317 159.507 196.858 157.432 194.094 156.832Z" fill="#4F3220"/>
<path d="M198.647 181.024C200.103 176.855 199.551 170.514 194.468 169.333C193.459 169.099 192.812 170.497 193.754 171.033C197.361 173.088 197.758 177.671 196.005 181.004C195.619 181.735 195.969 182.554 196.744 182.818C201.505 184.428 199.495 190.114 197.382 192.555C196.604 193.454 197.567 194.689 198.627 194.168C203.773 191.663 203.149 183.717 198.647 181.024Z" fill="#4F3220"/>
<path d="M201.713 205.191C203.123 202.729 203.593 200.745 202.523 197.562C201.728 195.202 200.252 192.151 197.425 193.205C196.843 193.426 196.843 194.173 197.425 194.394C201.802 196.03 200.664 202.237 198.835 205.079C198.382 205.78 198.837 206.703 199.586 206.929C203.638 208.148 200.43 215.028 199.178 216.628C198.492 217.499 199.36 218.97 200.453 218.279C204.418 215.769 205.96 207.947 201.713 205.191Z" fill="#4F3220"/>
<path d="M201.911 254.709C205.232 250.616 204.942 246.326 200.994 241.936C200.123 240.963 198.441 242.251 199.183 243.336C201.434 246.661 202.059 250.868 198.954 253.962C198.332 254.58 198.464 255.669 199.229 256.111C204.289 259.028 202.13 265.414 198.855 268.364C198.032 269.106 198.888 270.686 199.965 270.274C206.085 267.94 206.433 258.776 201.911 254.709Z" fill="#4F3220"/>
<path d="M202.834 275.195C203.029 272.499 202.165 270.411 200.263 268.572C199.694 268.023 198.515 268.567 198.843 269.4C199.63 271.4 200.166 272.982 200.075 275.195C199.955 278.152 198.045 279.176 196.859 281.394C196.571 281.932 196.574 282.723 197.082 283.146C200.875 286.312 199.846 292.186 197.6 295.767C196.825 297.002 198.477 297.993 199.468 297.21C203.873 293.722 203.601 285.849 199.922 281.853C201.253 279.64 202.618 278.182 202.834 275.195Z" fill="#4F3220"/>
<path d="M199.282 296.355C198.926 295.853 198.388 295.704 197.831 295.974C197.763 296.008 197.697 296.039 197.631 296.072C197.011 296.369 197.011 297.405 197.631 297.705C199.793 298.755 198.733 305.088 198.111 306.468C197.565 307.681 196.432 308.461 195.791 309.61C195.377 310.344 195.639 311.185 196.325 311.64C199.564 313.791 198.187 318.588 196.546 321.14C195.896 322.168 197.186 323.427 198.2 322.795C202.419 320.173 202.298 313.53 198.995 310.088C200.148 308.386 201.452 306.991 201.728 304.694C202.104 301.6 201.073 298.869 199.282 296.355Z" fill="#4F3220"/>
<path d="M198.936 331.678C201.349 328.312 201.153 325.269 198.237 321.484C197.414 320.407 195.867 321.29 196.421 322.544C198.013 326.146 198.776 327.794 196.098 330.878C195.648 331.396 195.483 332.336 196.098 332.826C200.904 336.668 198.308 339.008 195.257 342.211C194.536 342.968 195.242 344.431 196.329 344.053C202.5 341.881 203.041 335.766 198.936 331.678Z" fill="#4F3220"/>
<path d="M199.663 353.34C202.421 349.5 200.42 345.535 196.619 342.41C195.921 341.838 194.826 342.551 195.323 343.41C197.244 346.723 200.252 349.373 196.342 352.884C195.562 353.584 195.974 354.969 196.96 355.218C203.793 356.946 199.317 365.507 196.891 368.451C196.342 369.122 196.838 370.527 197.851 370.105C204.065 367.544 205.531 356.77 199.663 353.34Z" fill="#4F3220"/>
<path d="M202.061 382.156C202.61 381.433 203.334 380.806 203.476 379.86C203.74 378.109 203.758 376.555 203.448 374.802C202.989 372.196 200.12 368.542 197.331 368.376C196.264 368.314 195.967 369.797 196.808 370.309C199.371 371.861 200.834 374.51 200.923 377.46C200.984 379.332 199.389 380.607 198.792 382.236C198.586 382.807 198.914 383.597 199.455 383.866C203.037 385.637 203.253 390.139 199.866 392.26C198.713 392.984 199.513 394.518 200.74 394.333C206.929 393.401 206.009 385.398 202.061 382.156Z" fill="#4F3220"/>
<path d="M204.325 403.925C205.628 401.862 205.913 400.372 205.344 397.552C204.914 395.415 202.564 393.165 200.423 392.878C199.44 392.746 198.777 393.957 199.719 394.549C203.159 396.7 203.616 400.204 201.304 403.413C200.954 403.895 201.089 404.723 201.52 405.108C204.554 407.813 202.91 410.216 200.113 412.187C199.221 412.812 199.47 414.364 200.697 414.341C202.961 414.304 205.346 412.126 205.966 409.957C206.698 407.409 205.9 405.58 204.325 403.925Z" fill="#4F3220"/>
<path d="M202.603 410.683C199.582 413.571 194.265 414.303 190.356 415.079C185.623 416.018 180.148 416.891 175.316 416.429C171.559 416.069 167.764 415.992 164.034 415.451C162.149 415.182 158.374 413.831 156.418 414.6C155.516 414.956 155.516 416.074 156.418 416.427C163.384 419.176 171.838 419.361 179.328 419.223C184.838 419.127 190.726 418.155 196.036 416.735C199.11 415.914 202.989 414.771 204.226 411.631C204.6 410.675 203.253 410.061 202.603 410.683Z" fill="#4F3220"/>
<path d="M192.545 144.691C192.291 142.844 191.615 141.767 189.964 140.863C189.189 140.441 188.826 139.968 187.86 139.935C187.307 139.676 187.014 139.669 186.92 139.859C186.859 139.364 186.801 138.866 186.738 138.373C186.321 134.992 181.492 133.988 178.89 135.009C175.623 136.29 175.636 140.029 176.268 143.024C173.736 143.624 171.721 144.991 171.876 148.098C171.965 149.904 173.212 152.444 175.369 151.941C176.502 151.682 176.502 149.927 175.369 149.663C174.632 149.495 174.543 148.024 174.518 147.445C174.429 145.682 177.107 145.524 178.26 145.362C178.982 145.263 179.378 144.345 179.197 143.715C178.473 141.172 177.765 136.381 182.492 137.514C185.406 138.215 183.415 140.781 185.043 141.937C187.101 143.403 192.438 142.011 189.479 147.788C188.861 148.987 188.394 148.88 187.672 149.896C186.704 151.253 188.935 152.528 189.893 151.194C189.537 151.695 189.169 151.857 189.951 151.403C190.505 151.078 190.866 150.42 191.193 149.904C192.253 148.235 192.822 146.706 192.545 144.691Z" fill="#4F3220"/>
<path d="M348.989 129.662C322.475 116.609 291.454 114.132 262.384 114.508C247.228 114.704 232.58 118.108 218.333 123.085C211.954 125.31 205.911 128.359 200.197 131.951C195.952 134.616 191.069 137.156 187.452 140.665C186.824 141.272 187.673 142.435 188.402 141.899C210.448 125.648 236.972 116.856 264.391 116.492C278.594 116.302 293.402 116.823 307.405 119.18C321.619 121.578 334.743 126.73 348.387 131.1C349.228 131.369 349.792 130.058 348.989 129.662Z" fill="#4F3220"/>
<path d="M286.69 116C269.209 113.906 252.633 116.086 235.569 120.115C218.932 124.048 202.523 131.611 190.886 144.361C190.38 144.917 191.038 145.883 191.722 145.441C194.138 143.866 196.137 141.505 198.372 139.664C202.267 136.45 206.743 134.072 211.062 131.496C218.701 126.939 227.569 124.411 236.082 121.985C252.582 117.285 276.894 115.896 293.94 117.392C294.741 117.46 287.462 116.091 286.69 116Z" fill="#4F3220"/>
<path d="M235.371 23.2009C230.244 31.2286 226.619 40.4757 222.178 48.915C217.184 58.3933 212.345 68.1053 207.896 77.8504C203.313 87.8901 199.449 98.2449 195.067 108.371C192.974 113.21 190.718 117.966 188.322 122.656C185.955 127.297 183.968 132.144 180.046 135.724C179.182 136.506 180.452 137.753 181.316 136.994C188.002 131.123 191.521 120.85 195.138 112.949C200.013 102.302 204.101 91.3095 208.816 80.589C217.293 61.2919 228.789 43.2931 236.771 23.7928C237.116 22.9545 235.815 22.5023 235.371 23.2009Z" fill="#4F3220"/>
<path d="M229.403 36.97C225.539 45.8716 220.72 54.3668 216.767 63.2684C213.012 71.7331 209.819 80.4721 206.252 89.0257C202.675 97.6022 199.599 106.351 195.963 114.928C192.493 123.123 187.529 130.531 185.964 139.41C185.751 140.599 187.547 141.117 187.788 139.913C189.526 131.174 194.233 123.771 197.643 115.637C201.08 107.429 204.471 99.4592 207.4 91.0581C210.728 81.5061 214.91 71.8144 219.005 62.5622C222.704 54.1991 227.391 46.0037 230.317 37.3536C230.5 36.8201 229.629 36.4467 229.403 36.97Z" fill="#4F3220"/>
<path d="M196.561 104.735C195.357 106.199 190.271 105.337 188.475 105.266C185.239 105.144 182.048 104.408 178.974 103.437C171.393 101.062 166.391 94.1646 163.62 87.1023C158.12 73.1173 164.207 59.3965 172.128 47.9138C179.685 36.9621 190.116 28.1189 201.538 21.4426C207.406 18.0131 213.608 15.3533 220.162 13.5724C226.869 11.7509 233.646 11.6264 240.455 10.6001C245.909 9.77702 249.201 19.7634 250.975 23.7646C253.904 30.3544 257.11 37.0789 259.028 44.0346C261.863 54.336 262.607 65.7755 261.113 76.5926C261.812 76.2902 262.546 76.2268 263.512 76.4198C264.604 67.818 264.111 58.9418 262.854 50.4847C261.84 43.6738 259.345 37.4828 256.655 31.2055C253.556 23.9729 250.695 16.4507 246.107 10.0032C243.95 6.96481 237.457 8.72784 234.688 8.96664C227.008 9.63223 219.555 11.0981 212.297 13.763C199.28 18.5339 187.484 27.2958 177.993 37.2644C169.224 46.4759 160.673 58.642 159.581 71.6108C158.529 84.163 163.129 96.3545 173.792 103.407C178.085 106.242 183.468 107.001 188.475 107.431C191.033 107.647 196.218 108.254 197.987 105.835C198.594 105.005 197.217 103.945 196.561 104.735Z" fill="#4F3220"/>
<path d="M348.495 136.28C341.951 138.249 334.535 138.465 327.747 138.988C315.881 139.903 304.099 140.866 292.306 142.54C280.132 144.27 268.081 147.123 255.732 146.866C248.776 146.716 242.212 145.977 236.14 142.375C227.914 137.492 230.762 127.213 236.117 121.571C236.793 120.857 236.145 119.894 235.396 119.879C236.003 119.442 236.219 118.474 235.363 118.037C228.105 114.321 230.688 102.609 233.297 96.8477C236.249 90.3163 241.648 84.5699 248.027 81.3334C261.252 74.619 279.398 79.2045 292.616 83.4495C305.857 87.7047 318.856 95.4632 329.64 104.121C339.703 112.205 350.756 121.449 355.438 133.823C353.096 134.189 350.553 135.66 348.495 136.28ZM358.161 134.606C353.238 119.818 340.008 109.428 328.205 100.077C315.18 89.7549 299.32 82.662 283.359 78.3484C267.557 74.0754 249.055 74.4209 237.197 86.8207C232.284 91.9599 229.073 99.035 228.415 106.072C227.96 110.962 229.436 117.616 234.222 119.978C234.435 120.082 234.636 120.1 234.827 120.087C234.788 120.115 234.745 120.126 234.71 120.161C228.242 126.466 225.277 137.245 233.775 143.589C243.83 151.096 258.983 149.981 270.723 148.36C285.826 146.272 300.763 143.52 315.968 142.118C323.711 141.402 331.462 141.071 339.195 140.185C342.525 139.799 345.828 139.191 349.105 138.495C351.152 138.063 354.701 135.609 356.756 136.011C357.552 136.168 358.456 135.493 358.161 134.606Z" fill="#4F3220"/>
<path d="M230.263 135.304C227.54 134.788 224.804 134.326 222.07 133.965C217.754 133.404 213.324 133.231 208.987 133.597C207.234 133.744 205.507 134.13 203.799 134.527C202.961 134.722 201.666 135.85 200.921 135.929C200.108 136.018 200.108 137.108 200.921 137.192C202.318 137.342 204.455 136.076 205.878 135.802C210.605 134.895 215.381 135.149 220.145 135.553C223.625 135.843 227.128 136.386 230.611 137.09C230.443 136.508 230.337 135.911 230.263 135.304Z" fill="#4F3220"/>
<path d="M294.631 161.143C286.71 155.739 277.913 151.365 268.872 147.597C267.827 147.928 266.771 148.212 265.704 148.436C266.885 148.911 268.071 149.388 269.253 149.868C277.809 153.354 285.687 158.214 293.912 162.372C294.738 162.789 295.388 161.661 294.631 161.143Z" fill="#4F3220"/>
<path d="M230.978 138.111C228.164 137.763 225.344 137.502 222.537 137.344C214.057 136.867 201.949 135.492 195.029 141.617C194.64 141.958 195.138 142.562 195.57 142.318C204.306 137.316 216.13 138.584 225.773 139.382C227.92 139.565 230.036 139.829 232.144 140.144C231.669 139.534 231.278 138.848 230.978 138.111Z" fill="#4F3220"/>
<path d="M307.542 168.522C301.082 162.862 291.311 160.045 283.746 156.052C278.157 153.1 272.324 150.595 266.423 148.27C265.498 148.484 264.561 148.662 263.613 148.789C270.711 151.456 277.819 154.565 284.399 158.053C291.726 161.933 299.187 166.571 306.905 169.62C307.517 169.861 308.017 168.944 307.542 168.522Z" fill="#4F3220"/>
<path d="M328.981 185.683C328.391 179.236 327.235 173.157 325.167 167.004C321.697 156.677 315.461 148.235 307.293 141.452C306.478 141.716 305.639 141.917 304.798 142.118C312.758 148.283 318.966 156.593 322.487 166.033C324.456 171.302 325.876 176.711 326.522 182.312C326.781 184.578 326.981 186.87 327.042 189.146C327.167 194.458 322.21 191.069 319.546 190.266C309.437 187.21 298.981 184.901 288.608 182.955C283.754 182.048 278.932 180.521 274.031 179.906C267.741 179.119 261.444 178.395 255.199 177.295C245.508 175.59 235.425 172.92 227.252 167.258C221.043 162.952 217.037 156.039 220.675 148.766C221.79 146.53 223.442 144.62 225.194 142.867C226.513 141.546 228.647 141.213 229.887 139.918C230.448 139.339 230.067 138.279 229.216 138.297C229.147 138.297 229.076 138.302 229.01 138.302C228.606 138.307 228.347 138.523 228.21 138.8C227.318 139.417 225.926 139.704 225.118 140.337C222.865 142.087 221.198 144.023 219.623 146.378C217.027 150.27 215.917 155.092 217.98 159.476C222.979 170.118 235.044 174.467 245.617 177.351C252.318 179.175 259.223 180.176 266.103 181.037C274.196 182.048 282.021 183.877 290.023 185.379C297.312 186.748 304.524 188.59 311.752 190.256C315.229 191.056 318.674 192.205 322.081 193.277C323.349 193.676 325.378 195.042 326.814 194.646C329.885 193.805 329.161 187.639 328.981 185.683Z" fill="#4F3220"/>
<path d="M198.185 134.507C198.459 134.298 198.741 134.092 199.016 133.884C198.879 133.752 198.693 133.661 198.442 133.671C196.623 133.747 194.453 134.092 192.848 135.004C191.214 135.937 188.941 137.263 187.086 137.687C186.26 137.878 186.431 139.277 187.289 139.183C188.689 139.026 190.015 138.246 191.27 137.631C193.234 136.674 195.241 135.787 197.395 135.464C197.586 135.109 197.837 134.771 198.185 134.507Z" fill="#4F3220"/>
<path d="M230.811 115.377C224.577 116.548 219.511 116.632 213.297 114.874C210.31 114.028 205.958 112.217 203.545 110.185C202.397 109.219 201.53 108.038 200.306 107.139C199.645 106.648 198.675 107.614 199.165 108.277C206.423 118.126 220.215 120.14 231.334 117.267C232.569 116.945 232.036 115.149 230.811 115.377Z" fill="#4F3220"/>
<path d="M178.048 139.384C170.6 132.086 161.335 127.914 151.692 124.378C141.322 120.573 128.297 118.98 117.579 122.061C94.4204 128.712 76.9296 146.983 63.9405 166.458C63.567 167.016 64.4536 167.517 64.8372 166.978C77.6333 148.957 93.4906 132.525 114.767 125.011C135.474 117.699 160.702 126.962 176.674 140.761C177.611 141.569 178.953 140.273 178.048 139.384Z" fill="#4F3220"/>
<path d="M177.398 142.456C176.319 140.246 172.955 138.772 171.045 137.4C166.558 134.179 161.813 131.961 156.839 129.591C147.561 125.176 138.309 123.989 128.155 123.913C107.994 123.768 93.1401 135.177 78.7791 147.854C78.398 148.189 78.9443 148.713 79.3279 148.403C86.1768 142.829 93.0715 136.013 101.363 132.576C104.867 131.115 108.217 129.223 111.815 127.97C116.337 126.395 121.423 126.431 126.145 125.9C135.288 124.879 144.485 126.718 152.942 130.053C157.319 131.781 161.787 133.828 165.852 136.194C167.783 137.316 169.434 138.876 171.276 140.119C172.508 140.952 174.964 142.092 175.671 143.472C176.255 144.63 177.967 143.612 177.398 142.456Z" fill="#4F3220"/>
<path d="M131.567 123.979C130.482 123.471 129.588 124.937 130.62 125.6C144.208 134.331 131.887 149.607 123.542 157.088C113.67 165.934 99.9948 170.692 87.7983 175.268C76.7449 179.416 65.0921 182.185 53.6094 184.825C50.4974 185.536 47.3981 186.293 44.281 186.992C43.1099 187.241 41.9387 187.51 40.7701 187.784C38.1941 188.376 38.4075 186.443 37.7318 184.406C35.6004 177.983 37.6962 168.393 38.7022 161.963C42.2816 139.084 54.6383 118.538 74.1919 105.99C83.5736 99.9747 94.6041 96.0701 105.726 95.2368C112.445 94.7389 118.88 96.253 124.728 99.5632C132.784 104.116 135.218 113.904 128.508 120.758C127.581 121.705 129.014 123.141 129.962 122.214C138.746 113.599 134.263 102.294 124.543 96.7992C113.449 90.5244 99.8704 92.6888 88.4004 96.5858C64.2461 104.802 47.238 124.784 39.5507 148.634C37.3583 155.424 36.2202 162.466 35.4911 169.549C34.8763 175.537 33.7535 184.362 37.6632 189.55C39.3272 191.757 46.4911 188.623 48.5514 188.163C56.6985 186.362 64.7491 184.228 72.8251 182.139C87.1429 178.451 101.572 173.004 114.546 165.881C124.266 160.543 137.484 150.369 138.917 138.419C139.702 131.865 137.636 126.812 131.567 123.979Z" fill="#4F3220"/>
<path d="M175.74 143.344C171.708 139.348 167.054 135.855 162.171 132.685C160.149 132.258 158.173 131.722 156.593 130.269C156.402 130.096 156.323 129.901 156.298 129.707C154.977 129.436 153.719 129.052 152.543 128.287C152.482 128.287 152.434 128.313 152.37 128.303C151.834 128.242 151.308 128.16 150.785 128.077C159.235 132.743 167.681 138.03 174.431 144.65C175.282 145.486 176.586 144.183 175.74 143.344Z" fill="#4F3220"/>
<path d="M145.669 123.184C141.391 120.923 137.034 118.835 132.637 116.841C132.413 117.387 132.139 117.908 131.836 118.421C134.43 119.622 136.981 120.898 139.526 122.183C141.711 122.407 143.972 122.818 145.669 123.184Z" fill="#4F3220"/>
<path d="M82.745 99.9901C77.7404 98.8647 72.7104 97.8434 67.6956 96.8578C61.4284 95.6307 55.2221 94.424 48.8685 93.7178C42.172 92.9709 35.5415 93.8321 28.8627 93.4333C28.2124 93.3926 28.0524 94.485 28.7052 94.579C34.1316 95.3488 39.7052 94.8 45.1747 95.0515C51.9449 95.3691 58.6974 96.7739 65.3051 98.1661C70.1344 99.1823 74.9434 100.193 79.7371 101.265C80.7126 100.706 81.7085 100.29 82.745 99.9901Z" fill="#4F3220"/>
<path d="M78.1736 102.287C78.7833 101.824 79.4006 101.441 80.0256 101.1C79.4362 100.935 78.8493 100.747 78.2523 100.595C66.5512 97.6122 54.4537 96.1946 42.6128 94.0022C42.1479 93.9158 41.777 94.5992 42.2673 94.8126C46.426 96.6138 51.6745 96.7713 56.1126 97.7366C62.1892 99.0577 68.2609 100.612 74.4137 101.54C75.6763 101.728 76.9237 101.997 78.1634 102.302C78.1659 102.299 78.171 102.292 78.1736 102.287Z" fill="#4F3220"/>
<path d="M174.126 146.815C163.926 138.68 153.454 131.504 142.408 125.244C141.39 125.155 140.389 125.061 139.388 124.97C139.307 124.975 139.22 124.97 139.134 124.95C138.844 124.922 138.544 124.894 138.255 124.866C150.38 131.532 161.789 139.445 172.741 148.199C173.717 148.982 175.114 147.605 174.126 146.815Z" fill="#4F3220"/>
<path d="M133.503 86.2183C124.469 73.3003 106.511 68.5548 91.9516 65.6511C74.4024 62.1453 56.208 62.346 39.3904 68.7834C31.2941 71.8827 23.6703 76.0973 16.5012 80.9368C10.9555 84.6814 3.44597 88.9849 0.153586 95.0641C-0.148724 95.623 -0.00387546 96.3825 0.580421 96.6975C9.19498 101.402 17.68 106.918 25.9871 112.187C30.4176 114.999 34.5966 118.225 39.0678 120.961C41.1585 122.244 43.1019 123.55 45.3883 124.439C46.0463 124.698 49.6257 125.755 50.4132 126.57C51.3684 127.564 52.8342 126.078 51.9172 125.074C50.0576 123.044 45.5128 122.224 43.2137 120.788C38.2599 117.687 33.55 114.249 28.652 111.061C24.346 108.256 19.946 105.647 15.4393 103.183C11.0876 100.8 7.14485 97.762 2.85408 95.2724C5.91021 90.5751 11.8319 86.8865 16.265 83.9523C21.8437 80.2611 27.4148 76.9026 33.4407 73.971C47.662 67.061 62.9477 64.701 78.6297 66.2456C93.2854 67.6885 108.962 70.8641 121.703 78.5844C127.314 81.986 131.727 86.8712 134.613 92.7447C137.349 98.3082 136.973 103.01 132.896 107.68C132.812 107.776 132.718 107.875 132.634 107.972C132.972 108.82 133.226 109.692 133.36 110.576C135.223 108.742 136.805 106.603 137.974 104.441C141.154 98.5571 136.864 91.0197 133.503 86.2183Z" fill="#4F3220"/>
<path d="M175.098 129.881C172.016 124.69 168.698 119.638 165.581 114.468C159.497 104.36 153.931 93.9972 148.063 83.7745C136.539 63.6951 124.617 43.7858 109.375 26.3103C108.917 25.7844 108.191 26.5389 108.62 27.0622C122.864 44.4311 134.263 63.5934 145.555 82.9591C150.801 91.9572 155.534 101.23 160.859 110.185C163.61 114.808 166.343 119.439 169.156 124.03C171.765 128.288 175.202 132.548 176.525 137.415C176.777 138.327 178.357 138.17 178.228 137.184C177.862 134.377 176.543 132.314 175.098 129.881Z" fill="#4F3220"/>
<path d="M182.721 133.605C178.514 125.224 173.296 116.713 168.22 108.792C162.728 100.226 157.365 91.576 151.491 83.2637C145.735 75.1141 140.598 66.5757 134.679 58.5023C128.292 49.7937 121.883 41.4561 114.701 33.3775C114.351 32.9838 113.642 33.5147 113.964 33.944C117.287 38.3872 121.085 42.4824 124.477 46.8849C127.548 50.8734 130.287 55.2378 133.3 59.3101C139.257 67.3633 144.302 75.9448 150.038 84.1122C155.576 92.0104 160.662 100.224 165.847 108.358C171.187 116.736 176.67 125.694 181.087 134.56C181.628 135.652 183.267 134.694 182.721 133.605Z" fill="#4F3220"/>
<path d="M161.731 111.023C155.154 119.269 140.839 115.944 133.591 110.632C132.902 110.126 131.968 111.104 132.425 111.795C135.715 116.691 143.509 117.913 148.96 118.195C153.452 118.423 161.698 116.94 163.032 111.78C163.212 111.079 162.244 110.383 161.731 111.023Z" fill="#4F3220"/>
<path d="M180.517 104.154C178.66 105.274 177.553 106.643 175.287 107.144C172.756 107.7 170.018 107.144 167.447 107.517C166.695 107.626 166.708 108.894 167.447 109.016C170.978 109.6 181.262 110.474 181.567 104.758C181.595 104.225 180.957 103.894 180.517 104.154Z" fill="#4F3220"/>
<path d="M169.565 49.8598C169.585 49.8979 169.616 49.9157 169.641 49.9462C169.646 49.936 169.646 49.9283 169.651 49.9156C169.832 49.5727 170.03 49.2907 170.263 49.0392C170.431 48.836 170.642 48.6632 170.855 48.4905C168.899 44.629 163.918 41.23 160.673 38.7886C153.908 33.69 147.428 28.3119 140.406 23.5487C126.553 14.1517 111.359 7.1579 95.3541 2.31841C92.2421 1.37845 85.2687 -2.01556 84.1204 2.75026C83.5717 5.02901 84.7098 8.72784 85.0299 11.0168C85.6167 15.2923 86.2341 19.5653 86.9428 23.823C88.4188 32.651 90.6544 41.3392 92.8772 49.9995C93.9722 54.275 95.2424 58.3244 96.9216 62.412C97.8362 64.6374 98.3137 67.4217 99.6043 69.4464C100.186 70.3558 101.522 69.5658 101.047 68.6055C100.044 66.5884 99.7186 63.9972 98.8904 61.8709C97.511 58.3346 96.2839 54.8745 95.3643 51.1884C93.6851 44.4334 91.9653 37.6963 90.5045 30.8879C88.9523 23.6503 87.893 16.2958 86.9479 8.95649C86.4094 4.75717 85.7768 2.17355 90.9567 3.41837C94.7521 4.33291 98.4763 5.62344 102.157 6.90889C115.891 11.695 128.705 18.4373 140.718 26.5972C146.221 30.3367 151.193 34.7138 156.525 38.6514C159.647 40.9531 162.596 43.2699 165.414 45.9247C166.745 47.1822 168.676 48.2288 169.565 49.8598Z" fill="#4F3220"/>
</g>
</svg>
