<svg width="207" height="223" viewBox="0 0 207 223" fill="none" xmlns="http://www.w3.org/2000/svg">
<path opacity="0.5" d="M-5.53932 109.712C-7.04068 136.599 14.4397 167.739 14.4397 167.739C14.4397 167.739 33.8293 111.826 11.8244 64.0892C18.6848 70.1151 25.7176 76.2462 32.6677 82.2354C33.103 92.219 34.6008 116.526 39.3244 136.807C45.4285 163.035 74.7872 186.893 74.7872 186.893C74.7872 186.893 77.2842 136.165 50.2059 97.1785C50.213 97.1853 50.2201 97.1921 50.2279 97.1972C61.5512 106.718 73.0678 115.249 83.8619 122.653C85.2662 131.507 89.6805 156.874 97.096 177.415C106.238 202.742 138.196 222.988 138.196 222.988C138.196 222.988 134.495 168.901 100.04 133.298C109.825 139.467 118.381 144.404 124.809 147.957C130.525 154.974 143.391 170.148 156.414 181.237C173.89 196.124 206.108 197.601 206.108 197.601C206.108 197.601 179.293 157.348 137.097 146.583L137.096 146.561C137.096 146.561 129.891 141.954 117.744 133.559C156.054 147.249 195.43 140.18 195.43 140.18C195.43 140.18 168.008 114.12 141.215 111.42C121.14 109.4 97.694 110.866 87.1989 111.728C77.5071 104.578 66.7993 96.4672 55.4268 87.5218C101.673 106.25 153.619 88.8526 153.619 88.8526C153.619 88.8526 122.706 67.0461 95.8053 68.2653C75.1666 69.2019 51.5773 74.2635 41.7057 76.5743C34.4015 70.661 26.9014 64.4515 19.2895 57.9721C70.6044 68.6563 120.624 37.5058 120.624 37.5058C120.624 37.5058 85.4984 23.46 59.6133 30.8797C40.9777 36.2209 20.6458 45.7068 10.7163 50.6014C2.71046 43.6473 -5.38237 36.4154 -13.4683 28.9418C40.1085 39.7096 91.31 3.76484 91.31 3.76484C91.31 3.76484 55.466 -8.33271 30.0273 0.496009C10.7591 7.18311 -10.1232 18.5489 -19.1279 23.6732C-25.7177 17.4805 -32.2869 11.1345 -38.7826 4.65043C-38.7826 4.65043 -45.7157 6.97109 -46.451 11.92C-46.451 11.92 -39.1343 18.6076 -27.8004 28.8154C-32.3552 39.4493 -40.2069 59.0637 -44.4079 76.9739C-50.5562 103.189 -34.8142 137.588 -34.8142 137.588C-34.8142 137.588 -6.64383 87.0526 -18.939 36.7759C-12.2686 42.7546 -4.75931 49.4489 3.15133 56.4435C0.66483 66.6981 -4.41696 89.5952 -5.53932 109.712Z" fill="#4BA481"/>
</svg>
