<svg width="69" height="22" viewBox="0 0 69 22" fill="none" xmlns="http://www.w3.org/2000/svg">
<path d="M17.9267 16.664C17.4947 16.856 17.0387 16.952 16.5347 16.976C16.0067 17.024 15.5267 16.952 15.0707 16.784C14.6147 16.616 14.2307 16.328 13.8947 15.92C13.5587 15.536 13.3907 14.984 13.3427 14.288C13.2947 13.616 13.2947 12.92 13.3427 12.152C13.3907 11.384 13.4627 10.64 13.5827 9.896C13.2707 9.824 12.9587 9.752 12.6467 9.68C12.3347 9.632 12.0467 9.584 11.7587 9.584C11.4227 9.584 11.1107 9.632 10.8707 9.728C10.5827 9.848 10.3667 10.016 10.2467 10.208C9.67068 11.12 9.09468 12.032 8.47068 12.92C7.94268 13.64 7.43868 14.312 6.91068 14.888C6.38268 15.488 5.85468 15.968 5.32668 16.328C5.13468 16.472 4.91868 16.592 4.65468 16.712C4.39068 16.832 4.12668 16.904 3.88668 16.928C3.50268 16.976 3.14268 16.976 2.78268 16.952C2.42268 16.928 2.08668 16.856 1.79868 16.76C1.51068 16.664 1.27068 16.544 1.07868 16.376C0.886681 16.208 0.766681 16.016 0.742681 15.776C0.694681 15.464 0.742681 15.128 0.934681 14.768C1.10268 14.408 1.34268 14.144 1.65468 13.952C1.94268 13.784 2.27868 13.76 2.63868 13.856C2.97468 13.952 3.31068 14.312 3.62268 14.888C3.67068 15.032 3.76668 15.152 3.88668 15.296C3.98268 15.44 4.12668 15.584 4.27068 15.68C4.41468 15.8 4.55868 15.872 4.75068 15.92C4.91868 15.968 5.08668 15.968 5.27868 15.92L5.68668 15.608C6.07068 15.296 6.45468 14.912 6.83868 14.48C7.22268 14.048 7.58268 13.544 7.96668 13.016C8.35068 12.488 8.71068 11.936 9.09468 11.336C9.47868 10.76 9.83868 10.16 10.2227 9.536C10.6067 8.912 10.9667 8.312 11.3267 7.688C11.6867 7.088 12.0467 6.488 12.4307 5.912C12.9107 5.144 13.3667 4.448 13.8467 3.8C14.3267 3.176 14.7827 2.624 15.2627 2.192C15.5027 1.952 15.7907 1.736 16.1027 1.544C15.9587 1.568 15.8387 1.592 15.6947 1.592C15.5507 1.592 15.4067 1.592 15.2627 1.592C15.1667 1.592 15.0947 1.592 15.0227 1.592C14.9507 1.592 14.8787 1.568 14.8067 1.568C14.2787 1.52 13.7507 1.424 13.2467 1.328C12.7187 1.232 12.2387 1.112 11.7587 0.991999C11.2787 0.896 10.7987 0.8 10.3667 0.704C9.91068 0.631999 9.47868 0.584 9.07068 0.584C8.59068 0.584 8.15868 0.655999 7.77468 0.8C7.36668 0.943999 6.98268 1.16 6.62268 1.496C6.28668 1.832 6.02268 2.168 5.87868 2.528C5.73468 2.888 5.66268 3.248 5.66268 3.608C5.66268 4.448 5.99868 5.144 6.67068 5.72C6.76668 5.792 6.79068 5.864 6.69468 5.96C6.59868 6.056 6.50268 6.08 6.45468 5.984C6.07068 5.696 5.78268 5.336 5.59068 4.928C5.39868 4.52 5.30268 4.088 5.30268 3.608C5.30268 3.2 5.37468 2.792 5.56668 2.384C5.73468 2 5.99868 1.616 6.38268 1.232C6.76668 0.871999 7.19868 0.607999 7.65468 0.464C8.08668 0.319999 8.56668 0.223999 9.07068 0.223999C9.50268 0.223999 9.93468 0.271999 10.4147 0.344C10.8707 0.439999 11.3507 0.535999 11.8307 0.631999C12.3107 0.775999 12.8147 0.896 13.3187 0.991999C13.8227 1.088 14.3267 1.16 14.8547 1.208C14.9027 1.232 14.9747 1.232 15.0467 1.232H15.2627C15.4307 1.232 15.5987 1.232 15.7907 1.208C15.9827 1.208 16.1507 1.184 16.3427 1.16C16.5107 1.16 16.6547 1.136 16.7987 1.112C16.9427 1.112 17.0627 1.088 17.1587 1.088C17.2787 1.088 17.3747 1.136 17.4467 1.184C17.5187 1.256 17.5667 1.352 17.5667 1.448C17.5667 1.544 17.5427 1.64 17.4947 1.736C17.4467 1.832 17.3747 1.904 17.3027 1.928C17.1587 2.336 17.0147 2.816 16.9187 3.344C16.8227 3.872 16.7267 4.4 16.6787 4.928C16.6067 5.456 16.5587 5.96 16.5107 6.416C16.4627 6.872 16.4387 7.232 16.4387 7.472C16.3427 8.504 16.2947 9.416 16.2707 10.208C16.2227 11 16.2227 11.72 16.2227 12.344C16.2227 12.992 16.2467 13.568 16.2947 14.072C16.3427 14.6 16.4147 15.08 16.5347 15.56C16.6307 16.04 16.7987 16.328 17.0387 16.448C17.2787 16.568 17.5667 16.64 17.8787 16.64L17.9267 16.664ZM11.7587 9.248C12.0467 9.248 12.3587 9.296 12.6947 9.344C13.0067 9.392 13.3187 9.464 13.6307 9.536C13.7267 8.84 13.8227 8.192 13.9667 7.568C14.0867 6.944 14.2067 6.416 14.3507 5.984C14.6147 5.048 14.8547 4.304 15.0467 3.728C15.2387 3.152 15.4067 2.72 15.5747 2.384C15.4787 2.48 15.3827 2.552 15.2867 2.648C15.1907 2.744 15.1187 2.84 15.0227 2.936C14.6867 3.32 14.3267 3.752 13.9907 4.232C13.6547 4.712 13.2947 5.24 12.9347 5.792C12.5507 6.368 12.1907 6.944 11.8307 7.568C11.4467 8.192 11.0867 8.792 10.7267 9.392C10.7747 9.368 10.9427 9.344 11.1827 9.296C11.4227 9.272 11.6147 9.248 11.7587 9.248ZM27.7779 1.664C27.7539 1.664 27.7539 1.688 27.7539 1.688V1.664C27.7539 1.664 27.7779 1.64 27.7779 1.616V1.664V1.64C27.7779 1.64 27.8019 1.64 27.8019 1.616C27.8019 1.616 27.8019 1.592 27.8259 1.568C27.5139 1.544 27.2019 1.52 26.9139 1.496C26.6019 1.496 26.2899 1.472 25.9779 1.472C25.3539 1.472 24.7779 1.52 24.2019 1.592C23.6259 1.664 23.0979 1.784 22.5939 1.976C21.8259 2.264 21.1779 2.696 20.6739 3.32C20.1459 3.944 19.9059 4.712 19.9059 5.576C19.9059 6.176 20.0259 6.728 20.3139 7.208C20.4339 7.448 20.5779 7.64 20.7699 7.832C20.9619 8.024 21.1539 8.144 21.3939 8.24C21.4899 8.312 21.5139 8.384 21.4659 8.48C21.4179 8.576 21.3459 8.624 21.2499 8.576C20.7219 8.336 20.2899 7.952 20.0019 7.376C19.6899 6.824 19.5459 6.224 19.5459 5.576C19.5459 4.664 19.8099 3.872 20.3379 3.176C20.8659 2.48 21.5859 1.976 22.4739 1.64C23.0019 1.448 23.5539 1.328 24.1539 1.232C24.7539 1.16 25.3539 1.112 25.9779 1.112C26.3139 1.112 26.6739 1.136 27.0339 1.16C27.3699 1.184 27.7299 1.208 28.0659 1.232C28.1619 1.232 28.2579 1.256 28.4019 1.28C28.8579 1.352 29.2899 1.424 29.6979 1.52C30.0819 1.616 30.4659 1.76 30.8019 1.904C31.1139 2.096 31.4019 2.288 31.6419 2.504C31.8819 2.72 32.0979 2.984 32.2659 3.296C32.4579 3.752 32.5779 4.232 32.5779 4.736C32.5779 4.856 32.5539 4.976 32.5539 5.072C32.5539 5.168 32.5299 5.288 32.5299 5.408C32.4579 5.96 32.2659 6.416 31.9779 6.776C31.8339 6.968 31.6899 7.112 31.5219 7.232C31.3299 7.352 31.1619 7.448 30.9699 7.544C30.6819 7.664 30.4179 7.76 30.1299 7.808C29.8419 7.856 29.5539 7.904 29.2659 7.952C29.4819 8 29.7219 8.024 29.9619 8.072C30.2019 8.12 30.4179 8.192 30.6579 8.264C31.0659 8.432 31.4499 8.648 31.8339 8.912C32.2179 9.176 32.5299 9.512 32.7939 9.944C33.1299 10.52 33.3219 11.24 33.3219 12.08C33.3219 12.656 33.2259 13.256 33.0819 13.88C32.9379 14.456 32.7219 14.96 32.4339 15.392C32.1459 15.824 31.7859 16.16 31.4019 16.424C30.9939 16.712 30.5619 16.904 30.1299 17.048C29.6739 17.192 29.2179 17.24 28.7859 17.24C28.4019 17.24 28.0419 17.192 27.6579 17.072C27.2739 16.976 26.9379 16.808 26.6259 16.592C26.3139 16.376 26.0739 16.112 25.8819 15.776C25.6899 15.44 25.5939 15.056 25.5939 14.624C25.5939 14.24 25.6899 13.784 25.8819 13.304C25.9059 13.208 25.9779 13.184 26.1219 13.208C26.2179 13.28 26.2419 13.352 26.2179 13.448C26.1219 13.688 26.0499 13.88 26.0019 14.072C25.9539 14.264 25.9539 14.456 25.9539 14.624C25.9539 14.864 25.9779 15.104 26.0739 15.344C26.1699 15.608 26.3139 15.8 26.5539 15.944C26.7219 16.112 26.9139 16.184 27.1299 16.16C27.3459 16.16 27.5619 16.088 27.7539 15.992C27.9459 15.896 28.1379 15.752 28.3299 15.584C28.5219 15.44 28.6659 15.272 28.7859 15.128C29.0499 14.792 29.2899 14.384 29.5059 13.904C29.6979 13.424 29.8659 12.896 29.9619 12.272C29.9859 12.008 30.0099 11.768 30.0339 11.528C30.0579 11.312 30.0819 11.096 30.0819 10.88C30.0819 10.184 29.9619 9.632 29.7219 9.248C29.5059 8.864 29.1699 8.6 28.7139 8.456C28.4259 8.36 28.0659 8.288 27.6339 8.288C27.4179 8.288 27.2019 8.312 27.0099 8.312C26.7939 8.336 26.5779 8.384 26.3619 8.48C26.3139 8.624 26.2899 8.768 26.2659 8.912C26.2419 9.056 26.2179 9.2 26.1939 9.344C26.0499 10.064 25.9059 10.736 25.7859 11.312C25.6419 11.888 25.5219 12.416 25.3779 12.896C25.1859 13.52 24.9939 14.072 24.8019 14.528C24.6099 14.984 24.3699 15.392 24.1059 15.728C23.7219 16.232 23.2899 16.592 22.8339 16.784C22.3779 16.976 21.8979 17.072 21.4179 17.072C20.6979 17.072 20.0019 16.856 19.3299 16.376C18.6579 15.92 18.0819 15.152 17.6499 14.048L17.7219 14.024C17.9139 14.384 18.1539 14.624 18.4659 14.72C18.7539 14.84 19.0659 14.888 19.3779 14.84C19.6899 14.816 19.9779 14.72 20.2659 14.576C20.5299 14.432 20.7459 14.264 20.8899 14.072C21.1299 13.76 21.3939 13.352 21.6339 12.848C21.8739 12.344 22.1139 11.744 22.3539 11.024C22.5939 10.304 22.8339 9.488 23.1219 8.576C23.4099 7.664 23.7219 6.608 24.0819 5.456C24.1539 5.168 24.2739 4.928 24.4419 4.688C24.6339 4.424 24.8499 4.208 25.1139 4.016C25.3539 3.824 25.6419 3.632 25.9539 3.44C26.2419 3.248 26.5539 3.032 26.8659 2.744C27.1539 2.48 27.4659 2.12 27.7539 1.688L27.7779 1.664ZM27.0579 4.808C26.9619 5.36 26.8419 5.912 26.7459 6.44C26.6499 6.968 26.5299 7.52 26.4339 8.048C26.6499 7.904 26.9379 7.832 27.2979 7.808C27.6339 7.784 27.9699 7.76 28.2579 7.712C28.8339 7.568 29.2659 7.256 29.5539 6.824C29.8419 6.392 30.0579 5.72 30.1779 4.76C30.2259 4.472 30.2499 4.208 30.2499 3.968C30.2259 3.56 30.1779 3.224 30.0819 2.96C29.9859 2.72 29.8659 2.504 29.6979 2.312C29.5299 2.144 29.3379 2 29.0979 1.904C28.8579 1.808 28.6179 1.712 28.3539 1.616C28.3059 1.616 28.2579 1.616 28.2099 1.616C28.1619 1.616 28.1379 1.592 28.1139 1.592C27.9699 1.88 27.8019 2.288 27.6099 2.816C27.3939 3.344 27.2019 4.016 27.0579 4.808ZM27.8019 1.592C27.8019 1.616 27.7779 1.616 27.7779 1.616H27.8019V1.592ZM44.301 0.487999C44.037 1.016 43.845 1.568 43.701 2.144C43.557 2.744 43.437 3.368 43.341 4.04C43.053 5.672 42.813 7.112 42.621 8.36C42.429 9.608 42.213 10.664 42.021 11.576C41.805 12.488 41.589 13.28 41.349 13.904C41.109 14.552 40.821 15.104 40.485 15.536C40.005 16.16 39.453 16.616 38.829 16.88C38.205 17.144 37.557 17.216 36.933 17.096C36.309 16.976 35.709 16.64 35.133 16.088C34.557 15.56 34.125 14.792 33.789 13.784L33.861 13.76C34.077 14.144 34.317 14.408 34.605 14.6C34.893 14.792 35.181 14.888 35.493 14.888C35.781 14.888 36.093 14.816 36.405 14.648C36.693 14.48 36.981 14.216 37.245 13.832C37.485 13.496 37.725 13.088 37.941 12.632C38.133 12.176 38.349 11.624 38.565 10.976C38.781 10.352 39.021 9.584 39.261 8.72C39.501 7.856 39.813 6.8 40.149 5.6C40.317 5 40.557 4.52 40.893 4.136C41.229 3.776 41.589 3.392 41.997 3.008C41.781 3.152 41.589 3.248 41.397 3.296C40.965 3.488 40.581 3.608 40.197 3.656C39.813 3.728 39.429 3.8 39.093 3.848C38.853 3.896 38.613 3.968 38.397 4.016C38.181 4.064 37.989 4.136 37.797 4.208C37.533 4.352 37.293 4.496 37.101 4.688C36.885 4.88 36.693 5.168 36.525 5.528C36.357 5.84 36.285 6.152 36.285 6.464C36.285 6.896 36.405 7.256 36.645 7.592C36.885 7.928 37.197 8.168 37.581 8.312C37.677 8.336 37.701 8.408 37.677 8.528C37.629 8.648 37.557 8.696 37.437 8.648C36.981 8.48 36.621 8.192 36.333 7.808C36.045 7.424 35.925 6.968 35.925 6.464C35.925 6.104 36.021 5.744 36.213 5.36C36.477 4.832 36.813 4.424 37.245 4.136C37.437 3.992 37.653 3.896 37.869 3.8C38.085 3.728 38.301 3.656 38.541 3.608C38.997 3.512 39.477 3.416 39.981 3.344C40.485 3.272 41.013 3.104 41.541 2.84C41.829 2.72 42.117 2.552 42.405 2.36C42.693 2.168 42.981 1.904 43.293 1.568C43.485 1.28 43.701 0.92 43.941 0.487999H44.301ZM60.2839 17.408C60.4759 17.552 60.5959 17.744 60.6679 17.984C60.7399 18.248 60.7399 18.536 60.6919 18.848C60.6439 19.16 60.5239 19.472 60.3319 19.808C60.1399 20.144 59.8759 20.456 59.5399 20.744C58.8439 21.416 58.0039 21.752 57.0199 21.752C56.1799 21.752 55.4359 21.584 54.7639 21.224C54.0919 20.888 53.4199 20.432 52.7959 19.88C52.1479 19.328 51.4999 18.728 50.8279 18.056C50.1559 17.384 49.4359 16.736 48.6439 16.088C48.4999 15.968 48.3559 15.848 48.2119 15.728L47.7799 15.392C47.2519 16.112 46.6519 16.592 45.9319 16.856C45.2119 17.12 44.5399 17.144 43.9399 16.904C43.6999 16.832 43.5079 16.712 43.3399 16.52C43.1719 16.328 43.0519 16.112 42.9559 15.872C42.8599 15.632 42.8359 15.392 42.8839 15.128C42.9079 14.864 43.0039 14.624 43.1959 14.384C43.4359 14.096 43.6999 13.856 44.0119 13.712C44.3239 13.568 44.7079 13.496 45.1639 13.52C45.3079 13.136 45.4759 12.704 45.6439 12.2C45.7879 11.72 45.9559 11.144 46.1479 10.496C46.3399 9.872 46.5319 9.152 46.7719 8.336C46.9879 7.52 47.2519 6.608 47.5399 5.6C47.7079 5.048 47.9479 4.592 48.2839 4.232C48.6199 3.896 48.9799 3.536 49.4119 3.152C48.9799 3.368 48.5719 3.512 48.1879 3.584C47.8039 3.68 47.4199 3.752 47.0599 3.824C46.7239 3.872 46.4359 3.944 46.1719 3.992C45.8839 4.064 45.6199 4.16 45.3799 4.28C45.1399 4.4 44.8999 4.544 44.7079 4.736C44.4919 4.928 44.2999 5.192 44.1559 5.528C43.8679 6.056 43.8439 6.608 44.0599 7.16C44.2759 7.736 44.6599 8.096 45.2119 8.288C45.3079 8.336 45.3559 8.432 45.3319 8.528C45.2839 8.672 45.2119 8.696 45.0919 8.624C44.4439 8.384 43.9879 7.928 43.7479 7.28C43.6039 6.992 43.5559 6.68 43.5799 6.344C43.5799 6.008 43.6759 5.696 43.8439 5.36C44.0359 5 44.2519 4.712 44.4919 4.472C44.7319 4.256 44.9719 4.088 45.2359 3.944C45.4999 3.8 45.7879 3.704 46.0759 3.632C46.3639 3.584 46.6759 3.512 47.0119 3.464C47.2999 3.416 47.5879 3.368 47.9239 3.296C48.2359 3.224 48.5479 3.128 48.8839 3.008C49.1959 2.888 49.5319 2.72 49.8679 2.504C50.2039 2.288 50.5399 2 50.8759 1.664C51.1159 1.328 51.3559 0.943999 51.5719 0.511999H51.9559C51.8599 0.655999 51.8119 0.8 51.7639 0.943999C51.7159 1.088 51.6679 1.232 51.6199 1.376C51.5239 1.664 51.4039 2.024 51.3079 2.456C51.1879 2.888 51.0679 3.416 50.9719 4.04C50.7079 5.576 50.4679 6.944 50.2519 8.12C50.0119 9.296 49.7959 10.328 49.5559 11.192C49.3159 12.08 49.0759 12.848 48.8359 13.472C48.5719 14.12 48.2839 14.672 47.9959 15.104L48.4279 15.44C48.5719 15.56 48.7159 15.68 48.8599 15.8C49.6999 16.472 50.4919 17.168 51.2119 17.888C51.9319 18.608 52.6519 19.256 53.3479 19.808C54.0199 20.384 54.7159 20.816 55.4359 21.104C56.1319 21.392 56.8759 21.464 57.6919 21.32C57.9319 21.224 58.1239 21.104 58.2439 20.936C58.3639 20.768 58.4359 20.576 58.4599 20.384C58.4839 20.192 58.4839 20.024 58.4359 19.832C58.3879 19.664 58.3639 19.52 58.3159 19.376C58.0759 18.848 58.0039 18.416 58.0999 18.08C58.1959 17.744 58.3639 17.504 58.6039 17.36C58.8439 17.216 59.1319 17.168 59.4679 17.168C59.7799 17.192 60.0439 17.264 60.2839 17.408ZM44.8039 14.264C44.8759 14.12 44.9479 14 44.9959 13.856C44.7079 13.856 44.4439 13.904 44.2279 14C44.0119 14.096 43.7959 14.264 43.6039 14.456C43.4119 14.72 43.3159 14.936 43.3399 15.08C43.3639 15.248 43.4599 15.344 43.6039 15.344C43.7479 15.368 43.9159 15.296 44.1559 15.128C44.3719 14.984 44.5879 14.696 44.8039 14.264ZM68.1767 16.664C67.7447 16.856 67.2887 16.952 66.7847 16.976C66.2567 17.024 65.7767 16.952 65.3207 16.784C64.8647 16.616 64.4807 16.328 64.1447 15.92C63.8087 15.536 63.6407 14.984 63.5927 14.288C63.5447 13.616 63.5447 12.92 63.5927 12.152C63.6407 11.384 63.7127 10.64 63.8327 9.896C63.5207 9.824 63.2087 9.752 62.8967 9.68C62.5847 9.632 62.2967 9.584 62.0087 9.584C61.6727 9.584 61.3607 9.632 61.1207 9.728C60.8327 9.848 60.6167 10.016 60.4967 10.208C59.9207 11.12 59.3447 12.032 58.7207 12.92C58.1927 13.64 57.6887 14.312 57.1607 14.888C56.6327 15.488 56.1047 15.968 55.5767 16.328C55.3847 16.472 55.1687 16.592 54.9047 16.712C54.6407 16.832 54.3767 16.904 54.1367 16.928C53.7527 16.976 53.3927 16.976 53.0327 16.952C52.6727 16.928 52.3367 16.856 52.0487 16.76C51.7607 16.664 51.5207 16.544 51.3287 16.376C51.1367 16.208 51.0167 16.016 50.9927 15.776C50.9447 15.464 50.9927 15.128 51.1847 14.768C51.3527 14.408 51.5927 14.144 51.9047 13.952C52.1927 13.784 52.5287 13.76 52.8887 13.856C53.2247 13.952 53.5607 14.312 53.8727 14.888C53.9207 15.032 54.0167 15.152 54.1367 15.296C54.2327 15.44 54.3767 15.584 54.5207 15.68C54.6647 15.8 54.8087 15.872 55.0007 15.92C55.1687 15.968 55.3367 15.968 55.5287 15.92L55.9367 15.608C56.3207 15.296 56.7047 14.912 57.0887 14.48C57.4727 14.048 57.8327 13.544 58.2167 13.016C58.6007 12.488 58.9607 11.936 59.3447 11.336C59.7287 10.76 60.0887 10.16 60.4727 9.536C60.8567 8.912 61.2167 8.312 61.5767 7.688C61.9367 7.088 62.2967 6.488 62.6807 5.912C63.1607 5.144 63.6167 4.448 64.0967 3.8C64.5767 3.176 65.0327 2.624 65.5127 2.192C65.7527 1.952 66.0407 1.736 66.3527 1.544C66.2087 1.568 66.0887 1.592 65.9447 1.592C65.8007 1.592 65.6567 1.592 65.5127 1.592C65.4167 1.592 65.3447 1.592 65.2727 1.592C65.2007 1.592 65.1287 1.568 65.0567 1.568C64.5287 1.52 64.0007 1.424 63.4967 1.328C62.9687 1.232 62.4887 1.112 62.0087 0.991999C61.5287 0.896 61.0487 0.8 60.6167 0.704C60.1607 0.631999 59.7287 0.584 59.3207 0.584C58.8407 0.584 58.4087 0.655999 58.0247 0.8C57.6167 0.943999 57.2327 1.16 56.8727 1.496C56.5367 1.832 56.2727 2.168 56.1287 2.528C55.9847 2.888 55.9127 3.248 55.9127 3.608C55.9127 4.448 56.2487 5.144 56.9207 5.72C57.0167 5.792 57.0407 5.864 56.9447 5.96C56.8487 6.056 56.7527 6.08 56.7047 5.984C56.3207 5.696 56.0327 5.336 55.8407 4.928C55.6487 4.52 55.5527 4.088 55.5527 3.608C55.5527 3.2 55.6247 2.792 55.8167 2.384C55.9847 2 56.2487 1.616 56.6327 1.232C57.0167 0.871999 57.4487 0.607999 57.9047 0.464C58.3367 0.319999 58.8167 0.223999 59.3207 0.223999C59.7527 0.223999 60.1847 0.271999 60.6647 0.344C61.1207 0.439999 61.6007 0.535999 62.0807 0.631999C62.5607 0.775999 63.0647 0.896 63.5687 0.991999C64.0727 1.088 64.5767 1.16 65.1047 1.208C65.1527 1.232 65.2247 1.232 65.2967 1.232H65.5127C65.6807 1.232 65.8487 1.232 66.0407 1.208C66.2327 1.208 66.4007 1.184 66.5927 1.16C66.7607 1.16 66.9047 1.136 67.0487 1.112C67.1927 1.112 67.3127 1.088 67.4087 1.088C67.5287 1.088 67.6247 1.136 67.6967 1.184C67.7687 1.256 67.8167 1.352 67.8167 1.448C67.8167 1.544 67.7927 1.64 67.7447 1.736C67.6967 1.832 67.6247 1.904 67.5527 1.928C67.4087 2.336 67.2647 2.816 67.1687 3.344C67.0727 3.872 66.9767 4.4 66.9287 4.928C66.8567 5.456 66.8087 5.96 66.7607 6.416C66.7127 6.872 66.6887 7.232 66.6887 7.472C66.5927 8.504 66.5447 9.416 66.5207 10.208C66.4727 11 66.4727 11.72 66.4727 12.344C66.4727 12.992 66.4967 13.568 66.5447 14.072C66.5927 14.6 66.6647 15.08 66.7847 15.56C66.8807 16.04 67.0487 16.328 67.2887 16.448C67.5287 16.568 67.8167 16.64 68.1287 16.64L68.1767 16.664ZM62.0087 9.248C62.2967 9.248 62.6087 9.296 62.9447 9.344C63.2567 9.392 63.5687 9.464 63.8807 9.536C63.9767 8.84 64.0727 8.192 64.2167 7.568C64.3367 6.944 64.4567 6.416 64.6007 5.984C64.8647 5.048 65.1047 4.304 65.2967 3.728C65.4887 3.152 65.6567 2.72 65.8247 2.384C65.7287 2.48 65.6327 2.552 65.5367 2.648C65.4407 2.744 65.3687 2.84 65.2727 2.936C64.9367 3.32 64.5767 3.752 64.2407 4.232C63.9047 4.712 63.5447 5.24 63.1847 5.792C62.8007 6.368 62.4407 6.944 62.0807 7.568C61.6967 8.192 61.3367 8.792 60.9767 9.392C61.0247 9.368 61.1927 9.344 61.4327 9.296C61.6727 9.272 61.8647 9.248 62.0087 9.248Z" fill="#EDE1D1"/>
</svg>
