<svg width="36" height="37" viewBox="0 0 36 37" fill="none" xmlns="http://www.w3.org/2000/svg">
<path d="M26.4613 34.8341C26.4613 35.9051 21.4159 36.7734 15.1923 36.7734C8.96834 36.7734 3.9231 35.9051 3.9231 34.8341C3.9231 33.7629 8.96834 32.8946 15.1923 32.8946C21.4159 32.8946 26.4613 33.7629 26.4613 34.8341Z" fill="#9FDECA"/>
<path d="M29.7403 23.4732C32.3678 22.584 34.5143 19.3491 34.5143 19.3491C34.5143 19.3491 28.4223 19.6531 24.7099 23.5747C25.0209 22.6919 25.3353 21.7887 25.6393 20.8989C26.5766 20.4744 28.8416 19.3995 30.5974 18.1726C32.8682 16.5866 34.0147 12.8828 34.0147 12.8828C34.0147 12.8828 29.0704 14.5921 26.3902 18.6598C26.3905 18.6589 26.3909 18.658 26.3911 18.657C26.8638 17.2163 27.2343 15.7952 27.5251 14.4859C28.3171 14.0128 30.5709 12.6202 32.2475 11.1278C34.3149 9.28769 35.0158 5.47567 35.0158 5.47567C35.0158 5.47567 29.9898 7.90257 27.9177 12.541C28.1296 11.375 28.2709 10.3729 28.3623 9.62614C28.8122 8.81399 29.7655 7.00988 30.3225 5.34756C31.0703 3.11658 29.9676 2.09808e-05 29.9676 2.09808e-05C29.9676 2.09808e-05 27.1561 4.0913 27.7566 8.51187L27.7545 8.51281C27.7545 8.51281 27.5924 9.37385 27.2592 10.8496C27.0883 6.68584 24.8924 3.21753 24.8924 3.21753C24.8924 3.21753 23.4607 6.82183 24.2372 9.46993C24.8192 11.454 25.8647 13.6245 26.3523 14.5882C26.0432 15.783 25.6815 17.1112 25.2657 18.5345C25.2699 13.4237 21.6016 9.15789 21.6016 9.15789C21.6016 9.15789 20.7113 12.9306 21.8664 15.4386C22.7528 17.3627 24.1473 19.4089 24.7493 20.2577C24.4662 21.1783 24.1624 22.1289 23.8371 23.1004C22.8768 17.817 17.9686 14.2617 17.9686 14.2617C17.9686 14.2617 17.9825 18.1367 19.6911 20.3103C20.921 21.8753 22.6126 23.4423 23.4637 24.1975C23.1083 25.2246 22.7296 26.2707 22.3276 27.3254C21.288 21.824 15.876 18.3405 15.876 18.3405C15.876 18.3405 16.1038 22.2089 17.9298 24.2861C19.3128 25.8594 21.2052 27.4066 22.0426 28.0651C21.7053 28.9286 21.3524 29.796 20.9836 30.6617C20.9836 30.6617 21.4731 31.2311 21.9744 31.1111C21.9744 31.1111 22.331 30.1596 22.8689 28.6915C24.061 28.716 26.2386 28.7091 28.1124 28.4208C30.8551 27.9988 33.5346 25.1838 33.5346 25.1838C33.5346 25.1838 27.6175 24.4475 23.2875 27.5444C23.6013 26.6815 23.9511 25.7115 24.3141 24.6918C25.3901 24.5344 27.7745 24.1385 29.7403 23.4732Z" fill="#4BA481"/>
<path d="M26.4779 27.5105C28.1608 23.531 27.6597 20.9024 26.8779 20.2148C25.9261 19.3779 23.5777 16.8115 14.9558 17.0347C9.84422 17.167 6.95135 18.8478 4.76204 19.9078C2.57273 20.9679 0.691954 22.2789 0.663872 23.8131C0.649736 24.5885 1.13864 26.5329 2.32771 28.529C4.46161 29.7944 7.6617 31.0741 12.0039 31.2123C17.7145 31.3942 23.265 29.1325 26.4779 27.5105Z" fill="#6A4F41"/>
<path d="M12.0039 31.2123C7.66162 31.0741 4.46153 29.7944 2.32764 28.529C3.49108 30.4824 5.32474 32.4856 8.01784 33.4926C13.4634 35.5291 21.7438 35.808 25.0558 30.2848C25.6465 29.3 26.1126 28.3739 26.4779 27.5105C23.265 29.1325 17.7144 31.3942 12.0039 31.2123Z" fill="#53352F"/>
<path d="M15.8491 26.4633C19.0982 26.1128 22.8665 26.3308 24.719 24.263C26.5717 22.1953 27.2172 21.8604 26.7119 21.191C26.2066 20.5216 25.9539 20.2985 22.6701 19.1267C19.386 17.9552 16.1297 17.6763 13.0983 18.0947C10.0669 18.5131 7.48461 19.6568 5.18279 20.5495C2.88115 21.4422 2.06714 22.2611 2.06714 23.1068C2.06714 23.9526 3.89175 25.738 7.87758 26.1006C11.8634 26.4633 12.2283 26.8538 15.8491 26.4633Z" fill="white"/>
<path d="M22.1649 20.968C21.2947 20.4379 17.6457 19.8799 14.0809 20.1311C10.5161 20.3821 6.04517 22.3984 5.63203 22.809C5.13145 23.3067 5.70422 23.5732 6.73592 23.7908C8.32551 23.2329 11.6291 22.2049 14.6985 22.0837C17.5381 21.9715 20.0233 22.4102 21.3552 22.712C23.8702 21.9805 22.9066 21.4197 22.1649 20.968Z" fill="#D0D1CF"/>
<path d="M14.6985 22.0838C11.629 22.205 8.32542 23.2329 6.73584 23.7909C7.3235 23.9147 8.0593 24.0225 8.83204 24.1479C10.961 24.4936 15.2317 24.0364 19.7228 23.1068C20.3847 22.9699 20.9203 22.8384 21.3552 22.712C20.0232 22.4102 17.538 21.9716 14.6985 22.0838Z" fill="#ADA8A7"/>
<path d="M11.5669 28.2432C11.5669 28.2432 10.2755 29.5032 9.99369 30.5999C9.71192 31.6967 10.2755 33.3999 10.2755 33.3999C10.2755 33.3999 10.2519 29.8765 11.5669 28.2432Z" fill="#3B2320"/>
<path d="M5.19475 28.2367C5.19475 28.2367 4.60784 29.0301 4.65477 29.9869C4.7017 30.9434 5.47652 31.7601 5.47652 31.7601C5.47652 31.7601 4.88961 29.8934 5.19475 28.2367Z" fill="#3B2320"/>
<path d="M23.6562 27.3144C23.6562 27.3144 23.0691 28.1076 23.1162 29.0644C23.1631 30.0211 23.9378 30.8378 23.9378 30.8378C23.9378 30.8378 23.3509 28.9711 23.6562 27.3144Z" fill="#3B2320"/>
<path d="M12.5245 30.2189C12.5245 30.2189 11.9374 31.0121 11.9844 31.9689C12.0313 32.9256 12.8063 33.7421 12.8063 33.7421C12.8063 33.7421 12.2192 31.8756 12.5245 30.2189Z" fill="#3B2320"/>
<path d="M24.8296 25.2224C24.8296 25.2224 24.2277 26.4166 23.2659 26.907C22.3039 27.3974 21.7735 27.66 21.364 28.6433C21.364 28.6433 21.2498 27.3118 22.1884 26.8184C23.127 26.325 24.2601 26.1619 24.8296 25.2224Z" fill="#3B2320"/>
<path d="M15.8447 27.9203C15.8447 27.9203 17.136 29.1803 17.4177 30.277C17.6997 31.3736 17.136 33.077 17.136 33.077C17.136 33.077 17.1595 29.5536 15.8447 27.9203Z" fill="#3B2320"/>
<path d="M14.0845 28.2367C14.0845 28.2367 14.6714 29.0301 14.6245 29.9869C14.5776 30.9434 13.8027 31.7601 13.8027 31.7601C13.8027 31.7601 14.3896 29.8934 14.0845 28.2367Z" fill="#3B2320"/>
<path d="M5.99292 26.93C5.99292 26.93 6.43904 28.19 7.33146 28.7967C8.2235 29.4034 8.71655 29.73 8.99851 30.7568C8.99851 30.7568 9.28008 29.45 8.41141 28.8433C7.54274 28.2367 6.43904 27.9334 5.99292 26.93Z" fill="#3B2320"/>
<path d="M18.7913 27.9203C18.7913 27.9203 19.2374 29.1803 20.1294 29.787C21.0217 30.3937 21.5147 30.7203 21.7965 31.7469C21.7965 31.7469 22.0782 30.4403 21.2096 29.8336C20.3407 29.227 19.2374 28.9237 18.7913 27.9203Z" fill="#3B2320"/>
</svg>
