<svg width="174" height="181" viewBox="0 0 174 181" fill="none" xmlns="http://www.w3.org/2000/svg">
<path d="M20.054 88.213C22.4791 87.339 24.9496 86.8734 27.4687 86.4928C26.9792 87.5787 26.5556 88.6773 26.2304 89.7835C26.1036 90.2097 26.5566 90.7641 27.0226 90.5712C29.1001 89.7124 30.8488 87.4405 32.6646 86.1199C32.9468 85.9156 33.2354 85.7152 33.5202 85.5135C35.6366 85.1317 37.751 84.7397 39.8894 84.4733C39.9583 84.4657 40.0277 84.4619 40.0972 84.4542C36.3514 87.6371 32.5001 91.359 31.9802 96.2912C31.9247 96.8151 32.6825 97.0917 33.0181 96.7175C38.208 90.9277 44.0137 87.0231 51.0337 84.4061C52.3374 84.4885 53.6366 84.576 54.9289 84.6661C54.9443 88.005 56.0816 91.1079 58.1496 94.056C58.1786 94.0979 58.213 94.1232 58.246 94.1524C58.4883 94.4328 59.0811 94.4125 59.1662 93.971C59.6476 91.4567 60.5757 88.8625 61.5892 86.5144C61.7596 86.1199 61.9564 85.7533 62.1636 85.3955C63.8794 85.7355 65.5583 86.2188 67.2096 86.8759C70.0343 87.9999 71.9959 89.6807 74.375 91.3704C73.6481 92.6898 73.6442 94.3148 73.5577 96.0324C73.4709 97.7462 74.4994 101.662 76.1547 102.904C75.2347 103.958 75.6502 105.715 77.347 106.442C76.8066 107.353 77.2387 108.619 77.9305 109.091C77.38 109.819 77.4839 110.984 77.8555 111.626C77.0873 112.129 76.7181 113.003 77.0318 114.405C77.0398 114.441 77.0663 114.467 77.0828 114.499C76.1851 115.293 75.8754 116.485 76.6537 117.786C76.4714 117.996 76.3376 118.234 76.2951 118.502C76.1932 119.142 76.1122 119.446 76.4679 120.049C76.4983 120.102 76.6262 120.257 76.7626 120.413C76.1982 120.763 75.7891 121.283 75.6781 122.053C75.5872 122.681 76.1507 123.361 76.4549 123.72C75.6403 124.565 75.5603 126.034 76.6487 126.621C75.7006 127.407 75.2111 128.699 76.276 129.566C75.2986 130.601 74.9179 131.98 76.4869 132.806C75.7436 133.531 75.3914 134.461 76.2686 135.249C75.3581 135.971 75.1183 137.064 76.0617 138.528C75.3545 139.15 75.0597 140.029 75.6387 141.257C74.7091 142.114 74.2296 143.357 75.2321 144.429C74.5178 145.094 74.2796 145.968 75.1917 146.997C74.4544 147.735 74.1897 148.761 74.7246 150.014C74.245 150.659 74.0573 151.452 74.3815 152.354C73.5063 153.075 73.1392 154.115 74.0314 155.345C73.336 156.12 73.0239 157.181 73.3085 158.59C72.6592 159.411 72.3919 160.368 72.9838 161.29C72.2761 162.07 72.1397 163.096 72.2511 164.366C72.252 164.383 72.2596 164.393 72.2621 164.407C71.6946 165.151 71.5143 166.14 71.8854 167.426C71.767 167.516 71.6451 167.606 71.5458 167.704C70.5089 168.734 71.0463 169.216 71.1697 170.402L71.1862 170.385C71.1811 170.557 71.2821 170.696 71.4174 170.788C70.4474 171.703 70.9893 172.761 71.0862 173.846C71.0443 173.888 70.9929 173.921 70.9539 173.967C69.8784 175.215 70.2665 176.27 70.352 177.818C70.3645 178.037 70.4883 178.176 70.6412 178.238C70.407 178.646 70.2891 179.111 70.2995 179.632C70.1542 179.867 70.2112 180.243 70.5393 180.316C72.1967 180.682 72.785 180.656 74.4519 180.25C77.0208 179.624 79.5543 179.235 82.2006 179.085C84.6977 178.943 87.0524 178.769 89.5628 178.927C90.8654 179.009 92.7042 179.151 94.0622 178.67C94.6939 178.863 95.3346 178.946 95.9624 178.748C97.0851 178.394 97.1248 177.14 96.6389 176.307C97.9623 175.018 97.6235 173.266 96.4867 172.182C97.1913 171.828 97.7885 171.036 97.2335 170.214C97.0455 169.934 96.8089 169.707 96.5532 169.502C97.5122 168.103 96.8307 167.078 95.6913 166.351C96.4905 165.461 96.231 164.391 95.4931 163.545C95.5583 163.511 95.621 163.465 95.667 163.398C96.3985 162.326 96.0609 161.445 95.3231 160.758C95.3691 160.744 95.4139 160.733 95.4586 160.72C95.7259 160.647 95.8793 160.416 95.8959 160.152C95.942 159.4 95.7118 158.769 95.2885 158.244C96.4471 157.459 96.2348 156.347 95.4612 155.496C96.6325 154.783 95.9471 153.278 94.9267 152.249C95.2412 151.456 95.144 150.8 94.7566 150.257C96.5506 149.273 96.1376 147.716 94.9343 146.623C95.7387 145.845 95.3026 144.939 94.5251 144.212C94.5366 144.202 94.5494 144.2 94.5609 144.191C95.3998 143.44 95.1709 142.633 94.575 141.989C95.7808 141.165 96.2578 139.21 94.8218 138.255C94.7553 138.212 94.685 138.182 94.6172 138.141C94.9343 137.936 95.1811 137.629 95.2745 137.205C95.5187 136.083 95.2297 135.331 94.5264 134.653C95.9803 133.828 95.63 132.893 94.7374 132.218C95.0788 132.01 95.3295 131.675 95.4688 131.174C95.6517 130.511 95.3346 129.984 94.8781 129.576C95.3742 129.294 95.6069 128.764 95.7156 128.136C95.8256 127.498 95.41 126.969 94.8896 126.574C95.956 125.835 96.2668 124.461 95.1607 123.712C95.7259 123.359 96.2361 122.908 96.02 122.12C95.8422 121.477 95.5021 121.029 95.052 120.705C95.6606 119.933 95.4075 119.049 94.7937 118.298C95.2144 118.024 95.5302 117.601 95.6338 117.031C95.7936 116.148 95.5468 115.549 95.0238 115.052C96.323 114.457 96.0865 112.796 95.1223 111.854C95.9803 111.369 95.8448 110.034 95.0801 109.286C95.3422 109.006 95.5021 108.584 95.6069 108.103C95.7233 107.573 95.5379 107.121 95.2284 106.738C96.2233 106.32 97.0046 105.601 97.378 104.444C97.479 104.13 97.4611 103.854 97.3678 103.61C98.9188 102.475 99.4278 100.557 99.6106 98.6837C99.7065 97.7082 99.8932 96.172 99.6503 94.9199C99.7065 93.6221 99.5198 92.2762 99.1528 91.1688C98.8792 90.3353 98.5595 89.6947 98.1273 89.1974C99.36 89.4981 100.806 89.2938 101.974 89.0553C105.112 88.4122 108.172 86.7808 111.145 85.6226C117.387 83.192 123.973 81.3729 130.734 81.3818C137.756 81.3919 144.807 81.6038 151.637 83.3836C155.047 84.2728 158.799 85.7431 161.576 87.9669C163.571 89.5653 165.764 91.3222 168.187 92.2014C168.246 92.2217 168.301 92.228 168.355 92.2242C168.685 92.2534 169.049 92.0174 169.044 91.6356C169.043 91.5925 169.043 91.5493 169.042 91.5062C169.039 91.2931 168.943 91.1459 168.811 91.0508C165.908 85.3917 160.284 81.6038 154.656 78.9601C150.248 76.8898 145.252 75.4475 140.305 74.9261C143.695 73.9265 147.091 73.0981 150.741 72.8558C153.574 72.6655 156.472 72.72 159.313 72.7036C161.858 72.6883 164.374 73.4139 166.874 73.4786C167.364 73.4926 167.722 72.7924 167.3 72.4587C163.516 69.4548 158.372 68.2128 153.697 67.4352C150.412 66.8897 146.608 66.5434 143.021 66.8377C146.025 65.8838 149.214 65.4651 152.348 65.4651C156.384 65.4664 160.176 66.3519 163.908 67.8526C165.638 68.549 167.312 69.456 169.06 70.1005C170.319 70.5648 171.407 71.6976 172.701 71.9386C173.201 72.0325 173.768 71.5098 173.423 71.01C168.589 64.0126 160.828 60.5901 152.512 59.456C151.375 59.3012 150.239 59.2479 149.104 59.2606C151.673 58.0644 154.338 57.0508 156.993 56.1222C159.006 55.4181 161.047 54.9741 163.147 54.5961C164.897 54.2828 167.289 53.8438 169.31 54.0734C169.92 54.2206 170.535 54.3754 171.157 54.5416C171.762 54.7027 172.192 53.7829 171.594 53.5102C171.548 53.4899 171.503 53.476 171.457 53.4569C171.457 53.4569 171.457 53.4557 171.457 53.4544C171.448 53.4519 171.441 53.4493 171.43 53.4468C170.866 53.2095 170.301 53.0611 169.731 52.9825C168.535 52.6489 167.342 52.314 166.112 52.0615C164.222 51.6733 162.263 51.738 160.342 51.6353C159.05 51.5668 157.768 51.5769 156.495 51.6441C156.491 51.4589 156.422 51.2725 156.238 51.1355C152.083 48.0465 147.051 45.2062 141.749 44.9461C142.668 44.6747 143.599 44.4324 144.549 44.2421C148.989 43.3528 153.096 42.8391 157.618 42.8391C158.249 42.8391 158.432 42.0233 157.928 41.7011C158.354 41.9726 157.533 41.1379 157.577 41.3155C157.497 40.9857 157.247 40.8918 156.973 40.8703C156.955 40.8563 156.942 40.8385 156.921 40.8271C151.972 38.153 147.179 38.5348 141.711 39.2148C135.863 39.9404 130.338 42.2022 125.099 44.8041C120.662 47.0063 116.283 49.5891 112.326 52.6222C113.214 51.7 114.108 50.7917 114.992 49.9062C118.497 46.4037 122.49 43.6103 126.534 40.737C133.193 36.0053 140.469 31.696 148.267 29.1183C148.737 28.9622 148.943 28.2265 148.417 27.9804C145.402 26.571 141.69 26.694 138.453 27.0264C136.524 27.2256 134.681 27.7863 132.815 28.2772C131.335 28.6654 129.826 29.5445 128.354 29.9099C119.618 27.015 108.842 32.4292 102.697 39.7235C104.55 35.1858 107.399 30.879 110.068 26.9021C112.233 23.6723 115.347 20.6608 118.289 18.1325C121.103 15.7147 125.055 14.0845 127.484 11.3C127.846 10.8852 127.461 10.36 127.032 10.4197C126.951 10.3537 126.853 10.3017 126.72 10.2852C118.939 9.36295 110.696 13.2321 105.278 18.9127C105.515 18.2315 105.766 17.5642 105.943 16.9794C106.516 15.0677 107.402 13.2042 108.121 11.3419C108.985 9.10291 109.987 6.90956 111.025 4.74413C111.384 3.9906 111.53 3.47301 111.166 2.75754C111.026 2.48225 110.655 2.42012 110.399 2.5584C107.1 4.342 104.433 8.11467 102.466 11.196C101.09 13.35 99.9303 15.655 98.8907 17.9892C99.0979 17.3511 99.3268 16.7257 99.6324 16.0889C99.8139 15.7083 99.8395 15.7172 99.47 15.7578C100.031 15.6956 100.031 14.9561 99.47 14.8926C99.4265 14.8875 99.3843 14.8837 99.3395 14.8787C99.2245 14.866 99.0838 14.9472 99.0045 15.0461C98.9904 15.0474 98.979 15.0436 98.9649 15.0448C97.5135 15.2618 96.1645 15.7057 94.8896 16.2994C95.0827 15.4558 95.3422 14.6021 95.419 13.7737C95.575 12.0713 95.6747 10.322 95.9343 8.63225C96.3205 6.13191 96.832 2.90598 96.254 0.425934C96.1696 0.066925 95.7054 -0.115738 95.3947 0.0796204C92.1736 2.09537 89.4509 6.2258 88.2287 9.74225C87.2776 12.4773 86.6922 15.2656 86.2681 18.0843C85.0444 16.1219 84.3845 13.4617 83.4549 11.4954C82.6293 9.74606 81.6823 8.05125 80.9633 6.25371C80.6203 5.39362 80.4594 4.60585 79.7796 3.94746C79.4175 3.5948 78.885 3.87262 78.845 4.33185C78.398 9.48474 78.7561 14.6757 79.33 19.8108C79.6312 22.4964 80.1148 25.2048 80.6756 27.8484C80.9953 29.3504 81.2301 31.512 82.0723 32.9214C81.7945 33.7105 81.5484 34.4881 81.3236 35.2543C81.0623 34.6289 80.836 33.9616 80.6712 33.5202C80.0648 31.9078 79.0423 30.3234 78.2392 28.7986C76.346 25.2009 74.2046 21.8393 71.7056 18.6247C69.3384 15.5789 66.6256 12.8743 64.0797 9.99088C63.1352 8.92021 62.0028 8.07791 60.8459 7.25081C59.8908 6.56705 58.4483 5.07648 57.2675 4.85701C56.2165 4.66165 55.0861 5.24013 55.769 6.45923C57.6321 9.77905 58.8704 13.43 60.5267 16.8602C63.9719 23.9895 67.1552 31.3243 70.8155 38.3483C68.7855 37.5035 66.6906 37.0645 64.805 37.2028C64.4939 37.2256 64.1996 37.2738 63.908 37.3271C63.9484 37.1838 63.9239 37.0189 63.7965 36.854C59.1251 30.775 51.0267 27.4945 43.6181 26.6369C39.3248 26.1397 34.8618 26.7752 30.7804 28.1364C29.4217 28.5893 28.0332 29.2451 26.9002 30.1192C25.8942 30.8955 24.2769 31.8165 23.6655 32.9671C23.4057 33.4542 23.8333 34.1393 24.4222 33.9452C29.0891 32.4064 33.5406 31.5945 38.4038 32.7933C40.9977 33.4326 43.4178 33.9972 45.7915 35.286C47.691 36.3174 49.4723 37.6303 51.1491 39.0131C49.2145 38.7657 47.3289 38.2164 45.3644 38.035C41.8403 37.7128 38.0342 38.7099 34.6495 39.5116C31.131 40.3425 27.4587 41.6517 24.3398 43.4886C23.581 43.9351 21.2893 45.1834 22.8978 46.0967C23.4851 46.4316 24.3972 46.1272 25.0266 46.051C27.092 45.7999 29.0627 45.0058 31.16 44.7584C35.6595 44.2256 40.2165 44.9093 44.6166 45.7288C48.7585 46.4988 52.1366 48.3268 55.8449 50.1815C57.5623 51.0416 59.3845 52.0856 60.9234 53.2857C60.0283 53.0383 59.1301 52.796 58.2231 52.5588C52.1476 50.9693 46.14 49.8719 39.8894 49.2554C34.2754 48.7011 28.7584 49.0576 23.2029 49.91C20.4043 50.3388 17.8078 51.2306 15.2339 52.3774C14.9047 52.5233 14.3728 52.7136 13.8008 52.9508C10.8787 53.4417 8.28783 53.9922 5.56401 55.6553C4.06944 56.5674 -0.00995581 58.738 1.82574e-05 60.8527C0.0030872 61.2916 0.409081 61.5516 0.817762 61.4704C2.4796 61.1406 4.13989 60.5101 5.77283 60.0471C8.2134 59.357 10.6509 59.2441 13.1625 59.1008C18.1244 58.8204 23.1255 59.1515 28.0641 59.6412C32.9293 60.1245 37.6456 61.5174 42.3169 62.8836C44.713 63.5839 46.9963 64.5518 49.2241 65.6694C49.5976 65.8559 49.9533 66.0664 50.3035 66.2833C48.8449 66.1463 47.3859 66.0258 45.9158 65.9129C40.2515 65.4829 34.697 65.4245 29.1025 66.4863C21.1454 67.9972 10.3003 70.9187 6.08394 78.6366C5.98011 78.8295 5.95262 79.0946 6.08394 79.2836C6.14494 79.3698 6.20337 79.4561 6.26335 79.5424C6.43508 79.791 6.69389 79.9052 6.99414 79.838C8.11098 79.5855 9.06504 78.8003 10.0225 78.2116C11.6225 77.2285 13.603 76.6361 15.3657 75.9765C19.142 74.562 23.2959 73.8922 27.2513 73.1628C30.8888 72.493 34.7549 72.2393 38.4553 72.3217C38.8394 72.3306 39.2215 72.3483 39.6031 72.3686C37.757 73.5991 35.9772 75.0606 34.3398 76.7021C34.2384 76.6691 34.126 76.6589 33.9932 76.7059C33.183 76.9926 31.9817 76.9482 31.1205 77.1372C29.633 77.4632 28.171 78.2345 26.7764 78.837C23.627 80.1969 20.6485 82.0123 17.8838 84.0242C13.2214 87.4176 8.35125 91.1891 5.08551 95.9918C4.73437 96.5094 5.4052 97.0701 5.90262 96.8024C6.60797 96.4231 7.0935 95.9183 7.58645 95.2865C8.56301 94.0357 10.0485 93.0957 11.3628 92.2318C14.0321 90.4774 17.0595 89.2913 20.054 88.213Z" fill="#A25B1D"/>
<path d="M173.423 71.0101C168.589 64.0127 160.828 60.5902 152.512 59.4561C151.375 59.3013 150.239 59.248 149.104 59.2607C151.673 58.0644 154.338 57.0509 156.993 56.1223C159.006 55.4182 161.047 54.9742 163.147 54.5962C164.897 54.2829 167.289 53.8439 169.31 54.0735C169.92 54.2207 170.535 54.3755 171.157 54.5417C171.762 54.7028 172.192 53.783 171.594 53.5103C171.548 53.49 171.503 53.4761 171.457 53.457C171.457 53.457 171.457 53.4558 171.457 53.4545C171.448 53.452 171.441 53.4494 171.43 53.4469C170.866 53.2096 170.301 53.0612 169.731 52.9826C168.535 52.649 167.342 52.314 166.112 52.0616C164.222 51.6734 162.263 51.7381 160.342 51.6354C159.05 51.5669 157.768 51.577 156.495 51.6442C156.491 51.459 156.422 51.2726 156.238 51.1355C152.083 48.0466 147.051 45.2063 141.749 44.9462C142.668 44.6748 143.599 44.4325 144.549 44.2422C148.989 43.3529 153.096 42.8392 157.618 42.8392C158.249 42.8392 158.432 42.0234 157.928 41.7012C158.354 41.9727 157.533 41.138 157.577 41.3156C157.497 40.9858 157.247 40.8919 156.973 40.8703C156.955 40.8564 156.942 40.8386 156.921 40.8272C151.972 38.1531 147.179 38.5349 141.711 39.2149C135.863 39.9405 130.338 42.2023 125.099 44.8042C120.662 47.0064 116.283 49.5892 112.326 52.6223C113.214 51.7001 114.108 50.7918 114.992 49.9063C118.497 46.4038 122.49 43.6104 126.534 40.7371C133.193 36.0054 140.469 31.6961 148.267 29.1184C148.737 28.9623 148.943 28.2266 148.417 27.9805C145.402 26.5711 141.69 26.6941 138.453 27.0265C136.524 27.2257 134.681 27.7864 132.815 28.2773C131.335 28.6655 129.826 29.5446 128.354 29.91C119.618 27.0151 108.842 32.4293 102.697 39.7236C104.55 35.1859 107.399 30.8791 110.068 26.9022C112.233 23.6724 115.347 20.6609 118.289 18.1326C121.103 15.7148 125.055 14.0846 127.484 11.3001C127.846 10.8853 127.461 10.3601 127.032 10.4198C126.951 10.3538 126.853 10.3018 126.72 10.2853C118.939 9.36304 110.696 13.2322 105.278 18.9128C105.515 18.2316 105.766 17.5643 105.943 16.9795C106.516 15.0678 107.402 13.2043 108.121 11.342C108.985 9.103 109.987 6.90965 111.025 4.74422C111.384 3.99069 111.53 3.4731 111.166 2.75763C111.026 2.48235 110.655 2.42021 110.399 2.55849C107.1 4.34209 104.433 8.11477 102.466 11.1961C101.09 13.3501 99.9303 15.6551 98.8907 17.9893C99.0979 17.3512 99.3268 16.7258 99.6324 16.089C99.8139 15.7084 99.8395 15.7173 99.47 15.7579C100.031 15.6957 100.031 14.9561 99.47 14.8927C99.4265 14.8876 99.3843 14.8838 99.3395 14.8788C99.2245 14.8661 99.0838 14.9473 99.0045 15.0462C98.9904 15.0475 98.979 15.0437 98.9649 15.0449C97.5135 15.2619 96.1645 15.7058 94.8896 16.2995C95.0827 15.4559 95.3422 14.6022 95.419 13.7738C95.575 12.0714 95.6747 10.3221 95.9343 8.63235C96.3205 6.13201 96.832 2.90607 96.254 0.426025C96.1696 0.0670242 95.7054 -0.115646 95.3947 0.0797119C92.1736 2.09546 89.4509 6.22588 88.2287 9.74234C87.2776 12.4774 86.6922 15.2657 86.2681 18.0844C85.0444 16.1219 84.3845 13.4618 83.4549 11.4955C82.6293 9.74615 81.6823 8.05135 80.9633 6.25379C80.6203 5.39371 80.4594 4.60594 79.7796 3.94756C79.4175 3.59489 78.885 3.87272 78.845 4.33193C78.398 9.48484 78.7561 14.6758 79.33 19.8109C79.6312 22.4965 80.1148 25.2048 80.6756 27.8485C80.9953 29.3505 81.2301 31.5121 82.0723 32.9215C81.7945 33.7106 81.5484 34.4882 81.3236 35.2544C81.0623 34.629 80.836 33.9617 80.6712 33.5203C80.0648 31.9079 79.0423 30.3235 78.2392 28.7987C76.346 25.201 74.2046 21.8394 71.7056 18.6248C69.3384 15.579 66.6256 12.8744 64.0797 9.99097C63.1352 8.92031 62.0028 8.078 60.8459 7.2509C59.8908 6.56715 58.4483 5.07657 57.2675 4.85711C56.2165 4.66175 55.0861 5.24023 55.769 6.45932C57.6321 9.77914 58.8704 13.4301 60.5267 16.8603C63.9719 23.9896 67.1552 31.3244 70.8155 38.3484C68.7855 37.5036 66.6906 37.0646 64.805 37.2029C64.4939 37.2257 64.1996 37.2739 63.908 37.3272C63.9484 37.1839 63.9239 37.019 63.7965 36.8541C59.1251 30.7751 51.0267 27.4946 43.6181 26.6371C39.3248 26.1398 34.8618 26.7753 30.7804 28.1365C29.4217 28.5894 28.0332 29.2452 26.9002 30.1193C25.8942 30.8956 24.2769 31.8166 23.6655 32.9672C23.4057 33.4543 23.8333 34.1393 24.4222 33.9453C29.0891 32.4065 33.5406 31.5946 38.4038 32.7934C40.9977 33.4327 43.4178 33.9973 45.7915 35.2861C47.691 36.3175 49.4723 37.6304 51.1491 39.0132C49.2145 38.7658 47.3289 38.2165 45.3644 38.0351C41.8403 37.7129 38.0342 38.71 34.6495 39.5117C31.131 40.3426 27.4587 41.6518 24.3398 43.4887C23.581 43.9352 21.2893 45.1835 22.8978 46.0968C23.4851 46.4317 24.3972 46.1273 25.0266 46.0511C27.092 45.8 29.0627 45.0059 31.16 44.7585C35.6595 44.2257 40.2165 44.9094 44.6166 45.7289C48.7585 46.4989 52.1366 48.327 55.8449 50.1816C57.5623 51.0417 59.3845 52.0857 60.9234 53.2858C60.0283 53.0384 59.1301 52.7961 58.2231 52.5589C52.1476 50.9694 46.14 49.8721 39.8894 49.2555C34.2754 48.7012 28.7584 49.0577 23.2029 49.9101C20.4043 50.3389 17.8078 51.2307 15.2339 52.3775C14.9047 52.5234 14.3728 52.7136 13.8008 52.9509C10.8787 53.4418 8.28783 53.9923 5.56401 55.6554C4.06944 56.5675 -0.00995581 58.7381 1.82574e-05 60.8528C0.0030872 61.2917 0.409081 61.5517 0.817762 61.4705C2.4796 61.1407 4.13989 60.5102 5.77283 60.0472C8.2134 59.3571 10.6509 59.2442 13.1625 59.1009C18.1244 58.8205 23.1255 59.1516 28.0641 59.6413C32.9293 60.1246 37.6456 61.5175 42.3169 62.8837C44.713 63.584 46.9963 64.5519 49.2241 65.6695C49.5976 65.856 49.9533 66.0665 50.3035 66.2834C48.8449 66.1464 47.3859 66.0259 45.9158 65.913C40.2515 65.483 34.697 65.4246 29.1025 66.4864C21.1454 67.9973 10.3003 70.9188 6.08394 78.6367C5.98011 78.8295 5.95262 79.0947 6.08394 79.2837C6.14494 79.3699 6.20337 79.4562 6.26335 79.5425C6.43508 79.7911 6.69389 79.9053 6.99414 79.838C8.11098 79.5856 9.06504 78.8004 10.0225 78.2117C11.6225 77.2286 13.603 76.6362 15.3657 75.9766C19.142 74.5621 23.2959 73.8923 27.2513 73.1629C30.8888 72.4931 34.7549 72.2394 38.4553 72.3218C38.8394 72.3307 39.2215 72.3484 39.6031 72.3687C37.757 73.5992 35.9772 75.0606 34.3398 76.7022C34.2384 76.6692 34.126 76.659 33.9932 76.706C33.183 76.9927 31.9817 76.9483 31.1205 77.1373C29.633 77.4633 28.171 78.2346 26.7764 78.8371C23.627 80.197 20.6485 82.0124 17.8838 84.0243C13.2214 87.4177 8.35125 91.1892 5.08551 95.9919C4.73437 96.5095 5.4052 97.0702 5.90262 96.8025C6.60797 96.4232 7.0935 95.9184 7.58645 95.2866C8.56301 94.0358 10.0485 93.0958 11.3628 92.2319C14.0321 90.4775 17.0595 89.2914 20.054 88.2131C22.4791 87.3391 24.9496 86.8735 27.4687 86.4929C26.9792 87.5788 26.5556 88.6774 26.2304 89.7836C26.1036 90.2098 26.5566 90.7642 27.0226 90.5713C29.1001 89.7125 30.8488 87.4405 32.6646 86.12C32.9468 85.9157 33.2354 85.7153 33.5202 85.5136C35.6366 85.1318 37.751 84.7398 39.8894 84.4734C39.9583 84.4658 40.0277 84.4619 40.0972 84.4543C36.3514 87.6372 32.5001 91.3591 31.9802 96.2913C31.9247 96.8152 32.6825 97.0918 33.0181 96.7176C38.208 90.9278 44.0137 87.0232 51.0337 84.4061C52.3374 84.4886 53.6366 84.5761 54.9289 84.6662C54.9443 88.0051 56.0816 91.108 58.1496 94.0561C58.1786 94.098 58.213 94.1233 58.246 94.1525C58.4883 94.4329 59.0811 94.4126 59.1662 93.9711C59.6476 91.4568 60.5757 88.8626 61.5892 86.5145C61.7596 86.12 61.9564 85.7534 62.1636 85.3956C63.8794 85.7356 65.5583 86.2189 67.2096 86.876C69.7496 87.8871 71.5948 89.3484 73.6687 90.8606C74.0943 90.905 74.5183 90.9507 74.9439 90.9938C75.1442 90.9075 75.4184 90.8822 75.5758 91.075C75.823 91.3782 76.869 92.8078 76.9749 92.7457C77.1717 92.6328 77.379 92.5719 77.6017 92.6049C78.3351 92.7152 78.8311 93.3673 79.2042 93.9584C79.875 95.0228 80.3396 96.2012 81.0034 97.2655C82.2531 99.2724 84.5104 100.642 86.7492 101.396C86.7477 101.376 86.7492 101.354 86.7477 101.334C86.5079 101.165 86.3871 100.824 86.6588 100.56C86.7087 100.511 86.7597 100.461 86.8106 100.413C86.835 100.389 86.8645 100.385 86.8915 100.367C86.883 100.308 86.8706 100.247 86.8601 100.187C86.7456 100.134 86.6507 100.028 86.6112 99.856C85.982 97.1171 84.8915 93.4256 86.2571 90.7337C87.3925 88.4985 89.1312 88.4389 91.2912 88.6837C91.3616 88.6381 91.4434 88.6026 91.547 88.5962C92.3257 88.5467 93.1019 88.5873 93.8755 88.6228C93.9229 88.5899 93.9535 88.5442 94.0162 88.529C94.7617 88.3336 95.5046 88.3425 96.2335 88.4694C96.3448 88.3425 96.5148 88.2778 96.7258 88.3564C96.7706 88.3729 96.8089 88.392 96.8511 88.4085V88.4072C96.8524 88.4085 96.8537 88.4085 96.855 88.4097C97.4803 88.647 98.0621 88.9298 98.6337 89.2711C99.7449 89.4233 100.961 89.2622 101.974 89.0554C105.112 88.4123 108.172 86.7809 111.145 85.6227C117.387 83.1921 123.973 81.373 130.734 81.3819C137.756 81.392 144.807 81.6039 151.637 83.3837C155.047 84.2729 158.799 85.7432 161.576 87.967C163.571 89.5654 165.764 91.3223 168.187 92.2015C168.246 92.2218 168.301 92.2281 168.355 92.2243C168.685 92.2535 169.049 92.0175 169.044 91.6357C169.043 91.5926 169.043 91.5494 169.042 91.5063C169.039 91.2932 168.943 91.146 168.811 91.0509C165.908 85.3918 160.284 81.6039 154.656 78.9602C150.248 76.8899 145.252 75.4476 140.305 74.9262C143.695 73.9266 147.091 73.0982 150.741 72.8559C153.574 72.6656 156.472 72.7201 159.313 72.7037C161.858 72.6884 164.374 73.414 166.874 73.4787C167.364 73.4927 167.722 72.7925 167.3 72.4588C163.516 69.4549 158.372 68.2129 153.697 67.4353C150.412 66.8898 146.608 66.5435 143.021 66.8378C146.025 65.8839 149.214 65.4652 152.348 65.4652C156.384 65.4665 160.176 66.352 163.908 67.8527C165.638 68.5491 167.312 69.4561 169.06 70.1006C170.319 70.5649 171.407 71.6977 172.701 71.9387C173.201 72.0326 173.768 71.5099 173.423 71.0101Z" fill="#5D892D"/>
<path d="M89.8374 88.2183C89.3304 85.9539 86.5651 83.8582 84.5272 83.04C82.5091 82.2306 79.2504 83.9457 78.5541 85.8384C78.4962 85.997 78.5581 86.1467 78.669 86.2533C78.6296 86.318 78.5871 86.3852 78.5506 86.4461C77.3153 88.4504 77.8522 90.0628 78.3548 92.2054C79.1236 95.4846 82.7179 99.7026 85.7908 101.117C86.1356 101.276 86.6216 101.094 86.6005 100.657C86.4872 98.4137 85.6545 96.1493 85.5091 93.8621C85.4077 92.284 86.1385 88.354 88.4852 88.8208C88.8603 88.8944 89.0992 88.9946 89.4658 88.8665C89.7494 88.7675 89.9039 88.5138 89.8374 88.2183Z" fill="#7FB029"/>
<path d="M111.885 64.8093C109.638 61.9918 104.282 63.2654 101.68 64.6697C101.236 64.9082 101.545 65.6757 102.027 65.4892C102.11 65.4575 102.194 65.4271 102.275 65.3953C108 67.0064 110.204 72.1403 113.501 76.4953C113.743 76.8137 114.299 76.8327 114.413 76.3773C115.393 72.4524 114.404 67.968 111.885 64.8093Z" fill="#7FB029"/>
<path d="M100.454 46.5446C98.2523 45.3966 92.2141 47.4592 91.5517 50.1879C91.4047 50.2399 91.2627 50.3059 91.1183 50.3642C91.0556 50.5913 91.0121 50.8222 90.9456 51.0467C90.9149 51.152 90.8587 51.2243 90.7935 51.2814C90.9188 51.3524 91.0735 51.3803 91.2385 51.3106C95.8368 49.3532 102.028 53.4747 104.531 57.1815C104.76 57.5189 105.404 57.5367 105.49 57.0584C106.318 52.38 104.689 48.7544 100.454 46.5446Z" fill="#7FB029"/>
<path d="M94.4077 64.0468C91.5497 61.6353 86.3716 60.2665 83.6384 63.5762C83.4696 63.7804 83.524 64.09 83.7483 64.1991C83.8013 64.2409 83.8687 64.2599 83.9462 64.2485L84.0125 64.2473C84.0531 64.246 84.0754 64.2219 84.1089 64.213C85.9332 63.6764 88.8168 66.0156 89.9271 67.1421C91.239 68.4741 91.5638 70.7068 91.6878 72.5183C91.6648 72.5716 91.6379 72.6249 91.6136 72.6769C91.427 73.0904 91.8221 73.5839 92.2709 73.3276C93.5343 72.6046 94.5931 70.6396 95.1097 69.0272C95.3079 68.7786 95.4959 68.5122 95.6429 68.1836C96.3948 66.5167 95.6698 65.1112 94.4077 64.0468Z" fill="#7FB029"/>
<path d="M72.7631 40.2805C70.1166 38.37 65.3654 36.9974 62.2015 38.5108C59.0042 40.042 57.7365 43.4506 59.2993 46.6411C59.3419 46.7261 59.4078 46.7768 59.4817 46.7971C59.9562 48.804 60.9763 50.7004 62.4487 52.1441C62.7 52.3889 63.244 52.2303 63.2015 51.8333C62.9073 49.1236 65.2884 45.1175 67.2326 43.4418C68.5197 42.3318 70.0382 41.3892 71.802 41.341C72.3104 41.3271 72.4917 41.2357 72.8489 40.9439C73.0797 40.7562 72.9638 40.4264 72.7631 40.2805Z" fill="#7FB029"/>
<path d="M77.5313 62.1707C74.5922 60.8844 71.3879 61.0188 68.2601 61.3677C65.5758 61.6658 63.9499 62.3825 62.3095 64.5454C58.4333 69.6577 63.4028 75.7722 65.9283 80.2921C65.9817 80.3885 66.0713 80.4316 66.1646 80.4405C66.2385 80.8452 66.9499 80.8033 67.0102 80.3149C67.4103 77.0738 67.8299 73.7476 69.1531 70.7309C69.805 69.2455 70.6087 67.8437 71.6026 66.5599C73.2511 64.4313 74.9229 63.6409 77.4224 62.9952C77.7745 62.9039 77.9029 62.3343 77.5313 62.1707Z" fill="#7FB029"/>
<path d="M135.818 75.2916C134.667 71.2309 131.445 67.8033 127.198 67.0168C124.932 66.5981 123.077 66.4687 120.783 66.7402C118.87 66.9673 116.697 68.2117 115.013 69.115C114.87 69.1911 114.825 69.323 114.817 69.4549C114.817 69.4702 114.812 69.4803 114.815 69.4955C114.815 69.5044 114.816 69.5133 114.816 69.5209C114.82 69.5577 114.816 69.5907 114.829 69.6262C114.9 70.2833 115.028 70.9696 115.783 71.1764C115.999 71.2347 116.258 71.0673 116.435 70.9912C117.671 70.4698 118.903 70.0448 120.184 69.6439C123.433 68.6291 126.223 68.8892 129.226 70.4876C131.59 71.746 133.141 73.9393 135.042 75.7394C135.374 76.054 135.947 75.7445 135.818 75.2916Z" fill="#7FB029"/>
<path d="M148.245 61.9956C146.362 59.6602 144.777 57.2271 141.965 55.8963C139.391 54.6773 135.964 54.0481 133.134 53.9352C127.564 53.7093 120.825 55.9598 116.458 59.3329C116.115 59.598 116.57 60.1816 116.922 59.9291C116.985 59.8847 117.056 59.8454 117.12 59.801C117.22 59.8758 117.35 59.9126 117.508 59.8733C119.895 59.2809 122.12 58.2901 124.605 58.0529C127.183 57.8043 129.845 57.8182 132.424 58.0719C134.905 58.318 137.306 59.2796 139.614 60.1891C142.209 61.2129 145.046 61.6201 147.586 62.8405C148.161 63.1157 148.628 62.4713 148.245 61.9956Z" fill="#7FB029"/>
<path d="M64.9472 79.5208C63.61 77.4327 62.7455 75.1163 61.6151 72.9331C61.6051 72.6617 61.3033 72.3953 61.0226 72.5221C60.9113 72.5361 60.8033 72.5716 60.7215 72.6515C60.5402 72.8278 60.3903 72.9991 60.2534 73.1729C60.1071 73.1361 59.9417 73.1627 59.7914 73.301C57.3018 75.5654 56.2699 79.7161 55.9961 82.9053C55.7274 86.0488 56.0586 90.6143 58.0291 93.2403C58.3153 93.6208 58.9961 93.5333 58.9877 92.9827C58.9672 91.5645 59.245 89.8748 59.7559 88.1863C59.9333 88.2117 60.1115 88.1495 60.1949 87.9542C61.3878 85.1659 63.1056 82.4106 64.9472 80.0003C65.0456 79.8734 65.0307 79.6489 64.9472 79.5208Z" fill="#7FB029"/>
<path d="M80.9055 77.0193C80.3822 76.4738 79.8466 76.0362 79.3026 75.6898C78.8161 75.1976 78.3341 74.6978 77.7587 74.3413C76.4595 73.5371 75.2102 72.7671 73.8287 72.1061C72.2002 71.326 70.5454 71.3463 69.1198 72.299C68.9274 72.2165 68.6937 72.2685 68.6333 72.5387C68.6208 72.592 68.6158 72.6465 68.6043 72.7011C68.5529 72.7442 68.4989 72.7785 68.4484 72.8267C68.2002 73.0588 68.2652 73.3595 68.453 73.5434C68.1992 75.1126 68.1109 76.6983 67.7891 78.2447C67.6843 78.7496 68.2247 79.0109 68.6074 78.7166C70.2268 77.4671 71.7057 76.3951 73.7032 75.6974C75.2408 75.1608 77.1058 75.6365 78.6083 76.4954C79.2212 77.0066 79.7977 77.4607 80.3217 77.769C80.7997 78.0519 81.2792 77.4087 80.9055 77.0193Z" fill="#7FB029"/>
<path d="M95.5619 1.40535C95.5159 1.08567 95.1092 1.00449 94.865 1.125C91.5582 2.76398 89.5625 6.798 88.3233 10.0836C86.8323 14.0402 85.9446 19.4012 86.3153 23.694C86.2378 23.8208 86.1589 23.949 86.084 24.0733C85.8138 24.5249 86.5041 24.9156 86.7878 24.4818C88.1131 22.4609 89.602 20.8841 91.3114 19.2198C92.3983 18.1631 94.1809 17.7406 94.3599 16.0484C94.8752 11.1898 96.2703 6.32737 95.5619 1.40535Z" fill="#7FB029"/>
<path d="M51.9496 66.9101C47.2003 66.7262 42.5106 66.3557 37.7518 66.3811C33.2432 66.4065 29.0858 67.1004 24.7122 68.067C21.2777 68.8269 17.926 70.1792 14.7192 71.6051C12.2261 72.7138 7.78112 75.157 7.25658 78.1623C7.20211 78.4743 7.44839 78.7889 7.79109 78.6925C9.4909 78.2143 11.0508 77.0193 12.7286 76.3977C14.6887 75.6721 16.6693 75.0061 18.6747 74.4175C20.7162 73.8187 22.7831 73.4394 24.8946 73.1705C26.6248 72.9497 28.6204 72.6136 30.3252 72.2673C32.3866 71.8486 34.2937 72.0465 36.394 71.9171C37.7098 71.8372 39.7402 72.4563 40.9361 72.129C41.3811 72.0085 41.8872 71.5949 42.2158 71.3793C43.428 70.5801 44.9086 70.0904 46.2627 69.5982C48.1119 68.9259 50.1135 68.6277 51.9087 67.864C52.0625 67.7981 52.132 67.6877 52.1484 67.5698C52.4032 67.3947 52.3408 66.9253 51.9496 66.9101Z" fill="#7FB029"/>
<path d="M70.6156 60.3503C69.6671 59.0475 68.4966 56.8275 67.2074 55.9205C66.5576 55.4638 65.7864 55.4625 65.0286 55.2189C63.8123 54.8295 62.6181 54.3538 61.4083 53.9415C56.0036 52.0995 49.9821 51.0428 44.3062 50.538C41.5999 50.2969 39.0521 49.7794 36.3178 49.8123C33.5645 49.8441 30.8641 49.8111 28.1253 50.1016C25.8961 50.3375 23.8827 50.538 21.6893 51.1481C19.0304 51.8864 16.6078 53.2616 13.967 53.991C13.8007 54.0367 13.7347 54.1978 13.7542 54.3424C13.6982 54.35 13.6448 54.3639 13.5894 54.3703C13.1183 54.4286 13.1034 55.1631 13.5894 55.1162C14.6923 55.101 15.7048 54.827 16.7816 54.5986C18.6798 54.1952 20.5425 54.4997 22.4515 54.3487C25.038 54.1432 27.7058 53.972 30.2988 54.0836C36.7418 54.3589 43.041 55.4765 49.3917 56.4824C51.1384 57.2118 52.9092 57.6774 54.7069 58.1924C55.522 58.5692 56.3448 58.9384 57.204 59.2415C59.2494 59.9621 61.1534 61.2725 63.2989 61.6721C63.4972 61.8409 63.693 62.0121 63.8827 62.1986C64.0101 62.3229 64.1969 62.3724 64.3698 62.3254C65.0291 62.1453 65.6535 61.8916 66.3278 61.6734C66.7824 61.5871 67.2344 61.492 67.6696 61.3334C67.8043 61.2852 67.8908 61.2053 67.9532 61.1152C68.7154 61.0252 69.4478 61.015 70.0146 61.1254C70.4238 61.204 70.9143 60.7613 70.6156 60.3503Z" fill="#7FB029"/>
<path d="M80.969 35.8671C79.0495 32.2479 77.1613 28.5982 74.8736 25.1896C73.8002 23.5899 72.8855 21.8926 71.7832 20.3056C70.2647 18.1199 68.453 16.1739 66.9675 13.9641C65.5165 11.8075 63.7696 9.98333 61.7616 8.338C60.5364 7.33203 58.9575 5.99372 57.4181 5.56621C57.0933 5.47614 56.7622 5.72984 56.7622 6.06221V6.1269C56.7622 6.33495 56.87 6.4707 57.0125 6.54808C57.1687 7.55532 57.8266 8.645 58.1848 9.52158C58.9146 11.3039 59.7617 13.0177 60.5934 14.7531C61.0214 15.9304 61.6523 17.1368 62.2233 18.2239C62.451 18.7174 62.6793 19.2109 62.907 19.7043C62.9285 19.7614 62.951 19.816 62.973 19.8718C63.6857 21.7493 64.5069 23.5215 65.4476 25.2708C66.1308 26.8362 66.8191 28.3965 67.5534 29.9353C68.2881 31.474 68.8682 33.0966 69.5959 34.6442C69.9934 35.4903 70.4131 36.32 70.8576 37.1433C71.0499 37.4997 71.4 38.9611 71.8216 39.3785C74.0225 41.5617 78.4361 43.7652 79.2948 46.9949C79.434 47.5201 80.3312 47.4275 80.2707 46.8643C80.017 44.5035 80.3396 41.7837 80.6663 39.4115C80.7992 38.4436 81.453 36.7804 80.969 35.8671Z" fill="#7FB029"/>
<path d="M126.334 10.7774C116.564 9.27413 108.692 15.91 102.982 22.8921C100.023 26.5101 98.2587 30.6849 96.8381 35.0627C96.1182 37.2751 95.0619 39.1272 94.7307 41.4867C94.5287 42.9354 94.6297 44.9347 94.9085 46.3821C94.9353 46.5191 95.0325 46.5952 95.1489 46.6282C95.2486 46.7297 95.397 46.7906 95.599 46.7487C96.7025 46.5254 98.5183 46.8223 99.4224 46.2959C100.407 45.725 101.14 43.4251 101.56 42.4331C102.289 40.7142 102.613 38.7682 103.329 36.9859C104.319 34.521 105.624 32.1488 107.228 30.0253C110.618 25.5409 113.798 21.3483 118.335 17.9498C120.052 16.6647 121.712 15.3099 123.391 13.9767C124.329 13.2308 125.983 12.4861 126.631 11.5004C126.794 11.2543 126.646 10.8243 126.334 10.7774Z" fill="#7FB029"/>
<path d="M155.74 51.1658C154.382 49.6194 151.712 48.6718 149.934 47.6379C147.436 46.1867 144.251 45.6019 141.436 45.168C140.462 45.0184 139.48 45.0273 138.503 45.1541C136.815 46.1867 134.988 46.8197 133.136 47.5415C131.652 48.1187 130.254 48.8672 128.858 49.622C128.42 49.9404 127.996 50.2601 127.59 50.5772C127.563 50.5988 127.548 50.6241 127.53 50.6495C127.422 50.6825 127.31 50.7117 127.203 50.7446C126.688 50.9045 126.9 51.6796 127.425 51.5489C131.212 50.6026 134.885 49.6042 138.838 49.5522C141.177 49.5205 143.42 50.1167 145.702 50.4973C147.527 50.8005 150.39 51.0681 151.832 52.3748C152.006 52.5321 152.205 52.5371 152.412 52.4483C153.401 52.0284 154.321 52.0627 155.367 52.0602C155.851 52.0589 156.036 51.5007 155.74 51.1658Z" fill="#7FB029"/>
<path d="M167.57 90.1439C165.992 87.6397 163.948 85.388 161.515 83.6716C158.95 81.8614 155.854 80.0613 152.987 78.7877C149.903 77.4164 146.73 76.5106 143.394 75.9347C141.446 75.5985 138.365 74.9617 136.408 75.407C136.261 75.4412 136.099 75.5858 136.075 75.7381C136.043 75.9499 136.043 76.1021 136.075 76.314C136.393 78.4477 135.617 77.736 134.488 77.3885C133.107 76.9635 131.69 75.8674 130.191 75.8636C126.406 75.8548 123.283 76.0996 119.732 77.5432C115.716 79.1759 111.634 80.4431 107.787 82.4906C104.316 84.3389 100.855 86.3344 97.232 87.8681C96.631 88.123 97.1143 88.9654 97.7051 88.7802C97.7588 88.8055 97.8189 88.8208 97.8905 88.8246C103.798 89.0745 109.09 85.6658 114.479 83.815C120.385 81.7878 126.141 81.1713 132.35 80.7907C135.081 80.6246 137.886 80.8263 140.608 81.0445C143.815 81.3007 147.12 81.392 150.256 82.1164C153.334 82.8281 156.195 83.9723 159.017 85.3627C161.618 86.6426 164.811 88.6292 166.782 90.7464C167.169 91.1612 167.87 90.6221 167.57 90.1439Z" fill="#7FB029"/>
<path d="M99.0121 93.4699C98.8126 93.2555 98.5095 93.4851 98.5568 93.7338C98.7371 94.6814 98.6425 95.8041 98.6156 96.7656C98.5875 97.8224 98.443 98.8512 98.2423 99.8889C97.9776 101.258 97.2397 102.109 96.406 103.166C96.0953 103.556 96.4789 104.17 96.9674 103.889C98.8471 102.81 99.4123 100.713 99.6105 98.6837C99.7499 97.2655 100.103 94.6471 99.0121 93.4699Z" fill="#4F3220"/>
<path d="M93.9061 177.185C88.5302 175.474 83.3828 174.664 77.72 175.252C75.1675 175.515 69.8393 176.556 70.3133 179.981C70.3603 180.322 70.9568 180.322 71.0037 179.981C71.5477 176.048 79.1855 176.01 82.1122 176.055C84.3174 176.089 86.5628 176.462 88.743 176.78C90.4932 177.038 91.9944 177.999 93.7782 178.122C94.3409 178.16 94.4035 177.343 93.9061 177.185Z" fill="#4F3220"/>
<path d="M96.5446 176.145C95.5344 174.734 93.2225 174.484 91.6484 174.418C90.5013 174.371 89.3249 174.601 88.2015 174.798C87.3209 174.952 86.7111 174.871 85.9643 175.297C85.703 175.446 85.796 175.941 86.1291 175.9C87.9068 175.683 89.8505 175.518 91.6484 175.519C92.2621 175.531 92.8631 175.618 93.4501 175.784C93.624 175.829 93.7966 175.871 93.9692 175.914C95.1457 176.065 95.1763 176.551 94.06 177.373C93.4552 177.072 92.8158 176.99 92.1675 176.844C91.665 176.732 91.2839 177.484 91.7992 177.708C93.0792 178.266 94.5536 179.191 95.9628 178.748C97.1584 178.371 97.1341 176.967 96.5446 176.145Z" fill="#4F3220"/>
<path d="M94.6481 177.63C90.5459 177.378 86.3027 177.554 82.2008 177.878C80.1834 178.037 78.1969 178.254 76.2083 178.635C74.2218 179.015 72.7259 179.576 70.6584 179.443C70.1524 179.41 70.0479 180.208 70.5395 180.316C72.1968 180.682 72.7852 180.656 74.4521 180.25C77.021 179.624 79.5545 179.235 82.2008 179.085C84.6979 178.943 87.0526 178.769 89.563 178.927C91.1316 179.027 93.4883 179.226 94.8309 178.301C95.1289 178.094 95.0176 177.653 94.6481 177.63Z" fill="#4F3220"/>
<path d="M89.4945 174.658C87.4106 173.459 84.7648 173.335 82.4321 172.862C80.4991 172.468 78.1723 172.075 76.2208 172.331C74.6178 172.541 72.0999 172.633 70.954 173.967C69.8786 175.215 70.2667 176.27 70.3521 177.818C70.3866 178.432 71.2787 178.432 71.3137 177.818C71.4131 176.015 71.0355 174.633 73.3277 173.979C75.0066 173.502 76.5943 173.564 78.2862 173.577C81.9216 173.603 85.588 174.871 89.1349 175.507C89.6374 175.597 89.9781 174.936 89.4945 174.658Z" fill="#4F3220"/>
<path d="M94.1262 171.185C91.9587 171.125 89.9579 171.072 87.7786 171.272C86.4899 171.389 85.2166 171.626 83.951 171.888C83.2276 172.036 81.5948 172.838 80.8315 172.661C80.4419 172.571 80.2536 173.065 80.5678 173.283C80.9169 173.524 81.1232 173.557 81.5783 173.467C83.3245 173.114 85.0678 172.786 86.8381 172.564C88.2366 172.389 98.9674 171.626 95.8026 175.516C95.3435 176.08 96.0724 176.853 96.621 176.326C98.681 174.352 96.8089 171.257 94.1262 171.185Z" fill="#4F3220"/>
<path d="M90.4218 170.828C88.2832 169.994 85.8261 169.689 83.5789 169.189C81.0199 168.617 78.2387 168.627 75.6403 168.867C74.2712 168.993 72.6437 169.794 71.5723 170.637C70.3635 171.587 70.9864 172.706 71.0878 173.851C71.1363 174.403 71.9894 174.421 71.9674 173.851C71.6742 166.019 86.2167 171.96 90.3016 171.718C90.8361 171.686 90.8962 171.014 90.4218 170.828Z" fill="#4F3220"/>
<path d="M97.2335 170.214C96.2578 168.767 94.2643 168.455 92.6428 168.133C87.9164 167.193 82.5513 168.166 77.8535 168.814C77.365 168.881 77.5592 169.54 77.9594 169.592C81.0298 169.994 84.2666 169.192 87.3595 169.12C88.6438 169.091 89.888 169.146 91.1646 169.258C91.281 169.268 97.2463 170.41 95.7629 171.314C95.2451 171.63 95.5775 172.492 96.1824 172.305C96.9969 172.053 97.8677 171.154 97.2335 170.214Z" fill="#4F3220"/>
<path d="M86.9527 167.861C84.4128 165.74 79.9273 165.131 76.6945 165.726C75.186 166.004 72.6865 166.572 71.5456 167.704C70.5087 168.734 71.0461 169.216 71.1695 170.402L71.186 170.386C71.1714 170.926 72.1525 171.201 72.2339 170.402C72.3209 169.561 71.4282 169.193 72.6959 168.323C74.1905 167.295 76.5816 166.869 78.3368 166.883C79.8998 166.896 81.712 167.04 83.2165 167.397C84.4692 167.694 85.3818 168.471 86.6505 168.585C87.0137 168.617 87.2299 168.092 86.9527 167.861Z" fill="#4F3220"/>
<path d="M92.5995 165.111C88.6534 164.059 84.4645 165.03 80.6269 165.854C80.1344 165.961 80.2798 166.66 80.7418 166.688C82.7523 166.807 84.986 166.078 87.0445 166.036C89.1539 165.994 96.1313 165.682 95.547 169.234C95.4523 169.81 96.1288 170.093 96.4779 169.622C98.4522 166.968 94.5355 165.626 92.5995 165.111Z" fill="#4F3220"/>
<path d="M87.6594 164.01C84.3082 162.232 69.1773 160.303 72.0399 167.914C72.1873 168.305 72.7368 168.239 72.7683 167.815C72.8246 167.205 72.8451 166.594 72.8291 165.981C73.5549 164.715 74.5619 164.01 75.8496 163.866C77.2753 163.567 78.7148 163.613 80.1598 163.628C82.3417 163.652 85.1039 164.413 87.1809 165.132C87.8497 165.363 88.2737 164.334 87.6594 164.01Z" fill="#4F3220"/>
<path d="M89.951 165.028C89.6547 164.478 88.9285 164.465 88.366 164.341C87.7536 164.205 87.1122 163.864 86.4775 163.922C85.9904 163.967 85.8481 164.649 86.3585 164.796C86.9484 164.964 87.4654 165.263 88.0644 165.428C88.6163 165.579 89.2871 165.916 89.808 165.571C89.994 165.448 90.0588 165.229 89.951 165.028Z" fill="#4F3220"/>
<path d="M93.3694 162.212C91.5216 161.707 89.2228 162.014 87.3463 162.094C86.047 162.149 83.8987 162.221 82.8643 162.985C82.5611 163.21 82.7244 163.748 83.137 163.628C84.9566 163.098 87.2403 163.227 89.1324 163.104C90.4858 163.015 96.3347 163.158 94.4793 166.143C94.2236 166.552 94.7402 167.1 95.1583 166.818C97.4639 165.268 95.4716 162.785 93.3694 162.212Z" fill="#4F3220"/>
<path d="M88.2432 162.131C87.7203 161.245 86.1368 160.85 85.2183 160.571C83.1548 159.945 81.053 159.685 78.9156 159.464C77.4925 159.317 75.5429 159.849 74.2402 160.418C72.4125 161.218 72.0919 162.55 72.2512 164.366C72.2951 164.879 73.0614 164.895 73.0654 164.366C73.0958 160.123 77.6338 160.609 80.6109 160.657C82.3736 160.685 83.9899 161.377 85.6473 161.833C86.4831 162.062 87.0829 162.591 87.955 162.628C88.2113 162.64 88.3677 162.34 88.2432 162.131Z" fill="#4F3220"/>
<path d="M92.1046 159.165C88.2487 158.14 84.3745 159.041 80.5689 159.924C80.2077 160.009 80.3067 160.526 80.6538 160.544C82.3241 160.624 96.5059 158.149 94.7963 163.034C94.6096 163.567 95.3794 163.821 95.6671 163.398C97.2617 161.063 93.8027 159.617 92.1046 159.165Z" fill="#4F3220"/>
<path d="M87.5793 158.703C84.7046 156.327 80.3315 155.812 76.7401 156.476C74.7396 156.845 71.2525 159.416 73.2385 161.635C73.5023 161.929 74.0623 161.621 73.9198 161.24C72.6507 157.871 77.8089 157.286 79.8714 157.355C82.5433 157.442 84.6716 158.229 87.0318 159.409C87.4669 159.626 87.9939 159.047 87.5793 158.703Z" fill="#4F3220"/>
<path d="M83.6749 157.138C83.3307 157.376 83.5305 157.969 83.9731 157.839C85.6918 157.335 95.226 156.458 94.6851 160.292C94.6455 160.587 94.8603 160.885 95.1915 160.794C95.281 160.769 95.3692 160.744 95.4587 160.72C95.726 160.647 95.8795 160.416 95.8961 160.152C96.1761 155.542 86.1988 155.381 83.6749 157.138Z" fill="#4F3220"/>
<path d="M87.3355 155.84C84.2481 153.006 71.9139 151.824 73.3116 158.609C73.3884 158.982 74.0328 159.004 74.0902 158.609C74.5618 155.364 76.6102 154.778 79.5208 154.87C81.9849 154.948 84.5068 155.61 86.7592 156.583C87.2212 156.784 87.7646 156.235 87.3355 155.84Z" fill="#4F3220"/>
<path d="M94.0524 154.513C90.6216 153.085 86.2705 153.171 82.7111 154.202C82.2471 154.337 82.3195 155.094 82.8275 155.06C84.5127 154.946 86.1746 154.705 87.8685 154.672C89.0123 154.65 96.3899 155.09 94.3721 157.625C94.0205 158.066 94.4501 158.713 94.9936 158.425C97.1482 157.286 95.7979 155.24 94.0524 154.513Z" fill="#4F3220"/>
<path d="M86.5798 152.948C85.3275 152.113 83.2461 151.892 81.7831 151.611C80.1572 151.299 78.415 151.077 76.7681 151.339C74.6231 151.68 72.317 153.345 74.2086 155.585C74.4523 155.873 74.9944 155.566 74.856 155.212C73.0777 150.654 84.1917 152.941 86.0279 153.884C86.6572 154.206 87.1617 153.339 86.5798 152.948Z" fill="#4F3220"/>
<path d="M93.5753 151.296C90.2685 150.038 86.3174 150.572 83.15 151.958C82.8497 152.089 82.9172 152.624 83.2443 152.673C84.3123 152.829 85.2549 152.281 86.2804 152.029C87.6116 151.703 89.1735 151.804 90.537 151.844C91.1879 151.863 96.689 152.935 94.409 154.99C94.0587 155.306 94.4257 155.867 94.8566 155.754C97.5713 155.035 95.1699 151.904 93.5753 151.296Z" fill="#4F3220"/>
<path d="M87.3074 150.437C85.1491 148.466 81.2794 147.919 78.4582 148.137C76.3533 148.301 73.3872 149.984 74.4262 152.492C74.5965 152.903 75.2515 152.885 75.251 152.382C75.2364 146.543 84.2749 150.232 86.6301 151.307C87.174 151.555 87.8039 150.891 87.3074 150.437Z" fill="#4F3220"/>
<path d="M82.2739 148.249C81.794 148.387 81.8858 149.114 82.3923 149.114C83.9597 149.114 94.7756 148.945 93.8178 151.881C93.6119 152.505 94.6324 152.946 94.8971 152.332C96.9251 147.622 84.5816 147.582 82.2739 148.249Z" fill="#4F3220"/>
<path d="M86.4726 147.903C84.1624 145.948 80.5466 145.268 77.6334 145.827C75.3462 146.266 73.7327 147.81 74.7498 150.079C74.9097 150.435 75.5121 150.257 75.486 149.88C75.4031 148.709 75.0295 147.944 76.7154 147.306C77.9406 146.841 79.1819 146.786 80.4806 146.748C82.3866 146.694 84.2064 148.388 86.0001 148.707C86.4311 148.783 86.8768 148.245 86.4726 147.903Z" fill="#4F3220"/>
<path d="M92.6954 145.456C90.4794 144.972 87.7273 144.801 85.4985 145.196C84.8237 145.315 82.3182 145.452 82.1219 146.358C82.082 146.539 82.2028 146.704 82.3926 146.71C84.1068 146.774 85.7887 146.326 87.521 146.26C89.0021 146.204 96.6441 146.585 93.7951 149.724C93.5112 150.037 93.7823 150.69 94.2503 150.502C97.7298 149.104 95.2912 146.022 92.6954 145.456Z" fill="#4F3220"/>
<path d="M86.6514 144.965C85.4985 144.056 83.6274 143.58 82.2003 143.28C80.8243 142.991 79.4686 142.815 78.0714 143.108C76.1214 143.515 73.2138 145.01 75.3222 147.151C75.4236 147.253 75.5815 147.293 75.7213 147.255C75.7482 147.248 75.7752 147.241 75.8017 147.233C76.1719 147.132 76.1719 146.594 75.8017 146.493C75.8711 145.325 76.3627 144.644 77.2767 144.449C77.7687 144.242 78.2857 144.141 78.8277 144.148C79.6394 144.088 80.436 144.111 81.2363 144.276C82.9386 144.626 84.469 145.449 86.1719 145.782C86.6045 145.867 87.0744 145.297 86.6514 144.965Z" fill="#4F3220"/>
<path d="M92.5471 143C88.6125 141.644 83.7658 142.183 79.7912 143.039C79.4376 143.115 79.5519 143.598 79.8716 143.628C81.475 143.766 95.4127 142.794 93.9511 146.179C93.7747 146.586 94.1762 147.187 94.6417 146.865C96.6557 145.468 93.9921 143.498 92.5471 143Z" fill="#4F3220"/>
<path d="M87.0772 141.777C84.5607 139.887 80.1221 139.411 77.1736 140.348C75.5037 140.88 73.723 142.865 75.2555 144.459C75.7136 144.934 76.3749 144.24 75.9704 143.75C73.9058 141.247 80.7281 141.084 81.6272 141.217C83.4214 141.483 84.9843 142.121 86.6911 142.686C87.2766 142.879 87.4963 142.093 87.0772 141.777Z" fill="#4F3220"/>
<path d="M92.882 140.9C89.8401 139.824 85.8536 139.407 82.7192 140.268C82.2627 140.394 82.3836 141.023 82.8261 141.055C84.5019 141.173 86.1857 141.026 87.8681 141.175C88.2817 141.211 94.5763 141.984 93.5943 143.451C93.1915 144.054 94.0623 144.636 94.561 144.191C96.0379 142.869 94.2055 141.368 92.882 140.9Z" fill="#4F3220"/>
<path d="M87.9547 140.05C86.2245 137.895 81.6766 136.782 79.0246 137.305C76.8923 137.724 74.3713 138.788 75.691 141.378C75.8783 141.745 76.4662 141.566 76.4582 141.172C76.3458 135.615 84.9547 139.625 87.3589 140.818C87.8798 141.076 88.3009 140.479 87.9547 140.05Z" fill="#4F3220"/>
<path d="M94.8215 138.255C93.3625 137.287 91.6375 137.447 89.9542 137.356C88.0741 137.256 86.0876 137.55 84.2174 137.776C83.615 137.849 83.615 138.632 84.2174 138.706C85.599 138.873 87.1145 138.734 88.4981 138.6C89.2229 138.531 89.9471 138.607 90.6708 138.651C91.1567 138.642 91.6426 138.659 92.126 138.701C94.1425 138.613 94.4737 139.504 93.1208 141.375C92.5863 141.579 92.6643 142.327 93.2564 142.368C95.2934 142.502 96.7102 139.511 94.8215 138.255Z" fill="#4F3220"/>
<path d="M88.6053 137.596C86.1212 135.27 82.2252 133.815 78.7826 134.311C76.1662 134.688 74.4798 136.115 76.0808 138.56C76.4125 139.066 77.1247 138.628 76.8829 138.094C75.2541 134.493 81.4475 135.619 82.7786 135.887C84.833 136.3 86.2486 137.796 88.1887 138.305C88.5938 138.41 88.923 137.892 88.6053 137.596Z" fill="#4F3220"/>
<path d="M93.9292 134.151C91.5137 132.398 85.9244 133.476 83.7581 135.058C83.4369 135.293 83.6003 135.67 83.8555 135.764C83.8555 135.765 83.8545 135.767 83.853 135.77C83.8645 135.771 83.8724 135.771 83.8834 135.773C83.9145 135.781 83.9444 135.785 83.9774 135.785C84.1257 135.807 84.2596 135.818 84.4155 135.75C85.6861 135.189 86.9145 134.957 88.3031 134.778C89.1353 134.67 89.9874 134.592 90.8232 134.668C92.0328 134.779 95.5609 135.707 93.0366 137.608C92.7656 137.814 92.731 138.311 93.1402 138.398C94.0174 138.586 95.0583 138.196 95.2744 137.205C95.58 135.803 95.0634 134.975 93.9292 134.151Z" fill="#4F3220"/>
<path d="M87.4519 133.222C86.4258 132.359 84.9867 132.148 83.6881 131.866C81.9817 131.494 80.286 131.282 78.5627 131.649C76.9583 131.99 74.3979 134.082 76.6101 135.509C76.9713 135.742 77.4477 135.278 77.2066 134.918C75.5606 132.469 81.0422 132.671 81.9588 132.795C83.6231 133.02 85.3764 133.498 86.9483 134.079C87.4278 134.256 87.8405 133.548 87.4519 133.222Z" fill="#4F3220"/>
<path d="M92.8438 131.365C89.3148 130.601 85.9356 130.52 82.4896 131.842C82.2533 131.932 82.1769 132.344 82.4896 132.395C84.3647 132.705 86.2523 131.94 88.1484 131.961C89.1099 131.972 94.7235 132.395 93.666 134.007C93.3578 134.475 93.9473 134.966 94.3962 134.731C96.9536 133.398 94.5829 131.741 92.8438 131.365Z" fill="#4F3220"/>
<path d="M88.6924 130.697C86.2563 128.157 81.8468 127.673 78.5486 128.239C76.5944 128.575 73.8102 131.532 76.592 132.868C77.0466 133.087 77.6 132.493 77.1645 132.132C74.4666 129.888 80.0365 129.228 80.3936 129.193C81.5696 129.082 82.7744 129.333 83.9002 129.639C85.4227 130.054 86.8087 130.847 88.2758 131.406C88.6979 131.567 88.9661 130.983 88.6924 130.697Z" fill="#4F3220"/>
<path d="M93.9152 128.926C91.3616 127.563 86.8965 127.413 84.1902 128.346C83.7836 128.487 83.7836 129.024 84.1902 129.165C85.3066 129.549 87.1193 129.181 88.3031 129.16C88.8156 129.151 95.5008 130.024 93.4932 131.577C93.1211 131.865 93.4434 132.478 93.8653 132.467C94.7119 132.446 95.231 132.029 95.4688 131.174C95.7693 130.083 94.7234 129.358 93.9152 128.926Z" fill="#4F3220"/>
<path d="M87.5447 127.697C85.6316 125.322 80.5407 125.402 77.8753 125.997C76.2279 126.364 74.6426 128.576 76.5167 129.743C76.8968 129.979 77.3644 129.511 77.1296 129.134C75.7314 126.892 80.1091 126.829 81.315 126.87C83.3209 126.94 85.1321 127.663 86.9079 128.517C87.4637 128.784 87.9168 128.158 87.5447 127.697Z" fill="#4F3220"/>
<path d="M93.8434 125.977C91.47 124.973 87.0787 125.168 84.783 126.233C84.3729 126.423 84.6075 127.006 84.9997 127.023C86.4837 127.091 87.9427 126.741 89.4192 126.702C89.9938 126.689 90.5711 126.715 91.1453 126.742C91.6862 126.804 92.2219 126.89 92.7552 126.999C93.7909 127.028 94.1758 127.587 93.9099 128.674C93.2961 129.037 93.7244 129.871 94.3715 129.76C95.2397 129.609 95.5735 128.949 95.7154 128.136C95.8996 127.078 94.6375 126.312 93.8434 125.977Z" fill="#4F3220"/>
<path d="M88.2837 124.923C86.2542 124.254 84.4405 123.12 82.3002 122.8C80.478 122.528 79.0384 122.653 77.2802 123.185C75.5864 123.696 75.1363 126.411 77.1757 126.829C77.432 126.881 77.6323 126.678 77.5813 126.427C77.4869 125.956 77.5603 126.071 77.1693 125.557C75.7392 123.678 82.0694 124.038 81.9625 124.019C84.0983 124.401 86.0015 125.864 88.1289 126.057C88.8147 126.119 88.8776 125.117 88.2837 124.923Z" fill="#4F3220"/>
<path d="M94.7332 123.473C91.7628 122.273 88.0011 122.738 84.9711 123.513C84.4836 123.638 84.6115 124.33 85.086 124.356C86.6719 124.437 88.2793 124.148 89.8661 124.068C90.9239 124.016 95.847 124.069 93.7154 125.849C93.475 126.049 93.5849 126.407 93.8074 126.561C93.8829 126.611 93.957 126.663 94.0338 126.715C94.2217 126.846 94.5018 126.823 94.6936 126.715C96.0567 125.948 96.4352 124.159 94.7332 123.473Z" fill="#4F3220"/>
<path d="M88.8011 122.656C87.9585 121.699 86.0733 120.829 84.904 120.488C82.7852 119.871 80.6242 119.571 78.4284 119.865C77.0653 120.046 75.8814 120.643 75.6781 122.053C75.5653 122.836 76.4734 123.705 76.6212 123.924C76.7681 124.144 77.0653 124.144 77.2122 123.924C77.2262 123.905 77.2396 123.885 77.2537 123.864C77.3291 123.751 77.3205 123.587 77.2537 123.473C75.2941 120.172 81.9805 121.062 83.1203 121.307C84.794 121.669 86.6722 122.566 88.0953 123.564C88.6658 123.964 89.2127 123.123 88.8011 122.656Z" fill="#4F3220"/>
<path d="M96.0201 122.12C95.6646 120.835 94.6596 120.33 93.4307 120.022C91.6673 119.579 89.8996 119.426 88.0855 119.605C86.8602 119.724 84.7089 119.555 83.6514 120.28C83.2683 120.542 83.4936 121.223 83.9841 121.064C84.7278 120.821 85.9606 120.971 86.7378 120.905C87.8672 120.809 89.0186 120.743 90.1499 120.796C91.3809 120.853 92.5394 121.138 93.721 121.442C95.2618 121.839 93.9563 122.756 93.4998 123.369C93.3885 123.521 93.4435 123.756 93.5662 123.879C93.611 123.924 93.6558 123.97 93.7005 124.014C93.9 124.215 94.2414 124.268 94.4857 124.116C95.1877 123.674 96.3257 123.232 96.0201 122.12Z" fill="#4F3220"/>
<path d="M88.748 119.58C87.29 116.6 82.0097 116.279 79.1766 116.616C78.2265 116.729 76.4768 117.351 76.295 118.503C76.1931 119.142 76.1121 119.446 76.4677 120.049C76.5542 120.195 77.3623 121.109 77.0837 120.683C77.1996 120.859 77.4538 120.96 77.6461 120.83C77.6865 120.802 77.7286 120.775 77.769 120.747C77.9708 120.611 77.9708 120.344 77.769 120.209C78.0387 120.389 77.7719 120.224 77.5937 119.875C76.3519 117.443 81.0907 117.708 82.0182 117.75C83.3429 117.812 84.6466 118.165 85.8165 118.764C86.6731 119.202 87.3384 119.989 88.2795 120.186C88.6481 120.262 88.9099 119.912 88.748 119.58Z" fill="#4F3220"/>
<path d="M92.5057 116.716C90.7053 116.134 88.7609 116.095 86.9107 116.334C85.9002 116.465 84.3613 116.416 83.5205 117.115C83.1405 117.431 83.5446 118.081 84 117.932C85.3293 117.498 86.9746 117.528 88.3673 117.42C89.2938 117.348 90.1855 117.542 91.0864 117.731C91.7078 117.862 95.2755 118.655 93.764 120.204C93.2768 120.703 93.9264 121.619 94.5325 121.194C96.7537 119.64 94.2525 117.282 92.5057 116.716Z" fill="#4F3220"/>
<path d="M88.3465 116.208C86.5807 113.983 81.9044 113.134 79.1656 113.569C76.8674 113.933 75.3214 115.823 76.7591 117.962C77.0736 118.43 77.7396 118.126 77.6446 117.591C76.6486 111.975 85.8649 116.448 87.9264 116.925C88.3759 117.029 88.6062 116.535 88.3465 116.208Z" fill="#4F3220"/>
<path d="M94.1774 114.43C91.8015 113.034 87.0803 113.228 84.6288 114.315C84.4819 114.38 84.397 114.567 84.396 114.716C84.395 114.797 84.3941 114.878 84.3941 114.959C84.3905 115.199 84.6973 115.414 84.913 115.255C85.7462 114.647 88.1134 114.816 89.0853 114.758C90.3974 114.679 96.3895 115.586 93.437 117.717C93.0636 117.986 93.1441 118.678 93.6902 118.651C94.6211 118.605 95.4522 118.034 95.6338 117.031C95.864 115.755 95.2604 115.069 94.1774 114.43Z" fill="#4F3220"/>
<path d="M88.6814 113.634C86.4331 111.858 75.7098 108.499 77.0319 114.405C77.1008 114.715 77.5145 114.882 77.7827 114.707C77.8251 114.68 77.8672 114.652 77.9091 114.626C78.1768 114.451 78.1768 114.088 77.9091 113.913C77.4595 113.62 78.8007 112.555 79.2793 112.463C80.5104 112.227 81.7823 112.434 82.9855 112.694C84.8002 113.087 86.3957 114.016 88.1594 114.524C88.6463 114.666 89.1179 113.978 88.6814 113.634Z" fill="#4F3220"/>
<path d="M94.6937 111.511C93.4738 110.757 91.4815 110.96 90.1306 110.897C88.0531 110.802 85.8078 110.908 83.8303 111.571C83.3483 111.733 83.3952 112.563 83.9567 112.501C85.758 112.299 87.5326 112.184 89.3448 112.142C90.5506 112.113 96.2767 112.205 93.906 114.312C93.4546 114.715 93.9469 115.315 94.4469 115.231C96.6118 114.868 96.1438 112.411 94.6937 111.511Z" fill="#4F3220"/>
<path d="M89.3833 110.523C86.8848 108.364 82.0571 107.848 78.8948 108.496C76.6904 108.949 77.6041 112.6 78.6821 112.024C78.695 112.016 78.708 112.01 78.7204 112.004C78.9543 111.877 79.0086 111.579 78.8904 111.359C77.5142 108.788 82.4392 109.677 83.3479 109.743C85.3663 109.891 87.1046 111.017 89.0836 111.24C89.4498 111.282 89.648 110.752 89.3833 110.523Z" fill="#4F3220"/>
<path d="M94.4777 108.886C91.364 107.66 87.6451 107.669 84.4464 108.409C84.0172 108.509 84.0172 109.167 84.4464 109.266C85.6087 109.535 87.2061 109.194 88.4114 109.203C89.3499 109.209 90.2362 109.28 91.1697 109.393C91.2464 109.403 95.2999 109.965 94.0084 111.136C93.6632 111.451 93.933 112.047 94.3856 112.039C96.3152 112.011 95.97 109.473 94.4777 108.886Z" fill="#4F3220"/>
<path d="M88.5187 107.749C86.4782 104.954 81.2849 104.449 78.2759 105.677C75.9017 106.646 77.6321 110.179 79.0611 109.068C79.192 108.968 79.202 108.693 79.0611 108.605C77.3499 107.543 79.9697 106.417 79.5237 106.596C80.7225 106.114 81.8923 106.294 83.138 106.523C84.9243 106.851 86.3334 108.057 88.0087 108.407C88.3579 108.481 88.771 108.094 88.5187 107.749Z" fill="#4F3220"/>
<path d="M94.0382 105.747C92.6712 104.867 90.9923 104.817 89.4217 104.812C87.8692 104.806 86.1091 104.661 84.9053 105.727C84.6729 105.931 84.8427 106.407 85.1729 106.367C86.6156 106.199 87.9582 106.092 89.4217 106.095C90.1845 106.095 95.7939 106.763 93.6559 108.716C93.3707 108.976 93.4947 109.541 93.895 109.614C94.964 109.809 95.3949 109.076 95.6072 108.103C95.845 107.02 94.831 106.257 94.0382 105.747Z" fill="#4F3220"/>
<path d="M88.579 104.868C87.8631 103.82 86.49 103.405 85.3297 102.987C83.1205 102.189 80.3117 101.901 77.982 102.084C75.005 102.317 74.9311 105.636 77.5934 106.546C78.0095 106.688 78.2079 106.163 77.981 105.884C77.6489 105.513 77.3571 105.113 77.1029 104.687C77.7253 103.599 78.5614 103.163 79.6109 103.38C80.9361 103.435 82.2378 103.62 83.5201 103.943C85.1194 104.348 86.4871 105.001 87.9906 105.628C88.4141 105.804 88.8208 105.221 88.579 104.868Z" fill="#4F3220"/>
<path d="M94.6071 102.012C92.6264 101.553 89.9137 101.967 87.9631 102.378C87.0909 102.562 84.7627 102.649 84.7393 103.923C84.7353 104.127 84.9615 104.232 85.1319 104.146C86.8133 103.286 89.4666 103.493 91.3003 103.297C92.1443 103.209 92.9358 103.223 93.7772 103.292C94.437 103.295 95.0611 103.436 95.6518 103.716C97.3449 104.476 93.4972 106.074 93.5432 106.062C93.3399 106.119 93.2235 106.28 93.1788 106.459C93.4895 106.596 93.7082 106.838 93.8399 107.123C95.483 106.872 96.8449 106.1 97.3781 104.444C97.873 102.905 95.616 102.245 94.6071 102.012Z" fill="#4F3220"/>
<path d="M85.342 91.349C84.4108 94.5293 85.1082 97.3633 86.0777 100.339C84.2106 99.771 81.9608 97.5511 81.1026 96.3611C79.8229 94.5877 78.8404 92.4413 78.4013 90.3139C77.769 87.244 79.5941 84.0459 82.9129 83.81C84.7789 83.6781 86.4614 84.7449 87.746 85.9513C87.4074 85.6342 89.6066 88.0445 89.294 88.3781C87.4748 86.9078 85.8084 89.7545 85.342 91.349ZM87.2391 83.9812C84.3309 81.7092 80.4373 82.464 78.27 85.1902C75.9853 88.0635 77.4203 92.0531 78.8659 94.9099C79.7824 96.7214 80.8314 98.1663 82.4494 99.3955C83.7436 100.377 85.2395 101.721 86.9543 101.675C87.3274 101.666 87.6636 101.298 87.5363 100.918C87.1267 99.7013 86.6281 98.5621 86.3624 97.2961C86.1996 96.5248 85.9538 94.8287 86.0582 93.8989C86.1586 92.9995 86.9258 87.8935 89.0996 89.261C89.2196 89.3371 89.3375 89.3333 89.4373 89.2889C89.5997 89.3866 89.7969 89.4107 89.9808 89.2775C91.8384 87.929 88.0931 84.6485 87.2391 83.9812Z" fill="#4F3220"/>
<path d="M114.072 66.3444C112.009 61.9412 107.541 62.1239 103.449 63.0892C98.4445 64.2715 94.3053 69.3255 92.0164 73.5853C89.55 78.175 88.6923 83.2112 89.7737 88.2639C89.8796 88.7586 90.7223 88.6533 90.6699 88.1433C89.8117 79.7239 92.8514 71.1712 100.125 66.2213C103.793 63.7235 109.601 62.12 112.591 66.3824C114.478 69.073 114.961 73.6729 113.268 76.5741C112.856 77.2768 113.927 77.8908 114.357 77.2071C116.421 73.9113 115.609 69.6274 114.072 66.3444Z" fill="#4F3220"/>
<path d="M114.212 76.5831C113.207 74.4988 111.583 72.5097 110.219 70.6335C108.626 68.4427 107.204 66.6464 104.697 65.4336C100.674 63.4889 97.6746 66.1478 95.3946 69.422C95.268 69.6034 95.5442 69.8026 95.6938 69.6529C96.9572 68.3945 98.2602 67.2959 99.6937 66.2278C101.958 64.5393 104.962 66.6324 106.693 68.0963C108.241 69.4042 109.293 71.4555 110.461 73.0996C111.383 74.3986 112.46 75.7661 113.15 77.1996C113.491 77.9099 114.552 77.2896 114.212 76.5831Z" fill="#4F3220"/>
<path d="M111.334 73.0436C106.985 72.4639 103.461 75.771 100.341 78.3475C97.8687 80.3886 95.6859 82.7557 93.1732 84.7423C92.0851 85.6024 91.1669 86.7581 90.2322 87.7729C90.0635 87.9543 89.1419 88.8854 89.629 88.5899C89.4451 88.7015 89.3892 88.926 89.4901 89.1125C89.5091 89.1442 89.5271 89.1772 89.5441 89.2102C89.6125 89.3332 89.7534 89.3738 89.8822 89.351C90.142 89.3941 90.3818 89.1886 90.4048 88.9197C90.3907 89.0757 91.7577 87.7767 91.6119 87.915C92.6336 86.9496 93.576 85.9487 94.6911 85.0836C96.7345 83.4966 98.5912 81.5823 100.54 79.8799C102.658 78.0342 105.253 75.5579 107.991 74.7486C109.16 74.4035 110.13 74.4314 111.334 74.2716C112.129 74.165 112.129 73.1489 111.334 73.0436Z" fill="#4F3220"/>
<path d="M135.69 77.136C132.244 75.3625 129.891 74.6128 125.936 74.9515C122.349 75.2572 118.656 76.7211 115.363 78.1077C111.413 79.7733 107.784 81.8842 104.067 83.9964C102.062 85.1355 99.9545 86.1732 97.8063 87.0193C95.6337 87.8743 93.456 87.915 91.1876 88.1471C91.0149 88.0646 90.8001 88.0786 90.671 88.2308C90.2132 88.4439 90.359 89.0858 90.8653 89.1417C98.5658 89.9967 105.174 84.5469 111.605 81.2055C115.294 79.2887 119.323 77.8438 123.328 76.7427C125.752 76.0767 128.503 75.8331 130.975 76.3698C132.623 76.7262 133.721 77.8603 135.453 78.0024C135.919 78.0405 136.093 77.344 135.69 77.136Z" fill="#4F3220"/>
<path d="M130.014 66.9811C127.339 65.8673 124.312 65.4893 121.44 65.9713C119.408 66.3126 116.124 67.1042 114.759 68.7762C114.357 69.2684 115.003 69.9534 115.474 69.484C116.727 68.2345 119.256 67.7283 120.916 67.2856C123.196 66.6792 126.032 66.9659 128.266 67.6256C132.527 68.8802 135.474 73.2453 135.307 77.5368C135.284 78.1318 136.253 78.2751 136.364 77.6789C137.152 73.447 133.984 68.6353 130.014 66.9811Z" fill="#4F3220"/>
<path d="M136.355 76.7237C133.615 72.7569 130.886 70.1513 126.091 68.8345C123.918 68.237 121.769 68.7089 119.665 69.2595C117.86 69.7327 116.666 70.3581 115.164 71.227C115.005 71.3184 114.912 71.5214 114.971 71.699L115.046 71.9374C115.15 72.2609 115.603 72.2609 115.706 71.9374C116.289 70.1208 122.756 69.8012 124.242 69.8316C129.344 69.9356 132.663 73.4724 135.335 77.3161C135.764 77.9326 136.787 77.3504 136.355 76.7237Z" fill="#4F3220"/>
<path d="M168.631 91.444C166.665 89.5703 163.99 87.9504 161.749 86.4091C159.367 84.7701 156.508 83.48 153.752 82.5945C147.609 80.6219 140.754 80.1398 134.338 80.1538C128.064 80.1652 122.055 80.7437 116.021 82.5679C112.745 83.5586 109.568 84.9642 106.394 86.2302C104.824 86.8556 103.299 87.4962 101.659 87.925C100.621 88.1952 98.5034 88.5288 97.4612 88.0493C96.9855 87.8299 96.5942 88.4654 97.0456 88.7546C98.4215 89.6287 100.442 89.3686 101.974 89.0553C105.112 88.4121 108.172 86.7808 111.145 85.6226C117.388 83.192 123.973 81.3729 130.734 81.3817C137.756 81.3919 144.807 81.6037 151.637 83.3835C155.047 84.2728 158.799 85.7431 161.577 87.9669C163.571 89.5653 165.764 91.3222 168.188 92.2013C168.625 92.3599 168.947 91.7459 168.631 91.444Z" fill="#4F3220"/>
<path d="M95.2206 63.1958C92.6337 60.92 87.0551 59.6223 84.147 61.9488C80.3518 64.9832 80.5811 69.5982 81.6925 73.8581C82.3738 76.465 83.4737 78.9095 84.9143 81.1891C86.167 83.1706 87.7429 85.8815 89.5576 87.3708C89.8628 87.622 90.4061 87.2922 90.1466 86.9218C86.3219 81.4682 81.7309 75.0873 82.257 68.0963C82.6445 62.9332 87.4212 60.9949 91.8422 62.9611C93.75 63.8098 95.1758 64.4441 95.4328 66.6729C95.5978 68.1077 94.2321 70.0359 93.6707 71.2715C93.4687 71.7142 94.0249 72.0237 94.3178 71.647C96.2064 69.2151 98.0491 65.6822 95.2206 63.1958Z" fill="#4F3220"/>
<path d="M90.0987 66.1184C87.9799 62.8074 81.8475 62.2924 81.715 67.1903C81.7026 67.6571 82.4143 67.7497 82.5302 67.2994C83.4353 63.7982 87.214 64.4185 89.0197 66.7438C89.9119 67.8944 90.4267 69.4636 90.7848 70.8476C91.2694 72.7212 91.0737 73.9796 90.9996 75.8558C90.9855 76.2263 91.552 76.3963 91.7208 76.0499C93.3077 72.8024 91.9471 69.0056 90.0987 66.1184Z" fill="#4F3220"/>
<path d="M104.076 48.516C102.214 46.1133 99.0685 45.5184 96.2182 46.1082C89.465 47.5062 88.6303 55.7848 89.2122 61.2409C89.2772 61.8549 90.1078 61.8549 90.1733 61.2409C90.6315 56.9405 89.9949 52.4168 93.446 49.1845C95.9893 46.8034 99.8217 46.4482 102.513 48.7824C104.891 50.8438 104.821 54.1395 105.158 56.9722C105.215 57.4505 105.86 57.5824 106.024 57.0889C106.945 54.2854 105.833 50.7829 104.076 48.516Z" fill="#4F3220"/>
<path d="M105.3 56.7235C104.914 57.3451 105.081 56.6157 104.596 56.0118C103.957 55.2177 103.259 54.5073 102.513 53.8109C101.093 52.4776 99.3716 51.5389 97.5366 50.9021C95.9139 50.3388 90.3821 49.6525 90.5522 52.5753C90.5688 52.8582 90.9933 53.032 91.1366 52.7313C91.9652 51.001 95.0495 51.5541 96.4407 51.8611C98.4215 52.3 100.102 53.4087 101.603 54.7141C102.761 55.7201 103.795 58.4094 105.467 58.3866C105.759 58.3828 106.006 58.195 106.089 57.9185C106.203 57.5366 106.215 57.3806 106.226 56.9721C106.237 56.4698 105.552 56.3176 105.3 56.7235Z" fill="#4F3220"/>
<path d="M103.585 55.7162C103.581 55.7061 103.577 55.6959 103.572 55.6858C103.416 55.2811 102.795 55.205 102.668 55.6858C102.492 56.3657 101.36 57.307 100.928 57.9184C100.181 58.9701 99.5671 60.1613 98.9661 61.2992C97.9879 63.1538 97.0365 65.2444 96.3357 67.2107C96.2168 67.5456 96.6465 67.864 96.9393 67.6724C97.828 67.0902 98.1119 66.4292 98.5313 65.4461C99.2244 63.8211 99.9507 62.2049 100.822 60.6649C101.41 59.6247 103.922 56.5865 103.585 55.7162Z" fill="#4F3220"/>
<path d="M82.6335 65.6809C81.3717 62.9573 78.1435 61.274 75.2553 60.7767C71.7942 60.1779 67.2817 60.1399 64.1923 62.0047C57.0435 66.3228 61.2598 76.2481 65.7228 81.0103C66.1334 81.4505 66.8472 80.8847 66.548 80.3785C65.7887 79.0909 64.8073 77.9619 64.0515 76.6769C63.3017 75.4058 62.9311 73.9875 62.3992 72.6289C60.9565 68.9526 61.4616 65.3854 64.8351 63.0956C67.3847 61.3678 71.959 61.4973 74.9247 61.9641C77.9431 62.4411 79.9136 64.1295 81.9551 66.1998C82.3188 66.569 82.8292 66.1021 82.6335 65.6809Z" fill="#4F3220"/>
<path d="M81.9402 64.6635C78.9811 61.6367 74.8153 62.2494 71.8747 64.888C67.6405 68.6848 67.0965 75.7076 66.0056 80.8985C65.8967 81.4174 66.6634 81.8106 66.9147 81.2778C68.4347 78.0557 68.6664 74.0534 69.8473 70.6638C70.7479 68.081 72.4452 65.261 75.149 64.2093C77.3638 63.348 79.4557 64.3869 81.3724 65.3929C81.8414 65.639 82.3178 65.0491 81.9402 64.6635Z" fill="#4F3220"/>
<path d="M87.098 83.6413C85.9136 81.7156 84.2827 80.0157 82.9691 78.1662C81.7653 76.4714 80.2513 75.0582 78.563 73.8518C76.2757 72.2191 71.3526 69.0617 68.9571 72.209C68.7828 72.4373 69.0679 72.7215 69.3056 72.6593C70.2158 72.4297 70.8442 72.1253 71.8307 72.0453C72.9271 71.9578 74.073 72.8369 75.0051 73.3164C76.9606 74.3237 78.7208 75.5377 80.2827 77.0853C82.5351 79.3142 83.8387 82.3778 86.4576 84.2768C86.8477 84.5584 87.3317 84.018 87.098 83.6413Z" fill="#4F3220"/>
<path d="M61.4008 72.1531C60.231 72.0084 58.9782 73.7096 58.3284 74.4086C56.6705 76.1909 56.0126 78.3601 55.4233 80.66C54.1626 85.5745 55.2768 89.9612 58.1495 94.0561C58.4788 94.5267 59.1541 94.1271 58.9157 93.6121C56.9302 89.3205 55.6541 85.7952 56.714 81.0114C57.2694 78.5009 58.1495 76.4941 59.8343 74.5139C60.3833 73.8682 61.2764 73.4039 61.6966 72.6643C61.8358 72.4195 61.651 72.1848 61.4008 72.1531Z" fill="#4F3220"/>
<path d="M65.3715 79.7822C61.1326 82.2457 58.5528 89.205 58.1417 93.834C58.0893 94.415 59.0557 94.5419 59.1662 93.971C59.6477 91.4567 60.5758 88.8625 61.5893 86.5144C62.6417 84.0788 64.4939 82.4639 65.9169 80.3238C66.1432 79.9851 65.7056 79.5881 65.3715 79.7822Z" fill="#4F3220"/>
<path d="M86.2166 83.3684C85.7281 81.5099 83.8021 79.98 82.4144 78.7698C80.7017 77.2742 79.1277 76.0323 76.9129 75.3637C73.4883 74.3273 69.3534 76.05 67.4513 79.0223C67.2426 79.3496 67.6582 79.7618 67.9868 79.5538C70.9263 77.7017 72.8135 75.8864 76.5568 76.6475C79.8435 77.3161 83.5388 81.0469 85.3909 83.7134C85.6746 84.1232 86.351 83.8783 86.2166 83.3684Z" fill="#4F3220"/>
<path d="M78.5098 85.194C79.0208 85.487 78.5193 84.7843 78.4205 84.5927C78.0982 83.9673 77.5163 83.4104 77.0948 82.8548C76.2346 81.722 75.2216 80.702 74.0473 79.8851C72.8824 79.0757 69.4878 77.0308 68.1181 78.6394C67.7811 79.0364 68.1967 79.5793 68.6712 79.351C70.278 78.5772 72.7321 80.4724 73.848 81.3566C74.5183 81.8894 75.0893 82.4996 75.6437 83.1478C76.1526 83.7428 77.339 85.024 77.4719 85.8549C77.5393 86.2685 78.0843 86.422 78.4119 86.2342L78.5098 86.1784C78.8825 85.964 78.8825 85.4071 78.5098 85.194Z" fill="#4F3220"/>
<path d="M98.9649 15.0449C89.1628 16.5024 83.4604 27.4476 81.1068 35.9876C79.6317 41.3358 79.5239 47.0824 79.5763 52.5702C79.5997 54.8739 80.0464 57.1827 80.5209 59.4281C80.8839 61.1444 81.1802 64.0786 82.7546 65.1315C83.0129 65.3041 83.358 64.9615 83.1837 64.7053C82.0043 62.9699 81.757 60.2476 81.3995 58.2369C81.0238 56.1349 80.7871 53.939 80.7811 51.7989C80.7681 46.9112 81.0898 42.0043 82.1147 37.1978C83.0624 32.7451 85.1197 28.1263 87.7201 24.384C88.9435 22.6232 90.5534 21.0667 92.1313 19.6206C94.1901 17.7342 96.6606 16.8944 99.1937 15.8643C99.7052 15.655 99.5147 14.9637 98.9649 15.0449Z" fill="#4F3220"/>
<path d="M99.4699 14.8928C99.4264 14.8877 99.3842 14.8839 99.3395 14.8788C99.2014 14.8636 99.0057 14.9714 98.9507 15.1008C96.6963 20.3501 95.3869 25.7123 94.3742 31.3206C93.8742 34.0798 93.6044 36.8325 93.607 39.6411C93.6082 42.1503 94.222 44.6647 94.222 47.1434C94.222 47.8513 95.3307 47.8513 95.3307 47.1434C95.3307 41.9106 94.5174 36.8871 95.6337 31.6657C96.1976 29.0334 96.4802 26.3149 97.2283 23.7334C97.6848 22.1591 98.1349 20.5848 98.5722 19.0067C98.8587 17.9779 99.1669 17.0595 99.6323 16.089C99.8139 15.7084 99.8395 15.7173 99.4699 15.7579C100.031 15.6957 100.031 14.9562 99.4699 14.8928Z" fill="#4F3220"/>
<path d="M156.92 40.8272C151.972 38.153 147.179 38.5349 141.711 39.2148C135.862 39.9404 130.338 42.2023 125.099 44.8041C119.514 47.5772 114.008 50.9389 109.338 55.063C107.362 56.8072 105.256 58.6035 103.748 60.774C102.936 61.9437 102.026 63.06 100.977 64.0304C100.749 64.2423 100.594 64.4199 100.612 64.732C100.639 65.2749 101.431 65.2749 101.458 64.732C101.462 64.6812 103.801 62.4587 104.132 61.9969C105.825 59.6437 107.973 57.7714 110.134 55.8546C114.499 51.9791 119.665 48.9688 124.824 46.249C130.042 43.5 135.81 41.1227 141.711 40.3921C144.205 40.0825 146.654 39.858 149.17 39.844C151.858 39.8288 154.088 40.7879 156.591 41.6023C157.055 41.7532 157.344 41.0555 156.92 40.8272Z" fill="#4F3220"/>
<path d="M157.928 41.7014C158.354 41.9728 157.533 41.1381 157.577 41.3157C157.445 40.769 156.851 40.8425 156.444 40.8857C155.988 40.9352 155.906 41.4261 156.184 41.6506C152.38 41.7255 148.844 42.0934 145.033 42.8964C140.506 43.8503 136.494 45.5248 132.272 47.3579C127.947 49.2366 124.006 51.742 120.309 54.6496C116.89 57.3402 114.792 60.7526 111.944 63.9164C111.577 64.3249 112.137 64.8818 112.55 64.5152C115.191 62.176 117.051 59.1225 119.717 56.7529C123.346 53.5269 127.611 50.7779 132.052 48.7901C136.127 46.9672 140.146 45.1239 144.549 44.2423C148.989 43.353 153.096 42.8393 157.617 42.8393C158.249 42.8393 158.432 42.0236 157.928 41.7014Z" fill="#4F3220"/>
<path d="M132.626 32.1463C121.22 23.5251 103.061 34.8318 98.7346 46.2362C98.6246 46.5267 98.9085 46.8718 99.2103 46.8553C99.2538 46.8527 99.296 46.8502 99.3395 46.8476C99.6809 46.8299 99.8279 46.5559 99.7972 46.3047C101.223 43.59 102.639 41.2216 104.89 39.0358C107.193 36.8032 109.815 34.9891 112.62 33.4377C118.476 30.2003 126.323 28.8569 132.024 33.1662C132.636 33.628 133.226 32.603 132.626 32.1463Z" fill="#4F3220"/>
<path d="M132.325 32.5689C129.612 32.5536 126.35 32.357 123.802 33.4251C120.236 34.9208 117.037 36.7082 114.123 39.2314C111.345 41.6391 109.144 43.7563 107.286 46.948C106.427 48.4221 104.745 51.4324 105.3 53.1741C105.392 53.4672 105.804 53.4672 105.897 53.1741C107.506 48.1278 110.113 43.9326 114.341 40.5912C117.08 38.4271 119.615 36.7183 122.772 35.1935C125.785 33.7372 129.05 33.8412 132.325 33.7791C133.119 33.7651 133.101 32.5004 132.325 32.5689Z" fill="#4F3220"/>
<path d="M148.417 27.9805C145.402 26.5711 141.69 26.6941 138.453 27.0265C136.523 27.2257 134.681 27.7864 132.815 28.2773C131.224 28.6959 129.598 29.6867 128.023 29.9899C127.478 30.0952 127.607 30.9616 128.153 30.9438C129.012 30.9147 129.632 30.4757 130.471 30.2055C132.236 29.6334 134.063 29.2351 135.851 28.7505C138.866 27.931 143.03 27.5821 146.29 28.5133C138.727 31.28 131.708 35.6185 125.191 40.2538C121.314 43.0129 117.431 45.6236 114.166 49.0868C112.683 50.6598 111.306 52.2252 109.92 53.887C108.691 55.3586 107.312 56.598 106.444 58.3346C106.225 58.7736 106.816 59.1072 107.099 58.7152C109.371 55.5616 112.246 52.6502 114.992 49.9063C118.497 46.4038 122.489 43.6104 126.534 40.7371C133.192 36.0054 140.468 31.6961 148.267 29.1184C148.737 28.9623 148.942 28.2266 148.417 27.9805Z" fill="#4F3220"/>
<path d="M126.72 10.2852C118.032 9.25508 108.759 14.1923 103.494 20.9614C100.625 24.6542 98.1543 28.725 96.4485 33.0774C95.0892 36.5482 94.0522 40.8753 94.2273 44.5566C94.2516 45.092 95.0406 45.092 95.0662 44.5566C95.4268 36.9744 98.6581 29.8908 102.952 23.7078C105.534 19.9935 109.159 17.0567 112.991 14.6947C115.104 13.3944 117.38 12.5128 119.778 11.8836C122.05 11.2861 124.413 11.588 126.72 11.3114C127.385 11.2328 127.386 10.3638 126.72 10.2852Z" fill="#4F3220"/>
<path d="M126.735 10.5567C123.938 13.1002 120.331 14.8153 117.391 17.2421C114.468 19.6561 111.748 22.57 109.461 25.5829C105.77 30.4465 101.754 36.6549 100.779 42.7694C100.701 43.2628 101.409 43.4835 101.551 42.9799C103.164 37.2371 106.768 31.8204 110.068 26.9022C112.233 23.6724 115.347 20.6608 118.289 18.1326C121.104 15.7147 125.055 14.0846 127.484 11.3001C127.929 10.7901 127.243 10.095 126.735 10.5567Z" fill="#4F3220"/>
<path d="M95.2605 1.58051C95.5533 4.05928 94.8296 6.88437 94.639 9.28576C94.5112 10.9209 94.4524 12.7933 94.0841 14.3955C93.8884 15.2353 93.9191 16.0954 93.6864 16.9289C93.5317 17.4819 93.5061 17.5758 93.5662 17.5276C93.5074 17.6354 93.5023 17.7623 93.524 17.8841C93.8117 17.6785 94.1314 17.5124 94.515 17.4033C94.579 17.3855 94.6327 17.3944 94.694 17.3855C94.8194 16.1994 95.3091 14.96 95.4191 13.7739C95.5751 12.0715 95.6748 10.3222 95.9344 8.63243C96.3206 6.13209 96.8321 2.90615 96.2541 0.426105C96.1697 0.0671024 95.7055 -0.115568 95.3948 0.0797901C92.1737 2.09554 89.451 6.22597 88.2288 9.74242C86.4156 14.9549 85.9185 20.3552 85.3742 25.8024C85.3276 26.2604 86.0704 26.3479 86.1743 25.9103C87.2143 21.5375 87.2782 16.9999 88.495 12.6309C89.5649 8.77959 91.8872 4.0948 95.2605 1.58051Z" fill="#4F3220"/>
<path d="M149.449 63.1905C147.148 57.3589 141.28 53.8779 135.063 53.5887C131.134 53.406 127.506 53.9464 123.777 55.1579C121.961 55.7491 120.208 56.4201 118.531 57.3246C117.669 57.7889 116.468 58.2266 115.934 59.0943C115.693 59.485 116.271 59.9442 116.579 59.589C117.107 58.9813 118.348 58.531 119.019 58.153C120.6 57.2612 122.336 56.717 124.052 56.1474C127.041 55.1541 129.97 54.6543 133.123 54.6606C136.164 54.6682 138.481 55.3139 141.28 56.3656C144.971 57.7534 146.555 60.4161 148.623 63.5355C148.889 63.9402 149.643 63.6865 149.449 63.1905Z" fill="#4F3220"/>
<path d="M149.215 63.1325C147.137 62.1024 144.821 61.4313 142.691 60.4266C139.803 59.0654 136.812 58.2219 133.655 57.6662C130.437 57.0992 127.038 57.3364 123.833 57.854C121.119 58.2929 117.608 59.0972 115.353 60.7209C115.033 60.9493 115.3 61.411 115.66 61.2436C117.983 60.1666 120.856 59.6147 123.344 59.0654C126.827 58.2967 130.759 58.3639 134.251 59.0071C137.19 59.5475 139.971 60.5433 142.647 61.8335C144.559 62.7519 146.68 63.3367 148.549 64.264C149.308 64.6408 149.977 63.5105 149.215 63.1325Z" fill="#4F3220"/>
<path d="M134.891 58.3334C131.354 57.2818 127.393 58.7546 124.484 60.7665C122.358 62.2368 120.303 63.7616 118.362 65.4793C117.803 65.9727 115.821 67.2489 116.08 68.1876C116.174 68.52 116.664 68.52 116.757 68.1876C116.97 67.4189 119.194 66.0818 119.803 65.5668C121.668 63.9836 123.722 62.6199 125.736 61.2384C127.207 60.2312 129.369 59.4257 131.152 59.2075C132.419 59.054 133.678 59.3343 134.891 58.9741C135.209 58.8789 135.209 58.4298 134.891 58.3334Z" fill="#4F3220"/>
<path d="M124.327 69.3407C122.579 68.6849 120.593 68.8625 118.848 69.4486C117.745 69.8164 115.556 70.2947 114.996 71.4973C114.806 71.9045 115.188 72.2825 115.598 72.0948C116.785 71.5493 117.899 70.9632 119.141 70.5027C120.767 69.8989 122.539 69.9598 124.241 69.9674C124.624 69.9687 124.654 69.4625 124.327 69.3407Z" fill="#4F3220"/>
<path d="M169.041 91.5062C169.039 91.2931 168.943 91.1459 168.811 91.0508C165.907 85.3917 160.283 81.6038 154.656 78.9601C149.033 76.319 142.449 74.6775 136.236 74.7003C135.567 74.7028 135.581 75.6758 136.236 75.7177C147.802 76.4775 162.195 80.9974 167.916 91.9388C168.196 92.4741 169.053 92.2179 169.044 91.6356C169.043 91.5925 169.043 91.5493 169.041 91.5062Z" fill="#4F3220"/>
<path d="M142.417 61.3043C142.356 61.2802 142.294 61.2574 142.231 61.2333C141.796 61.0683 141.448 60.7639 141.27 60.3795C140.541 60.5723 139.815 60.7766 139.098 61.0024C136.947 61.6849 134.85 62.5843 132.85 63.6194C131.303 64.4186 130.049 65.6656 128.544 66.4889C127.948 66.8137 128.47 67.6408 129.066 67.3744C130.063 66.9278 130.956 66.1159 131.879 65.5337C133.944 64.2296 136.221 63.2972 138.509 62.4612C139.791 61.9931 141.098 61.6125 142.417 61.3043Z" fill="#4F3220"/>
<path d="M173.423 71.0102C168.589 64.0128 160.828 60.5903 152.512 59.4562C150.503 59.1822 148.491 59.1986 146.497 59.4067C146.599 59.4967 146.7 59.5881 146.8 59.6858C147.053 59.9369 147.172 60.2515 147.199 60.5712C148.622 60.4659 150.054 60.4494 151.49 60.5509C158.666 61.0622 165.78 64.0839 170.548 69.4106C170.364 69.3104 170.179 69.2177 169.988 69.1505C168.03 68.4591 166.152 67.4836 164.23 66.6908C160.387 65.105 156.496 64.3021 152.348 64.2615C145.351 64.193 139.453 66.7783 133.462 69.9193C132.939 70.192 133.182 71.0216 133.759 71.0089C133.803 71.0077 133.845 71.0064 133.89 71.0064C134.092 71.0013 134.235 70.9163 134.328 70.7958C136.576 69.7252 138.765 68.4807 141.095 67.5255C144.637 66.0717 148.535 65.4653 152.348 65.4653C156.384 65.4666 160.176 66.3521 163.908 67.8528C165.638 68.5492 167.312 69.4562 169.06 70.1007C170.319 70.565 171.407 71.6978 172.701 71.9388C173.201 72.0327 173.768 71.51 173.423 71.0102Z" fill="#4F3220"/>
<path d="M134.409 58.5174C134.217 58.4565 134.057 58.355 133.916 58.237C133.816 58.284 133.719 58.3309 133.622 58.3791C129.401 60.3987 125.85 63.1629 121.958 65.6911C121.603 65.9207 121.823 66.5575 122.259 66.4002C125.571 65.2103 128.511 62.3269 131.606 60.6118C132.77 59.9673 133.975 59.3381 135.203 58.733C134.937 58.6632 134.669 58.6011 134.409 58.5174Z" fill="#4F3220"/>
<path d="M171.594 53.5102C171.548 53.4899 171.503 53.476 171.457 53.457C171.457 53.457 171.457 53.4557 171.457 53.4544C171.448 53.4519 171.441 53.4493 171.431 53.4468C170.867 53.2096 170.301 53.0612 169.731 52.9825C168.535 52.6489 167.342 52.314 166.112 52.0616C164.222 51.6734 162.263 51.7381 160.343 51.6353C155.445 51.3778 150.7 52.1795 145.972 53.3808C144.027 53.8756 142.15 54.5505 140.308 55.3141C140.456 55.337 140.607 55.375 140.764 55.4473C141.109 55.6186 141.469 55.7505 141.834 55.8609C142.726 55.5323 143.616 55.2215 144.503 54.9463C148.976 53.5585 153.669 52.7415 158.354 52.7047C160.679 52.6869 162.869 52.8734 165.037 53.2147C162.818 53.4912 160.634 53.8439 158.444 54.364C154.581 55.2824 150.215 57.033 146.613 59.1668C146.874 59.4484 147.103 59.7605 147.292 60.1118C147.295 60.1182 147.296 60.1245 147.298 60.1309C150.406 58.5312 153.71 57.2703 156.994 56.1222C159.006 55.4182 161.047 54.9742 163.147 54.5961C164.898 54.2828 167.289 53.8439 169.31 54.0735C169.92 54.2206 170.535 54.3754 171.157 54.5416C171.762 54.7027 172.193 53.783 171.594 53.5102Z" fill="#4F3220"/>
<path d="M167.3 72.4587C163.516 69.4548 158.372 68.2129 153.697 67.4352C149.026 66.6576 143.293 66.2593 138.645 67.5786C138.384 67.4631 138.021 67.5887 138.001 67.9667C137.998 68.0099 137.996 68.053 137.993 68.0961C137.976 68.4095 138.297 68.5883 138.575 68.5351C143.33 67.6103 148.619 67.8792 153.377 68.5833C157.107 69.1364 161.337 70.1309 164.701 72.1264C162.905 71.9386 161.08 71.6393 159.313 71.5073C156.253 71.2777 152.921 71.5137 149.861 71.7166C145.011 72.0401 140.453 73.4026 136.01 75.2179C136.12 75.3257 136.182 75.4716 136.141 75.6339C136.143 75.6415 136.144 75.6428 136.145 75.653C136.161 75.7342 136.175 75.8179 136.185 75.9016C136.2 75.998 136.193 76.0932 136.196 76.1896C140.998 74.6863 145.623 73.1958 150.741 72.8558C153.574 72.6655 156.472 72.7201 159.313 72.7036C161.858 72.6883 164.374 73.4139 166.874 73.4786C167.364 73.4926 167.722 72.7924 167.3 72.4587Z" fill="#4F3220"/>
<path d="M152.641 52.2086C151.014 50.7739 148.755 50.439 146.694 49.9417C144.059 49.3074 141.551 49.074 138.844 48.8951C136.165 48.7188 133.573 49.3886 130.96 49.9011C128.54 50.3756 125.769 51.0923 123.833 52.6856C123.472 52.9812 123.931 53.4988 124.311 53.3021C128.258 51.2458 133.547 50.0356 137.998 49.9772C142.446 49.9214 148.116 50.7548 152.009 53.0218C152.513 53.3148 153.091 52.6069 152.641 52.2086Z" fill="#4F3220"/>
<path d="M156.238 51.1357C151.008 47.245 144.388 43.7375 137.587 45.2952C137.248 45.3726 137.32 45.9206 137.67 45.8978C144.554 45.469 150.23 48.317 155.607 52.2038C156.262 52.677 156.869 51.6063 156.238 51.1357Z" fill="#4F3220"/>
<path d="M111.166 2.75755C111.026 2.48228 110.655 2.42014 110.399 2.55841C107.1 4.34201 104.433 8.1147 102.466 11.196C100.967 13.5429 99.7179 16.0648 98.6105 18.612C97.6898 20.728 97.1617 23.0799 96.1234 25.1337C96.0607 25.1756 96.0147 25.239 96.0032 25.3215L95.984 25.4458C95.9329 25.7744 96.328 26.1055 96.6029 25.8036C97.6041 24.7024 97.9021 23.0165 98.4072 21.6629C99.3918 19.0345 100.617 16.5278 101.986 14.0795C103.927 10.6112 106.623 6.28544 110.147 4.00583C109.839 5.09552 108.744 6.95398 108.489 7.50834C108.076 8.39888 107.67 9.27798 107.314 10.1913C106.471 12.3466 105.58 14.4892 104.792 16.6648C104.394 17.7634 103.394 19.9758 103.43 21.1454C103.436 21.3293 103.499 21.2875 103.55 21.2215C103.528 21.2634 103.503 21.3116 103.465 21.3877C103.255 21.8114 103.383 22.0321 103.297 22.5687C103.296 22.5738 103.298 22.5789 103.297 22.5839C103.493 22.3873 103.7 22.1996 103.92 22.027C103.957 21.9903 103.988 21.9534 104.03 21.9192C104.067 21.89 104.098 21.8532 104.132 21.8228C104.144 21.8126 104.15 21.8 104.16 21.7898C104.33 21.6211 104.499 21.4511 104.656 21.2697C104.82 19.8844 105.563 18.2467 105.943 16.9794C106.516 15.0677 107.402 13.2042 108.12 11.3419C108.985 9.10292 109.987 6.90958 111.024 4.74414C111.384 3.99062 111.529 3.47302 111.166 2.75755Z" fill="#4F3220"/>
<path d="M64.8049 37.2028C61.7669 37.4248 59.6826 39.1361 58.6935 41.8838C57.29 45.7796 60.0073 49.8212 62.2299 52.7757C62.5347 53.1804 63.147 52.8417 62.9188 52.3748C61.5457 49.5738 59.5547 47.0164 59.5687 43.7511C59.5876 39.1437 64.2769 37.7826 68.0242 38.6503C70.9038 39.3175 73.1067 40.9362 75.3439 42.7528C77.7805 44.7317 78.278 47.4668 79.9494 49.8605C80.0882 50.0584 80.4459 50.0039 80.4358 49.7299C80.1811 42.8771 71.258 36.7284 64.8049 37.2028Z" fill="#4F3220"/>
<path d="M76.7525 42.6665C74.5651 39.7158 71.2155 40.1573 68.3143 41.9688C64.5687 44.3055 63.645 48.7607 62.3593 52.574C62.157 53.1753 63.1011 53.4226 63.3104 52.834C64.2064 50.3197 64.8373 47.9779 66.2759 45.6552C67.3298 43.9528 68.8933 42.7134 70.7604 41.9954C72.8124 41.2051 74.5452 42.0601 76.184 43.231C76.5162 43.4669 76.9972 42.995 76.7525 42.6665Z" fill="#4F3220"/>
<path d="M75.6458 61.1254C74.2601 57.6533 72.6047 54.3069 70.5203 51.1799C69.355 49.4318 67.2301 45.9864 64.7051 47.1649C64.2541 47.3754 64.5788 48.0541 65.0348 47.94C67.7111 47.2651 70.5043 53.3554 71.5133 55.2164C72.5423 57.1142 73.3505 60.0471 74.909 61.5491C75.2032 61.8333 75.8156 61.5529 75.6458 61.1254Z" fill="#4F3220"/>
<path d="M82.0092 36.5279C81.4603 35.8505 80.9683 34.3143 80.671 33.5201C80.0647 31.9078 79.0422 30.3234 78.239 28.7986C76.3459 25.2009 74.2045 21.8392 71.7055 18.6247C69.3383 15.5789 66.6255 12.8743 64.0796 9.99085C63.1351 8.92018 62.0027 8.07787 60.8458 7.25077C59.8907 6.56702 58.4482 5.07644 57.2674 4.85698C56.2164 4.66162 55.086 5.2401 55.7689 6.45919C57.632 9.77902 58.8703 13.4299 60.5266 16.8601C64.133 24.3244 67.4388 32.0233 71.3204 39.3441C71.5496 39.7754 72.3155 39.4684 72.1251 39.0079C69.6151 32.9569 66.8293 26.9947 63.9402 21.1162C62.3414 17.8623 60.637 14.5983 59.3299 11.2163C58.8808 10.0568 58.4033 8.91131 57.8937 7.77721C57.9582 7.91929 57.0342 6.15092 57.2999 6.29808C57.8843 6.62537 58.4453 7.07951 58.9932 7.46515C64.655 11.4434 69.3693 17.4119 73.2544 23.0672C75.2031 25.9037 76.772 28.9711 78.3738 32.008C79.2196 33.609 80.0073 35.9825 81.2085 37.3221C81.7016 37.8726 82.4573 37.0798 82.0092 36.5279Z" fill="#4F3220"/>
<path d="M87.0905 19.1994C85.2893 17.2547 84.5741 13.8651 83.4547 11.4955C82.629 9.74611 81.682 8.0513 80.9631 6.25375C80.62 5.39367 80.4591 4.6059 79.7794 3.94751C79.4172 3.59485 78.8848 3.87267 78.8447 4.33189C78.3977 9.48479 78.7559 14.6758 79.3298 19.8109C79.6309 22.4964 80.1145 25.2048 80.6754 27.8485C81.028 29.5078 81.2699 31.9789 82.3492 33.3452C82.6699 33.7499 83.2119 33.2348 83.0216 32.8301C82.177 31.0415 81.9212 28.6058 81.5326 26.6738C80.9691 23.8677 80.5466 20.9513 80.2794 18.1047C79.9017 14.0858 79.6395 10.0455 79.8323 6.0254C80.2658 6.96541 80.616 8.09697 80.9077 8.7858C81.5925 10.3981 82.4661 11.9204 83.1515 13.534C84.0281 15.5955 84.7444 18.3178 86.2959 19.9885C86.7878 20.5187 87.5801 19.7284 87.0905 19.1994Z" fill="#4F3220"/>
<path d="M71.1963 60.8703C70.7492 59.0157 69.2522 57.5365 68.1598 56.0155C66.7127 53.9998 65.2971 51.9663 63.7522 50.0216C63.7956 50.5899 63.5609 51.0428 63.2017 51.332C64.385 52.8112 65.4954 54.3436 66.6028 55.8849C67.787 57.534 69.6597 59.206 70.3795 61.0936C70.5698 61.5934 71.3255 61.4057 71.1963 60.8703Z" fill="#4F3220"/>
<path d="M59.0093 44.6849C59.0093 44.6633 59.0208 44.6443 59.0218 44.6227C56.7576 42.2403 54.365 39.9709 51.8579 37.8778C47.9193 34.5909 43.768 32.5752 38.7664 31.4855C34.5851 30.5747 30.8818 30.822 26.9842 31.8128C28.5387 30.6571 29.9846 29.8008 31.9068 29.1615C35.3444 28.016 39.0536 27.695 42.6536 27.8891C49.775 28.2722 58.1907 31.7646 62.6561 37.5137C63.1667 38.1721 64.3131 37.5276 63.7965 36.854C59.1251 30.7751 51.0267 27.4946 43.6182 26.637C39.3248 26.1397 34.8618 26.7753 30.7804 28.1365C29.4217 28.5894 28.0332 29.2452 26.9002 30.1193C25.8942 30.8956 24.2769 31.8166 23.6656 32.9672C23.4057 33.4543 23.8333 34.1393 24.4222 33.9452C29.0891 32.4065 33.5406 31.5946 38.4038 32.7934C40.9977 33.4327 43.4178 33.9972 45.7915 35.2861C48.1516 36.5674 50.3384 38.2799 52.357 40.0267C54.8669 42.1998 57.1787 44.5555 59.4113 46.9899C59.1602 46.2617 58.9923 45.5069 59.0093 44.6849Z" fill="#4F3220"/>
<path d="M57.4865 76.7578C57.5149 76.7248 57.5405 76.6804 57.5675 76.6449C57.6234 76.4812 57.6907 76.3214 57.7707 76.1717C57.8031 76.1108 57.8561 75.9675 57.8916 75.8761C52.7613 75.2165 46.9969 77.1866 42.4699 78.9511C39.5194 80.1004 36.871 81.6887 34.2641 83.4647C32.9565 84.3565 31.6577 85.2534 30.404 86.2187C29.6462 86.8023 28.8761 87.7017 28.0558 88.4184C30.5864 81.761 36.1762 75.8761 42.1602 72.2836C47.529 69.0614 54.6073 67.345 61.1529 67.1104C61.2982 66.7488 61.4585 66.4101 61.7892 66.1513C61.8516 66.1031 61.9176 66.0689 61.9841 66.0295C59.2991 65.9204 56.5304 66.4203 53.9315 66.9023C49.515 67.7218 45.4335 68.9828 41.514 71.1863C34.7012 75.0135 28.4404 82.2709 26.2301 89.7834C26.1033 90.2096 26.5563 90.764 27.0223 90.5711C29.0998 89.7123 30.8485 87.4404 32.6643 86.1198C35.1338 84.3235 37.7153 82.5982 40.446 81.218C43.3606 79.7452 46.6397 78.587 49.8391 77.9172C52.3916 77.3832 54.7347 77.2297 57.1658 77.3122C57.2287 77.1244 57.3307 76.9379 57.4865 76.7578Z" fill="#4F3220"/>
<path d="M55.8107 82.5806C55.8077 82.5806 55.8057 82.5806 55.8027 82.5793C55.8077 82.5628 55.8132 82.5476 55.8187 82.5324C55.8712 82.2178 55.9411 81.9108 56.048 81.5949C47.3286 83.1679 39.6867 88.0329 33.6287 94.292C35.1597 89.5995 40.0294 86.1313 43.5679 83.0931C46.1798 80.8515 49.2912 78.4907 52.574 76.749C51.8591 76.7617 51.1469 76.7706 50.4491 76.8061C50.3456 76.8112 50.2492 76.8036 50.1568 76.7921C47.4285 78.3816 44.8815 80.4215 42.7207 82.252C38.3846 85.9258 32.6243 90.178 31.9799 96.2912C31.9244 96.8151 32.6822 97.0917 33.0179 96.7175C39.1963 89.8254 46.2407 85.5972 55.1763 83.0411C55.3691 82.9853 55.5664 82.951 55.7603 82.9015C55.7758 82.7924 55.7952 82.6871 55.8107 82.5806Z" fill="#4F3220"/>
<path d="M77.4188 91.2297C76.9173 91.8614 77.17 91.5126 76.8314 90.4711C76.4557 89.3192 75.8634 88.3183 75.244 87.2806C74.2629 85.6366 72.3684 84.5811 70.8313 83.5257C68.9062 82.2026 66.709 81.5112 64.4357 81.2207C64.3343 81.4262 64.187 81.6178 63.9726 81.7789C63.7164 81.9717 63.4627 82.167 63.209 82.3624C65.4217 82.6022 67.5871 83.1908 69.5596 84.2005C71.4747 85.1811 73.4357 86.7567 74.5362 88.5936C75.2799 89.8381 75.4932 91.9071 76.5607 92.9067C76.7485 93.0818 77.0572 93.1477 77.2839 92.9993C77.732 92.7037 78.0092 92.3498 78.3269 91.9248C78.7185 91.4035 77.8239 90.7197 77.4188 91.2297Z" fill="#4F3220"/>
<path d="M28.8528 85.1114C26.0706 85.5173 23.3134 85.9258 20.599 86.7821C17.7184 87.6891 14.8967 88.8968 12.2438 90.3303C11.8353 90.551 11.4267 90.7882 11.0225 91.0331C13.5904 88.6532 16.4481 86.5322 19.1989 84.5317C21.4692 82.8787 23.9722 81.4706 26.5011 80.249C28.084 79.4841 29.7608 78.8143 31.4397 78.2827C32.3968 77.9783 33.3878 78.1787 34.3109 77.8514C35.0336 77.5952 34.7229 76.4471 33.9932 76.7059C33.183 76.9926 31.9817 76.9482 31.1205 77.1372C29.6329 77.4632 28.171 78.2345 26.7764 78.8371C23.627 80.197 20.6485 82.0123 17.8838 84.0242C13.2214 87.4176 8.35123 91.1891 5.0855 95.9919C4.73436 96.5094 5.40518 97.0701 5.9026 96.8025C6.60795 96.4232 7.09348 95.9183 7.58643 95.2865C8.56299 94.0357 10.0485 93.0957 11.3628 92.2318C14.0321 90.4774 17.0595 89.2913 20.054 88.213C22.7089 87.2553 25.4147 86.7834 28.183 86.3812C28.3668 85.9208 28.589 85.5021 28.8528 85.1114Z" fill="#4F3220"/>
<path d="M55.7845 83.4394C54.4488 83.3303 53.1007 83.253 51.748 83.2035C51.6851 83.2669 51.6097 83.3252 51.5148 83.376C51.0387 83.6297 50.5572 83.8657 50.0716 84.0915L49.9503 84.1511C49.9379 84.1574 49.9269 84.1549 49.9164 84.1613C49.8024 84.2133 49.6876 84.2627 49.5747 84.3135C51.682 84.4302 53.777 84.5888 55.8534 84.7308C55.8259 84.3008 55.8059 83.8695 55.7845 83.4394Z" fill="#4F3220"/>
<path d="M75.2733 90.9355C73.3428 89.1405 71.7144 87.674 69.2404 86.5374C66.8757 85.4502 64.56 84.7563 62.084 84.2717C61.9522 84.6117 61.8288 84.9568 61.7119 85.3031C63.5855 85.6431 65.4132 86.1606 67.2094 86.8761C70.178 88.0584 72.187 89.8534 74.7354 91.6281C75.153 91.9186 75.6365 91.2729 75.2733 90.9355Z" fill="#4F3220"/>
<path d="M41.3422 83.895C41.461 83.7808 41.5729 83.6869 41.6868 83.5918C41.7628 83.4548 41.8726 83.3355 42.0311 83.2467C41.6208 83.2619 41.2078 83.2746 40.8012 83.2924C38.2862 83.404 35.8657 83.914 33.4136 84.3707C32.9521 84.8007 32.5195 85.2574 32.1514 85.7572C34.7272 85.3069 37.2892 84.7982 39.8892 84.4734C40.2797 84.4252 40.6764 84.4011 41.0705 84.3643C41.1154 84.2007 41.1903 84.0396 41.3422 83.895Z" fill="#4F3220"/>
<path d="M99.1528 91.1688C98.5237 89.2583 97.6989 88.3095 95.6798 87.9695C95.2067 87.8908 94.8448 88.5391 95.3307 88.7877C95.9036 89.082 96.5698 89.148 97.0826 89.5704C97.759 90.1298 97.9572 91.3844 98.2462 92.1798C98.8012 93.7097 98.3459 95.6874 98.6695 97.2731C98.7308 97.5737 99.14 97.5192 99.2283 97.2731C99.8804 95.4426 99.7538 92.9841 99.1528 91.1688Z" fill="#4F3220"/>
<path d="M77.1888 102.228C75.4935 100.724 74.7407 97.4419 74.8286 95.2955C74.874 94.1588 74.9694 93.0196 75.2607 91.9185C75.3816 91.4619 76.0214 90.976 76.2528 90.4863C76.2947 90.3988 76.3157 90.2833 76.2528 90.1971C76.2382 90.1755 76.2232 90.1565 76.2083 90.1349C76.0794 89.9561 75.8071 89.8241 75.5983 89.9764C73.6149 91.4263 73.6788 93.645 73.5579 96.0325C73.465 97.8617 74.6423 102.199 76.4975 103.117C77.0515 103.391 77.6948 102.678 77.1888 102.228Z" fill="#4F3220"/>
<path d="M41.6921 71.9577C42.0323 71.7433 42.402 71.5214 42.7846 71.2981C37.4888 70.8211 32.1147 71.0253 26.9089 71.9324C22.6391 72.6757 18.2675 73.5257 14.2026 75.0454C12.5662 75.6581 10.8958 76.2506 9.36939 77.1018C9.04268 77.2832 8.72351 77.4823 8.40536 77.6815C8.64512 77.3897 8.86839 77.084 9.12707 76.8062C14.6746 70.5966 24.3994 68.4058 32.3 67.1562C37.1102 66.3951 42.0953 66.7605 46.9299 67.0966C48.4924 67.2057 50.0448 67.33 51.6004 67.4683C52.7672 67.1537 53.932 66.9342 55.0669 66.8416C54.8446 66.7998 54.6318 66.7503 54.3935 66.7211C51.5629 66.3735 48.7586 66.13 45.9159 65.913C40.2517 65.483 34.6971 65.4246 29.1027 66.4864C21.1456 67.9973 10.3004 70.9188 6.08409 78.6367C5.98026 78.8296 5.95276 79.0947 6.08409 79.2837C6.14508 79.3699 6.20352 79.4562 6.26349 79.5425C6.43523 79.7911 6.69404 79.9053 6.99428 79.8381C8.11112 79.5856 9.06518 78.8004 10.0227 78.2118C11.6226 77.2286 13.6031 76.6362 15.3659 75.9766C19.1422 74.5621 23.296 73.8923 27.2515 73.1629C30.889 72.4931 34.7551 72.2394 38.4554 72.3218C39.3954 72.3421 40.329 72.403 41.2626 72.4817C41.3381 72.2863 41.4644 72.1011 41.6921 71.9577Z" fill="#4F3220"/>
<path d="M65.2793 62.2112C57.5836 57.8867 49.1115 55.5386 40.3153 54.3525C35.061 53.6434 29.7658 53.4987 24.4699 53.5089C21.9455 53.514 19.4155 53.5254 16.9095 53.8387C16.0609 53.944 15.2152 54.0861 14.3716 54.2244C19.1988 52.1236 24.1269 50.3451 29.5245 50.3451C34.4266 50.3438 39.1679 50.4098 44.0605 50.8449C49.7383 51.3498 55.2633 53.0395 60.7768 54.3626C63.085 54.917 65.2754 55.7124 67.5121 56.4748C67.6769 56.5306 67.8553 56.622 68.0367 56.7234C67.5786 56.1437 67.1115 55.5703 66.6191 55.0172C63.8438 54.0747 61.0676 53.3021 58.2229 52.5587C52.1474 50.9692 46.1399 49.8719 39.8892 49.2554C34.2752 48.701 28.7583 49.0575 23.2027 49.91C20.4041 50.3388 17.8076 51.2306 15.2337 52.3773C14.1942 52.8404 11.1347 53.7271 11.1727 55.2138C11.1792 55.4828 11.3571 55.7454 11.6297 55.8101C12.7412 56.0739 14.0849 55.517 15.1868 55.342C17.978 54.898 20.7157 54.7825 23.5359 54.7546C28.7633 54.7026 33.973 54.8663 39.1689 55.4549C44.0685 56.008 49.012 56.9975 53.7259 58.436C57.3617 59.5447 60.6764 61.3829 64.048 63.1056C64.4107 62.7618 64.8148 62.4675 65.2793 62.2112Z" fill="#4F3220"/>
<path d="M51.6057 67.1486C51.9543 67.0902 52.3054 67.0459 52.666 67.0256C53.0142 67.0078 53.2885 67.179 53.4762 67.4213C53.5537 67.4264 53.6302 67.4264 53.7036 67.448C53.738 67.4366 53.7699 67.4353 53.8045 67.4264C51.0722 65.0073 47.696 63.3531 44.224 62.2037C39.3299 60.5838 34.2895 59.2315 29.1775 58.5135C24.154 57.8056 19.0121 57.642 13.9447 57.7739C11.6505 57.8336 9.38523 57.968 7.13096 58.4057C5.36619 58.7495 3.67035 59.3913 1.94407 59.8721C2.65696 59.1972 3.73684 58.5122 4.0046 58.3055C5.18986 57.3972 6.44915 56.5891 7.75127 55.8584C10.2259 54.4706 13.0011 54.4313 15.6565 53.7526C16.3603 53.5712 16.0516 52.5779 15.3612 52.6921C11.7748 53.2832 8.76326 53.7018 5.56401 55.6554C4.06944 56.5675 -0.00995581 58.738 1.82574e-05 60.8527C0.0030872 61.2917 0.409081 61.5517 0.817762 61.4705C2.47959 61.1407 4.13989 60.5102 5.77283 60.0472C8.2134 59.3571 10.6509 59.2442 13.1625 59.1008C18.1244 58.8205 23.1255 59.1516 28.0641 59.6413C32.9293 60.1246 37.6456 61.5175 42.3169 62.8837C44.713 63.584 46.9963 64.5519 49.2241 65.6695C50.0716 66.0932 50.8464 66.6107 51.6057 67.1486Z" fill="#4F3220"/>
<path d="M62.0755 64.0623C60.2878 62.1024 57.6205 60.7108 55.3991 59.271C52.7743 57.5685 49.6454 57.0814 46.7718 55.9549C46.3587 55.7938 46.0914 56.4548 46.4731 56.6577C48.9496 57.9745 51.7193 58.5936 54.1534 59.9915C56.6479 61.4225 59.0875 63.2352 61.3653 64.977C61.9157 65.3981 62.5012 64.5279 62.0755 64.0623Z" fill="#4F3220"/>
<path d="M63.4265 54.1508C63.3366 53.9897 63.1517 53.8831 62.9659 53.8691C63.4155 53.9009 61.7736 52.2949 61.7272 52.2505C60.7042 51.3028 59.2961 50.5582 58.0928 49.8491C55.397 48.2583 52.6182 46.8172 49.6802 45.7338C43.6602 43.5139 36.5792 42.8669 30.2335 43.6547C28.9773 43.8107 27.7744 44.0834 26.5617 44.4348C25.9333 44.6162 25.306 44.8141 24.6575 44.9207C24.1411 45.0057 23.2554 45.5296 24.0182 45.0628C26.8339 43.3413 29.9802 42.0842 33.1341 41.1036C36.3434 40.1065 39.824 39.3897 43.1831 39.2908C45.1802 39.2299 47.0253 39.1639 49.0023 39.6409C50.4498 39.991 52.1842 39.9505 53.5004 40.6431C53.7491 40.7738 54.1602 40.6165 54.1227 40.2879C54.1182 40.2448 54.1132 40.2016 54.1083 40.1585C54.0782 39.8959 53.885 39.7741 53.6951 39.7805C53.0813 39.3631 52.373 39.1551 51.6062 39.079C49.5098 38.8709 47.4838 38.2303 45.3645 38.0349C41.8404 37.7127 38.0343 38.7098 34.6496 39.5115C31.1311 40.3424 27.4588 41.6516 24.3399 43.4885C23.5811 43.935 21.2894 45.1833 22.8979 46.0967C23.4852 46.4316 24.3973 46.1271 25.0267 46.051C27.0921 45.7998 29.0627 45.0057 31.1601 44.7583C35.6596 44.2255 40.2166 44.9093 44.6167 45.7288C48.7586 46.4988 52.1367 48.3268 55.845 50.1814C57.7437 51.1316 59.7891 52.2974 61.4145 53.6611C61.9529 54.1127 62.0493 54.3487 62.4614 54.7571C62.6163 54.9106 62.6807 54.9525 62.6996 54.9411C62.7192 54.9538 62.7357 54.9715 62.7572 54.9817C63.0258 55.2367 63.5554 55.1263 63.5887 54.6442C63.5923 54.6011 63.5953 54.558 63.5983 54.5161C63.6088 54.3626 63.5349 54.2383 63.4265 54.1508Z" fill="#4F3220"/>
</svg>
